<svg xmlns="http://www.w3.org/2000/svg" viewBox="0 0 480.2 82.701"><g fill="#0154A0"><path d="M366.9 0h32.4l24.2 24.7L447.8 0h32.4l-40.4 41.3 40.4 41.3h-32.3l-24.3-24.8-9.5 9.7L397.9 51l9.5-9.7zM85.4.2c3.5 0 6.6 1.5 8.8 3.7 2.3 2.4 3.6 5.8 3.6 9.1v69.7h-26L52.5 62.8h19.3V43L33 82.7H0C22.9 59.2 50 31.2 76.7 3.8 78.9 1.6 82 .2 85.4.2zM108.9 2.9C111.2 1 114.1 0 117 .1c3.1.1 6.1 1.4 8.2 3.7l35.6 36.4V.3h24.6v70c0 3.8-2 7.6-5.1 9.9-3.5 2.5-8.3 3.3-12.3 1.6-1.8-.7-3.3-1.9-4.6-3.3l-34.6-35.3v39.5h-24.6v-70c.1-3.7 1.8-7.4 4.7-9.8zM192.1.2l24.6.1v82.3h-24.6V.2zm2.8 12.5c0 5.2 4.2 9.5 9.5 9.5 5.2 0 9.5-4.3 9.5-9.5s-4.3-9.5-9.5-9.5c-5.3 0-9.5 4.3-9.5 9.5zM235.3.2c2.5 0 5.4.6 8.5 3.3l25.6 26.1 24.8-25.3c1.7-1.6 3.6-3 5.9-3.7 7.2-2.3 15.4 3.6 15.7 11.1l.1 70.9h-24.6V43.2l-21.7 22-21.8-22v39.4l-24.6.1V12.9c0-6.7 5.2-12.7 12.1-12.7zM332.1.5c3.3-.7 6.9 0 9.6 1.9 1.2.8 2.1 1.9 3.1 2.9l75.4 77.4h-32.9l-38.9-39.6v19.6l19.3.1-19.3 19.9h-25.9V13c0-1.8.3-3.6 1.1-5.3 1.4-3.6 4.7-6.3 8.5-7.2z"/></g></svg>