<svg xmlns="http://www.w3.org/2000/svg" viewBox="0 0 519.56 305.35"><defs><style>.cls-1{fill:#5d2e8f;}.cls-2{fill:#fff;}</style></defs><title>BS 5</title><g id="Layer_2" data-name="Layer 2"><g id="Layer_1-2" data-name="Layer 1"><path class="cls-1" d="M360,151.13H481.11c23.75,0,38.45-18.89,38.45-36.88V5.66H398.36c-23.75,0-38.45,18.89-38.45,36.88V151.13Z"/><path class="cls-2" d="M439.55,121.89A27.68,27.68,0,0,1,412.4,98.56h13.85a14.13,14.13,0,1,0,13.31-19H423.31c-6.64,0-10.74-5.14-10.74-13.39V45.84c0-6.73,5-10.94,13.13-10.94h37.74l-4,14.38H427.7V65.85h11.85c15.2,0,27.52,12.55,27.52,28A27.78,27.78,0,0,1,439.55,121.89Z"/><path class="cls-2" d="M0,0V305.35H268.94c24,0,45.86-9.1,61.6-25.62,14.37-15.08,22.61-35.2,22.61-55.2V0Z"/><path class="cls-1" d="M0,0V305.35H268.94c24,0,45.86-9.1,61.6-25.62,14.37-15.08,22.61-35.2,22.61-55.2V0ZM349.13,4V151.15H4V4Z"/><path class="cls-1" d="M69.37,50.34A38.18,38.18,0,0,0,38.66,65.67V28.38a3.61,3.61,0,0,0-7.21,0V89.47a37.49,37.49,0,0,0,37.93,36.91c22.7,0,37.93-19.79,37.93-38.28C107.3,64.78,87.61,50.34,69.37,50.34Zm-.1,68.45A30.68,30.68,0,1,1,99.78,88.11,30.63,30.63,0,0,1,69.27,118.79Zm118.5-30.43A3.52,3.52,0,0,1,184,92H144.45a3.75,3.75,0,0,1,0-7.49h35.65a30.56,30.56,0,1,0-4.22,19.74,3.69,3.69,0,0,1,2.39-1.61,3.64,3.64,0,0,1,2.78.56,3.72,3.72,0,0,1,1.08,5.13,38,38,0,1,1,5.67-20ZM209,120.23v0c-.21,2.89-3.25,6.1-7.27,6.12h0c-4.07,0-7-3.17-7.28-6.12V56.69a7.25,7.25,0,0,1,7.28-6.18h0c4,0,7.06,3.24,7.27,6.12Zm96.57,4.11a26.23,26.23,0,0,1-9.92,2,23.6,23.6,0,0,1-18.89-9.74c-2.72-4.12-28.24-44.44-29.33-46.23-.07-.13-2.84-5.86-8.31-5.55-9.46.85-9,8.76-9,9.1v45.78c0,3.6-3.27,6.63-7.15,6.65h0c-4.22,0-7.08-3-7.31-5.84V72.7c0-.16.34-14.84,14.35-20.6,14.28-5.31,25.18,2.68,29,9.34l29.22,46c.18.29,4.27,6.89,12.24,3.1a8.59,8.59,0,0,0,4.67-7.18V56.53a7.3,7.3,0,0,1,7.21-6.17h0c4,0,7,3.15,7.21,6.07v46.92C319.6,103.45,320.3,118.34,305.58,124.34Z"/><path class="cls-2" d="M51.38,219.8c-5.07,0-8.73-1.09-10.87-3.25a5.82,5.82,0,0,1-1.82-3.9,11.11,11.11,0,0,1,2.72-7.6c2.18-2.35,5.55-3.54,10-3.54,4.26,0,7.49,1.18,9.63,3.5,3.26,3.54,2.88,8.61,2.87,8.72a3.62,3.62,0,0,0,7.24,0c0-19.22-19-19.44-19.77-19.44h-.1c-19.27,0-19.83,16.36-19.83,18.23,0,5.44,4.2,14.64,20,14.64,5.32,0,9.13,1.15,11.34,3.42a6.88,6.88,0,0,1,2,5,10,10,0,0,1-2.64,7.1c-2.26,2.32-5.8,3.5-10.55,3.5h-.08c-4.27,0-7.56-1.21-9.77-3.56a11.33,11.33,0,0,1-2.9-7.9,3.67,3.67,0,0,0-7.33,0,17.76,17.76,0,0,0,5,12.95,20.5,20.5,0,0,0,14.89,5.87c15.33,0,20.77-9.66,20.77-17.94C72.12,226,64,219.8,51.38,219.8Zm247.47,0c-5.07,0-8.73-1.09-10.87-3.25a5.83,5.83,0,0,1-1.82-3.9,11.05,11.05,0,0,1,2.72-7.6c2.18-2.35,5.55-3.54,10-3.54,4.24,0,7.48,1.18,9.62,3.5,3.26,3.54,2.88,8.62,2.87,8.72a3.61,3.61,0,0,0,7.23,0c0-19.22-19-19.44-19.77-19.44h-.09c-19.28,0-19.83,16.37-19.83,18.23,0,5.44,4.2,14.64,20,14.64,5.31,0,9.12,1.15,11.33,3.43a6.88,6.88,0,0,1,2,5,10,10,0,0,1-2.65,7.1c-2.25,2.32-5.8,3.51-10.55,3.51h-.08c-4.27,0-7.56-1.21-9.77-3.56a11.33,11.33,0,0,1-2.9-7.9,3.67,3.67,0,0,0-7.33,0,17.77,17.77,0,0,0,5,12.95,20.52,20.52,0,0,0,14.89,5.87c15.33,0,20.77-9.66,20.77-17.94C319.6,226,311.45,219.8,298.85,219.8ZM99.56,194.3c-11.69,0-19.84,8.2-19.84,19.92l0,34.51a3.7,3.7,0,1,0,7.4,0V234.11H99.56a19.91,19.91,0,0,0,0-39.81Zm-.07,32.5H87.15l0-12.61c0-7.6,5-12.71,12.37-12.71a12.66,12.66,0,1,1,0,25.31Zm55.3-32.5a29.63,29.63,0,1,0,29.62,29.64A29.67,29.67,0,0,0,154.79,194.3Zm0,52.07a22.44,22.44,0,1,1,22.42-22.43A22.47,22.47,0,0,1,154.79,246.37Zm62.63-13.46a20,20,0,0,0-7.34-38.61c-11.75,0-20,8.24-20,20l0,34.4a3.72,3.72,0,0,0,7.44,0V234.33h11.82l9.85,16.08a3.76,3.76,0,1,0,6.51-3.75ZM197.59,227l0-12.68c0-7.65,5-12.79,12.45-12.79A12.74,12.74,0,1,1,210,227Zm77.2-27.84a3.71,3.71,0,0,1-3.7,3.72H258.22v45.84a3.72,3.72,0,0,1-7.45,0V202.88H237.9a3.72,3.72,0,0,1,0-7.44h33.18A3.71,3.71,0,0,1,274.79,199.16Z"/></g></g></svg>