<?xml version="1.0" encoding="UTF-8" standalone="no"?>
<!-- Created with Inkscape (http://www.inkscape.org/) -->

<svg
   xmlns:dc="http://purl.org/dc/elements/1.1/"
   xmlns:cc="http://creativecommons.org/ns#"
   xmlns:rdf="http://www.w3.org/1999/02/22-rdf-syntax-ns#"
   xmlns:svg="http://www.w3.org/2000/svg"
   xmlns="http://www.w3.org/2000/svg"
   xmlns:xlink="http://www.w3.org/1999/xlink"
   xmlns:sodipodi="http://sodipodi.sourceforge.net/DTD/sodipodi-0.dtd"
   xmlns:inkscape="http://www.inkscape.org/namespaces/inkscape"
   width="198.41177mm"
   height="33.124924mm"
   viewBox="0 0 198.41177 33.124924"
   version="1.1"
   id="svg8"
   inkscape:version="0.92.3 (2405546, 2018-03-11)"
   sodipodi:docname="beritasatu.svg">
  <defs
     id="defs2">
    <linearGradient
       id="linearGradient344"
       inkscape:collect="always">
      <stop
         id="stop338"
         offset="0"
         style="stop-color:#d40000;stop-opacity:1" />
      <stop
         style="stop-color:#d47f86;stop-opacity:1;"
         offset="0.65097278"
         id="stop340" />
      <stop
         id="stop342"
         offset="1"
         style="stop-color:#cccccc;stop-opacity:1" />
    </linearGradient>
    <linearGradient
       inkscape:collect="always"
       id="linearGradient257">
      <stop
         style="stop-color:#ececec;stop-opacity:1;"
         offset="0"
         id="stop253" />
      <stop
         style="stop-color:#ececec;stop-opacity:0;"
         offset="1"
         id="stop255" />
    </linearGradient>
    <linearGradient
       inkscape:collect="always"
       id="linearGradient169">
      <stop
         style="stop-color:#b3b3b3;stop-opacity:1;"
         offset="0"
         id="stop165" />
      <stop
         id="stop173"
         offset="0.5187031"
         style="stop-color:#ffffff;stop-opacity:1" />
      <stop
         style="stop-color:#b3b3b3;stop-opacity:1"
         offset="1"
         id="stop167" />
    </linearGradient>
    <linearGradient
       inkscape:collect="always"
       id="linearGradient150">
      <stop
         style="stop-color:#d40000;stop-opacity:1"
         offset="0"
         id="stop146" />
      <stop
         id="stop161"
         offset="0.53374124"
         style="stop-color:#d47f86;stop-opacity:1;" />
      <stop
         style="stop-color:#999999;stop-opacity:1"
         offset="1"
         id="stop148" />
    </linearGradient>
    <linearGradient
       id="linearGradient3881">
      <stop
         id="stop3883"
         offset="0"
         style="stop-color:#ed99a7;stop-opacity:1" />
      <stop
         style="stop-color:#e48d95;stop-opacity:1"
         offset="0.1"
         id="stop3885" />
      <stop
         style="stop-color:#da7f83;stop-opacity:1"
         offset="0.2"
         id="stop3887" />
      <stop
         style="stop-color:#d07173;stop-opacity:1"
         offset="0.30000001"
         id="stop3889" />
      <stop
         style="stop-color:#c76565;stop-opacity:1"
         offset="0.40000001"
         id="stop3891" />
      <stop
         style="stop-color:#c05c5b;stop-opacity:1"
         offset="0.5"
         id="stop3893" />
      <stop
         style="stop-color:#ba5251;stop-opacity:1"
         offset="0.60000002"
         id="stop3895" />
      <stop
         style="stop-color:#b44948;stop-opacity:1"
         offset="0.69999999"
         id="stop3897" />
      <stop
         style="stop-color:#ae403f;stop-opacity:1"
         offset="0.80000001"
         id="stop3899" />
      <stop
         style="stop-color:#aa393a;stop-opacity:1"
         offset="0.89999998"
         id="stop3901" />
      <stop
         id="stop3903"
         offset="1"
         style="stop-color:#a63436;stop-opacity:1" />
    </linearGradient>
    <linearGradient
       id="linearGradient3087">
      <stop
         style="stop-color:#ad2837;stop-opacity:1"
         offset="0"
         id="stop3089" />
      <stop
         id="stop3091"
         offset="0.1"
         style="stop-color:#ad2837;stop-opacity:1" />
      <stop
         id="stop3093"
         offset="0.2"
         style="stop-color:#a82636;stop-opacity:1" />
      <stop
         id="stop3095"
         offset="0.30000001"
         style="stop-color:#9f2233;stop-opacity:1" />
      <stop
         id="stop3097"
         offset="0.40000001"
         style="stop-color:#942030;stop-opacity:1" />
      <stop
         id="stop3099"
         offset="0.5"
         style="stop-color:#881a2c;stop-opacity:1" />
      <stop
         id="stop3101"
         offset="0.60000002"
         style="stop-color:#901f30;stop-opacity:1" />
      <stop
         id="stop3103"
         offset="0.69999999"
         style="stop-color:#982134;stop-opacity:1" />
      <stop
         id="stop3105"
         offset="0.80000001"
         style="stop-color:#9d2437;stop-opacity:1" />
      <stop
         id="stop3107"
         offset="0.89999998"
         style="stop-color:#9d2437;stop-opacity:1" />
      <stop
         style="stop-color:#9d2437;stop-opacity:1"
         offset="1"
         id="stop3109" />
    </linearGradient>
    <linearGradient
       id="linearGradient3059">
      <stop
         id="stop3061"
         offset="0"
         style="stop-color:#c6c8c9;stop-opacity:1" />
      <stop
         style="stop-color:#c6c8c9;stop-opacity:1"
         offset="0.1"
         id="stop3083" />
      <stop
         style="stop-color:#c6c8c9;stop-opacity:1"
         offset="0.2"
         id="stop3081" />
      <stop
         style="stop-color:#cccdcd;stop-opacity:1"
         offset="0.30000001"
         id="stop3079" />
      <stop
         style="stop-color:#d6d7d8;stop-opacity:1"
         offset="0.40000001"
         id="stop3077" />
      <stop
         style="stop-color:#dfe1e2;stop-opacity:1"
         offset="0.5"
         id="stop3075" />
      <stop
         style="stop-color:#eaebeb;stop-opacity:1"
         offset="0.60000002"
         id="stop3073" />
      <stop
         style="stop-color:#f2f3f3;stop-opacity:1"
         offset="0.69999999"
         id="stop3071" />
      <stop
         style="stop-color:#fafafa;stop-opacity:1"
         offset="0.80000001"
         id="stop3069" />
      <stop
         style="stop-color:#ffffff;stop-opacity:1"
         offset="0.89999998"
         id="stop3067" />
      <stop
         id="stop3063"
         offset="1"
         style="stop-color:#ffffff;stop-opacity:1" />
    </linearGradient>
    <linearGradient
       id="linearGradient3045">
      <stop
         id="stop3047"
         offset="0"
         style="stop-color:#ffffff;stop-opacity:1" />
      <stop
         style="stop-color:#ffffff;stop-opacity:1"
         offset="0.25"
         id="stop3057" />
      <stop
         style="stop-color:#fefdfe;stop-opacity:1"
         offset="0.5"
         id="stop3055" />
      <stop
         style="stop-color:#f8f9f9;stop-opacity:1"
         offset="0.75"
         id="stop3053" />
      <stop
         id="stop3049"
         offset="1"
         style="stop-color:#f3f3f3;stop-opacity:1" />
    </linearGradient>
    <linearGradient
       inkscape:collect="always"
       xlink:href="#linearGradient150"
       id="linearGradient152"
       x1="1085.9479"
       y1="1709.2963"
       x2="1084.9669"
       y2="1582.5281"
       gradientUnits="userSpaceOnUse"
       gradientTransform="matrix(0.65144452,0,0,0.76986961,329.14945,375.51829)" />
    <linearGradient
       inkscape:collect="always"
       xlink:href="#linearGradient169"
       id="linearGradient171"
       x1="1464.5288"
       y1="1605.6282"
       x2="1464.7714"
       y2="1765.3425"
       gradientUnits="userSpaceOnUse"
       gradientTransform="matrix(1,0,0,1.0001267,-1.5811961e-4,-0.20675536)" />
    <linearGradient
       inkscape:collect="always"
       xlink:href="#linearGradient257"
       id="linearGradient259"
       x1="1093.5638"
       y1="1296.3434"
       x2="1091.9362"
       y2="1338.1572"
       gradientUnits="userSpaceOnUse" />
    <linearGradient
       inkscape:collect="always"
       xlink:href="#linearGradient344"
       id="linearGradient334"
       gradientUnits="userSpaceOnUse"
       gradientTransform="matrix(0.65144452,0,0,0.76986961,329.14945,375.51829)"
       x1="1082.4667"
       y1="1708.2504"
       x2="1083.3002"
       y2="1619.8608" />
    <linearGradient
       inkscape:collect="always"
       xlink:href="#linearGradient169"
       id="linearGradient336"
       gradientUnits="userSpaceOnUse"
       gradientTransform="matrix(1,0,0,1.0001267,-1.5811961e-4,-0.20675536)"
       x1="1467.3572"
       y1="1584.4176"
       x2="1469.014"
       y2="1778.0688" />
  </defs>
  <sodipodi:namedview
     id="base"
     pagecolor="#ffffff"
     bordercolor="#666666"
     borderopacity="1.0"
     inkscape:pageopacity="0.0"
     inkscape:pageshadow="2"
     inkscape:zoom="0.70710678"
     inkscape:cx="296.05489"
     inkscape:cy="-203.57734"
     inkscape:document-units="mm"
     inkscape:current-layer="g284"
     showgrid="false"
     showguides="true"
     inkscape:guide-bbox="true"
     inkscape:window-width="1366"
     inkscape:window-height="745"
     inkscape:window-x="-8"
     inkscape:window-y="-8"
     inkscape:window-maximized="1"
     fit-margin-top="0"
     fit-margin-left="0"
     fit-margin-right="0"
     fit-margin-bottom="0" />
  <metadata
     id="metadata5">
    <rdf:RDF>
      <cc:Work
         rdf:about="">
        <dc:format>image/svg+xml</dc:format>
        <dc:type
           rdf:resource="http://purl.org/dc/dcmitype/StillImage" />
        <dc:title></dc:title>
      </cc:Work>
    </rdf:RDF>
  </metadata>
  <g
     inkscape:label="Layer 1"
     inkscape:groupmode="layer"
     id="layer1"
     transform="translate(-36.787041,-218.70774)">
    <g
       transform="matrix(0.26458333,0,0,0.26458333,-212.81949,-212.87395)"
       id="layer1-5"
       inkscape:label="Layer 1">
      <g
         id="g284">
        <rect
           ry="12.583833"
           y="1631.1749"
           x="943.39478"
           height="125.19656"
           width="749.90277"
           id="rect165"
           style="opacity:1;fill:#4d4d4d;fill-opacity:1;fill-rule:evenodd;stroke:none;stroke-width:0.89792097;stroke-linecap:round;stroke-linejoin:round;stroke-miterlimit:4;stroke-dasharray:none;stroke-opacity:1;paint-order:markers stroke fill" />
        <rect
           style="opacity:1;fill:#d40000;fill-opacity:1;fill-rule:evenodd;stroke:none;stroke-width:0.88984162;stroke-linecap:round;stroke-linejoin:round;stroke-miterlimit:4;stroke-dasharray:none;stroke-opacity:1;paint-order:markers stroke fill"
           id="rect82"
           width="747.78668"
           height="123.30164"
           x="944.38074"
           y="1632.0066"
           ry="12.393368" />
        <path
           style="fill:url(#linearGradient334);fill-opacity:1;stroke:none;stroke-width:0.72223246"
           d="m 1353.8484,1631.9901 -331.2414,0.012 c -21.8616,-0.024 -45.11935,-0.5866 -65.15308,0.01 -1.07425,-0.035 -2.24154,0.053 -3.39037,0.293 -1.99982,0.4171 -4.5131,1.7174 -6.22049,3.4502 -1.04986,1.0655 -1.98246,2.0446 -2.2258,3.1861 -0.0319,2.2435 0.71355,4.7283 1.30836,6.6898 6.80439,22.2396 31.46213,34.1707 43.52543,38.8261 H 1353.76 Z"
           id="path3002"
           inkscape:connector-curvature="0"
           sodipodi:nodetypes="cccssccccc" />
        <path
           inkscape:connector-curvature="0"
           id="rect154"
           d="m 1353.8484,1631.9901 v 123.3183 h 326.2063 c 6.8306,0 12.3308,-5.5293 12.3308,-12.396 v -98.5262 c 0,-6.8668 -5.5002,-12.3961 -12.3308,-12.3961 z"
           style="opacity:1;fill:url(#linearGradient336);fill-opacity:1;fill-rule:evenodd;stroke:none;stroke-width:0.8876068;stroke-linecap:round;stroke-linejoin:round;stroke-miterlimit:4;stroke-dasharray:none;stroke-opacity:1;paint-order:markers stroke fill" />
        <g
           id="g263"
           style="font-style:normal;font-variant:normal;font-weight:normal;font-stretch:normal;font-size:99.9430542px;line-height:1.25;font-family:'Avenir Next LT Pro';-inkscape-font-specification:'Avenir Next LT Pro';letter-spacing:0.4900001px;word-spacing:0px;fill:#000000;fill-opacity:1;stroke:none;stroke-width:1.56161022"
           transform="matrix(0.98571129,0,0,1.0164996,-22.720036,-155.305)"
           aria-label="S    TU">
          <path
             sodipodi:nodetypes="scsssssssccscsssssssccscsccccccccccscccccccccccccccccccccccccccsccccccccc"
             inkscape:connector-curvature="0"
             d="m 1484.9356,1832.4647 c 0,7.6623 -3.0361,13.3924 -9.1084,17.1902 -4.9928,3.1315 -11.6386,4.6973 -19.9373,4.6973 h -40.583 c -0.9446,0 -1.4169,-0.533 -1.4169,-1.599 v -8.1954 c 0,-4.0643 1.9904,-6.0965 5.9711,-6.0965 h 37.5469 c 5.5999,0 8.3999,-1.7657 8.3999,-5.297 0,-3.2648 -2.8,-5.5302 -8.3999,-6.7961 l -23.6819,-5.297 c -14.3035,-3.1982 -21.4553,-10.2275 -21.4553,-21.088 0,-7.3291 2.6651,-13.0259 7.9952,-17.0902 4.8578,-3.7313 11.0987,-5.5969 18.7227,-5.5969 h 42.2023 c 1.0121,0 1.5181,0.533 1.5181,1.5991 v 7.4958 c 0,4.5307 -2.3277,6.7961 -6.9831,6.7961 h -35.9276 c -5.0603,0 -7.5904,1.7657 -7.5904,5.297 0,2.7984 2.5301,5.0638 7.5904,6.7961 l 24.4915,5.297 c 13.7638,2.9983 20.6457,10.2941 20.6457,21.8875 z m 157.3058,-8.2276 c -0.7869,-14.9061 0.1528,-25.9743 0.095,-35.6847 -0.01,-0.9958 0.084,-4.9269 0.055,-5.8968 0.1458,-3.3239 1.7834,-4.2612 4.5031,-4.5026 1.7647,-0.1541 4.0944,-0.073 7.1077,-0.1668 l 8.8048,-0.043 -0.2467,24.0851 c 0.3607,8.468 -0.2397,16.6476 0.5298,24.7162 0.9908,8.6988 9.8135,11.2917 17.3585,11.1395 14.7087,-0.9085 14.4038,-11.7155 14.4126,-19.662 0.014,-10.681 0.4077,-27.7323 0.5474,-34.8257 -0.2316,-2.3013 1.3266,-3.9959 2.924,-4.7292 1.4867,-0.658 3.7696,-1.116 7.4312,-1.116 h 9.0982 l -0.3603,27.5115 c 0.2718,4.9221 0.167,12.4269 -0.014,18.5083 0.3613,26.5709 -22.2091,30.2415 -34.5077,30.9957 -25.0987,0.2247 -35.9065,-8.9199 -37.7388,-30.3295 z m -55.0914,0.4972 v -29.9131 h -14.2017 -14.2017 v -7.7774 c 0.05,-1.697 -0.1315,-3.6339 -0.039,-5.3086 0.1182,-2.1488 2.334,-3.6789 4.4134,-3.9031 23.2142,0.2753 49.0971,-0.073 66.4842,-0.01 6.2797,0.1257 5.7588,4.5511 5.7294,8.7317 l -0.089,8.2636 c -9.4118,-0.036 -18.9826,0.025 -27.7177,0.056 l -0.2979,28.4712 c -0.3012,28.7638 1.21,31.2021 -6.4057,31.3218 -4.5363,-0.026 -8.8618,-0.023 -13.6732,-0.023 z m -100.6164,22.5615 c 5.5251,-13.2336 21.9809,-49.5961 28.883,-63.702 3.9813,-7.7905 7.4685,-6.3763 13.9588,-6.636 2.8505,0.015 6.4296,0.072 11.504,-0.03 l 17.0206,37.0884 c 7.0012,15.3445 11.0778,24.8256 13.253,30.5799 1.4295,3.4937 4.8951,9.2677 -0.6419,9.0495 -1.4435,0.034 -4.7536,0.012 -7.32,0.012 h -9.7794 c -9.3127,-20.0333 -16.6157,-38.2047 -24.509,-56.7219 -0.3615,0.2171 -5.4309,12.0047 -11.2654,26.1948 -5.8346,14.19 -11.6135,26.8636 -12.8423,28.1636 -2.0416,2.16 -2.3068,2.3223 -10.6947,2.3199 -5.0407,0 -8.5094,0.01 -10.2004,0.015 1.0583,-2.0525 1.8431,-4.4381 2.6337,-6.3333 z"
             style="font-style:normal;font-variant:normal;font-weight:normal;font-stretch:normal;font-family:SKYfontThick;-inkscape-font-specification:SKYfontThick;letter-spacing:0.4900001px;fill:#000000;stroke-width:1.57143438"
             id="path261" />
        </g>
        <g
           id="text169"
           style="font-style:normal;font-variant:normal;font-weight:normal;font-stretch:normal;font-size:108.4888916px;line-height:1.25;font-family:'Avenir Next LT Pro';-inkscape-font-specification:'Avenir Next LT Pro';letter-spacing:0px;word-spacing:0px;fill:#ffffff;fill-opacity:1;stroke:none;stroke-width:1.69513893"
           transform="matrix(0.99167617,0,0,1.0083937,0,136)"
           aria-label="BERITA">
          <path
             sodipodi:nodetypes="sccsccsscscccccccscccc"
             inkscape:connector-curvature="0"
             id="path171"
             style="font-style:normal;font-variant:normal;font-weight:bold;font-stretch:normal;font-family:'Avenir Next LT Pro';-inkscape-font-specification:'Avenir Next LT Pro Bold';fill:#ffffff;stroke-width:1.72653902"
             d="m 1042.4328,1557.8255 c -0.1389,-9.963 -5.987,-15.6047 -13.9252,-18.446 6.8034,-2.2185 10.5074,-9.3966 10.672,-16.3837 0,-15.5644 -14.6956,-19.8093 -27.0353,-19.8093 l -31.99481,0.044 v 77.4989 l 31.99481,-0.044 c 15.1442,-0.021 30.5222,-6.0998 30.2885,-22.8599 z m -22.2754,-31.6787 c 0.3978,4.9984 -5.0931,7.4292 -11.327,7.5455 l -10.0658,0.1878 v -14.7706 l 7.0942,0.05 c 1.6673,0.025 3.5338,-0.019 5.0554,0.07 4.5049,0.422 8.8153,2.7132 9.2432,6.9173 z m -10.3688,38.6496 h -11.024 v -15.9476 h 10.657 c 3.1017,0 5.7235,-0.1321 8.0996,0.6176 3.7662,1.6947 6.0631,4.2379 6.1334,7.4081 -0.7115,7.638 -8.4221,8.2071 -13.866,7.9219 z" />
          <path
             sodipodi:nodetypes="ccccccccccccc"
             inkscape:connector-curvature="0"
             id="path173"
             style="font-style:normal;font-variant:normal;font-weight:bold;font-stretch:normal;font-family:'Avenir Next LT Pro';-inkscape-font-specification:'Avenir Next LT Pro Bold';fill:#ffffff;stroke-width:1.71117258"
             d="m 1105.9973,1580.7794 v -17.7981 h -36.5778 l -2e-4,-12.7722 h 33.0879 v -17.8265 h -33.0879 v -11.1048 h 35.1137 v -18.1962 h -54.4122 l 2e-4,77.6978 z" />
          <path
             sodipodi:nodetypes="ccsssscccccccssccss"
             inkscape:connector-curvature="0"
             id="path175"
             style="font-style:normal;font-variant:normal;font-weight:bold;font-stretch:normal;font-family:'Avenir Next LT Pro';-inkscape-font-specification:'Avenir Next LT Pro Bold';fill:#ffffff;stroke-width:1.70199728"
             d="m 1181.5226,1580.7794 -19.5979,-31.9306 c 3.7599,-1.139 6.7021,-2.7754 8.9633,-4.7736 5.1152,-4.5203 6.8734,-12.0191 6.6046,-18.6738 -0.3545,-8.7745 -3.5337,-13.6207 -8.5773,-17.1392 -5.5221,-3.8522 -12.8045,-5.308 -21.3799,-5.201 l -30.1025,0.3757 0.09,77.3425 h 18.9728 v -29.8288 h 5.8345 l 16.1483,29.8288 z m -22.9543,-54.3317 c 0.8455,6.6891 -6.8798,8.6271 -12.9933,8.6271 h -9.8775 v -16.0436 h 9.9526 c 4.7421,0 12.0161,0.2799 12.9182,7.4165 z" />
          <path
             inkscape:connector-curvature="0"
             id="path177"
             style="font-style:normal;font-variant:normal;font-weight:bold;font-stretch:normal;font-family:'Avenir Next LT Pro';-inkscape-font-specification:'Avenir Next LT Pro Bold';fill:#ffffff;stroke-width:1.70294893"
             d="m 1207.9013,1580.7794 v -77.5196 h -18.6601 v 77.5196 z" />
          <path
             sodipodi:nodetypes="ccccccccc"
             inkscape:connector-curvature="0"
             id="path179"
             style="font-style:normal;font-variant:normal;font-weight:bold;font-stretch:normal;font-family:'Avenir Next LT Pro';-inkscape-font-specification:'Avenir Next LT Pro Bold';fill:#ffffff;stroke-width:1.69513893"
             d="m 1278.8821,1520.326 0.064,-17.2444 H 1216.26 v 17.2444 l 21.6727,0.2819 v 60.1715 h 19.6976 l -0.4457,-60.4534 z" />
          <path
             sodipodi:nodetypes="cccccccccccccc"
             inkscape:connector-curvature="0"
             id="path181"
             style="font-style:normal;font-variant:normal;font-weight:bold;font-stretch:normal;font-family:'Avenir Next LT Pro';-inkscape-font-specification:'Avenir Next LT Pro Bold';fill:#ffffff;stroke-width:1.69513893"
             d="m 1351.1367,1580.5916 -33.353,-77.51 h -16.7243 l -33.2041,77.51 h 20.9021 l 6.7025,-15.565 27.5426,-0.2353 7.098,15.8003 z m -50.9826,-31.3207 8.8314,-21.2922 8.753,21.2037 c -5.3135,0.1121 -12.8036,0 -17.5844,0.089 z" />
        </g>
      </g>
    </g>
  </g>
</svg>
