<?xml version="1.0" encoding="UTF-8" standalone="no"?>
<!-- Created with Inkscape (http://www.inkscape.org/) -->

<svg
   width="196.65868mm"
   height="123.10825mm"
   viewBox="0 0 196.65868 123.10824"
   version="1.1"
   id="svg1"
   xmlns:inkscape="http://www.inkscape.org/namespaces/inkscape"
   xmlns:sodipodi="http://sodipodi.sourceforge.net/DTD/sodipodi-0.dtd"
   xmlns:xlink="http://www.w3.org/1999/xlink"
   xmlns="http://www.w3.org/2000/svg"
   xmlns:svg="http://www.w3.org/2000/svg">
  <sodipodi:namedview
     id="namedview1"
     pagecolor="#ffffff"
     bordercolor="#000000"
     borderopacity="0.25"
     inkscape:showpageshadow="2"
     inkscape:pageopacity="0.0"
     inkscape:pagecheckerboard="0"
     inkscape:deskcolor="#d1d1d1"
     inkscape:document-units="mm">
    <inkscape:page
       x="0"
       y="0"
       width="196.65868"
       height="123.10824"
       id="page2"
       margin="0"
       bleed="0" />
  </sodipodi:namedview>
  <defs
     id="defs1">
    <linearGradient
       inkscape:collect="always"
       xlink:href="#linearGradient14"
       id="linearGradient15"
       x1="1172.7118"
       y1="448.16797"
       x2="1073.4526"
       y2="770.98145"
       gradientUnits="userSpaceOnUse"
       gradientTransform="translate(-80)" />
    <linearGradient
       id="linearGradient14"
       inkscape:collect="always">
      <stop
         style="stop-color:#5b91fd;stop-opacity:1;"
         offset="0"
         id="stop14" />
      <stop
         style="stop-color:#4667c8;stop-opacity:1;"
         offset="1"
         id="stop15" />
    </linearGradient>
    <linearGradient
       inkscape:collect="always"
       xlink:href="#linearGradient20"
       id="linearGradient21"
       x1="920.32031"
       y1="643.69531"
       x2="1183.187"
       y2="711.83624"
       gradientUnits="userSpaceOnUse" />
    <linearGradient
       id="linearGradient20"
       inkscape:collect="always">
      <stop
         style="stop-color:#576fc6;stop-opacity:1;"
         offset="0"
         id="stop20" />
      <stop
         style="stop-color:#5669bf;stop-opacity:1;"
         offset="1"
         id="stop21" />
    </linearGradient>
    <linearGradient
       inkscape:collect="always"
       xlink:href="#linearGradient23"
       id="linearGradient24"
       x1="993.37109"
       y1="675.74805"
       x2="1165.4922"
       y2="727.51953"
       gradientUnits="userSpaceOnUse" />
    <linearGradient
       id="linearGradient23"
       inkscape:collect="always">
      <stop
         style="stop-color:#6d7ec7;stop-opacity:1;"
         offset="0"
         id="stop23" />
      <stop
         style="stop-color:#7083cb;stop-opacity:1;"
         offset="1"
         id="stop24" />
    </linearGradient>
  </defs>
  <g
     inkscape:label="Layer 1"
     inkscape:groupmode="layer"
     id="layer1"
     transform="translate(-6.6706544,-66.200196)">
    <g
       id="g20"
       transform="matrix(0.26458333,0,0,0.26458333,-149.05949,-3.1810995)">
      <path
         d="m 844.6161,565.21521 c 0,48.44216 -42.40298,75.81944 -112.03539,75.81944 H 588.58638 V 408.23468 c 0,-22.01736 17.84859,-39.86595 39.86595,-39.86595 H 704.492 c 14.32323,0 35.22627,-0.14187 50.768,1.76983 36.96974,4.54745 75.81961,25.12561 75.81961,66.40873 0,26.80701 -10.61153,45.88004 -39.38721,61.64327 34.75947,15.08838 52.9237,39.02222 52.9237,67.02463 z M 673.64869,429.05712 v 49.46843 h 33.75944 c 24.30566,0 37.98992,-10.85128 37.98992,-25.33632 0,-11.53186 -15.68285,-23.9288 -39.98763,-24.13211 z m 33.64916,151.46035 c 22.33492,0 39.40162,-9.48499 39.40162,-27.72747 0,-14.51267 -17.01772,-25.98405 -39.35261,-25.98405 h -33.69817 v 53.71152 z"
         fill="#df0120"
         stroke-width="16.246"
         stroke-miterlimit="10"
         id="path2"
         style="display:inline;opacity:1;mix-blend-mode:normal;fill:#da2328;fill-opacity:1;fill-rule:nonzero;stroke:none;stroke-linecap:butt;stroke-linejoin:miter;stroke-dasharray:none;stroke-dashoffset:0"
         sodipodi:nodetypes="sscssssscssccssscsssccs" />
      <path
         id="path11"
         style="display:inline;fill:#6e9ffc;fill-opacity:1;stroke-width:0.7;stroke-linecap:round;stroke-linejoin:round;paint-order:stroke markers fill"
         d="m 1099.1445,262.22852 c -61.8748,0.0754 -120.53482,24.58239 -163.55804,67.15077 5.89185,3.70274 11.20342,6.04986 17.15573,8.24766 55.22891,20.39246 114.55421,17.44284 170.71681,45.28321 0.6232,0.30893 1.2459,0.6759 1.8691,0.99218 7.5371,-9.31388 18.8095,-14.81492 30.7891,-15.02539 l 28.5254,-0.21875 -0.016,54.79297 c 9.2352,7.43554 18.2363,15.14346 26.8183,22.90625 11.4938,10.39661 27.0285,28.48522 38.1348,41.84961 l 61.4883,-88.94531 c -37.5782,-83.3305 -120.4886,-136.9418 -211.9239,-137.0332 z"
         sodipodi:nodetypes="ccasccccscccc" />
      <path
         id="path10"
         style="fill:#84acf4;fill-opacity:1;stroke-width:0.7;stroke-linecap:round;stroke-linejoin:round;paint-order:stroke markers fill"
         d="m 1099.1445,262.22852 c -49.5441,0.0604 -96.9383,15.88056 -135.94919,44.03515 10.25409,1.25699 77.10839,9.67094 111.70309,20.30274 34.2634,10.52993 68.5041,23.44809 99.0723,42.17382 l 10.6719,-0.082 v 6.91211 c 27.8932,18.92128 69.0226,52.79299 92.6192,72.59766 l 34.0418,-48.90625 c -37.2289,-83.06853 -120.7218,-136.9418 -212.1571,-137.0332 z"
         sodipodi:nodetypes="ccsccccccc" />
      <path
         id="path9"
         style="display:inline;fill:#91b6fc;fill-opacity:1;stroke-width:0.7;stroke-linecap:round;stroke-linejoin:round;paint-order:stroke markers fill"
         d="m 1099.1445,262.22852 c -33.2046,0.0405 -65.4066,7.24064 -94.8047,20.40625 47.1834,8.43612 100.0105,19.3401 135.2305,31.31054 46.81,15.90959 114.0993,49.11821 168.1213,77.64063 -39.1212,-78.88127 -119.9842,-129.2689 -208.5471,-129.35742 z"
         sodipodi:nodetypes="ccscc" />
      <path
         id="path12"
         style="fill:url(#linearGradient15);stroke-width:0.7;stroke-linecap:round;stroke-linejoin:round;paint-order:stroke markers fill"
         d="m 935.58646,329.37929 c 0,0 -20.19276,19.5707 -32.31898,39.88048 h 156.11922 c 22.1627,-3.4e-4 40.1292,17.96618 40.1289,40.1289 v 19.85938 l -84.6718,0.21679 v 173.36719 c -0.01,13.06342 -6.3759,25.30493 -17.0665,32.8125 19.2942,5.64114 39.5427,10.04202 59.8672,14.03125 53.0398,10.41052 108.3974,19.9604 155.5762,47.95508 54.522,-30.72312 95.438,-82.73502 111.3574,-144.79883 -7.9255,-3.49894 -15.9086,-7.3019 -21.275,-11.03224 -1.9012,-1.32156 -3.8404,-2.78082 -5.6254,-4.2412 l -69.0742,104.83399 h -73.0703 c -22.1488,3.4e-4 -40.0908,-17.98011 -40.043,-40.12891 l 0.4141,-192.95117 c 0.1652,-9.65034 3.7695,-18.92483 10.1641,-26.1543 -0.2245,-0.10499 -0.4348,-0.23447 -0.6602,-0.33789 -58.3255,-27.25206 -116.4203,-25.37768 -172.666,-45.19336 -5.88785,-2.07432 -17.15574,-8.24766 -17.15574,-8.24766 z m 249.04014,94.07188 -0.045,152.71875 h 4.1914 l 61.1446,-88.45117 c -19.5691,-23.56236 -40.435,-46.2633 -65.2914,-64.26758 z m -308.60316,5.79688 c -6.31728,21.30492 -9.54861,43.40577 -9.59571,65.62695 2e-5,34.50527 7.67988,68.21344 22.07227,98.86133 15.32832,7.21016 33.7617,15.36744 54.8711,23.46289 V 429.46484 Z"
         sodipodi:nodetypes="ccccccccsccscccccccsccccccccccccc" />
      <path
         id="path15"
         style="display:inline;fill:url(#linearGradient21);fill-opacity:1;stroke-width:0.7;stroke-linecap:round;stroke-linejoin:round;paint-order:stroke markers fill"
         d="m 888.51758,593.77734 c 11.34202,24.14026 26.8464,46.38175 46.07226,65.60157 43.64313,43.6294 102.83406,68.14075 164.55466,68.14062 41.4618,-10e-5 80.3603,-10.88976 114.0762,-29.88867 0,0 -23.1748,-22.24913 -91.7148,-35.55078 -55.562,-10.78299 -74.5275,-14.35997 -123.7266,-26.43555 -6.75188,4.75279 -14.80553,7.30707 -23.06246,7.31445 h -31.34375 v -26.78906 c -20.87733,-8.1571 -40.19564,-16.18649 -54.85351,-22.39258 z"
         sodipodi:nodetypes="csscscccccc" />
      <path
         id="path16"
         style="display:inline;fill:#6e9ffc;fill-opacity:1;stroke-width:0.7;stroke-linecap:round;stroke-linejoin:round;paint-order:stroke markers fill"
         d="m 1331.4355,486.32422 -33.7578,51.23437 c 0,0 4.5569,3.85391 9.6489,6.79378 7.7374,4.46721 17.2515,8.47966 17.2515,8.47966 5.4938,-19.81899 7.2852,-36.38955 7.2852,-57.95703 -0.09,-2.85247 -0.2328,-5.70356 -0.4278,-8.55078 z"
         sodipodi:nodetypes="ccsccc" />
      <path
         id="path19"
         style="fill:url(#linearGradient24);fill-opacity:1;stroke-width:0.7;stroke-linecap:round;stroke-linejoin:round;paint-order:stroke markers fill"
         d="m 920.32031,643.69531 c 4.50771,5.41281 9.24704,10.66269 14.26953,15.6836 43.64313,43.6294 102.83406,68.14075 164.55466,68.14062 23.0601,-5e-5 45.3156,-3.40347 66.3477,-9.64844 -20.3633,-10.20489 -48.329,-23.22058 -69.9902,-29.27929 -33.0439,-9.24248 -71.6936,-4.68809 -102.13091,-12.84375 -21.76656,-5.83234 -57.07014,-23.67158 -73.05078,-32.05274 z" />
    </g>
  </g>
</svg>
