<?xml version="1.0" encoding="UTF-8" standalone="no"?><svg xmlns="http://www.w3.org/2000/svg" xml:space="preserve" id="svg1" width="800" height="320.5463" version="1.1" viewBox="0 0 800 320.5463"><path id="path2502" d="M0 200.02638h800V0H0Z"/><path id="path2503" fill="#fff" d="M765.85537 108.80834s-.15754.31508-.63017.31508h-43.1666c-.7352 0-1.05028.3676-1.05028.3676s-.47263.15755-.47263.99777v46.00236c0 .68269-.31508.84023-.31508.84023s-.21006.31508-.7352.31508h-34.2392c-.52514 0-.84023-.31508-.84023-.31508s-.10503-.15754-.10503-.99777v-46.00236c0-.52514-.52514-.84023-.52514-.84023s-.21005-.3676-.68268-.3676h-44.16437c-.84022 0-1.05028-.10502-1.05028-.10502s-.31509-.3676-.31509-1.41788V73.93897c0-.3676.31509-.89274.31509-.89274s.21006-.10503.52514-.10503h45.16214c.3676 0 .3676-.21005.3676-.21005s.36759-.15755.36759-.47263V31.92768c0-.42011.10503-.78771.10503-.78771s.31509-.21006 1.36537-.21006h33.55652c.68268 0 .89274.21006.89274.21006s.31508.3676.31508.99777V72.5736h43.79677c1.15531 0 1.52291.15755 1.52291.15755s.52514.21005.52514 1.20782v34.02914c0 .3676-.52514.84023-.52514.84023"/><path id="path2505" fill="#fff" d="M632.17542 156.48577c-.21006.99777-.3676 1.31285-.3676 1.31285s-.15754.3676-.99777.3676H561.3864c-2.04805 0-2.57319-.52514-2.57319-.52514s-.31509-.7352-.15755-2.20559l17.22463-119.62715c.10503-1.52291.52514-1.99554.52514-1.99554h33.34646c.84023 0 1.15531.15755 1.15531.15755s.15755.47262 0 1.15531l-12.97098 93.52763c-.15754 1.05028.31508 1.15531.31508 1.15531s.3676.21006 1.68046.21006h34.39674c.68268 0 1.05028.31508 1.05028.31508s.15754.15754.15754.99777Zm-88.53879 1.78548h-30.82579c-.68268.42011-1.20782-.31508-1.20782-.31508s-.15754-.15755-.31509-1.15532l-4.04358-19.0101c-.31509-1.05029-.68269-1.57543-.68269-1.57543s-.84022-.47262-1.83799-.47262h-40.1733c-.78771 0-1.31285.47262-1.31285.47262s-.68268.68269-.99777 1.68045l-9.13745 19.37771c-.21006.52514-.47263.68269-.47263.68269s-.68268.21005-1.05028.21005h-34.71183c-.84022.10503-1.15531-.3676-1.15531-.3676s-.21006-.31508.31509-.99777l61.17894-122.20033c.31508-.15755.68268-.63017.68268-.63017s.3676-.15755 1.36537-.15755h37.91518c.84023 0 1.36537.47263 1.36537.47263s.15754.15754.31509.68268l25.46934 122.67297c0 .31509-.15754.52514-.15754.52514s0 .10503-.52514.10503m-144.46632-.10503h-31.87607s-.15754-.21005-.31509-.3676l-42.799-75.98792c-.3676-.3676-.52514-.3676-.52514-.3676s-.31508 0-.31508.52515l-10.60785 74.67506c-.21006.84023-.3676.99777-.3676.99777s-.3676.15754-.84023.15754H280.8035c-.52514 0-.78772-.31508-.78772-.31508s-.68268-.68269-.57765-1.36537L296.34767 35.2832c.15755-.68268.47263-.84023.47263-.84023s.52514-.47262 1.05028-.47262h34.2392c.47263 0 .78772.31508.78772.31508s.36759.15754.52514.68268l38.59787 67.6907c.68268 1.41788 1.15531 1.20782 1.15531 1.20782s.57765 0 .89274-1.52291l9.76762-67.37561c0-.52514.3676-.68268.3676-.68268s.15755-.31508.63017-.31508l32.24367.31508c.63017 0 .84022.15754.84022.15754s.10503.15755.10503.52514l-17.32966 121.83274c-.15754.68269-.47262 1.15532-.47262 1.15532s-.21006.21005-1.05028.21005m-134.85624-.3676-30.03808.15755c-.68268 0-1.15531-.31509-1.15531-.31509s-.21005-.15754-.3676-1.36537l-4.67375-19.3777c0-.47263-.3676-.68269-.3676-.68269h-42.74649c-.89274 0-1.36536.68269-1.36536.68269s-.68269.52514-1.20783 1.73296l-8.40226 18.01234c-.3676.63017-.52514.84023-.52514.84023s-.52514.31508-.99777.31508H137.545c-.99777.15755-1.15531-.31508-1.15531-.31508s-.15754-.57766.15754-1.20783l60.49626-121.67519c.3676-.63017.84022-.78772.84022-.78772h39.8057c.63017 0 1.15531.47263 1.15531.47263s.21006.15754.31509.68268l25.99448 121.93777c0 .57766-.31508.7352-.31508.7352s-.21006.15754-.52514.15754m228.54141-88.80136s-.10503 0-.26257.63017l-16.85703 38.17776c-.3676 1.15531-.21006 1.31285-.21006 1.31285s.52515.31509.89274.31509l24.94421-.15755h.31508s.15754-.15754 0-.63017l-8.45477-39.17552c-.15754-.47263-.3676-.47263-.3676-.47263m-279.79519.47263s-.21005 0-.3676.3676l-16.80451 38.23027c-.31509.57765-.21006.89274-.21006.89274s.21006.15754 1.05028.15754l24.73415.15754c.21006 0 .3676-.15754.3676-.15754s.15754-.15754 0-.63017l-8.61232-38.65038c0-.3676-.15754-.3676-.15754-.3676m-86.3332 84.1276c-.15754 1.36537-.78771 2.36314-.78771 2.36314s-.68268.68268-1.89051.94525c-16.17434 6.61678-34.186679 4.41119-34.186679 4.41119-29.19785-3.15085-47.73533-21.05816-53.669427-44.11186-8.769857-34.55428 8.612317-59.1834 12.813447-64.3823 10.29276-12.2883 26.36208-21.05816 42.01129-23.10621 20.060389-2.88827 34.921879 1.838 40.960999 3.88605 0 0 6.77432 2.20559 11.86819 5.56649 2.52068 1.73297 2.78325 2.41565 2.78325 2.41565s.15754.26257-.47263 2.99331l-4.72627 24.73414c-.21005 1.05029-.84022 1.57543-.84022 1.57543s-.3676.10503-2.67822-1.41788c-15.17658-10.7654-32.87384-9.40003-32.87384-9.40003-13.496119.84023-29.197839 7.92963-33.924109 25.78443-4.20113 15.85926.21005 29.14533 9.61008 37.12748 6.45924 5.46146 16.3844 8.34974 26.834709 7.87711 11.44808-.84022 20.53302-5.40895 19.90285-5.09387 0 0 .47263-.15754.99777-.31508 2.36313-1.20782 2.88827-1.05028 2.88827-1.05028s.47263.52514.15755 2.10056Z"/><path id="path2507" fill="#00ff91" d="M720.59866 200.02641H110.85731V320.5463h609.74135Z"/><path id="path2509" fill="#0f4c11" d="M179.89763 239.63149c-4.0961-3.41342-8.34974-5.09387-12.76093-5.09387-2.10056 0-3.99107.47263-5.61901 1.57542-1.89051 1.20783-2.78325 2.83577-2.78325 4.93633 0 2.10057 1.41788 3.88605 4.0961 5.1989.78772.42011 3.93856 1.52291 9.45254 3.20336 6.09164 1.94302 10.71288 4.41118 13.65367 7.56203 3.20336 3.41342 4.77879 7.92963 4.77879 13.44361 0 5.51399-.89274 10.0302-2.78325 13.65367-2.31062 4.41119-6.03912 7.82461-11.34305 10.24025-4.51621 1.99554-9.61008 2.99331-15.17658 2.99331-5.51398 0-11.13299-1.20783-17.01457-3.62347-2.94079-1.20783-5.25141-2.31063-6.72181-3.41342-.73519-.47263-1.52291-.99777-2.41565-1.57543l8.29723-15.70171c5.9341 5.14638 11.65814 7.66706 17.27715 7.66706 2.73073 0 4.8313-.63017 6.51175-1.73297 1.89051-1.31285 2.94079-3.20336 2.94079-5.72404 0-2.10056-1.05028-3.88604-3.15085-5.40895-.99777-.68269-2.46816-1.31285-4.62124-1.99554-.68268-.21005-1.99554-.63017-3.99107-1.20782l-3.99108-1.20783c-2.52067-.68268-4.93632-1.73296-7.457-2.9933-5.93409-3.04582-8.82237-8.66483-8.82237-16.80452 0-7.61454 2.41565-13.70618 7.14192-18.32742 4.67375-4.72627 10.92293-7.03689 18.43245-7.03689 8.13969 0 16.17435 1.99553 23.89392 6.09163Z"/><path id="path2511" fill="#0f4c11" d="M234.29177 220.05922c8.03466 0 14.23132 2.10056 18.74754 6.30169 4.93632 4.62125 7.35197 10.87042 7.35197 18.69503 0 16.85703-8.45477 25.25929-25.41683 25.25929h-12.23578v24.99671h-19.53525v-75.25272Zm-5.09387 34.50177c7.08941 0 10.71288-3.09833 10.71288-9.295 0-6.3542-3.51845-9.45254-10.66036-9.45254h-6.51175v18.74754Z"/><path id="path2513" fill="#0f4c11" d="M338.56904 286.79967c-8.03466 7.50952-17.8548 11.23802-29.51293 11.23802-11.71065 0-21.68833-3.83353-29.72299-11.34305-7.87712-7.61454-11.9207-16.96206-11.9207-28.09505 0-8.50728 2.20559-16.17434 6.61678-22.89615 4.41118-6.72181 10.55533-11.71065 18.27491-14.80898 5.04135-2.04805 10.45031-3.04582 16.3844-3.04582 12.13076 0 22.16096 3.83353 30.09059 11.34305 7.92963 7.50952 11.9207 17.17211 11.9207 28.72522 0 11.71065-3.99107 21.37324-12.13076 28.88276m-14.54641-43.84928c-4.0961-4.0961-9.13745-6.14415-14.96652-6.14415-5.72404 0-10.71288 2.10056-14.96652 6.24917-4.0961 4.09611-6.19667 8.9274-6.19667 14.65144 0 5.9341 1.99554 11.02797 6.14415 15.12407 4.0961 4.14861 9.08494 6.24918 15.01904 6.24918 5.93409 0 10.87042-2.10057 14.96652-6.24918 4.0961-4.0961 6.19667-9.13746 6.19667-14.91401 0-5.9341-2.10057-10.87042-6.19667-14.96652"/><path id="path2515" fill="#0f4c11" d="m399.39086 295.32783-17.95983-29.82802-3.62347 29.82802h-19.06262l9.24248-75.25272H392.459c17.8548 0 26.57214 7.50952 26.57214 22.89615 0 7.87712-1.99554 13.3911-6.61678 17.74977-2.41565 2.31062-4.41119 3.41342-9.295 5.40895l18.43246 29.19785Zm-13.23356-41.95878c8.03466 0 13.54864-3.78101 13.54864-9.50505 0-4.93633-3.93855-7.66706-10.97544-7.66706h-3.57096l-2.41565 17.17211Z"/><path id="path2517" fill="#0f4c11" d="M462.21874 236.62244v58.71078h-19.58776v-58.71078h-15.85927v-16.54195h51.7264v16.54195Z"/><path id="path2519" fill="#0f4c11" d="M497.65002 242.03638c.68268-4.93633 1.78548-8.71734 3.30839-11.65813 4.72627-8.71735 12.6559-13.0235 23.99895-13.0235 7.40449 0 13.33858 1.99553 17.8548 6.03912 4.51621 3.99107 6.82683 9.295 6.82683 15.91178 0 4.4637-1.20782 8.24471-3.62347 11.34304-1.1028 1.31286-2.62571 2.73074-4.51622 4.04359 2.73074.89274 4.72627 1.99554 6.24918 3.51845 3.99108 3.88604 5.98661 9.24248 5.98661 15.75423 0 11.23802-6.61678 19.27268-17.43468 22.84364-3.62348 1.20782-7.66706 1.83799-12.07825 1.83799-6.93186 0-13.60115-2.20559-20.06039-6.61678-3.51845-2.41564-5.98661-5.25141-7.61455-8.45477-.89274-1.68045-1.62793-3.78101-2.20559-6.51175-.31508-1.10279-.52514-2.9933-.78771-5.82906h19.95536c.31509 2.10056.57766 3.51844.89274 4.30615.52514 1.31286 1.31285 2.52068 2.41565 3.62348 2.10057 1.99553 4.62124 2.9933 7.50952 2.9933 6.03912 0 9.97768-4.41118 9.97768-10.39779 0-6.45924-3.83353-9.6626-11.5531-9.6626h-.7352c-.26257 0-.68269 0-1.1028.10503v-13.12853h1.1028c6.35421 0 9.55757-2.6257 9.55757-7.8246 0-5.35644-2.52068-8.03466-7.61455-8.03466-5.35644 0-8.03466 2.88828-8.34974 8.82237Z"/><path id="path2521" fill="#0f4c11" d="M591.18818 243.03953c.99777-.42011 2.31062-.57766 3.99107-.57766 8.03466 0 14.75647 2.5732 20.16542 7.92964 5.46147 5.30392 8.13969 11.81567 8.13969 19.64027 0 8.82237-3.30839 15.85927-9.92517 21.16319-6.03912 4.8313-13.44361 7.24695-22.37101 7.24695-9.24248 0-16.752-2.52068-22.6861-7.61455-5.93409-5.14638-8.82237-11.76316-8.82237-19.79782 0-9.13745 3.83353-18.64251 11.44808-28.77773l16.752-22.21347h22.16096Zm8.71734 18.74754c-2.41565-2.46817-5.30392-3.67599-8.71734-3.67599-3.51845 0-6.40672 1.20782-8.82237 3.57096-2.41565 2.41565-3.62347 5.35644-3.62347 8.87488 0 3.41342 1.20782 6.3017 3.62347 8.82238 2.52068 2.41564 5.40895 3.62347 8.82237 3.62347 3.30839 0 6.19667-1.20783 8.61231-3.7285 2.52068-2.52068 3.72851-5.40896 3.72851-8.71735 0-3.41341-1.20783-6.3542-3.62348-8.76985"/><path id="path2523" fill="#0f4c11" d="M683.41871 287.09349c-5.82907 7.35198-13.44361 11.02796-23.00118 11.02796-7.29946 0-13.65367-2.20559-18.9576-6.7218-4.88381-4.20113-8.50728-9.92517-10.71287-17.17212-1.52291-4.88381-2.31063-10.39779-2.31063-16.43691 0-12.02574 2.88828-21.79336 8.71735-29.30288 5.93409-7.50952 13.54864-11.23802 23.00118-11.23802 7.40449 0 13.70618 2.20559 19.06262 6.72181 4.88381 4.20113 8.40226 9.92516 10.71288 17.17211 1.52291 4.98884 2.31062 10.60785 2.31062 16.752 0 12.02574-2.88828 21.79336-8.82237 29.19785m-22.89615-52.35657c-4.88382 0-8.29723 2.78325-10.45031 8.50729-1.4704 3.83353-2.20559 8.61231-2.20559 14.54641 0 5.72403.73519 10.66036 2.20559 14.5464 2.15308 5.72404 5.67152 8.61232 10.34528 8.61232 4.8313 0 8.24471-2.88828 10.24025-8.61232 1.41788-3.88604 2.15308-8.71734 2.15308-14.5464 0-15.33413-4.14862-23.0537-12.2883-23.0537"/></svg>