<?xml version="1.0" encoding="UTF-8" standalone="no"?>
<!-- Generator: Adobe Illustrator 16.0.0, SVG Export Plug-In . SVG Version: 6.00 Build 0)  -->

<svg
   version="1.0"
   id="Layer_1"
   x="0px"
   y="0px"
   width="500"
   height="500"
   viewBox="0 0 500 500"
   enable-background="new 0 0 300 300"
   xml:space="preserve"
   sodipodi:docname="CNN_Indonesia.svg"
   inkscape:version="1.2.2 (732a01da63, 2022-12-09)"
   xmlns:inkscape="http://www.inkscape.org/namespaces/inkscape"
   xmlns:sodipodi="http://sodipodi.sourceforge.net/DTD/sodipodi-0.dtd"
   xmlns="http://www.w3.org/2000/svg"
   xmlns:svg="http://www.w3.org/2000/svg"><defs
   id="defs37">
	
	
	
	
	
	
	
	
	
	
	
	

		
	
			
			
		</defs><sodipodi:namedview
   id="namedview35"
   pagecolor="#ffffff"
   bordercolor="#111111"
   borderopacity="1"
   inkscape:showpageshadow="0"
   inkscape:pageopacity="0"
   inkscape:pagecheckerboard="1"
   inkscape:deskcolor="#d1d1d1"
   showgrid="false"
   inkscape:zoom="0.6"
   inkscape:cx="315"
   inkscape:cy="373.33333"
   inkscape:window-width="1366"
   inkscape:window-height="705"
   inkscape:window-x="-8"
   inkscape:window-y="-8"
   inkscape:window-maximized="1"
   inkscape:current-layer="Layer_1" />
<rect
   fill="#cc0000"
   width="500"
   height="500"
   id="rect2"
   x="0"
   y="0"
   style="stroke-width:1.66667" /><path
   id="path2053"
   d="m 214.14555,120 c -18.58495,0 -33.65756,15.07777 -33.65756,33.66538 v 89.19829 c 0,3.2468 -2.43296,6.08186 -5.98111,6.08186 h -34.28161 c -21.06464,0 -38.14511,-17.07807 -38.14511,-38.14804 0,-21.06719 17.08047,-38.14219 38.14511,-38.14219 h 28.7113 v -21.61221 h -28.95289 c -32.95028,0 -59.752412,26.80718 -59.752412,59.75732 0,32.94761 26.802132,59.75537 59.752412,59.75537 h 56.39557 c 3.13997,0 5.66617,-3.09307 5.66617,-5.64954 V 154.27278 c 0,-7.33191 5.96255,-13.29342 13.29734,-13.29342 4.69636,0 9.07716,2.49356 11.42526,6.51027 0.28495,0.4823 17.35735,29.91996 35.42989,61.08657 17.26432,29.76638 35.11457,60.54651 35.41325,61.05624 0.79469,1.35624 2.35172,2.23008 3.96819,2.23008 2.56465,0 4.64698,-2.08541 4.64698,-4.6499 V 154.27278 c 0,-7.33191 5.96708,-13.29342 13.29635,-13.29342 4.69902,0 9.07748,2.49356 11.43112,6.51027 0.27942,0.4823 17.33787,29.92264 35.39958,61.08657 17.25041,29.76104 35.08501,60.53565 35.39174,61.05624 0.78631,1.35624 2.34806,2.23008 3.96719,2.23008 2.562,0 4.64405,-2.08541 4.64405,-4.6499 V 120.78835 h -21.60634 v 87.1599 c 0,0 -40.27427,-69.3228 -41.5812,-71.55032 C 341.29163,126.34781 330.1396,120 318.27853,120 299.69093,120 284.619,135.07777 284.619,153.66538 v 54.28287 c 0,0 -40.27426,-69.3228 -41.58119,-71.55032 C 237.1606,126.34782 226.00931,120 214.14555,120 Z m -74.13644,0.78737 C 90.296042,120.78737 50,161.08618 50,210.79943 c 0,49.71309 40.296042,90.01206 90.00911,90.01206 h 56.93647 c 21.56584,0 35.40448,-12.62618 35.40448,-35.93458 v -51.3378 c 0,0 40.56449,69.81037 41.57826,71.54739 5.88253,10.05012 17.0341,16.40185 28.89517,16.40185 18.58762,0 33.6605,-15.08145 33.6605,-33.66637 v -54.28287 c 0,0 40.27135,69.31987 41.57827,71.54739 5.87984,10.05012 17.03116,16.40185 28.89224,16.40185 18.58743,0 33.6605,-15.08145 33.6605,-33.66637 V 120.78737 h -21.60731 v 146.42426 c 0,7.33194 -5.96824,13.29636 -13.29733,13.29636 -4.6992,0 -9.07651,-2.49548 -11.43012,-6.51222 -0.28232,-0.48229 -17.34171,-29.91713 -35.40057,-61.08657 -17.25061,-29.75819 -35.08391,-60.53369 -35.39077,-61.05427 -0.78649,-1.35627 -2.34886,-2.23302 -3.96818,-2.23303 -2.56448,0 -4.64403,2.0881 -4.64403,4.64991 v 112.93982 c 0,7.33194 -5.96709,13.29636 -13.29636,13.29636 -4.69902,0 -9.07752,-2.49548 -11.43111,-6.51222 -0.2823,-0.47963 -17.35175,-29.91703 -35.42697,-61.08362 -17.26146,-29.76656 -35.1129,-60.55035 -35.41425,-61.05722 -0.79466,-1.35627 -2.35073,-2.23303 -3.96717,-2.23303 -2.56468,0 -4.65188,2.0881 -4.65188,4.64991 v 110.6354 c 0,7.61421 -6.68825,14.2911 -14.31066,14.2911 h -56.3936 c -37.7124,0 -68.396939,-30.68399 -68.396939,-68.39888 0,-37.71773 30.684539,-68.40279 68.396939,-68.40279 h 28.95287 v -21.60927 z"
   style="fill:#ffffff;fill-opacity:1;stroke-width:0.50079"
   sodipodi:nodetypes="sssssssccsssssssccssssscccssccccssccssssssccssccssccsscccsssscccsssssssccs" /><path
   id="path1837"
   style="display:inline;fill:#ffffff;stroke-width:1.6716"
   d="M 387.75391 322.04688 C 384.55783 322.04688 381.95703 324.65158 381.95703 327.84766 C 381.95703 331.04707 384.55783 333.65039 387.75391 333.65039 C 390.95331 333.65039 393.55664 331.04707 393.55664 327.84766 C 393.55664 324.65158 390.95331 322.04688 387.75391 322.04688 z M 58.134766 322.61914 L 58.134766 394.45508 L 67.025391 394.45508 L 67.025391 322.61914 L 58.134766 322.61914 z M 165.04688 322.61914 L 165.04688 342.97656 C 163.02592 342.07056 159.47054 340.87109 154.76172 340.87109 C 139.60207 340.87109 129.01563 352.48822 129.01562 369.12891 C 129.01562 384.9003 138.31828 395.49805 152.15234 395.49805 C 158.20682 395.49805 162.99508 393.27406 165.66797 391.6543 L 165.66797 394.45703 L 173.625 394.45703 L 173.625 322.61914 L 165.04688 322.61914 z M 103.75781 340.87109 C 97.094852 340.87109 91.173506 343.49109 88.365234 344.98047 L 88.365234 342.11523 L 80.199219 342.11523 L 80.199219 394.45508 L 88.677734 394.45508 L 88.677734 353 C 90.798981 351.72123 97.158238 348.61132 102.92188 348.61133 C 105.73517 348.61133 108.44008 349.56565 109.97461 351.10352 C 112.58432 353.7162 112.57813 357.82299 112.57812 363.50977 L 112.57812 394.45703 L 121.04883 394.45703 L 121.04883 363.16602 C 121.04883 353.66136 120.30678 349.54254 116.13281 345.36523 C 112.2146 341.45538 106.69814 340.87109 103.75781 340.87109 z M 204.92383 340.87109 C 190.22565 340.87109 180.72852 351.59452 180.72852 368.18945 C 180.72852 384.7811 190.02704 395.5 204.41211 395.5 C 218.98036 395.5 228.39746 384.93976 228.39648 368.59961 C 228.39556 351.75653 219.18233 340.87109 204.92383 340.87109 z M 259.24219 340.87109 C 252.57922 340.87109 246.65984 343.49109 243.85156 344.98047 L 243.85156 342.11523 L 235.68555 342.11523 L 235.68555 394.45508 L 244.16406 394.45508 L 244.16406 353 C 246.2853 351.72123 252.64458 348.61132 258.4082 348.61133 C 261.22151 348.61133 263.92641 349.56565 265.46094 351.10352 C 268.07062 353.7162 268.06445 357.82299 268.06445 363.50977 L 268.06445 394.45703 L 276.53516 394.45703 L 276.53516 363.16602 C 276.53516 353.66136 275.7931 349.54254 271.61914 345.36523 C 267.7009 341.45538 262.18251 340.87109 259.24219 340.87109 z M 308.41016 340.87109 C 293.42384 340.87109 284.4375 352.21097 284.4375 368.61523 C 284.4375 384.10044 293.18456 395.5 308.71875 395.5 C 320.08685 395.5 327.26788 390.19405 328.11328 389.54883 L 324.1582 382.90039 C 322.98614 383.73271 315.18011 387.43945 309.24805 387.43945 C 298.74144 387.43945 293.47494 379.86463 293.13867 370.64453 L 329.24414 370.64453 L 329.24414 366.20508 C 329.24414 351.11175 321.3182 340.87109 308.41016 340.87109 z M 355.78906 340.87109 C 345.67296 340.87109 338.04492 346.44775 338.04492 355.07422 C 338.04492 373.2933 364.37305 368.18468 364.37305 380.14648 C 364.37305 385.5881 359.14276 387.79297 353.5 387.79297 C 346.69884 387.79297 340.58513 383.80284 339.5 383.16016 L 335.80273 389.70898 C 336.45381 390.24455 343.50447 395.5 353.92188 395.5 C 364.23074 395.5 373.02344 390.63474 373.02344 379.52148 C 373.02344 361.92928 346.69727 365.35295 346.69727 354.86914 C 346.69727 351.01312 350.90849 348.47266 356.31836 348.47266 C 362.72071 348.47266 368.15359 351.98563 368.80469 352.41406 L 372.25195 345.99609 C 371.70936 345.56765 365.36257 340.87109 355.78906 340.87109 z M 422.00391 340.87109 C 411.81243 340.87109 405.15969 345.3186 403.51172 346.67969 L 407.02539 353.20508 C 412.11116 350.1543 418.09533 348.60742 421.26953 348.60742 C 425.33282 348.60742 428.25986 349.47527 429.96289 351.18164 C 431.9912 353.30334 432.13732 356.56685 432.14844 360.94531 L 432.15039 361.71289 L 430.6543 361.71289 C 423.24333 361.71289 400.67773 361.71221 400.67773 379.17578 C 400.67773 388.93859 407.57408 395.5 417.83398 395.5 C 422.7346 395.5 427.97454 394.0877 432.66992 391.51562 L 432.66992 394.45703 L 440.61523 394.45703 L 440.61523 361.15039 C 440.61523 353.47758 440.01942 349.67793 436.32812 345.98828 C 432.93878 342.59888 428.12044 340.87109 422.00391 340.87109 z M 383.50977 342.11523 L 383.50977 394.45703 L 391.98828 394.45703 L 391.98828 342.11523 L 383.50977 342.11523 z M 308.51172 348.40625 C 317.21223 348.40625 320.34404 356.57172 320.63867 363.10938 L 293.42383 363.10938 C 294.42399 354.26035 300.48044 348.40625 308.51172 348.40625 z M 204.51367 348.47852 C 213.34321 348.47852 219.75 356.85298 219.75 368.38867 C 219.75 380.53889 214.08956 387.78906 204.61719 387.78906 C 195.64276 387.78906 189.37695 379.64382 189.37695 367.97656 C 189.37695 356.12942 195.3194 348.47852 204.51367 348.47852 z M 154.76172 348.60547 C 158.39653 348.60546 161.85476 349.56628 165.04688 351.46094 L 165.04688 383.38477 C 163.13958 384.78388 159.08841 387.75977 152.7832 387.75977 C 143.9054 387.75977 137.69727 380.17506 137.69727 369.32812 C 137.69727 356.93502 144.55166 348.60546 154.76172 348.60547 z M 430.45312 369.02344 L 432.15039 369.02344 L 432.15039 384.11914 C 430.13043 385.12494 424.79708 387.77148 419.29102 387.77148 C 413.07269 387.77148 409.35352 384.59833 409.35352 379.28906 C 409.35352 372.47528 416.44858 369.02344 430.45312 369.02344 z " />
</svg>
