<svg xmlns="http://www.w3.org/2000/svg" xmlns:xlink="http://www.w3.org/1999/xlink" xml:space="preserve" viewBox="0 0 2061.1732 709.68968"><defs><linearGradient xlink:href="#a" id="b" x1="511.73001" x2="571.58002" y1="172.64999" y2="-6.9299998" gradientTransform="matrix(3.417935 0 0 -3.4259592 5.0397141 713.80086)" gradientUnits="userSpaceOnUse"/><linearGradient id="a" x1="511.73001" x2="571.58002" y1="172.64999" y2="-6.9299998" gradientTransform="matrix(1 0 0 -1 0 207.4)" gradientUnits="userSpaceOnUse"><stop offset="0" stop-color="#ecc334"/><stop offset="1" stop-color="#eb8b4c"/></linearGradient><linearGradient xlink:href="#a" id="c" x1="546.13" x2="605.98999" y1="4.54" y2="184.11" gradientTransform="matrix(3.4748393 0 0 3.4165319 -27.552936 4.74962)"/></defs><path d="M1030.4905 509.46299c-68.95507 0-125.9525-49.54816-125.9525-113.3315V239.1919c0-62.88074 56.99743-112.42891 125.9525-112.42891 68.9551 0 125.853 51.54817 125.853 114.42891v152.9396c0 63.78333-56.7982 115.33149-125.853 115.33149Zm0-306.1812c-23.3172 0-41.95098 17.34814-41.95098 38.00752v152.9396c0 20.65938 18.63378 37.41039 41.95098 37.41039s41.951-17.85131 41.951-38.4104V242.6922c-.8968-21.56197-18.6338-39.41041-41.951-39.41041Z"/><path d="M353.44761 620.56754 325.523 703.47435h14.44376l6.25897-20.70272h31.48852l6.25896 20.70272h16.3696l-27.05948-82.90681Zm7.99296 12.61384 11.74684 38.70853h-24.36068Z"/><path d="M1002.1909 703.47435H951.734v-82.90719h15.31039v70.29297h35.14651Z"/><path d="M862.57604 703.47435H809.423v-82.90719h51.32349v11.7476h-36.01311v23.39889h28.79123v11.74759h-28.79123v24.36181h37.84266Z"/><path d="M715.06443 703.47435h-16.2256l-36.99049-63.07109v63.07109h-13.52132v-82.90719h18.06062l35.25203 59.41201v-59.41201h13.52135Z"/><path d="M554.32653 703.47435h-16.17701l-36.87974-63.07109v63.07109h-13.48084v-82.90719h18.00656l35.14648 59.41201v-59.41201h13.48084v82.90719Z"/><path d="M238.08351 703.47435h-15.31039v-35.14648h-36.87973v35.14648H170.583v-82.90719h15.31039v35.14649h36.87973v-35.14649h15.31039Z"/><path d="M45.93882 704.34097C19.84376 704.34097 5.4 688.16396 5.4 662.93553v-.86663c0-25.22843 17.139929-42.36836 39.672195-42.36836 18.87318 0 33.31694 9.05142 35.146483 28.79123h-14.44376c-1.829543-10.78468-8.088506-16.17701-19.836098-16.17701-14.44376 0-24.361809 11.74759-24.361809 29.75414v.86663c0 18.87318 9.051423 29.75414 24.361809 29.75414 11.747592 0 19.836098-5.39233 20.702723-17.13992h15.310386c-1.733251 18.87318-16.177011 28.79122-36.013109 28.79122Z"/><path d="M1320.5155 280.42553c69.2007 0 126.3015 51.52125 126.3015 114.36917 0 63.75004-57.1008 115.2713-126.3015 115.2713-70.2008 0-127.2015-51.52126-127.2015-115.2713h84.2009c0 21.55073 18.7003 38.39035 43.0006 38.39035 23.4002 0 42.1005-16.83962 42.1005-38.39035 0-20.64859-18.7003-37.48823-43.0006-37.48823-69.2007 0-126.3014-51.52126-126.3014-114.36917 0-63.75005 57.1007-115.2713 127.2015-115.2713 69.2007 0 126.3015 51.52125 126.3015 115.2713h-84.201c0-21.55073-18.7003-38.39036-42.1005-38.39036-24.3003 0-43.0006 16.83963-43.0006 38.39036.9001 20.6486 19.6003 37.48823 43.0006 37.48823Z"/><path d="M126.5015 507.55972C57.090942 507.55972 0 450.42525 0 381.06199V127.86608C0 58.502829 57.1911.36600005 126.5015.36600005c70.31201 0 126.50151 57.03462495 126.50151 127.29999995H168.069c-1.43403-25.84524-18.13016-42.001722-41.5675-42.001722-25.34937 0-42.612179 19.646312-42.668452 43.101442l-.600096 250.12629c-.056273 23.45513 19.831218 43.67165 43.268548 43.67165 23.43734 0 42.16717-20.10722 42.16717-41.59932h84.33434c-.10016 69.36324-56.28966 126.59538-126.50151 126.59538Z"/><path d="M416.90509 509.16387c-33.46787 0-62.70866-11.13486-84.42641-28.24223-23.06162-18.16596-38.33439-44.16092-39.28968-68.42064l-1.11925-76.64239-1.96575-209.19498h84.401l.4 267.22895c.03091 20.64858 17.69981 38.39035 42.00009 38.39035 23.40026 0 42.10048-17.84199 42.10048-38.39035V126.66363H543.507v267.22895c0 64.65216-57.30112 115.27129-126.60191 115.27129Z"/><path d="M663.608 150.321v-23.255h-84.701l.3995 379.29127h84.7005l-1.499-242.56871c-.17809-28.81808 19.75063-43.56277 40.45545-51.52022 22.27397-8.56052 45.94555-8.80288 45.94555-8.80288l-.5-76.40181c.10001 0-59.50071 4.51324-84.801 23.25735Z"/><path d="M778.909 127.04128h83.001v378.91598h-83.001Z"/><path d="M1479.117 128.66421h83.701v377.99298h-83.701Z"/><path d="m1728.5107 422.429 42.3103.19979V507.396h-42.3103c-69.5455 0-126.9307-54.11993-126.9307-126.748V0h83.6155l-.4995 129.35367h85.62V211.415h-86.02l2.2 170.03303c.1005 22.44402 18.5988 40.8704 42.0147 40.98097Z"/><path fill="url(#b)" d="M1979.9226 663.78185a45.800327 45.907853 0 1 1-45.8003-45.90785 45.800327 45.907853 0 0 1 45.8003 45.90785Z"/><path fill="url(#c)" d="M1975.591 130.478h85.582v260.07678c0 49.97554-32.7976 100.89067-84.9813 117.20922v71.64629h-85.5813V507.764c-50.5884-17.67187-84.3028-66.64912-84.4384-119.149l-.3997-258.137h84.6377l.499 259.377c.0405 21.07808 19.6303 40.896 42.939 40.896 23.0657-.24727 41.2088-18.36264 41.843-40.896Z"/></svg>