<?xml version="1.0" encoding="utf-8"?>
<!-- Generator: Adobe Illustrator 24.3.0, SVG Export Plug-In . SVG Version: 6.00 Build 0)  -->
<svg version="1.1" id="Layer_1" xmlns="http://www.w3.org/2000/svg" xmlns:xlink="http://www.w3.org/1999/xlink" x="0px" y="0px"
	 viewBox="0 0 1486.4 437.4" style="enable-background:new 0 0 1486.4 437.4;" xml:space="preserve">
<style type="text/css">
	.st0{fill:#636766;}
	.st1{fill:#B7B5B8;}
</style>
<g>
	<path class="st0" d="M234,0H14.8C3.3,0,0,10.3,0,14.8c0,29.6,23,27.5,23,49.5c0,44-0.6,233.1,0,263.7c0.4,19.9-23,20.1-23,48.8
		c0,7.9,6.6,14.8,14.8,14.8h220.1c130.4,0,188.3-84.3,188.3-188.3v-12.7C423.3,126.4,398.2,0,234,0z M339.2,201.7
		c0,30.3-4.6,126.3-122.1,126.3H105.8V64.3h109.9c125.1-2,122.8,107.9,123.5,129.7V201.7z"/>
	<path class="st1" d="M992.3,352.9c-5.8-3-15.7-14.5-21.7-26.7C933.8,251.5,865.1,112.6,834,48.5c-1.2-2.4-2.1-6.6-2-9.3
		c0.3-16.1,7.8-13.8,7.6-24.2c-0.2-8.7-8.6-15-17.9-15h-52.9L729-0.2h-1.9c-9.3,0-17.7,6.3-17.9,15c-0.2,10.4,7.3,8.1,7.6,24.2
		c0,2.7-0.9,6.9-2,9.4c-31.1,64.1-99.8,203-136.6,277.8c-6,12.2-16.9,24-22.6,27.2c-13.6,7.5-25.6,18.9-25.6,28.5
		c0,5.2,3,9.8,8.4,9.8h123.3c4.3,0.1,6.7-3.9,6.6-7.3c-0.1-9.4-9.3-8-15.4-12.3c-2-1.4-8.6-4.7-0.1-22.5c20-41.7,20-41.7,27.1-56.6
		c0.5-1.1,1.6-1.7,2.8-1.7l86.1,0.2l87.3-0.1c1.2,0,2.2,0.6,2.7,1.7c7.5,14.8,18.7,37.2,28.5,57.3c8.7,17.8-1,22.2-6.3,24
		c-6.4,2.2-10.4,4.9-10.3,9.8c0,3.4,2.4,7.5,6.3,7.5l133.5,0c4.9,0,8.3-4,8.3-9.7C1018.8,370.6,1005.4,359.6,992.3,352.9z
		 M768.8,238.3l-63.1,0l64.8-139l62.5,139H768.8z"/>
	<path class="st0" d="M789.3,352.9c-5.8-3-15.7-14.5-21.7-26.7c-36.7-74.8-105.5-213.6-136.6-277.8c-1.2-2.4-2.1-6.6-2-9.3
		c0.3-16.1,7.8-13.8,7.6-24.2c-0.2-8.7-8.6-15-17.9-15h-52.9l-39.8-0.1h-1.9c-9.3,0-17.7,6.3-17.9,15c-0.2,10.4,7.3,8.1,7.6,24.2
		c0,2.7-0.9,6.9-2,9.4c-31.1,64.1-99.8,203-136.6,277.8c-6,12.2-16.9,24-22.6,27.2c-13.6,7.5-25.6,18.9-25.6,28.5
		c0,5.2,3,9.8,8.4,9.8h123.3c4.3,0.1,6.7-3.9,6.6-7.3c-0.1-9.4-9.3-8-15.4-12.3c-2-1.4-8.6-4.7-0.1-22.5c20-41.7,20-41.7,27.1-56.6
		c0.5-1.1,1.6-1.7,2.8-1.7l86.1,0.2l87.3-0.1c1.2,0,2.2,0.6,2.7,1.7c7.5,14.8,18.7,37.2,28.5,57.3c8.7,17.8-1,22.2-6.3,24
		c-6.4,2.2-10.4,4.9-10.3,9.8c0,3.4,2.4,7.5,6.3,7.5l133.5,0c4.9,0,8.3-4,8.3-9.7C815.8,370.6,802.4,359.6,789.3,352.9z
		 M565.8,238.3l-63.1,0l64.8-139l62.5,139H565.8z"/>
	<path class="st0" d="M1043,63.2l-0.2,121.4l0.2,143.6c0,1.4,0.2,2.8,0.6,4.1c6.9,21.9,21.8,17.4,21.8,41.7v2.4
		c0,7.8-6.2,15.2-14.5,15.2H948.5c-8,0-14.5-6.6-14.5-14.5v-2.9c0-22.6,17-23.1,22.1-42c0.3-1.2,0.5-2.4,0.5-3.6V62.9
		c0-1.2-0.1-2.5-0.5-3.6C951,40.2,934,39.8,934,17.2v-2.9c0-7.9,6.5-14.5,14.5-14.5H1051c8.3,0,14.5,7.5,14.5,15.2v2.4
		c0,24.3-15,19.8-21.8,41.7C1043.2,60.4,1043,61.8,1043,63.2z"/>
</g>
<path class="st0" d="M1485,238.3c0,0-61,128.2-92.6,192c-3.7,7.5-15.7,11.9-22.5-2c-32.1-65.5-94.2-195.6-94.2-195.6v28.7
	c0,9.6-7.8,17.5-17.5,17.5h-42.5c-1.8,0-3.2,1.4-3.2,3.2v140c0,6.9-5.6,12.6-12.6,12.6h-51.2c-6.9,0-12.6-5.6-12.6-12.6v-137
	c0-1.8-1.4-3.2-3.2-3.2h-41.8c-7.1,0-17.7-4.7-17.7-14.9v-34.6c0-10.2,6.1-15.3,13.7-15.3h92.4V217h157.6
	c19.2,0,24.5,16.3,24.5,16.3l19.8,52.9c0.2,0.5,1,0.5,1.2,0l19.8-51.8c0,0,5.3-17.4,24.1-17.4h46.6
	C1482.9,217,1489.2,229.3,1485,238.3z"/>
</svg>
