<?xml version="1.0" encoding="utf-8"?>
<!-- Generator: Adobe Illustrator 24.3.0, SVG Export Plug-In . SVG Version: 6.00 Build 0)  -->
<svg version="1.1" id="Livello_1" xmlns="http://www.w3.org/2000/svg" xmlns:xlink="http://www.w3.org/1999/xlink" x="0px" y="0px"
	 viewBox="0 0 512 512" style="enable-background:new 0 0 512 512;" xml:space="preserve">
<style type="text/css">
	.st0{fill-rule:evenodd;clip-rule:evenodd;fill:#0C161C;}
</style>
<g id="Artboard">
	<path id="Fill-1" class="st0" d="M315.1,176.9l16.4-55.4l16.9,55.4H315.1z M354.1,94.6c-0.9-2.9-2.1-4.8-3.3-5.7
		c-1.3-0.9-3.3-1.3-5.9-1.3H321c-2.8,0-4.8,0.5-6.1,1.4c-1.3,0.9-2.3,2.8-3.1,5.6l-43.6,130.7c-0.6,0.7-0.8,2.1-0.8,4.1
		c0,3.1,1.9,4.8,5.7,4.8h17.8c1.6,0,3-0.1,4-0.2c1-0.1,1.9-0.5,2.4-1c0.6-0.6,1.2-1.4,1.6-2.4c0.5-1,0.9-2.6,1.5-4.3l6.8-22.9h49.1
		l7,22.4c0.6,2,1,3.4,1.6,4.5c0.6,1,1.2,2,1.9,2.6c0.7,0.6,1.5,1,2.4,1.2c0.9,0.1,2.2,0.2,3.7,0.2h19.1c3.8,0,5.7-1.5,5.7-4.8
		c0-0.9,0-1.6-0.1-2c-0.1-0.3-0.3-1-0.7-2.2L354.1,94.6z M362.2,277.9c-3.6,0-5.9,0.5-7.1,1.5s-1.7,3.1-1.7,6.3v77.6l-40.7-77.8
		c-1.6-3.3-3.3-5.4-4.8-6.3c-1.6-0.9-4.3-1.3-8.3-1.3h-12.7c-3.6,0-5.9,0.5-7.1,1.5s-1.7,3.1-1.7,6.3v130.9c0,3.1,0.6,5.2,1.6,6.3
		s3.4,1.5,7,1.5h14c3.5,0,5.9-0.5,7.1-1.5s1.7-3.1,1.7-6.3v-77.8l40.7,78c1.6,3.3,3.3,5.4,4.8,6.3c1.6,0.9,4.3,1.3,8.3,1.3H376
		c3.6,0,5.9-0.5,7.1-1.5s1.7-3.1,1.7-6.3V285.7c0-3.1-0.6-5.2-1.7-6.3s-3.5-1.5-7.1-1.5L362.2,277.9L362.2,277.9z M479.8,301v178.8
		H32.2V301l35.5-35.5c5.2-5.2,5.2-13.8,0-19l-35.5-35.5V32.2h447.6V211l-35.5,35.5c-5.2,5.2-5.2,13.8,0,19L479.8,301z M511.9,0.1
		H0.1v226.4L29.6,256L0,285.6V512h511.9V285.6L482.4,256l29.6-29.6V0.1H511.9z M169.8,394l60.9-85.6c0.9-1.4,1.6-2.4,1.9-3.3
		c0.2-0.8,0.5-1.7,0.5-2.9v-16.4c0-3.1-0.6-5.2-1.7-6.3s-3.5-1.5-7.1-1.5h-87.9c-3.1,0-5.2,0.6-6.2,1.7s-1.4,3.6-1.4,7.3v12.4
		c0,3.7,0.5,6.2,1.4,7.3c0.9,1.2,3,1.7,6.2,1.7h54.2l-60.1,85.6c-1.5,2-2.3,3.8-2.3,5.7v16.9c0,3.1,0.6,5.2,1.7,6.3
		c1.2,1,3.5,1.5,7.1,1.5h90.6c3.1,0,5.2-0.6,6.2-1.7s1.4-3.6,1.4-7.3v-12.4c0-3.7-0.5-6.2-1.4-7.3s-3-1.7-6.2-1.7H169.8z
		 M200.7,175.6c0,5.6-0.3,10.4-1.2,14.1c-0.7,3.7-2,6.9-3.7,9.2c-1.7,2.3-4,4-6.8,4.9c-2.8,0.9-6.3,1.4-10.4,1.4h-16.9v-88.9h16.9
		c7.8,0,13.4,2.3,16.9,6.9c3.4,4.5,5.1,12.1,5.1,22.7V175.6z M210.5,94.6c-8.3-4.7-18.8-7-31.4-7H137c-3.6,0-5.9,0.5-7.1,1.5
		s-1.7,3.1-1.7,6.3v130.9c0,3.1,0.6,5.2,1.7,6.3c1.2,1,3.5,1.5,7.1,1.5h47.4c22.4,0,37.7-9.6,45.8-28.6c1.9-4.4,3.3-8.9,4-13.3
		c0.7-4.4,1.2-10.1,1.2-16.9v-27.8c0-7.8-0.3-14-1.2-18.5c-0.7-4.5-2.1-8.7-4-12.7C225.3,106.5,218.8,99.2,210.5,94.6z"/>
</g>
</svg>
