<svg enable-background="new -258 -206.991 1000 816.982" height="816.982" viewBox="-258 -206.991 1000 816.982" width="1000" xmlns="http://www.w3.org/2000/svg" xmlns:xlink="http://www.w3.org/1999/xlink"><clipPath id="a"><path d="m-258-206.991h1000v816.982h-1000z"/></clipPath><path clip-path="url(#a)" d="m545.057 18.881c-134.92-51.28-268.07 10.256-297.512 137.66-5.393 23.605-6.808 47.743-4.863 71.97-15.118-6.456-30.767-12.379-46.858-17.419-21.043-6.631-41.996-11.582-62.862-15.207 27.938-48.627 41.732-104.24 36.427-161.355-14.325-154.458-162.859-261.262-331.729-238.452-168.782 22.812-294.064 166.572-279.741 321.118 9.371 100.881 75.947 181.337 168.074 218.734-31.034 37.932-54.994 82.227-69.317 131.915-61.978 215.728 78.865 450.468 314.576 524.292 235.799 73.913 477.167-41.201 539.146-256.754 23.076-80.367 18.036-163.299-9.548-239.6 111.577 14.854 210.688-45.798 235.355-153.488 29.444-127.312-56.228-272.134-191.148-323.414m-449.407 214.845c22.457 1.239 45.091 4.422 67.636 9.99 51.28 12.466 97.167 35.101 136.247 65.073 5.304 2.565 10.786 3.006 11.138-5.305-12.377-35.453-16.091-73.827-8.751-111.488 21.13-108.308 125.635-169.401 233.411-136.512 107.689 32.978 177.888 147.563 156.757 255.956-21.13 108.396-125.547 169.49-233.412 136.601-14.853-4.598-28.998-10.788-42.438-18.213-10.521-3.006-11.937 2.828-10.965 8.84 34.218 71.615 44.561 154.636 23.607 237.214-48.54 191.063-246.143 307.325-441.448 259.671-195.13-47.655-314.134-241.104-265.506-432.164 5.304-21.133 12.554-41.291 21.396-60.388 9.813-20.247 19.716-33.952 27.143-42.438l8.664-8.931 2.918-3.097 22.28-22.81c3.89-3.978 3.36-9.902-1.238-12.997 0 0-4.597-3.183-46.77-31.649-32.537-22.016-53.402-36.516-74.975-71.793-28.47-47.037-39.256-107.688-24.402-168.605 31.209-127.493 159.32-215.906 286.106-197.427 126.785 18.391 204.324 136.864 173.026 264.356-6.984 28.735-19.009 55.437-34.658 79.484-.177 2.651 1.15 5.217 6.277 6.188 2.3.089 4.598.266 6.897.354z" fill="#2f8ed4"/><g clip-path="url(#a)"><path d="m-285.47-107.642c.177.266 17.329 21.661 17.594 22.014 3.448 4.333 6.012 5.042 10.521 5.042 4.156 0 9.018-1.594 9.018-6.188v-31.124c0-4.067-2.652-6.1-7.78-6.1-1.945 0-4.598.354-6.278 2.032-1.062.974-1.503 2.388-1.503 4.067v16.445l.177 2.211.619 1.856c.177.354 0 .709-.354.797-.264.175-.53.089-.795-.088l-17.682-22.37c-3.537-4.331-6.101-5.04-10.522-5.04-4.155 0-9.018 1.592-9.018 6.188v31.124c0 4.065 2.564 6.188 7.692 6.188 3.625 0 7.869-1.063 7.869-6.188v-16.005l-.266-2.653c-.265-.972-.442-1.324-.442-1.59v.089c-.087-.354 0-.797.354-.885.354-.176.707-.088.796.178" transform="translate(394.89371 576.66141)"/><path d="m-228.156-107.642c.177.266 17.329 21.661 17.595 22.014 3.448 4.333 6.011 5.042 10.432 5.042 4.244 0 9.107-1.594 9.107-6.188v-31.124c0-4.067-2.653-6.1-7.78-6.1-3.537 0-7.781 1.061-7.781 6.1v16.445l.177 2.211.619 1.856c.088.354-.088.709-.441.797-.266.175-.443.089-.708-.088l-17.682-22.37c-3.537-4.331-6.101-5.04-10.522-5.04-4.067 0-9.018 1.592-9.018 6.188v31.124c0 4.065 2.564 6.188 7.692 6.188 3.625 0 7.87-1.063 7.87-6.188v-16.005l-.266-2.653c-.266-.972-.443-1.324-.443-1.59v.089c-.087-.354 0-.797.354-.885.354-.177.707-.089.795.177" transform="translate(395.54939 576.66141)"/><path d="m-362.667-117.848c0-3.979-3.006-6.365-8.223-6.365-2.83 0-5.217.796-6.631 2.208-1.062 1.063-1.503 2.478-1.503 4.068l-.088 9.991c0 .442-.354.885-.884.885h-17.329c-.53 0-.884-.531-.884-.974v-9.902c0-1.68-.619-3.094-1.68-4.245-1.415-1.323-3.714-2.031-6.542-2.031-5.128 0-8.223 2.386-8.223 6.276v30.326c0 1.767.619 3.184 1.68 4.332 1.414 1.325 3.713 2.034 6.542 2.034 5.128 0 8.134-2.298 8.222-6.366l-.088-8.753c0-.706.619-1.326 1.238-1.326l17.063-.088c.53 0 .884.53.884.974v9.193c0 4.068 3.094 6.366 8.222 6.366 2.917 0 5.217-.709 6.542-2.034 1.15-1.061 1.68-2.565 1.68-4.243v-30.326" transform="translate(394.0106 576.7756)"/><path d="m-176.902-80.673h32.005c2.211 0 5.04-.708 5.04-4.156s-2.829-4.154-5.04-4.154l-23.429.089c-.796 0-1.416-.706-1.504-1.503v-6.454c.088-.797.708-1.417 1.504-1.417h20.424c1.945 0 3.447-.706 4.243-1.678.53-.708.707-1.416.707-2.388 0-.883-.177-1.592-.707-2.211-.707-1.061-2.298-1.678-4.243-1.678h-20.335c-.796 0-1.504-.62-1.504-1.417v-5.568c0-.797.62-1.505 1.504-1.505h23.429c2.298 0 5.039-.706 5.039-4.154 0-3.36-2.741-4.066-5.039-4.154h-32.094c-6.985 0-9.991 2.209-9.991 7.248v27.851c0 5.129 3.006 7.249 9.991 7.249" transform="translate(396.1357 576.3598)"/><path d="m-95.698-88.219c-.974-1.237-2.651-1.857-4.686-1.857h-18.655c-.797 0-1.592-.617-1.592-1.414v-25.815c0-4.068-3.183-6.454-8.488-6.454-5.393 0-8.575 2.386-8.575 6.365v29.529c0 2.298.619 3.979 1.769 5.04 1.503 1.503 4.243 2.211 8.135 2.211h27.407c2.034 0 3.712-.619 4.686-1.858.62-.707.974-1.679.974-2.829-.001-1.149-.354-2.121-.975-2.918" transform="translate(397.0647 576.4442)"/><path d="m-311.869-80.648c3.271 0 5.393-.708 6.719-2.12.708-.797 1.062-1.947 1.062-3.185v-.884c-.089-1.327-1.68-4.688-4.156-9.459l-11.582-22.725c-2.564-4.597-8.665-5.128-11.141-5.128h-2.298c-5.217 0-9.372 1.945-11.141 5.128l-11.671 22.99c-1.326 2.563-3.801 7.337-3.89 8.928-.089 1.681.442 3.095 1.503 4.245 1.327 1.412 3.537 2.209 6.101 2.209 2.83 0 6.366-.885 7.161-2.828l1.946-4.068.266-.266.353-.266.442-.088h20.423l.441.088.266.266.266.266.441.886c1.416 2.74 1.416 2.74 1.416 2.651.707 1.857 4.067 3.36 7.073 3.36m-12.467-14.587-.177.264h-15.207-.177l-.266-.175.089-.266v-.354c6.012-13.525 6.808-15.384 6.985-15.649l.089-.089-.089.089c.265-.353.53-.529.884-.529.353 0 .707.177 1.061.617l6.896 15.916z" transform="translate(394.59171 576.3595)"/><path d="m-424.416-96.584c-2.917 0-4.509.443-5.747 1.769-2.034 1.945-4.333 3.183-7.161 3.626-1.15.263-2.211.44-3.36.44-1.769 0-3.537-.44-5.128-.972-1.945-.706-3.625-1.769-4.951-3.095-2.034-2.211-3.183-4.862-3.183-7.603 0-2.742 1.149-5.394 3.094-7.517 1.415-1.502 3.183-2.563 5.217-3.271 1.591-.62 3.271-.886 4.951-.886 1.149 0 2.21.177 3.36.442 2.829.354 5.127 1.594 7.25 3.626 1.149 1.239 2.741 1.68 5.658 1.68 4.156 0 7.073-2.211 7.073-5.04 0-1.68-.707-3.271-2.21-4.862-4.597-4.509-14.5-6.014-21.662-6.014-8.399 0-28.292 2.036-28.734 21.841.441 19.805 20.334 21.837 28.734 21.837 7.162 0 17.064-1.59 21.662-6.101 1.503-1.414 2.21-3.005 2.21-4.686 0-2.916-2.917-5.214-7.073-5.214" transform="translate(393.3042 576.5377)"/><path d="m-541.837-327.022c-23.783.708-42.969 3.714-47.124 8.222-3.89 4.066-8.665 7.515-8.752 12.997-.177 5.394 6.188 5.925 9.99 5.836 3.802 0 7.339-.354 7.25-2.564 0-3.095-5.04-2.478-5.04-5.66 0-3.711 19.627-4.506 29.441-4.506 84.258-.266 181.159 58.086 181.248 107.509.177 38.372-49.866 47.037-77.45 47.125-9.814 0-19.363-.974-28.381-2.74-.354-12.29-1.061-37.931-1.414-54.199 3.183 0 6.1-.088 8.664-.088 20.424-.089 47.301 7.162 47.301 12.024 0 4.066-7.161 6.809-7.161 10.697.088 2.919 6.631 2.477 12.378 2.83.973.089 12.555-6.365 12.555-16.533-.088-13.438-16.887-29.443-71.704-29.266-.795 0-1.68.088-2.476.088-.441-15.205-2.651-38.989-11.316-38.989-7.161 0-9.195 26.259-9.814 40.849-30.679 4.595-58.088 17.15-58.088 29.441 0 9.99 22.015 35.364 57.646 50.837.531 11.405 2.741 19.275 12.909 19.275 7.338 0 9.814-5.396 10.61-11.053 11.494 2.828 23.96 4.597 37.222 4.509 51.634-.176 93.099-27.673 92.923-65.514-.178-50.749-102.385-123.602-191.417-121.127m-13.88 126.166c0-8.842 26.789-12.113 51.721-13.438-.265 13.793-.441 33.774-.353 47.036-30.503-10.788-51.368-27.941-51.368-33.598" transform="translate(391.96091 579.11501)"/><path d="m-334.298-232.955c-8.665.088-8.93 35.188-9.284 48.009-.53 29.353 3.802 32.801 11.582 32.712 6.985 0 9.372-.795 8.754-25.375-1.062-46.417-4.244-55.346-11.052-55.346" transform="translate(394.3351 578.0629)"/><path d="m-329.822-246.478c19.274-.089 50.13-21.927 50.042-40.229 0-8.134-4.244-12.377-14.853-13.882-4.421-4.243-10.964-9.018-20.69-8.929-30.06.089-49.6 24.05-49.512 37.046 0 4.863 1.503 10.786 5.835 15.737.089 10.345 2.653 13.085 6.013 13.085 3.89 0 6.101-2.209 7.515-4.863 4.333 1.327 9.549 2.124 15.65 2.035m2.034-14.676c-4.51 0-8.224-.531-11.406-1.503 8.577-9.637 29.177-27.853 39.345-27.94 6.631 0 7.78 5.219 7.78 7.25-.001 12.202-25.021 22.105-35.719 22.193m1.414-32.361c-9.284 5.395-18.656 12.997-25.11 20.513-.265-.885-.441-1.945-.441-2.828 0-5.837 8.575-14.943 25.551-17.685" transform="translate(394.38631 578.2142)"/><path d="m-230.898-226.56c0-8.134-20.866-8.046-32.625-7.957-8.841 0-53.667 1.061-53.49 25.993 0 16.799 25.021 12.732 41.643 14.41 13.527 1.417 30.06 5.748 30.06 10.257 0 9.902-35.896 13.882-43.233 13.882-15.208.089-15.562-4.422-15.562-6.631 0-2.123 2.476-6.012 8.135-6.101 5.747 0 17.505 7.338 25.551 7.249 8.134 0 14.854-3.537 14.854-7.249 0-6.631-26.878-9.813-35.101-9.813-8.752.089-21.219 3.623-21.219 16.711 0 6.806 11.14 22.81 42.262 22.722 30.769-.089 38.459-17.508 38.459-26.524-.088-21.927-20.688-24.403-38.813-25.904-13.526-1.063-28.115-1.771-28.027-4.865.088-9.991 67.106-2.564 67.106-16.18" transform="translate(395.51801 577.99139)"/><path d="m-180.376-245.301c-2.564 0-3.005 2.739-3.005 5.568.088 8.578 11.847 38.285 11.847 49.688 0 2.388-.176 6.542-1.944 7.162-2.918.797-27.585-44.295-37.93-45.089-10.521-.709-16.091 44.294-16.091 55.346 0 11.142 1.945 18.566 10.167 18.566 12.201 0 5.924-45.003 10.787-45.003 3.625 0 23.606 41.026 34.658 40.938 12.112 0 19.097-17.596 19.097-28.912-.089-26.26-17.418-58.264-27.586-58.264" transform="translate(396.09599 578.201)"/><path d="m-98.396-174.894c-4.331 0-28.204 5.305-29.795 3.891-1.592-1.416 1.414-15.207 4.42-16.179 3.005-.974 21.661-.708 24.758-.886 8.663-.442 6.982-12.199 1.678-12.643-2.74-.266-19.628-.266-20.6-1.858-.972-1.501.264-9.371 2.123-10.166 3.889-1.592 29.618-2.3 31.562-2.742 3.183-.795 5.482-2.475 6.276-5.303.797-2.652-8.928-13.882-20.862-12.555-20.602 2.209-47.479 2.121-47.479 8.841.089 6.365 12.644 8.84 12.996 10.61.266 1.766-1.68 8.309-2.387 10.256-.707 2.209-9.726 2.917-10.257 9.105-.176 1.326 2.123 3.626 1.77 5.304-1.415 5.219-5.659 15.915-5.659 20.424 0 6.809 5.128 22.016 19.097 21.575 22.104-.708 41.908-16.093 42.174-18.835.442-4.065-5.572-8.839-9.815-8.839" transform="translate(397.0338 577.4136)"/><path d="m-13.651-227.89c-12.025.708-35.189 26.347-48.717 43.589-.795-1.769-1.412-3.448-1.412-5.042 0-7.337 13.702-29.176 16.268-34.656 2.74-5.748-.266-13.262-3.626-10.521-6.454 5.305-27.055 29.264-27.055 51.723 0 5.128 1.325 11.404 4.333 17.062-4.776 15.033-16.004 48.363-15.562 68.61.087 10.432 10.697 20.776 17.063 19.364 2.477-.531 3.006-14.147 6.102-23.519 4.509-13.351 11.671-37.843 14.146-48.276 1.151.089 2.3.177 3.537.177 25.198-.088 53.137-26.876 53.048-50.04-.089-23.165-13.705-28.737-18.125-28.471m-29.09 57.205c10.168-17.508 24.936-40.849 30.327-40.672 3.891 0 5.305 3.803 5.394 9.548 0 17.153-20.776 31.476-35.721 31.124" transform="translate(398.0033 578.0063)"/></g></svg>