<svg id="svg4591" xmlns="http://www.w3.org/2000/svg" xmlns:xlink="http://www.w3.org/1999/xlink" viewBox="0 0 300 48.23"><defs><style>.cls-1{fill:url(#linear-gradient);}.cls-13,.cls-2,.cls-7{fill:#e6e6e6;}.cls-2{fill-opacity:0.99;}.cls-3{fill:url(#linear-gradient-2);}.cls-4{fill:url(#linear-gradient-3);}.cls-5{fill:url(#linear-gradient-4);}.cls-6{fill:url(#linear-gradient-5);}.cls-11,.cls-7,.cls-8{opacity:0.99;isolation:isolate;}.cls-8{fill:url(#linear-gradient-6);}.cls-9{fill:#c00407;}.cls-10{fill:url(#linear-gradient-7);}.cls-11{fill:url(#linear-gradient-8);}.cls-12{fill:#e7e7e7;}.cls-14{fill:url(#linear-gradient-9);}</style><linearGradient id="linear-gradient" x1="-62" y1="258.53" x2="-58.74" y2="255.53" gradientTransform="matrix(2.51, 0, 0, -2.51, 378.5, 676.47)" gradientUnits="userSpaceOnUse"><stop offset="0" stop-color="#e7e7e7"/><stop offset="1" stop-color="#c2c2c2"/></linearGradient><linearGradient id="linear-gradient-2" x1="-62" y1="258.53" x2="-58.74" y2="255.53" gradientTransform="matrix(2.51, 0, 0, -2.51, 223.43, 676.47)" xlink:href="#linear-gradient"/><linearGradient id="linear-gradient-3" x1="-50" y1="264.24" x2="-47.33" y2="257.55" gradientTransform="matrix(2.51, 0, 0, -2.51, 223.43, 676.47)" xlink:href="#linear-gradient"/><linearGradient id="linear-gradient-4" x1="-40.84" y1="256.79" x2="-28.22" y2="256.79" gradientTransform="matrix(2.51, 0, 0, -2.51, 223.43, 676.47)" xlink:href="#linear-gradient"/><linearGradient id="linear-gradient-5" x1="-18.17" y1="261.04" x2="-12.19" y2="256.83" gradientTransform="matrix(2.51, 0, 0, -2.51, 223.43, 676.47)" xlink:href="#linear-gradient"/><linearGradient id="linear-gradient-6" x1="-746.84" y1="431.75" x2="-704.2" y2="451.21" gradientTransform="matrix(0.76, 0, 0, -0.76, 570.86, 357.34)" gradientUnits="userSpaceOnUse"><stop offset="0" stop-color="#b80509"/><stop offset="1" stop-color="#f40000"/></linearGradient><linearGradient id="linear-gradient-7" x1="1286.84" y1="-563.78" x2="1269.42" y2="-574.91" gradientTransform="matrix(0.67, 0, 0, -0.67, -828.78, -368.56)" xlink:href="#linear-gradient-6"/><linearGradient id="linear-gradient-8" x1="1263.23" y1="-613.23" x2="1301.55" y2="-613.23" gradientTransform="matrix(0.67, 0, 0, -0.67, -828.78, -368.56)" gradientUnits="userSpaceOnUse"><stop offset="0" stop-color="#e6e6e6" stop-opacity="0.99"/><stop offset="1" stop-color="#8b8b8b" stop-opacity="0.99"/></linearGradient><linearGradient id="linear-gradient-9" x1="26.43" y1="257.04" x2="19.13" y2="259.22" gradientTransform="matrix(2.51, 0, 0, -2.51, 223.43, 676.47)" xlink:href="#linear-gradient-6"/></defs><g id="layer1"><g id="g5324"><path id="path1177" class="cls-1" d="M231.38,47.34h9.15v-34h-9.15v3.53c-1.73-2.29-5.38-4.27-10.33-4.27-10.76,0-17.07,8-17.07,17.75s6.31,17.74,17.07,17.74c4.82,0,8.9-2.22,10.33-4.14Zm.37-17c0,5.93-3.59,9.58-9.34,9.58s-9.34-4.2-9.34-9.58c0-5.57,3.47-9.65,9.34-9.65S231.75,24.71,231.75,30.34Z" transform="translate(0)"/><path id="path1179" class="cls-2" d="M204.12,27.87a22.3,22.3,0,0,0-.14,2.47c0,9.77,6.31,17.74,17.07,17.74,4.82,0,8.9-2.22,10.33-4.14v3.4h9.15v-34c-1.61,7.44-5.29,19.57-12.17,24.78l-.11.22,0-.15a9.74,9.74,0,0,1-5.86,1.74c-5.69,0-9.34-4.2-9.34-9.58Z" transform="translate(0)"/><path id="path965" class="cls-3" d="M76.3,47.34h9.16v-34H76.3v3.53c-1.73-2.29-5.38-4.27-10.32-4.27-10.76,0-17.07,8-17.07,17.75S55.22,48.08,66,48.08c4.82,0,8.9-2.22,10.32-4.14Zm.37-17c0,5.93-3.58,9.58-9.33,9.58S58,35.72,58,30.34c0-5.57,3.46-9.65,9.34-9.65S76.67,24.71,76.67,30.34Z" transform="translate(0)"/><path id="path967" class="cls-4" d="M115.32,21.74v-9c-2.42-.06-8.17.56-11.63,5.14V13.33H94.48v34h9.21v-15C103.69,22,113.09,21.56,115.32,21.74Z" transform="translate(0)"/><path id="path969" class="cls-5" d="M134.1,48.08a12.62,12.62,0,0,0,9.09-3.65v2.91h9.28V13.46h-9.28v18c.25,7.36-3.89,8.9-6.49,8.9-3.52,0-6.62-1.6-6.62-6.8V13.46h-9.33V33.55C120.75,42.33,124.33,48.08,134.1,48.08Z" transform="translate(0)"/><path id="path971" class="cls-6" d="M187.29,47.34h9.16V.59h-9.16V16.86c-1.73-2.29-5.38-4.27-10.32-4.27-10.76,0-17.07,8-17.07,17.75S166.21,48.08,177,48.08c4.82,0,8.9-2.22,10.32-4.14Zm.38-17c0,5.93-3.59,9.58-9.34,9.58S169,35.72,169,30.34c0-5.57,3.46-9.65,9.34-9.65S187.67,24.71,187.67,30.34Z" transform="translate(0)"/><path id="path975" class="cls-7" d="M46,22.55H27.2c-4.25,0-7.48,5.56-7.48,10.74h12.8a12.44,12.44,0,0,1-18.63.28c-.27-.3-.53-.6-.77-.92a.44.44,0,0,0-.08-.11c-.21-.29-.41-.58-.59-.88l-.13-.23c-.16-.26-.3-.53-.44-.81-.1.65-.16,1.3-.2,2a21.86,21.86,0,0,0,4.66,14.63,23.94,23.94,0,0,0,2.53.62,23.07,23.07,0,0,0,10.19-.37l1.05-.33,0,0a23,23,0,0,0,9-5.28h0a23.19,23.19,0,0,0,5.62-8.54c.07-.18.14-.36.2-.54s.13-.39.2-.59h0c.05-.18.11-.36.16-.54h0l.15-.54h0c0-.18.09-.36.14-.55l.12-.54h0s0-.05,0-.08h0c0-.18.07-.35.11-.53h0c.06-.36.12-.71.17-1.07l.06-.54h0l0-.2h0c0-.17,0-.34,0-.51,0-.34.05-.69.07-1,0-.17,0-.34,0-.51h0v-.32h0v-.48c0-.32,0-.64,0-1,0-.16,0-.32,0-.48h0c0-.15,0-.3,0-.45h0l0-.27Z" transform="translate(0)"/><path id="path1401" class="cls-8" d="M15.64,0a3.43,3.43,0,0,1,1,1.27,2.55,2.55,0,0,1-.2,1.82A23.07,23.07,0,0,0,.79,31.14a23.47,23.47,0,0,0,1.37,3.73A23.09,23.09,0,0,1,16.09,14.44,23.08,23.08,0,0,0,5.52,40.11a23.16,23.16,0,0,0,7.27,5.68,21.41,21.41,0,0,1-1.07-2.4,23.77,23.77,0,0,1-.94-2.73,24,24,0,0,1,25.46-30.2c1.43,0,2.64.21,2.9,1a1.42,1.42,0,0,1-.1,1,3.6,3.6,0,0,0,.8-.12,3.79,3.79,0,0,0,.56-7.11h0c-.32-.17-.57-.43-3.16-.77C34-.63,26.26,2,15.64,0ZM32,4.29c1.39,0,2.07.13,2.36.45.07.07.14.3.11.32H34.3a2.9,2.9,0,0,0-1.09.1c-.56.09-.8,0-1-.41l-.08-.15-1-.13-1-.15s.75,0,1.9,0Z" transform="translate(0)"/><path id="path1413" class="cls-9" d="M261.11,20.88h6.8l-3.52-8.11h-3.28V3.68H252v9.09h-4.14v8.11H252V39.74c0,7.17,4.39,8.47,11.56,8.47,1.3,0,3-.13,4.15-.25V40.17a21.23,21.23,0,0,1-2.35.12c-4.15,0-4.21-3.21-4.21-5.07Z" transform="translate(0)"/><path id="path1415" class="cls-9" d="M263.58,12.74l4.18,8.14A15.88,15.88,0,0,1,280.9,28c-5.33-9-7.1-15.22-15.4-15.22Z" transform="translate(0)"/><path id="path952" class="cls-10" d="M15.64,0a3.43,3.43,0,0,1,1,1.27,2.55,2.55,0,0,1-.2,1.82A23.23,23.23,0,0,0,10,6.15a29.13,29.13,0,0,0-2,10.44A29.18,29.18,0,0,0,8.31,20a22.94,22.94,0,0,1,7.78-5.51,23.1,23.1,0,0,0-7.56,7.24,29.19,29.19,0,0,0,2.16,6.89A23.94,23.94,0,0,1,36.24,10.46c1.43,0,2.64.21,2.9,1a1.42,1.42,0,0,1-.1,1,3.6,3.6,0,0,0,.8-.12,3.79,3.79,0,0,0,.56-7.11h0c-.32-.17-.57-.43-3.16-.77C34-.63,26.26,2,15.64,0ZM32,4.29h0c1.39,0,2.07.13,2.36.45.07.07.14.3.11.32H34.3a2.9,2.9,0,0,0-1.09.1c-.56.09-.8,0-1-.41l-.08-.15-1-.13-1-.15s.75,0,1.89,0Z" transform="translate(0)"/><path id="path1003" class="cls-11" d="M11.88,30.62c-.1.65-.16,1.3-.2,2a21.84,21.84,0,0,0,4.66,14.63,23.94,23.94,0,0,0,2.53.62,23.22,23.22,0,0,0,10.19-.36l1.05-.34,0,0a22.91,22.91,0,0,0,7.07-3.67c-.71.06-1.44.09-2.16.1a27.18,27.18,0,0,1-20.31-9.2c-.27-.25-.53-.5-.78-.77s-.53-.6-.77-.92a.76.76,0,0,0-.08-.11c-.21-.29-.41-.58-.59-.88l-.13-.23c-.16-.26-.3-.53-.44-.81Z" transform="translate(0)"/><path id="path1070" class="cls-2" d="M49.05,27.87a22.3,22.3,0,0,0-.14,2.47c0,9.77,6.31,17.74,17.07,17.74,4.82,0,8.9-2.22,10.32-4.14v3.4h9.16v-34c-1.61,7.44-5.3,19.57-12.17,24.78l-.11.22,0-.15a9.74,9.74,0,0,1-5.86,1.74c-5.69,0-9.34-4.2-9.34-9.58Z" transform="translate(0)"/><path id="path1097" class="cls-12" d="M115.32,21.74v-9c-12.69-.05-20.84,12-20.84,23.12V47.34h9.21v-15C103.69,22,113.09,21.56,115.32,21.74Z" transform="translate(0)"/><path id="path1141" class="cls-13" d="M134.1,48.08a12.62,12.62,0,0,0,9.09-3.65v2.91h9.28V13.46c-.59,7-6.25,26.68-15.77,26.89-3.52,0-6.62-1.6-6.62-6.8V13.46h-9.33V33.55C120.75,42.33,124.33,48.08,134.1,48.08Z" transform="translate(0)"/><path id="path1167" class="cls-2" d="M160,27.87a22.3,22.3,0,0,0-.14,2.47c0,9.77,6.31,17.74,17.07,17.74,4.82,0,8.9-2.22,10.32-4.14v3.4h9.16v-34c-1.61,7.44-5.3,19.57-12.17,24.78l-.11.22,0-.15a9.74,9.74,0,0,1-5.86,1.74c-5.69,0-9.34-4.2-9.34-9.58Z" transform="translate(0)"/><path id="path1183" class="cls-14" d="M281.76,48.11,300,12.74H289.67l-7.91,16.64a16.07,16.07,0,0,0-14-8.5l.13.25Z" transform="translate(0)"/></g></g></svg>