<?xml version="1.0" encoding="utf-8"?>
<!-- Generator: Adobe Adobe Illustrator 24.2.0, SVG Export Plug-In . SVG Version: 6.00 Build 0)  -->
<svg version="1.1"
	 id="svg36145" inkscape:version="0.91 r13725" sodipodi:docname="HBO.svg" xmlns:cc="http://creativecommons.org/ns#" xmlns:dc="http://purl.org/dc/elements/1.1/" xmlns:inkscape="http://www.inkscape.org/namespaces/inkscape" xmlns:rdf="http://www.w3.org/1999/02/22-rdf-syntax-ns#" xmlns:sodipodi="http://sodipodi.sourceforge.net/DTD/sodipodi-0.dtd" xmlns:svg="http://www.w3.org/2000/svg"
	 xmlns="http://www.w3.org/2000/svg" xmlns:xlink="http://www.w3.org/1999/xlink" x="0px" y="0px" width="668.7px" height="276.8px"
	 viewBox="0 0 668.7 276.8" style="enable-background:new 0 0 668.7 276.8;" xml:space="preserve">
<path d="M530.3,69.3c38.1,0,69.1,31,69.1,69.1s-31,69.1-69.1,69.1s-69.1-31-69.1-69.1S492.1,69.3,530.3,69.3 M530.3,0
	c-76.4,0-138.4,62-138.4,138.4s62,138.4,138.4,138.4s138.4-62,138.4-138.4S606.7,0,530.3,0L530.3,0z"/>
<path d="M530.8,85.1c-29.5,0-53.4,23.9-53.4,53.4s23.9,53.4,53.4,53.4c29.5,0,53.4-23.9,53.4-53.4S560.2,85.1,530.8,85.1L530.8,85.1
	z"/>
<g>
	<polygon points="122.4,4.1 122.4,105.3 73.5,105.3 73.5,4.1 0,4.1 0,273.6 73.5,273.6 73.5,171.2 122.4,171.2 122.4,273.6 
		194.9,273.6 194.9,4.1 	"/>
</g>
<path d="M399.3,168.6c-6.7-13.5-17.7-24-31.4-30.1c14.7-5.6,25.6-15.6,31.7-29.7c3.7-8.6,5.7-18.6,5.7-30c0-4.4-0.4-8.6-1.1-12.8
	c-6.2-35.2-38-62-80-62H210.3v269.5h119.4c62,0,76.9-60.8,76.9-72.2C406.7,189.2,404.1,178.2,399.3,168.6z M280.3,66h35
	c12.8,0,19.1,9.6,19.1,21.4c0,11.8-8.6,21.4-19.1,21.4h-35V66z M316.8,212h-36.5v-43.4h36.3c12.7,0,19.1,9.7,19.1,21.6
	C335.8,204.3,327.1,212,316.8,212z"/>
</svg>
