<?xml version="1.0" encoding="UTF-8" standalone="no"?>
<!-- Generator: Adobe Illustrator 14.0.0, SVG Export Plug-In . SVG Version: 6.00 Build 43363)  -->

<svg
   version="1.1"
   id="Layer_1"
   x="0px"
   y="0px"
   width="559"
   height="257"
   viewBox="0 0 559.00002 257"
   enable-background="new 0 0 609.449 765.354"
   xml:space="preserve"
   sodipodi:docname="HBO_Signature_Asia.svg"
   inkscape:version="1.2.1 (9c6d41e4, 2022-07-14)"
   xmlns:inkscape="http://www.inkscape.org/namespaces/inkscape"
   xmlns:sodipodi="http://sodipodi.sourceforge.net/DTD/sodipodi-0.dtd"
   xmlns="http://www.w3.org/2000/svg"
   xmlns:svg="http://www.w3.org/2000/svg"><defs
   id="defs233" /><sodipodi:namedview
   id="namedview231"
   pagecolor="#ffffff"
   bordercolor="#000000"
   borderopacity="0.25"
   inkscape:showpageshadow="2"
   inkscape:pageopacity="0.0"
   inkscape:pagecheckerboard="0"
   inkscape:deskcolor="#d1d1d1"
   showgrid="false"
   inkscape:zoom="1.2218247"
   inkscape:cx="279.5"
   inkscape:cy="128.90556"
   inkscape:window-width="1390"
   inkscape:window-height="1205"
   inkscape:window-x="0"
   inkscape:window-y="25"
   inkscape:window-maximized="0"
   inkscape:current-layer="Layer_1" />
		<g
   id="g430"><path
     clip-path="url(#SVGID_99_)"
     d="m 186.18,271.985 1.098,-0.767 c 0,0 -35.952,-0.718 -53.254,7.237 -0.045,0.053 -0.167,0.472 -0.197,0.842 0.042,0.338 9.192,0.272 15.018,1.451 -2.193,0.355 -6.455,0.94 -6.455,0.94 l -0.203,0.638 9.294,-0.891 c 0.001,-0.112 0.013,-1.187 -0.127,-1.797 -2.475,-1.691 -16.386,-0.722 -16.386,-0.722 20.383,-5.421 41.539,-6.358 51.212,-6.931"
     id="path898"
     style="fill:#ffd900"
     transform="matrix(10.309491,0.99187351,-0.99187351,10.309491,-1102.7269,-2813.2217)" /><rect
     x="152.258"
     y="276.76401"
     transform="matrix(-10.357485,0.00446213,-0.00446213,-10.357485,1778.7318,3104.2781)"
     clip-path="url(#SVGID_99_)"
     width="1.011"
     height="4.5320001"
     id="rect900" /><path
     clip-path="url(#SVGID_99_)"
     d="m 157.271,276.32 0.059,0.619 -0.017,0.002 c -0.305,-0.482 -0.849,-0.667 -1.422,-0.612 -1.298,0.125 -1.965,1.246 -1.848,2.459 0.124,1.291 0.829,2.315 2.276,2.176 0.565,-0.054 1.057,-0.4 1.292,-0.926 l 0.018,-0.001 0.066,0.69 c 0.07,0.724 -0.239,1.164 -1.012,1.256 l 0.072,0.741 c 1.363,-0.167 2.06,-0.91 1.933,-2.226 l -0.411,-4.275 -1.006,0.097 z m -0.869,3.843 c -0.839,0.081 -1.272,-0.635 -1.344,-1.377 -0.072,-0.75 0.158,-1.599 1.049,-1.685 0.875,-0.084 1.296,0.596 1.371,1.373 0.074,0.768 -0.184,1.603 -1.076,1.689"
     id="path902"
     transform="matrix(10.309491,0.99187351,-0.99187351,10.309491,-1102.7269,-2813.2217)" /><path
     clip-path="url(#SVGID_99_)"
     d="m 159.292,276.125 0.953,-0.092 0.063,0.663 0.02,0.016 c 0.252,-0.527 0.744,-0.882 1.344,-0.94 0.988,-0.095 1.664,0.368 1.762,1.38 l 0.298,3.098 -1.005,0.097 -0.273,-2.836 c -0.087,-0.705 -0.398,-0.983 -0.989,-0.926 -0.671,0.065 -1.054,0.631 -0.991,1.293 l 0.257,2.661 -1.005,0.097 -0.434,-4.511 z"
     id="path904"
     transform="matrix(10.309491,0.99187351,-0.99187351,10.309491,-1102.7269,-2813.2217)" /><path
     clip-path="url(#SVGID_99_)"
     d="m 168.389,278.789 c 0.023,0.244 0.085,0.335 0.27,0.317 0.062,-0.006 0.141,-0.013 0.246,-0.041 l 0.067,0.689 c -0.145,0.067 -0.457,0.159 -0.625,0.175 -0.406,0.039 -0.711,-0.072 -0.83,-0.475 -0.36,0.421 -0.988,0.65 -1.527,0.702 -0.82,0.079 -1.605,-0.286 -1.69,-1.167 -0.108,-1.126 0.783,-1.396 1.623,-1.574 0.71,-0.201 1.362,-0.184 1.306,-0.768 -0.049,-0.515 -0.598,-0.559 -1.003,-0.52 -0.565,0.054 -0.941,0.319 -0.937,0.811 l -1.006,0.097 c -0.042,-1.166 0.923,-1.603 1.929,-1.7 0.891,-0.086 1.862,0.182 1.953,1.134 l 0.224,2.32 z m -1.128,-1.159 c -0.289,0.229 -0.775,0.269 -1.21,0.388 -0.425,0.113 -0.798,0.307 -0.748,0.831 0.043,0.444 0.629,0.52 0.982,0.486 0.442,-0.043 1.108,-0.335 1.047,-0.964 l -0.071,-0.741 z"
     id="path906"
     transform="matrix(10.309491,0.99187351,-0.99187351,10.309491,-1102.7269,-2813.2217)" /><path
     clip-path="url(#SVGID_99_)"
     d="m 168.72,275.217 2.675,-0.258 0.071,0.743 -0.909,0.087 0.232,2.408 c 0.039,0.409 0.094,0.615 0.545,0.572 0.14,-0.014 0.282,-0.027 0.42,-0.075 l 0.074,0.768 c -0.219,0.038 -0.428,0.093 -0.649,0.115 -1.049,0.101 -1.282,-0.282 -1.373,-1.031 l -0.256,-2.66 -0.759,0.073 -0.071,-0.742 z"
     id="path908"
     transform="matrix(10.309491,0.99187351,-0.99187351,10.309491,-1102.7269,-2813.2217)" /><path
     clip-path="url(#SVGID_99_)"
     d="m 176.646,279.006 -0.988,0.095 -0.061,-0.627 -0.017,0.002 c -0.204,0.475 -0.722,0.826 -1.225,0.874 -1.192,0.115 -1.761,-0.429 -1.875,-1.607 l -0.275,-2.862 1.006,-0.097 0.266,2.767 c 0.076,0.793 0.431,1.049 0.978,0.997 0.839,-0.081 1.07,-0.64 1.003,-1.339 l -0.252,-2.617 1.006,-0.097 0.434,4.511 z"
     id="path910"
     transform="matrix(10.309491,0.99187351,-0.99187351,10.309491,-1102.7269,-2813.2217)" /><path
     clip-path="url(#SVGID_99_)"
     d="m 177.345,274.386 0.944,-0.091 0.084,0.872 0.018,-10e-4 c 0.069,-0.491 0.62,-1.064 1.237,-1.124 0.229,-0.022 0.293,-0.01 0.381,-0.011 l 0.093,0.962 c -0.142,-0.005 -0.296,-0.016 -0.436,-0.002 -0.689,0.066 -1.184,0.668 -1.088,1.662 l 0.207,2.147 -1.006,0.097 -0.434,-4.511 z"
     id="path912"
     transform="matrix(10.309491,0.99187351,-0.99187351,10.309491,-1102.7269,-2813.2217)" /><path
     clip-path="url(#SVGID_99_)"
     d="m 181.353,276.537 c 0.068,0.707 0.516,1.298 1.356,1.217 0.582,-0.056 0.911,-0.344 1.039,-0.858 l 0.953,-0.092 c -0.124,1.008 -0.92,1.639 -1.917,1.736 -1.43,0.137 -2.328,-0.773 -2.462,-2.16 -0.123,-1.281 0.618,-2.463 1.977,-2.594 1.439,-0.138 2.445,1.06 2.408,2.428 l -3.354,0.323 z m 2.285,-0.881 c -0.096,-0.626 -0.583,-1.15 -1.263,-1.085 -0.697,0.067 -1.124,0.638 -1.085,1.311 l 2.348,-0.226 z"
     id="path914"
     transform="matrix(10.309491,0.99187351,-0.99187351,10.309491,-1102.7269,-2813.2217)" /><polygon
     clip-path="url(#SVGID_99_)"
     points="151.974,271.176 155.428,270.843 154.951,265.89 157.093,265.684 157.57,270.637 161.14,270.293 159.931,257.735 156.361,258.08 156.814,262.792 154.673,262.999 154.219,258.286 150.765,258.619 "
     id="polygon916"
     transform="matrix(10.309491,0.99187351,-0.99187351,10.309491,-1102.7269,-2813.2217)" /><path
     clip-path="url(#SVGID_99_)"
     d="m 173.555,262.714 c -0.136,-1.408 0.896,-2.66 2.304,-2.795 1.408,-0.136 2.66,0.896 2.795,2.304 0.136,1.408 -0.896,2.66 -2.304,2.795 -1.408,0.136 -2.659,-0.896 -2.795,-2.304"
     id="path918"
     transform="matrix(10.309491,0.99187351,-0.99187351,10.309491,-1102.7269,-2813.2217)" /><path
     clip-path="url(#SVGID_99_)"
     d="m 175.404,256.029 c -2.45,0.236 -4.527,1.888 -5.363,4.163 -0.004,-0.063 0.005,-0.123 -0.01,-0.186 -0.415,-1.69 -2.061,-3.045 -4.058,-2.852 l -5.409,0.52 1.21,12.558 5.783,-0.557 c 1.3,-0.125 3.17,-1.478 3.032,-3.836 1.259,2.083 3.611,3.332 6.058,3.096 3.398,-0.327 6.149,-3.295 5.768,-7.257 -0.353,-3.66 -3.613,-5.976 -7.011,-5.649 m -9.308,10.823 -1.259,0.112 -0.202,-2.101 1.384,-0.125 c 1.571,-0.151 1.773,1.951 0.077,2.114 m -0.449,-4.659 -1.259,0.113 -0.212,-2.196 1.384,-0.124 c 1.572,-0.151 1.783,2.044 0.087,2.207 m 4.155,1.662 c -0.546,-0.575 -1.172,-0.715 -1.172,-0.715 0,0 0.602,-0.25 1.023,-0.995 -0.012,0.302 -0.006,0.609 0.024,0.921 0.026,0.27 0.069,0.533 0.125,0.789 m 6.601,1.847 c -1.699,0.164 -3.309,-1.104 -3.485,-2.934 -0.176,-1.83 1.165,-3.355 2.864,-3.519 1.699,-0.164 3.329,0.994 3.505,2.824 0.191,1.982 -1.185,3.465 -2.884,3.629"
     id="path920"
     transform="matrix(10.309491,0.99187351,-0.99187351,10.309491,-1102.7269,-2813.2217)" /><path
     clip-path="url(#SVGID_99_)"
     d="m 169.333,285.061 1.747,-0.168 c 0.724,-0.07 1.105,0.317 1.16,0.883 0.057,0.599 -0.294,1.044 -1.134,1.125 l -0.392,0.037 0.098,1.011 -1.19,0.115 -0.289,-3.003 z m 1.375,1.189 c 0.308,-0.03 0.413,-0.153 0.393,-0.366 -0.02,-0.212 -0.129,-0.294 -0.387,-0.269 l -0.125,0.012 0.061,0.629 0.058,-0.006 z"
     id="path924"
     transform="matrix(0.99540372,0.09576754,-0.09576754,0.99540372,-1.7229364,727.1522)" /><polygon
     clip-path="url(#SVGID_99_)"
     points="173.705,284.639 173.916,286.836 175.01,286.73 175.088,287.537 172.804,287.757 172.515,284.754 "
     id="polygon926"
     transform="matrix(0.99540372,0.09576754,-0.09576754,0.99540372,-1.7229364,727.1522)" /><path
     clip-path="url(#SVGID_99_)"
     d="m 178.182,286.223 c 0.07,0.724 -0.415,1.136 -1.322,1.223 -0.907,0.087 -1.462,-0.224 -1.531,-0.948 l -0.193,-1.996 1.19,-0.115 0.188,1.946 c 0.022,0.238 0.143,0.318 0.268,0.306 0.125,-0.012 0.228,-0.114 0.206,-0.351 l -0.188,-1.947 1.19,-0.114 0.192,1.996 z"
     id="path928"
     transform="matrix(0.99540372,0.09576754,-0.09576754,0.99540372,-1.7229364,727.1522)" /><path
     clip-path="url(#SVGID_99_)"
     d="m 180.13,284.881 c -0.022,-0.187 -0.132,-0.239 -0.286,-0.224 -0.191,0.018 -0.266,0.109 -0.258,0.201 0.011,0.108 0.086,0.147 0.214,0.173 0.235,0.044 0.664,0.087 0.98,0.186 0.393,0.122 0.586,0.376 0.621,0.738 0.071,0.736 -0.499,1.102 -1.347,1.183 -0.724,0.07 -1.411,-0.09 -1.486,-0.872 l 1.139,-0.11 c 0.008,0.083 0.033,0.165 0.085,0.223 0.051,0.054 0.13,0.084 0.242,0.073 0.175,-0.017 0.276,-0.14 0.263,-0.273 -0.011,-0.112 -0.104,-0.162 -0.219,-0.185 l -0.869,-0.168 c -0.474,-0.093 -0.664,-0.356 -0.701,-0.743 -0.06,-0.623 0.409,-1.026 1.287,-1.11 0.749,-0.072 1.333,0.107 1.4,0.805 l -1.065,0.103 z"
     id="path930"
     transform="matrix(0.99540372,0.09576754,-0.09576754,0.99540372,-1.7229364,727.1522)" /><path
     clip-path="url(#SVGID_99_)"
     d="m 184.067,284.7 c -0.194,0.17 -0.366,0.291 -0.617,0.395 l -0.082,-0.856 c 0.322,-0.145 0.635,-0.339 0.831,-0.609 l 0.907,-0.088 0.289,3.003 -1.14,0.11 -0.188,-1.955 z"
     id="path932"
     transform="matrix(0.99540372,0.09576754,-0.09576754,0.99540372,-1.7229364,727.1522)" /></g>
</svg>
