<?xml version="1.0" encoding="UTF-8" standalone="no"?>
<!-- Created with Inkscape (http://www.inkscape.org/) -->

<svg
   width="627"
   height="392"
   id="svg2"
   version="1.1"
   sodipodi:docname="HBO Hits logo.svg"
   inkscape:version="1.2.1 (9c6d41e4, 2022-07-14)"
   xmlns:inkscape="http://www.inkscape.org/namespaces/inkscape"
   xmlns:sodipodi="http://sodipodi.sourceforge.net/DTD/sodipodi-0.dtd"
   xmlns="http://www.w3.org/2000/svg"
   xmlns:svg="http://www.w3.org/2000/svg">
  <defs
     id="defs186" />
  <sodipodi:namedview
     id="namedview184"
     pagecolor="#ffffff"
     bordercolor="#000000"
     borderopacity="0.25"
     inkscape:showpageshadow="2"
     inkscape:pageopacity="0.0"
     inkscape:pagecheckerboard="0"
     inkscape:deskcolor="#d1d1d1"
     showgrid="false"
     inkscape:zoom="1.0893142"
     inkscape:cx="311.20498"
     inkscape:cy="195.99488"
     inkscape:window-width="1390"
     inkscape:window-height="1205"
     inkscape:window-x="866"
     inkscape:window-y="25"
     inkscape:window-maximized="0"
     inkscape:current-layer="layer1" />
  <g
     inkscape:label="Layer 1"
     inkscape:groupmode="layer"
     id="layer1"
     transform="translate(-61.500008,-402.91756)">
    <g
       id="g913">
      <path
         clip-path="url(#SVGID_99_)"
         d="m 169.333,285.061 1.747,-0.168 c 0.724,-0.07 1.105,0.317 1.16,0.883 0.057,0.599 -0.294,1.044 -1.134,1.125 l -0.392,0.037 0.098,1.011 -1.19,0.115 -0.289,-3.003 z m 1.375,1.189 c 0.308,-0.03 0.413,-0.153 0.393,-0.366 -0.02,-0.212 -0.129,-0.294 -0.387,-0.269 l -0.125,0.012 0.061,0.629 0.058,-0.006 z"
         id="path924"
         transform="matrix(0.99540372,0.09576754,-0.09576754,0.99540372,62.917251,698.67137)" />
      <polygon
         clip-path="url(#SVGID_99_)"
         points="172.804,287.757 172.515,284.754 173.705,284.639 173.916,286.836 175.01,286.73 175.088,287.537 "
         id="polygon926"
         transform="matrix(0.99540372,0.09576754,-0.09576754,0.99540372,62.917251,698.67137)" />
      <path
         clip-path="url(#SVGID_99_)"
         d="m 178.182,286.223 c 0.07,0.724 -0.415,1.136 -1.322,1.223 -0.907,0.087 -1.462,-0.224 -1.531,-0.948 l -0.193,-1.996 1.19,-0.115 0.188,1.946 c 0.022,0.238 0.143,0.318 0.268,0.306 0.125,-0.012 0.228,-0.114 0.206,-0.351 l -0.188,-1.947 1.19,-0.114 0.192,1.996 z"
         id="path928"
         transform="matrix(0.99540372,0.09576754,-0.09576754,0.99540372,62.917251,698.67137)" />
      <path
         clip-path="url(#SVGID_99_)"
         d="m 180.13,284.881 c -0.022,-0.187 -0.132,-0.239 -0.286,-0.224 -0.191,0.018 -0.266,0.109 -0.258,0.201 0.011,0.108 0.086,0.147 0.214,0.173 0.235,0.044 0.664,0.087 0.98,0.186 0.393,0.122 0.586,0.376 0.621,0.738 0.071,0.736 -0.499,1.102 -1.347,1.183 -0.724,0.07 -1.411,-0.09 -1.486,-0.872 l 1.139,-0.11 c 0.008,0.083 0.033,0.165 0.085,0.223 0.051,0.054 0.13,0.084 0.242,0.073 0.175,-0.017 0.276,-0.14 0.263,-0.273 -0.011,-0.112 -0.104,-0.162 -0.219,-0.185 l -0.869,-0.168 c -0.474,-0.093 -0.664,-0.356 -0.701,-0.743 -0.06,-0.623 0.409,-1.026 1.287,-1.11 0.749,-0.072 1.333,0.107 1.4,0.805 l -1.065,0.103 z"
         id="path930"
         transform="matrix(0.99540372,0.09576754,-0.09576754,0.99540372,62.917251,698.67137)" />
      <path
         clip-path="url(#SVGID_99_)"
         d="m 184.067,284.7 c -0.194,0.17 -0.366,0.291 -0.617,0.395 l -0.082,-0.856 c 0.322,-0.145 0.635,-0.339 0.831,-0.609 l 0.907,-0.088 0.289,3.003 -1.14,0.11 -0.188,-1.955 z"
         id="path932"
         transform="matrix(0.99540372,0.09576754,-0.09576754,0.99540372,62.917251,698.67137)" />
      <polygon
         id="polygon978"
         points="95.535,263.897 92.044,264.232 93.268,276.922 96.757,276.587 96.275,271.583 98.441,271.374 98.922,276.378 102.53,276.031 101.309,263.341 97.7,263.688 98.159,268.452 95.995,268.66 "
         clip-path="none"
         transform="matrix(14.202707,1.3664388,-1.3664388,14.202707,-767.19613,-3472.5544)" />
      <path
         clip-path="none"
         d="m 537.46156,459.36275 c -20.39766,10e-4 -36.93963,16.54251 -36.9383,36.94017 -4e-5,20.41178 16.54255,36.9396 36.94021,36.93831 20.41186,0 36.95243,-16.52696 36.95243,-36.93888 -0.0143,-20.39895 -16.5567,-36.94103 -36.95434,-36.9396"
         id="path988" />
      <path
         clip-path="none"
         d="m 536.29841,402.91754 c -35.50531,-0.004 -67.59739,20.8317 -82.74148,52.34322 0.03,-0.9146 0.25469,-1.75286 0.11415,-2.68373 -3.63126,-24.8321 -25.3797,-46.548 -54.30586,-46.55014 l -78.36495,2.8e-4 0.0115,181.94479 83.79833,-0.008 c 18.83589,-0.008 47.5483,-16.85499 48.81478,-50.87715 15.18949,31.63493 47.23908,52.80808 82.6876,52.80708 49.23853,-0.007 92.82002,-38.80261 92.82458,-96.2105 -0.0143,-53.03794 -43.60074,-90.77328 -92.83937,-90.76586 m -148.55234,142.50924 -18.23444,-0.12842 0.006,-30.45951 20.0404,0.14268 c 22.74876,-0.005 22.74244,30.45495 -1.81228,30.45766 m -0.0257,-67.5164 -18.22161,-0.11414 -0.007,-31.8083 20.05594,0.12842 c 22.74878,-0.005 22.75603,31.80373 -1.82708,31.80373 m 57.35575,29.59956 c -7.04599,-9.006 -15.84363,-11.87364 -15.84363,-11.87364 0,0 8.99652,-2.77533 16.06022,-12.87499 -0.58714,4.31544 -0.92701,8.74061 -0.93129,13.25552 -0.004,3.9128 0.25912,7.7367 0.7147,11.49311 m 92.20933,35.63334 c -24.61152,-0.003 -45.96892,-20.41964 -45.96909,-46.93782 -0.002,-26.50406 21.34881,-46.53888 45.9617,-46.55043 24.62568,0.004 46.41877,18.87181 46.41892,45.39013 -0.009,28.6961 -21.81422,48.0994 -46.41153,48.09812"
         id="path990" />
      <polygon
         clip-path="none"
         points="96.552,281.837 96.167,285.21 100.848,284.759 101.232,281.386 104.318,281.089 103.242,290.535 100.156,290.832 100.607,286.875 95.927,287.327 95.476,291.282 92.391,291.58 93.467,282.134 "
         id="polygon994"
         style="fill:#fe5200;fill-opacity:1"
         transform="matrix(14.202707,1.3664388,-1.3664388,14.202707,-767.19613,-3472.5544)" />
      <polygon
         clip-path="none"
         points="116.627,279.839 116.439,281.488 113.793,281.744 113.144,287.453 110.739,287.684 111.391,281.975 108.745,282.229 108.933,280.581 "
         id="polygon996"
         style="fill:#fe5200;fill-opacity:1"
         transform="matrix(14.202707,1.3664388,-1.3664388,14.202707,-767.19613,-3472.5544)" />
      <path
         clip-path="none"
         d="m 582.19368,691.53676 c 0.49654,-7.09077 -4.10413,-12.01989 -19.88614,-12.01889 -11.5682,0.005 -18.65449,3.33692 -20.09698,10.1359 -0.73653,3.48389 1.29,5.5137 6.31059,6.36937 8.38913,1.45222 34.04465,5.35388 43.81058,7.09618 18.54321,3.33222 28.45682,11.13769 24.57984,29.38483 -7.4402,35.01923 -52.95076,35.31359 -67.14264,35.32429 -35.03253,-0.002 -59.03133,-6.22412 -54.94124,-35.02936 l 40.82371,1.4e-4 c -0.79417,7.80732 2.50253,12.72589 20.4483,12.73231 8.6861,0.004 18.52879,-2.03024 20.4095,-10.85118 1.16001,-5.50742 -2.77219,-7.39083 -14.38857,-9.26811 l -33.35689,-5.20179 c -20.59276,-3.18525 -26.57045,-13.90887 -23.30295,-29.24742 2.885,-13.59796 15.37469,-32.86557 60.68478,-32.86386 37.4845,-0.006 58.16567,8.96462 55.13837,33.42846 l -39.09026,0.009 z"
         id="path998"
         style="fill:#fe5200;fill-opacity:1" />
      <path
         clip-path="none"
         d="m 348.71888,661.2907 -4.90507,23.12204 34.44612,-0.0114 4.9179,-23.10649 -34.45895,-0.004 z m -21.97033,103.35705 34.44475,0.003 14.27889,-67.21519 -34.44476,-0.003 -14.27888,67.21519 z"
         id="path1000"
         style="fill:#fe5200;fill-opacity:1" />
      <path
         clip-path="none"
         d="m 64.213441,650.27372 c 0,0 -5.093265,-1.2927 -1.323669,-2.0338 34.26458,-6.76602 221.921498,-39.92752 380.587888,-39.9425 146.48197,-0.0118 228.37038,28.62247 244.24714,34.93762 1.93235,0.77334 -0.35671,1.77183 -0.35671,1.77183 0,0 -102.32517,-17.4992 -305.68659,-12.10878 -121.60713,3.23647 -317.467845,17.37563 -317.467845,17.37563"
         id="path1002"
         style="fill:#fe5200;fill-opacity:1" />
    </g>
  </g>
</svg>
