<?xml version="1.0" encoding="UTF-8" standalone="no"?>
<!-- Created with Inkscape (http://www.inkscape.org/) -->

<svg
   width="1000"
   height="609.22998"
   id="svg2"
   version="1.1"
   sodipodi:docname="HBO_Family_Asia_2009.svg"
   inkscape:version="1.2.2 (732a01da63, 2022-12-09)"
   xmlns:inkscape="http://www.inkscape.org/namespaces/inkscape"
   xmlns:sodipodi="http://sodipodi.sourceforge.net/DTD/sodipodi-0.dtd"
   xmlns="http://www.w3.org/2000/svg"
   xmlns:svg="http://www.w3.org/2000/svg"
   xmlns:rdf="http://www.w3.org/1999/02/22-rdf-syntax-ns#"
   xmlns:cc="http://creativecommons.org/ns#"
   xmlns:dc="http://purl.org/dc/elements/1.1/">
  <metadata
     id="metadata26">
    <rdf:RDF>
      <cc:Work
         rdf:about="">
        <dc:format>image/svg+xml</dc:format>
        <dc:type
           rdf:resource="http://purl.org/dc/dcmitype/StillImage" />
      </cc:Work>
    </rdf:RDF>
  </metadata>
  <defs
     id="defs24" />
  <sodipodi:namedview
     pagecolor="#ffffff"
     bordercolor="#666666"
     borderopacity="1"
     objecttolerance="10"
     gridtolerance="10"
     guidetolerance="10"
     inkscape:pageopacity="0"
     inkscape:pageshadow="2"
     inkscape:window-width="1366"
     inkscape:window-height="705"
     id="namedview22"
     showgrid="false"
     inkscape:zoom="0.42426407"
     inkscape:cx="614.00439"
     inkscape:cy="428.97811"
     inkscape:window-x="-8"
     inkscape:window-y="-8"
     inkscape:window-maximized="1"
     inkscape:current-layer="svg2"
     inkscape:showpageshadow="0"
     inkscape:pagecheckerboard="1"
     inkscape:deskcolor="#d1d1d1" />
  <path
     id="path2196"
     clip-path="none"
     style="fill:#000000;stroke-width:21.3456"
     d="m 672.40039,0 c -52.94636,0.00969998 -100.81915,31.086707 -123.41601,78.0625 0.0437,-1.34676 0.37892,-2.60158 0.16992,-3.994141 C 543.75417,37.029569 511.31601,4.6375164 468.14844,4.6445312 l -116.86914,-0.00586 0.0117,271.3535188 124.97656,-0.004 c 28.11291,0.002 70.93238,-25.12828 72.83398,-75.875 22.65093,47.19032 70.45701,78.76597 123.31836,78.74805 73.42365,0.01 138.4553,-57.85064 138.4375,-143.47852 0,-79.086084 -65.03135,-135.39313955 -138.45703,-135.38085757 z m -411.95898,4.6484375 0.004,101.8164025 -46.27734,0.008 -0.004,-101.81641 -74.64648,0.00195 0.0156,271.3125 74.64844,-0.0234 -0.002,-106.96289 46.27734,-0.01 0.0234,106.9668 77.13281,0.0215 -0.0371,-271.3144556 z M 423.60352,64.242188 453.5,64.416016 c 33.94474,0.0073 33.94983,47.441064 -2.69727,47.455074 l -27.19531,-0.19336 z m 250.24218,5.441406 c 36.71079,0.01456 69.23723,28.147436 69.22852,67.689456 0.017,42.84684 -32.50991,71.77682 -69.2207,71.76172 -36.71286,0.005 -68.56342,-30.46385 -68.55469,-70.00586 -0.0121,-39.544109 31.83403,-69.439176 68.54687,-69.445316 z m 0.29883,14.501953 c -30.43014,0.0097 -55.10587,24.677273 -55.0957,55.107423 0.01,30.43015 24.67923,55.08439 55.10937,55.07422 30.42811,0.0121 55.08244,-24.65774 55.07227,-55.08789 0.0121,-30.42811 -24.65579,-55.103923 -55.08594,-55.093753 z M 536.67578,119.08203 c -0.89765,6.43265 -1.38022,13.01136 -1.38672,19.76563 -0.002,5.83245 0.36905,11.55203 1.05274,17.15039 -10.50043,-13.44782 -23.61914,-17.73438 -23.61914,-17.73438 0,0 13.38983,-4.11487 23.95312,-19.18164 z m -113.06445,47.81445 29.89453,0.2168 c 33.94738,-0.0146 33.95185,45.40374 -2.69727,45.41602 l -27.19531,-0.19336 z" />
  <g
     id="g2244">
    <path
       style="display:inline;fill:#e61812;stroke-width:2.42721"
       d="m 289.82031,414.76172 c -34.31066,10e-4 -61.95305,27.42859 -61.95312,65.32031 0.002,41.21571 28.30979,66.60618 60.17578,66.60547 15.61121,8.8e-4 33.88012,-8.23474 43.23047,-19.38672 v 15.375 h 27.18945 l -0.002,-123.66797 h -27.19141 l 0.002,15.58985 h -0.45117 c -0.87964,-1.77873 -15.82454,-19.83694 -41,-19.83594 z"
       id="path2181" />
    <path
       style="fill:#f8ec00;fill-opacity:1;stroke-width:2.42721"
       d="m 294.2793,441.95312 c 17.60563,-2.3e-4 36.11267,12.93092 36.11328,38.55665 10e-4,22.94529 -15.60877,38.98584 -36.10938,38.98632 -21.1654,8.8e-4 -36.75776,-17.15434 -36.75976,-38.08398 -0.0206,-18.50823 12.4597,-39.4591 36.75586,-39.45899 z"
       id="path2178" />
    <path
       id="path2175"
       clip-path="none"
       style="fill:#e61812;stroke-width:2.42721"
       d="m 514.32422,436.98438 c -8.68494,7.5e-4 -26.95545,0.90207 -39.88477,19.38671 -11.60223,-17.82121 -28.97354,-19.36486 -35.66406,-19.36523 -21.37992,0.002 -29.84848,10.68067 -32.29297,14.69141 h -0.45117 v -10.46485 h -27.19141 l 0.002,123.68946 h 29.63476 v -61.73829 c -5.1e-4,-13.14526 10e-4,-39.00635 23.63282,-39.00586 18.27042,-6.1e-4 24.72456,15.15855 24.72656,32.07813 l 0.0215,68.64453 h 29.63477 l -0.0234,-63.94922 c -8e-4,-7.56985 0.23597,-18.50379 4.46094,-25.19531 4.22333,-7.12055 12.26536,-11.57908 20.5,-11.58008 23.39606,-7.5e-4 23.39548,24.95857 23.39648,32.07813 l 0.002,68.64257 h 29.63477 v -72.20312 c -6.3e-4,-18.27044 -4.44006,-30.08364 -9.35156,-36.53906 -4.46041,-6.2405 -16.49096,-19.1698 -40.78711,-19.16992 z" />
    <path
       id="path2172"
       clip-path="none"
       style="fill:#e61812;stroke-width:2.42721"
       d="m 671.3836,557.99623 -29.62733,-0.002 0.011,-164.91406 29.62733,0.002 z" />
    <path
       id="path2169"
       clip-path="none"
       style="fill:#e61812;stroke-width:21.3456"
       d="m 760.46405,556.41271 22.73155,52.81655 -31.86602,6.9e-4 -71.0905,-164.90417 33.64592,-0.001 29.87212,79.34371 28.06791,-79.32334 33.86044,-0.002 z" />
    <path
       id="path2166"
       clip-path="none"
       style="fill:#e61812;stroke-width:2.42721"
       d="m 188.98438,396.76172 c -10.80887,0.0108 -22.4311,4.2324 -30.60938,11.89453 -14.77798,13.18164 -16.35887,37.64719 -17.14844,47.41406 l -12.39648,0.008 0.008,31.13672 12.39453,-0.006 0.002,-0.004 0.0176,108.81054 35.08008,0.01 0.006,-108.82812 37.54688,0.01 -0.006,-31.13867 -37.55079,0.0137 c 1.05925,-17.6967 7.10937,-25.52265 39.39454,-24.75391 l 0.002,-34.5664 z" />
    <path
       id="path2163"
       clip-path="none"
       style="fill:#e61812;stroke-width:2.42721"
       d="m 600.2539,383.23437 c -10.22905,0.002 -18.51021,8.29807 -18.50585,18.50586 0.002,10.22905 8.29439,18.53161 18.52344,18.5293 10.20782,-0.005 18.51204,-8.29634 18.50976,-18.52539 -0.005,-10.2078 -8.29829,-18.51207 -18.52735,-18.50977 z m 13.40431,48.69141 -29.64844,0.006 0.0277,123.67774 29.6504,-0.006 z" />
    <path
       clip-path="none"
       d="m 1000,423.51665 c 0,0 -267.90165,-114.33896 -561.14044,-113.32305 C 149.50336,311.19704 0,404.31271 0,404.31271 c 0,0 221.73866,-66.26578 493.60778,-53.79067 C 814.47492,365.24516 1000,423.51665 1000,423.51665"
       id="path2160"
       style="fill:#e61812;stroke-width:2.42721"
       inkscape:connector-curvature="0" />
  </g>
</svg>
