<?xml version="1.0" encoding="UTF-8" standalone="no"?>
<!-- Generator: Adobe Illustrator 16.0.0, SVG Export Plug-In . SVG Version: 6.00 Build 0)  -->

<svg
   version="1.1"
   id="Layer_1"
   x="0px"
   y="0px"
   width="1000"
   height="278.836"
   viewBox="-194 331.438 1000 278.836"
   enable-background="new -194 331.438 1000 129.125"
   xml:space="preserve"
   sodipodi:docname="iNews.svg"
   inkscape:version="1.2.2 (732a01da63, 2022-12-09)"
   xmlns:inkscape="http://www.inkscape.org/namespaces/inkscape"
   xmlns:sodipodi="http://sodipodi.sourceforge.net/DTD/sodipodi-0.dtd"
   xmlns="http://www.w3.org/2000/svg"
   xmlns:svg="http://www.w3.org/2000/svg"
   xmlns:rdf="http://www.w3.org/1999/02/22-rdf-syntax-ns#"
   xmlns:cc="http://creativecommons.org/ns#"
   xmlns:dc="http://purl.org/dc/elements/1.1/"><sodipodi:namedview
   id="namedview28"
   pagecolor="#ffffff"
   bordercolor="#111111"
   borderopacity="1"
   inkscape:showpageshadow="0"
   inkscape:pageopacity="0"
   inkscape:pagecheckerboard="1"
   inkscape:deskcolor="#d1d1d1"
   showgrid="false"
   inkscape:zoom="0.6"
   inkscape:cx="635.83333"
   inkscape:cy="193.33333"
   inkscape:window-width="1366"
   inkscape:window-height="705"
   inkscape:window-x="-8"
   inkscape:window-y="-8"
   inkscape:window-maximized="1"
   inkscape:current-layer="Layer_1" /><metadata
   id="metadata47"><rdf:RDF><cc:Work
       rdf:about=""><dc:format>image/svg+xml</dc:format><dc:type
         rdf:resource="http://purl.org/dc/dcmitype/StillImage" /></cc:Work></rdf:RDF></metadata><defs
   id="defs45"><inkscape:path-effect
     effect="spiro"
     id="path-effect8129"
     is_visible="true"
     lpeversion="1" /></defs>

<g
   id="g8201"
   transform="translate(-194,331.438)"
   style="opacity:1"><path
     id="path8194"
     style="display:inline;fill:#e12328;fill-opacity:1;stroke-width:0.403618"
     d="M 31.818359,0 C 14.245504,0 -2.7614208e-7,14.245504 0,31.818359 c 2.7614209e-7,17.572856 14.245505,31.81836 31.818359,31.81836 17.572855,0 31.81836,-14.245505 31.81836,-31.81836 C 63.636719,14.245505 49.391214,5.5228419e-7 31.818359,0 Z M 5.9863281,84.355469 V 278.836 H 57.650391 V 84.355469 Z"
     sodipodi:nodetypes="sssssccccc" /><path
     style="fill:#000000;fill-opacity:1;stroke-width:0.403618"
     d="M 97.945312,0 V 278.83594 H 149.91016 V 92.443359 L 273.20703,278.83594 H 321.5332 V 0 H 269.56836 V 185.91992 L 146.56836,0 Z"
     id="path8191" /><path
     style="fill:#000000;fill-opacity:1;stroke-width:0.403618"
     d="m 436.92969,64.168 c -42.95998,0 -93.39063,31.40446 -93.39063,107.46286 0,71.53475 41.3685,107.20508 99.13086,107.20508 37.88792,0 63.85478,-12.11581 80.6875,-29.53125 l -21.84375,-34.54102 c -20.76807,20.54591 -44.45651,22.42774 -59.36719,22.42774 -21.8129,0 -42.74548,-9.8297 -46.39648,-51.92969 H 525.375 V 158.70703 C 525.375,99.740182 492.56208,64.168 436.92969,64.168 Z m -0.28321,42.02927 c 25.18554,0 35.25456,13.75935 37.56836,37.08789 h -75.99218 c 6.13855,-25.42825 21.44109,-37.08789 38.42382,-37.08789 z"
     id="path8188"
     sodipodi:nodetypes="sssccsccsssccs" /><path
     style="fill:#000000;fill-opacity:1;stroke-width:0.403618"
     d="m 528.55664,64.168 65.37109,214.66794 h 41.2793 l 43.51172,-131.01953 44.54102,131.01953 h 41.41992 L 829.83008,64.167969 H 774.42773 L 742.75781,193.63672 699.70508,64.167969 H 658.62891 L 616.72191,191.30107 583.86914,64.167969 Z"
     id="path8185"
     sodipodi:nodetypes="cccccccccccccc" /><path
     style="fill:#000000;fill-opacity:1;stroke-width:0.403618"
     d="m 912.63672,64.167969 c -43.70962,0 -81.99805,25.698838 -81.99805,64.166011 0,44.39285 48.09489,55.35007 82.52149,63.55079 31.38114,7.47526 35.81054,14.43217 35.81054,24.66211 0,8.75265 -8.48312,20.49218 -34.60742,20.49218 -28.90684,0 -41.10026,-13.21096 -40.05859,-35.83594 h -46.60547 c -1.46872,2.71697 -2.58594,4.55671 -2.58594,13.30469 0,29.35877 30.62879,64.32813 86.98242,64.32813 55.0235,0 87.9043,-27.21517 87.9043,-64.84375 0,-38.96422 -41.13414,-56.50337 -77.59766,-63.63281 -33.70344,-6.5898 -40.64843,-11.51427 -40.64843,-22.76368 0,-9.94227 7.0613,-21.21875 31.09765,-21.21875 22.23804,0 35.49344,13.95329 33.9043,32.46875 h 47.50586 c 1.89218,-4.04536 1.90234,-6.04894 1.90234,-12.37304 0,-28.576503 -28.7294,-62.304691 -83.52734,-62.304691 z"
     id="path8182" /></g></svg>
