<?xml version="1.0" encoding="UTF-8" standalone="no"?>
<svg
   version="1.1"
   width="1000"
   height="839.81946"
   viewBox="0 0 999.99998 839.81948"
   xml:space="preserve"
   id="svg21"
   sodipodi:docname="JTV_2022.svg"
   inkscape:version="1.1.2 (b8e25be833, 2022-02-05)"
   xmlns:inkscape="http://www.inkscape.org/namespaces/inkscape"
   xmlns:sodipodi="http://sodipodi.sourceforge.net/DTD/sodipodi-0.dtd"
   xmlns="http://www.w3.org/2000/svg"
   xmlns:svg="http://www.w3.org/2000/svg"><sodipodi:namedview
   id="namedview23"
   pagecolor="#ffffff"
   bordercolor="#666666"
   borderopacity="1.0"
   inkscape:pageshadow="2"
   inkscape:pageopacity="0.0"
   inkscape:pagecheckerboard="0"
   showgrid="false"
   inkscape:zoom="0.5"
   inkscape:cx="503"
   inkscape:cy="404"
   inkscape:window-width="1366"
   inkscape:window-height="705"
   inkscape:window-x="-8"
   inkscape:window-y="-8"
   inkscape:window-maximized="1"
   inkscape:current-layer="svg21"><inkscape:grid
     type="xygrid"
     id="grid952"
     originx="-27.526009"
     originy="418.59635" /></sodipodi:namedview>
<desc
   id="desc2">Created with Fabric.js 4.6.0</desc>
<defs
   id="defs4">



		
		
		
		








</defs>

<g
   id="g29001"
   transform="matrix(2.667405,-0.33109992,0.33109992,2.667405,-1003.2932,-533.38498)"
   style="opacity:1"><path
     id="rect8387"
     style="display:inline;opacity:1;fill:#022855;fill-opacity:1;stroke-width:5.79582;paint-order:stroke fill markers"
     d="m 446.384,273.275 c -10.89343,-0.088 -17.21138,3.59646 -23.27072,9.11367 -6.94729,6.32571 -7.44198,16.5265 -9.61719,18.34571 -2.51592,2.10416 -14.61595,4.12309 -27.37109,20.04492 -13.04742,16.28668 -8.42155,30.33692 -20.32422,39.7207 -4.25787,3.3568 -6.5375,2.6937 -10.92578,2.55664 -5.62848,-0.1758 -10.379,0.75492 -16.13477,4.92578 -10.08754,7.30985 -10.54903,14.4084 -10.49023,21.57031 0.16115,19.61602 21.42674,18.9765 20.04688,47.6875 -0.89514,18.62508 -25.23058,30.72659 -25.29688,63.45899 -0.0693,34.20887 28.2098,61.31838 60.85156,61.30078 18.49116,-0.01 35.90763,-7.70938 68.62861,-17.06812 26.90171,-7.69433 44.9933,-13.5733 67.66983,-13.68188 37.71627,-0.1806 72.78284,12.13425 92.131,12.05 15.58804,-0.0679 30.10206,-5.53901 42.02564,-18.711 9.02221,-9.96685 13.21587,-20.88923 12.77734,-44.34 -0.20697,-11.0676 6.0502,-22.43316 12.80198,-36.878 13.48284,-28.84537 23.26969,-44.71187 22.99704,-57.81827 -0.24758,-11.90145 -10.26115,-21.34601 -21.74238,-25.49573 -18.32036,-6.62162 -34.79093,-4.2141 -99.75862,-4.30505 -26.2176,-0.0367 -38.41154,-20.73241 -65.37,-45.82031 C 491.09689,286.7453 465.30166,273.4278 446.384,273.275 Z m 237.51248,11.86562 c -14.57604,0.006 -79.17555,7.67077 -90.18164,12.55079 -14.51681,6.43665 -25.8274,20.74518 -25.9082,25.17968 -0.10646,5.841 3.92976,10.07878 10.12891,10.14258 27.42418,0.28224 55.90988,0.75126 82.27343,0.84766 12.34716,0.0452 19.33911,-6.70111 28.875,-15.95899 8.81052,-8.55365 16.12696,-13.00384 16.12696,-19.11914 0,-6.19948 -7.32618,-13.64848 -21.31446,-13.64258 z"
     sodipodi:nodetypes="ssssssssssssssssssssssssssssss" /><path
     id="path3846"
     style="font-style:italic;font-weight:900;font-size:203.497px;line-height:1.25;font-family:Gotham;-inkscape-font-specification:'Gotham Heavy Italic';display:inline;opacity:1;fill:#ffffff;stroke-width:4.70231"
     d="M 527.9043,353.16211 479.42188,389.93359 463.78711,467 c -4.3642,21.51187 6.23725,33.97163 28.67969,34.04883 15.87163,0.0546 24.36366,-2.75953 32.61523,-6.44141 l 5.15039,-25.79101 c -3.56548,0.66988 -8.75832,1.19808 -13.53515,0.91601 -7.82501,-0.46207 -12.08589,-3.58381 -10.14258,-12.98242 l 7.39062,-35.74414 30.43946,-0.14258 16.30859,78.45899 h 37.00391 l 68.61132,-110.1543 h -41.90625 l -34.85156,63.05078 -8.87109,-63.05078 h -59.92188 z m -107.10938,36.05469 -23.31445,88.15429 c -1.45302,5.49402 -4.81762,8.60009 -10.04102,9.10743 -3.4717,0.3372 -6.73733,-0.37801 -9.37109,-1.04883 l -7.14844,29.88672 c 7.11363,3.55901 11.58001,5.1582 23.39063,5.1582 23.72732,0 35.12349,-10.78029 40.77929,-32.87109 L 460.2793,389.2168 Z" /><path
     id="path5807"
     style="display:inline;opacity:1;fill:#ff6a03;fill-opacity:1;stroke-width:15.4598;paint-order:stroke fill markers"
     d="M 476.14878,353.98724 A 24.880228,29.897208 63.085323 0 1 443.25671,379.97449 24.880228,29.897208 63.085323 0 1 418.90151,353.98724 24.880228,29.897208 63.085323 0 1 451.79358,328 a 24.880228,29.897208 63.085323 0 1 24.3552,25.98724 z" /></g></svg>
