<?xml version="1.0" encoding="utf-8"?>
<!-- Generator: Adobe Illustrator 24.3.0, SVG Export Plug-In . SVG Version: 6.00 Build 0)  -->
<svg version="1.1" id="Layer_1" xmlns="http://www.w3.org/2000/svg" xmlns:xlink="http://www.w3.org/1999/xlink" x="0px" y="0px"
	 viewBox="0 0 810.4 409.5" style="enable-background:new 0 0 810.4 409.5;" xml:space="preserve">
<style type="text/css">
	.st0{fill:#F27609;}
	.st1{fill:#FFCD07;}
	.st2{fill:#0196FD;}
</style>
<g>
	<path class="st0" d="M321,44.8c0,2-0.3,5-0.7,8.3c-0.7,6.3-2.2,12-6.9,16.5c-6.1,6-14.4,8.8-22.7,7.8c-8.1-1-14.9-6.2-18.9-13.2
		c-2.9-5.1-3.9-11.3-2.7-17.1c0.8-4,2.4-8.2,4-12c1.8-4.2,4.2-8.6,6.5-12.6c2-3.5,4.1-6.6,6.6-9.8c2.5-3.2,5.4-6.7,8.9-9
		c2.5-2.2,5.6-3.7,9.2-3.7c3.5-0.1,5.7,1.9,7.6,4.5c2.9,3.9,4.2,8.4,5.5,13.1C319.7,25.8,321.4,34.9,321,44.8z"/>
	<path class="st0" d="M428.8,127.7c-1.4,1.4-3.7,3.4-6.3,5.5c-4.9,4-9.9,7.1-16.4,7.2c-8.6,0.1-16.5-3.6-21.8-10.1
		c-5.2-6.3-6.4-14.8-4.5-22.6c1.4-5.7,5-10.9,9.9-14.2c3.4-2.3,7.4-4.3,11.2-5.9c4.2-1.8,9-3.3,13.4-4.5c3.9-1.1,7.5-1.9,11.6-2.5
		c4-0.5,8.6-1.1,12.7-0.3c3.3,0.1,6.6,1.2,9.2,3.7c2.6,2.4,2.8,5.4,2.4,8.5c-0.6,4.8-2.8,9-5.1,13.2
		C441,113.2,435.9,120.9,428.8,127.7z"/>
	<path class="st0" d="M357.2,51.4c0.5-1.1,1.6-2.8,2.7-4.6c2.2-3.4,4.6-6.3,8.6-7.7c5.2-1.8,10.8-1.1,15.4,1.8
		c4.5,2.8,6.9,7.8,7.3,12.9c0.3,3.8-0.9,7.7-3.2,10.7c-1.6,2.1-3.7,4.1-5.6,5.9c-2.2,1.9-4.8,3.8-7.3,5.5c-2.2,1.5-4.2,2.7-6.6,3.8
		c-2.4,1.1-5,2.4-7.7,2.8c-2,0.6-4.3,0.6-6.4-0.4c-2.1-0.9-2.8-2.7-3.2-4.7c-0.6-3.1-0.1-6.1,0.5-9.1
		C352.7,62.8,354.2,57.1,357.2,51.4z"/>
	<path class="st0" d="M437.9,157c1.2-0.4,3.1-0.8,5.1-1.2c3.9-0.8,7.6-1,11.2,0.9c4.8,2.5,8.1,6.9,9.1,12.1c0.9,4.5-0.5,9-3.2,12.6
		c-0.6,0.8-1.3,1.5-2.2,2.1c-1.6,1.2-3,2-4.7,2.7c-2.2,0.9-4.5,1.3-6.8,1.4c-0.9,0-1.8,0.1-2.7,0.1c-2,0-4-0.1-5.9-0.4
		c-1.9-0.3-3.8-0.7-5.6-1.1c-2.4-0.5-4.7-1.2-7-2.1c-2.3-0.9-4.9-1.9-6.9-3.5c-1.8-1.1-3.3-2.6-4-4.8c-0.7-2.1,0-3.8,1.2-5.4
		c1.8-2.5,4.2-4.1,6.8-5.8C426.8,161.5,431.9,158.7,437.9,157z"/>
	<path class="st0" d="M203.2,44.4c-0.5-1.1-1.2-3-1.9-5c-1.3-3.8-2-7.5-0.5-11.4c1.9-5.1,6-9,11-10.7c5-1.6,10.3-0.4,14.5,2.5
		c3.1,2.2,5.3,5.5,6.2,9.2c0.6,2.6,0.9,5.4,1,8c0.1,2.9-0.1,6.1-0.4,9c-0.2,2.6-0.6,4.9-1.2,7.5c-0.6,2.5-1.3,5.4-2.7,7.6
		c-0.8,1.9-2.2,3.6-4.3,4.7c-2,1-3.8,0.5-5.6-0.5c-2.7-1.5-4.7-3.8-6.7-6.1C209.1,55.1,205.6,50.3,203.2,44.4z"/>
	<path class="st0" d="M176.9,64c1.6,1.1,4,3.2,6.4,5.4c4.7,4.2,8.5,8.8,9.5,15.3c1.3,8.6-1.3,17.2-7,23.6c-5.6,6.3-13.9,8.9-22,8.3
		c-5.9-0.5-11.6-3.2-15.6-7.6c-2.8-3-5.4-6.7-7.5-10.3c-2.4-3.9-4.6-8.5-6.5-12.7c-1.7-3.7-3-7.3-4.1-11.2c-1.1-4-2.3-8.4-2.1-12.7
		c-0.3-3.3,0.3-6.8,2.4-9.9c2-3,4.9-3.7,8.2-3.8c4.9-0.2,9.4,1.4,14,2.9C160.7,54.2,169.1,58,176.9,64z"/>
	<path class="st0" d="M109.5,149.3c-1.2-0.3-3.1-0.9-5.1-1.6c-3.8-1.3-7.2-3.1-9.4-6.6c-2.9-4.6-3.5-10.2-1.8-15.1
		c1.7-4.9,6-8.3,10.8-9.8c3.6-1.1,7.6-0.8,11.1,0.7c2.4,1.1,4.8,2.6,7,4.1c2.4,1.7,4.8,3.8,6.9,5.8c1.9,1.8,3.6,3.5,5.2,5.5
		c1.6,2,3.5,4.3,4.4,6.8c1,1.8,1.5,4,1.1,6.2c-0.4,2.2-2,3.3-3.9,4.1c-2.8,1.2-5.9,1.4-8.9,1.6C121.5,151.2,115.7,151,109.5,149.3z"
		/>
	<path class="st0" d="M95.1,185.7c20.2-2.2,24.8,4.3,30.1,9.3c0,0-18.8,0.1-21.1,2.3l-0.4-0.7C100.1,190.4,95.1,185.7,95.1,185.7z"
		/>
	<path class="st0" d="M423.8,214.4c-1.3-0.6-5,2.3-4.9,3.3c0,0,2.7,5.4,4.9,6.8V214.4z"/>
	<path class="st1" d="M173.8,248.8c18.7-18.3,40.9-21.1,59.9-8c0,0,3.8-8,12.6-11.2c5.2-1.9,17.1-0.8,17.3-0.2
		c-14.9-40.1,63-40.5,75.9-37.3c0.3,0.1,0.4-7,11.2-20.7c8-10.2,21.8-11.6,25.1-7.8c0.7,0.8,1.8-0.2,1.6-0.6
		c-16.6-40.2-59.8-69-105.6-69c-62.8,0-114,49.9-115.9,112.3c0,0,0,0,0.1,0.1C158.5,207.3,170.8,215.7,173.8,248.8z"/>
</g>
<g>
	<path class="st0" d="M765,252c-8.3,0-13.9-3-18.3-7.7c-4.3-4.5-8.3-9.5-11.8-14.7c-3-4.5-5.1-9.6-7.4-14.5
		c-2.2-4.6-4.2-9.2-6.3-13.8c-2.2-4.7-4.6-9.3-6.7-14c-2.2-4.8-2.8-10-2-15.2c0.5-3,2.4-5.4,5-6.7c2.7-1.4,5.5-2.6,8.5-3.2
		c5.9-1.3,10.6,1.4,14.2,5.7c2.8,3.4,4.9,6.5,6.8,10.8c0.4,0.8,0.6,1.6,0.9,2.4c0.9,2.7,2,5.1,3.2,7.8c0.9,2.1,2,4.2,3,6.3
		c1.1,2.2,1.9,4,3,6.1c0.4,0.7,1.2,2.3,1.7,2.3c0.8-0.1,1.5-0.9,1.8-1.6c1-4.5,2.6-7.7,4.1-11.3c1.1-2.6,2.5-5.1,4-7.5
		c2.3-3.6,4.4-7.1,7.2-10.3c2.9-3.3,7.2-6.7,10.9-8.6c2.6-1,5.5-1.6,8.4-1.6c5.4,0,9.8,3,13,7.7c2.5,3.7,3.4,12.3,0.5,15.6
		c-2.7,3.1-5.3,5.4-8.3,8.8c-1.8,2.3-3.3,4.7-4.6,7.3c-1.7,3.4-3.2,7-4.6,10.6c-0.9,2.4-1.8,4.9-2.5,7.4c-0.5,1.6-0.9,3.2-1.4,4.8
		c-1.6,5.2-1.5,7.7-5,15.6c-0.2,0.5-0.5,0.9-0.8,1.4c-1.7,2.5-3.9,4.6-6.3,6.7C771.8,251.1,767.8,252.4,765,252z"/>
	<path class="st0" d="M645.7,220.9c0-3.2,0-6.4,0-9.5c0-1.8-0.8-2.2-2.6-2.6c-3.9-0.9-7.6-1.2-11.1-2.9c-3.5-1.7-7.5-5.4-7.3-10
		c-0.1-2.3,0-4.3,0-6.5c0-7.3,4.9-9.2,8.4-11.3c2.1-1.3,6.6-2,8.8-2.2c3.6-0.4,4.6-0.3,8.2-0.5c1.4-0.1,1.5-1.9,1.9-3.4
		c1.5-6.4,3.2-13.1,6.9-18.6c1.8-2.6,5.3-4.7,8.4-4.8c6.7-0.1,13.2,2.4,17.5,7.8c0.5,0.7,1.4,3,1.4,3.8c0.1,3.5,0.2,6.3,0.1,9.9
		c-0.1,3.5,0,3.6,3.5,3.8c1.3,0.1,3.8,0.7,5.3,1c4.2,1,7.1,3.4,9.5,5.7c3.1,3,2.9,7.1,3,11.3c0.2,5.6-3.6,9.5-7.7,11.9
		c-2.2,1.3-5.5,1.8-8.2,2.3c-3.5,0.6-5.9,0.4-10.7,0.4c-2.6,0-2.2,2-2.3,4.5c-0.1,4.4,0,8.4,0.1,12.8c0.1,2.3,0,3.3,2.2,3.6
		c5.1,0.6,9.5,3.9,12.2,8.6c1.6,2.9,1.4,8.2,1.2,11.6c-0.3,3.4-4.5,7.2-7.6,9c-5.3,3.2-11.5,3.7-17.6,2.7c-2.7-0.4-5.3-1.3-7.9-2.7
		c-2.9-1.6-6.3-4.4-8.2-6.9c-2.1-2.7-2.8-4.2-4.2-7.3c-1.4-3.1-2.8-6.5-3.2-12.8c0-2.9-0.1-3.1-0.1-6
		C645.6,223.4,645.7,220.9,645.7,220.9z"/>
</g>
<g>
	<path class="st2" d="M328.4,290.3c-1.2-12.8-4-23.4-15.7-35.5c-8-8.2-17-10.5-24.5-10.5c-8.1,0-14.5,2.6-16,2.9H271
		c-0.5,0-0.9-0.2-1.2-0.6c-1-1.4-3.2-3.8-7.2-4.9c-3.8-1.1-7.2-1-10.1-0.6c0,0-9.2,1.3-10,8.3c-0.7,6.3,0.2,26.8-0.1,41.8
		c-0.1,4.1-18.1,23-33.1,22.1c-1.7-0.1-8.9-0.5-9.5-3.1c-0.1-0.7,0.1-1.3,0.5-1.9c0.2-0.3,0.6-0.5,1-0.6c5.1-0.6,13.8-2.4,22.3-8.6
		c3.7-2.7,13.6-9.9,16.2-22.8c0.5-2.6,1.5-7.3,0-12.6c-3.7-13.2-15.9-24.4-36.2-21.3c-16.1,2.5-28.6,16.3-31.9,24.4
		c-0.2,0.5-0.8,0.9-1.3,0.9c-0.8,0-1.4,0-1.4,0c0-0.4,0-1.8,0-2.2c-0.8-13.1-5-37.1-19.2-49.8c-8.9-8-14.8-9.7-25.9-10.1
		c-4.4-0.2-7.1,0.1-10,0.8c-3.7,0.9-7.2,1.9-12.3,4.5c-0.2,0.1-0.3,0.1-0.5,0.1c-0.6,0-2,0-2.2-0.2c-2-2.2-11.2-22-39.8-22
		c-42.5,0-56.9,60.5-58.5,86.6c-0.8,13.9-0.9,34.3-0.4,46.8c0.5,12.6,4.1,28.5,8.1,41.8c1.3,4.3,7,6.6,14.1,5.7
		c6.4-0.9,13.7-5.4,13.3-11.7c-0.2-2.5-3.1-10.2-5.9-24.8c-0.9-4.9-1.1-8.3-1.4-14.1c-0.7-12.1-0.5-25.5,0.1-34
		c0.5-7.4,2-33,14.7-55.5c2.6-4.7,6.2-9.6,12.2-11.8c0.9-0.3,5.1-1.3,9.4,0c9.9,3.1,15.2,17.5,15.2,20.6c0.1,9.5,0.3,16.1-0.2,20.3
		c-1,7.9-3.3,14.8-14.2,39.4c-1.5,3.3-2.7,11.4-1.2,17c0.4,1.5,2.1,6.9,8.7,8.7c3.3,0.9,6.8,0.6,9.2,0.1c0,0,6-1.1,10.1-5
		c2.5-2.3,6.1-10.3,13.5-44.3c6.6-30.3,2.9-34.5,6.1-37c3.2-2.5,10.1-4.8,15.5-3.2c8.4,2.5,10.7,15.3,12.8,27.1
		c2.3,13.3,1.5,39.4-3.6,64.1c-0.4,1.9-1.7,6.2-2.7,9.1c-2,5.8-4.3,11.2-6.8,17.7c-1.4,3.8,1.3,11.9,8.4,14.2
		c8.9,2.9,16.5,0.9,18.4-3.1c4.8-10,10.3-28.2,11.9-42.4c0.3-2.6,0.6-5.2,0.8-7.8c0,0.1,0,0.1,0,0.1c0.6,0,2.6,0,2.7,0.2
		c11.1,25.1,31.5,27.6,47.9,27.1c10.6-0.3,23.8-9.1,26.9-11.2c0.5-0.4,1.2-0.4,1.7,0.1c2.2,1.8,6.1,7.5,14.2,5.6
		c13.2-3,13.7-9.9,13.6-11.7c-0.3-4.2-6.5-28.2,1.3-42.3c2.6-4.6,7.2-9.5,12.6-9.1c6.2,0.6,9.5,8.1,10.4,10.1
		c2.9,6.8,1.2,21.1,0.3,26.3c-2.5,15.2-9.4,23.5-7.4,29.5c1.6,4.8,6.5,7.2,10.6,8.7c5.8,2.1,12.3,1,13.5-0.9
		C323.2,332.4,329.7,304.7,328.4,290.3z M192.9,288.8c0-6.6,0.3-23.2,9.9-27.6c6.9-3.2,16.8,3.3,17.4,8.1
		C221.6,281,192.9,291.8,192.9,288.8z"/>
	<path class="st2" d="M270.1,223.2c0-26.3,49.6-21.6,75.4-21.7c6.2-17.5,16-29.7,27-29.1c4.8,0.3,9.7,3.1,12.3,8
		c3.9,7.3,0.9,18.2-8.4,25.8c3.6,0.5,36.7,8.1,40.8,21.6c0.5,1.6,1.3,5.6,0,9.8c-2.9,9.2-15.2,8.6-17.5,7.7
		c-9.3-3.8-17.4-7.2-30.4-10.2c-0.6,0-3-0.4-3.1,0c-3.1,8.2-9.4,47-1.4,85.2c7,33.3,20.5,60.5,29.8,61c17.1,0.9,49.5-23.4,53-24.9
		c1-0.4,6-1.3,9.4-0.4c0.6,0.1,7.9,2.1,10.1,8.8c0.3,1,0.5,6.3-0.1,8.4c-1.8,6.3-12.4,13.5-16.6,17c-9.5,7.8-32.5,18-45.4,19.2
		c-22.2,2.1-37.3-8.9-39.9-12.2c-22.1-27-28.3-45.4-32.6-73.1c-2.9-18.2-5-52,3.3-91.6c-34.3-2.6-40.4,5.4-47.3,7.2
		c-2.1,0.5-7.4,2-11.1-0.8C272.1,234.9,270.1,227.1,270.1,223.2z"/>
	<path class="st2" d="M548.9,348.6c-1.4-9.8-1-29.6,4.2-57.9c1.9-10.4,4.2-33.5,1.3-42.5c-5.6-17.5-19.1-21.1-30.8-23.4
		c-9.9-1.9-19.9-1.8-25.7-1.4c-2.4,0.2-4.2-2.1-3.5-4.4c2.2-7.3,3.1-11.5-7.8-19.1c-10.5-7.3-37.5-10.4-48.1-0.3
		c-7,6.7-10.4,19.6-5.1,28.8c11.8,20.4,40.9,23.3,51,23.7c2,0.1,3.5,1.9,3.3,3.9c-2.2,18.1-17,58.5-31.8,65.2
		c-1.5,0.7-4.2,1.8-5.2-0.5c-0.7-1.7,0.2-3.6,1.8-4.3c2.4-1,6.1-3.5,8-9.7c0.1-0.3,0.2-0.7,0.2-1.1c0-0.4,0.1-1.3,0-2.4
		c-0.3-4.5-5-11.4-7.5-12.9c-0.3-0.2-0.3-0.7-0.2-1.5c0.4-2.5,0.3-2.3,0.6-3.2c2.7-11.1,4.1-14.6,5.2-18.7c0.6-2,0.3-5.1-0.7-7
		c-2.4-4.3-10.8-8.4-17.7-8.3c-10.2,0.2-13.1,11.2-13.1,11.2c-15.6-2.7-28.5,1.9-35.5,6.2c-17.4,10.8-22,26.5-22,39.2
		c0,18.3,10.5,29.7,23.5,33.2c11.4,3.1,21.4,3,32.4-2c0,0,7.1,13.7,25.8,13.7c21.5,0,36.7-23.4,37.9-25.2c17-27.3,24.4-60.6,27-73.4
		c0.5-2.4,5.1-1.1,5.1-1.1c3,1,4.4,5.8,4.4,7.2c0.4,12.2-7.3,50-9,81.4c0,0.2,0,0.3,0,0.5c-1.1,22.2,5.9,30.9,15.9,34.5
		c6.4,2.3,14.2,0.3,15.4,0c0.1,0,0.7-0.2,0.8-0.3c4.1-1.6,8.2-5.1,8.2-10.1C557.1,356.4,549.8,355.1,548.9,348.6z M406.5,314.8
		c-3.4,0-10.5-6.7-9-15.4c1.5-8.7,22.9-14.3,26.9-11.7C426.3,288.8,420,314.8,406.5,314.8z"/>
	<path class="st2" d="M585.5,201.1c4.8-1.3,11.7-1.1,20.8,3.2c3,1.4,7.4,8,7.4,16c0,13.8-10.4,18-19.7,18
		c-12.8,0-22.2-12.7-22.9-23.3C570.7,206.9,579.2,202.8,585.5,201.1z"/>
	<path class="st2" d="M600.5,253c-1.2-4.3-8.2-10-16.2-10.6c-7.8-0.6-15.2,4-16.2,6.8c-8,21.6-8.8,81.8,5,95.2c1.9,1.8,6.6,5.9,13,6
		c8.1,0.1,14.9-5.9,16.6-9.2c0,0,1.4-4.9-1.4-9.8c-12.2-21.4-7.5-45.7-2.9-62.2C600.2,262.4,601.9,258.4,600.5,253z"/>
</g>
</svg>
