<?xml version="1.0" encoding="UTF-8" standalone="no"?>
<!-- Created with Inkscape (http://www.inkscape.org/) -->

<svg
   xmlns:dc="http://purl.org/dc/elements/1.1/"
   xmlns:cc="http://creativecommons.org/ns#"
   xmlns:rdf="http://www.w3.org/1999/02/22-rdf-syntax-ns#"
   xmlns:svg="http://www.w3.org/2000/svg"
   xmlns="http://www.w3.org/2000/svg"
   xmlns:xlink="http://www.w3.org/1999/xlink"
   xmlns:sodipodi="http://sodipodi.sourceforge.net/DTD/sodipodi-0.dtd"
   xmlns:inkscape="http://www.inkscape.org/namespaces/inkscape"
   id="svg5925"
   height="240.51897"
   width="1000"
   version="1.1"
   inkscape:version="0.92.3 (2405546, 2018-03-11)"
   sodipodi:docname="MetroTV_2010.svg">
  <sodipodi:namedview
     pagecolor="#ffffff"
     bordercolor="#666666"
     borderopacity="1"
     objecttolerance="10"
     gridtolerance="10"
     guidetolerance="10"
     inkscape:pageopacity="0"
     inkscape:pageshadow="2"
     inkscape:window-width="1366"
     inkscape:window-height="705"
     id="namedview3045"
     showgrid="false"
     inkscape:zoom="0.25"
     inkscape:cx="1500.6971"
     inkscape:cy="470.4365"
     inkscape:window-x="-8"
     inkscape:window-y="-8"
     inkscape:window-maximized="1"
     inkscape:current-layer="svg5925" />
  <metadata
     id="metadata5931">
    <rdf:RDF>
      <cc:Work
         rdf:about="">
        <dc:format>image/svg+xml</dc:format>
        <dc:type
           rdf:resource="http://purl.org/dc/dcmitype/StillImage" />
        <dc:title />
      </cc:Work>
    </rdf:RDF>
  </metadata>
  <defs
     id="defs5929">
    <linearGradient
       inkscape:collect="always"
       id="linearGradient3829">
      <stop
         style="stop-color:#feb400;stop-opacity:1;"
         offset="0"
         id="stop3831" />
      <stop
         style="stop-color:#ffd01f;stop-opacity:1"
         offset="1"
         id="stop3833" />
    </linearGradient>
    <linearGradient
       inkscape:collect="always"
       id="linearGradient3819">
      <stop
         style="stop-color:#fec925;stop-opacity:1;"
         offset="0"
         id="stop3821" />
      <stop
         style="stop-color:#ffb800;stop-opacity:1"
         offset="1"
         id="stop3823" />
    </linearGradient>
    <linearGradient
       id="linearGradient3859"
       y2="365.72107"
       gradientUnits="userSpaceOnUse"
       x2="1495.9397"
       y1="89.215652"
       x1="1304.228">
      <stop
         id="stop3855"
         stop-color="#fdb732"
         offset="0" />
      <stop
         id="stop3857"
         stop-color="#fdb732"
         stop-opacity="0"
         offset="1"
         style="stop-color:#ffd01f;stop-opacity:1" />
    </linearGradient>
    <linearGradient
       inkscape:collect="always"
       xlink:href="#linearGradient3819"
       id="linearGradient3825"
       x1="1240.9885"
       y1="183.17046"
       x2="1273.2411"
       y2="225.19661"
       gradientUnits="userSpaceOnUse" />
    <linearGradient
       inkscape:collect="always"
       xlink:href="#linearGradient3829"
       id="linearGradient3835"
       x1="1268.3389"
       y1="277.89606"
       x2="1197.0516"
       y2="170.98218"
       gradientUnits="userSpaceOnUse"
       gradientTransform="matrix(0.52291081,0,0,0.52291081,-19.937544,-48.728711)" />
    <filter
       id="filter7970"
       x="-0.25"
       width="1.5"
       y="-0.25"
       height="1.5"
       inkscape:menu="Non realistic 3D shaders"
       inkscape:menu-tooltip="Brushed aluminium shader"
       inkscape:label="Aluminium"
       style="color-interpolation-filters:sRGB">
      <feGaussianBlur
         id="feGaussianBlur7972"
         result="result8"
         stdDeviation="7" />
      <feComposite
         id="feComposite7974"
         in2="SourceGraphic"
         in="result8"
         operator="xor"
         result="result6" />
      <feDisplacementMap
         id="feDisplacementMap7976"
         in2="result6"
         result="result4"
         scale="75"
         yChannelSelector="A"
         xChannelSelector="A"
         in="result6" />
      <feComposite
         id="feComposite7978"
         in2="SourceGraphic"
         k1="1"
         in="result4"
         operator="arithmetic"
         result="result2"
         k2="0"
         k3="0"
         k4="0" />
    </filter>
    <filter
       id="filter7980"
       x="-0.25"
       width="1.5"
       y="-0.25"
       height="1.5"
       inkscape:menu="Non realistic 3D shaders"
       inkscape:menu-tooltip="Brushed aluminium shader"
       inkscape:label="Aluminium"
       style="color-interpolation-filters:sRGB">
      <feGaussianBlur
         id="feGaussianBlur7982"
         result="result8"
         stdDeviation="7" />
      <feComposite
         id="feComposite7984"
         in2="SourceGraphic"
         in="result8"
         operator="xor"
         result="result6" />
      <feDisplacementMap
         id="feDisplacementMap7986"
         in2="result6"
         result="result4"
         scale="75"
         yChannelSelector="A"
         xChannelSelector="A"
         in="result6" />
      <feComposite
         id="feComposite7988"
         in2="SourceGraphic"
         k1="1"
         in="result4"
         operator="arithmetic"
         result="result2"
         k2="0"
         k3="0"
         k4="0" />
    </filter>
    <filter
       id="filter7990"
       x="-0.25"
       width="1.5"
       y="-0.25"
       height="1.5"
       inkscape:menu="Non realistic 3D shaders"
       inkscape:menu-tooltip="Brushed aluminium shader"
       inkscape:label="Aluminium"
       style="color-interpolation-filters:sRGB">
      <feGaussianBlur
         id="feGaussianBlur7992"
         result="result8"
         stdDeviation="7" />
      <feComposite
         id="feComposite7994"
         in2="SourceGraphic"
         in="result8"
         operator="xor"
         result="result6" />
      <feDisplacementMap
         id="feDisplacementMap7996"
         in2="result6"
         result="result4"
         scale="75"
         yChannelSelector="A"
         xChannelSelector="A"
         in="result6" />
      <feComposite
         id="feComposite7998"
         in2="SourceGraphic"
         k1="1"
         in="result4"
         operator="arithmetic"
         result="result2"
         k2="0"
         k3="0"
         k4="0" />
    </filter>
    <filter
       id="filter8000"
       x="-0.25"
       width="1.5"
       y="-0.25"
       height="1.5"
       inkscape:menu="Non realistic 3D shaders"
       inkscape:menu-tooltip="Brushed aluminium shader"
       inkscape:label="Aluminium"
       style="color-interpolation-filters:sRGB">
      <feGaussianBlur
         id="feGaussianBlur8002"
         result="result8"
         stdDeviation="7" />
      <feComposite
         id="feComposite8004"
         in2="SourceGraphic"
         in="result8"
         operator="xor"
         result="result6" />
      <feDisplacementMap
         id="feDisplacementMap8006"
         in2="result6"
         result="result4"
         scale="75"
         yChannelSelector="A"
         xChannelSelector="A"
         in="result6" />
      <feComposite
         id="feComposite8008"
         in2="SourceGraphic"
         k1="1"
         in="result4"
         operator="arithmetic"
         result="result2"
         k2="0"
         k3="0"
         k4="0" />
    </filter>
    <filter
       id="filter8010"
       x="-0.25"
       width="1.5"
       y="-0.25"
       height="1.5"
       inkscape:menu="Non realistic 3D shaders"
       inkscape:menu-tooltip="Brushed aluminium shader"
       inkscape:label="Aluminium"
       style="color-interpolation-filters:sRGB">
      <feGaussianBlur
         id="feGaussianBlur8012"
         result="result8"
         stdDeviation="7" />
      <feComposite
         id="feComposite8014"
         in2="SourceGraphic"
         in="result8"
         operator="xor"
         result="result6" />
      <feDisplacementMap
         id="feDisplacementMap8016"
         in2="result6"
         result="result4"
         scale="75"
         yChannelSelector="A"
         xChannelSelector="A"
         in="result6" />
      <feComposite
         id="feComposite8018"
         in2="SourceGraphic"
         k1="1"
         in="result4"
         operator="arithmetic"
         result="result2"
         k2="0"
         k3="0"
         k4="0" />
    </filter>
    <filter
       id="filter8160"
       inkscape:label="Velvet Bumps"
       inkscape:menu="Bumps"
       inkscape:menu-tooltip="Gives Smooth Bumps velvet like"
       style="color-interpolation-filters:sRGB">
      <feGaussianBlur
         id="feGaussianBlur8162"
         stdDeviation="1"
         result="result3" />
      <feBlend
         id="feBlend8164"
         in2="result3"
         result="result5"
         mode="screen"
         in="SourceGraphic" />
      <feGaussianBlur
         id="feGaussianBlur8166"
         stdDeviation="1"
         result="result7" />
      <feConvolveMatrix
         id="feConvolveMatrix8168"
         order="3 3"
         kernelMatrix="2 0 0 1 1 -1 0 0 -2 "
         targetX="1"
         targetY="1"
         result="result8" />
      <feBlend
         id="feBlend8170"
         in2="result8"
         mode="darken"
         in="result7"
         result="result6" />
    </filter>
    <filter
       id="filter8184"
       inkscape:label="Velvet Bumps"
       inkscape:menu="Bumps"
       inkscape:menu-tooltip="Gives Smooth Bumps velvet like"
       style="color-interpolation-filters:sRGB">
      <feGaussianBlur
         id="feGaussianBlur8186"
         stdDeviation="1"
         result="result3" />
      <feBlend
         id="feBlend8188"
         in2="result3"
         result="result5"
         mode="screen"
         in="SourceGraphic" />
      <feGaussianBlur
         id="feGaussianBlur8190"
         stdDeviation="1"
         result="result7" />
      <feConvolveMatrix
         id="feConvolveMatrix8192"
         order="3 3"
         kernelMatrix="2 0 0 1 1 -1 0 0 -2 "
         targetX="1"
         targetY="1"
         result="result8" />
      <feBlend
         id="feBlend8194"
         in2="result8"
         mode="darken"
         in="result7"
         result="result6" />
    </filter>
    <filter
       id="filter8196"
       inkscape:label="Velvet Bumps"
       inkscape:menu="Bumps"
       inkscape:menu-tooltip="Gives Smooth Bumps velvet like"
       style="color-interpolation-filters:sRGB">
      <feGaussianBlur
         id="feGaussianBlur8198"
         stdDeviation="1"
         result="result3" />
      <feBlend
         id="feBlend8200"
         in2="result3"
         result="result5"
         mode="screen"
         in="SourceGraphic" />
      <feGaussianBlur
         id="feGaussianBlur8202"
         stdDeviation="1"
         result="result7" />
      <feConvolveMatrix
         id="feConvolveMatrix8204"
         order="3 3"
         kernelMatrix="2 0 0 1 1 -1 0 0 -2 "
         targetX="1"
         targetY="1"
         result="result8" />
      <feBlend
         id="feBlend8206"
         in2="result8"
         mode="darken"
         in="result7"
         result="result6" />
    </filter>
    <filter
       id="filter8208"
       inkscape:label="Velvet Bumps"
       inkscape:menu="Bumps"
       inkscape:menu-tooltip="Gives Smooth Bumps velvet like"
       style="color-interpolation-filters:sRGB">
      <feGaussianBlur
         id="feGaussianBlur8210"
         stdDeviation="1"
         result="result3" />
      <feBlend
         id="feBlend8212"
         in2="result3"
         result="result5"
         mode="screen"
         in="SourceGraphic" />
      <feGaussianBlur
         id="feGaussianBlur8214"
         stdDeviation="1"
         result="result7" />
      <feConvolveMatrix
         id="feConvolveMatrix8216"
         order="3 3"
         kernelMatrix="2 0 0 1 1 -1 0 0 -2 "
         targetX="1"
         targetY="1"
         result="result8" />
      <feBlend
         id="feBlend8218"
         in2="result8"
         mode="darken"
         in="result7"
         result="result6" />
    </filter>
    <filter
       id="filter8220"
       inkscape:label="Velvet Bumps"
       inkscape:menu="Bumps"
       inkscape:menu-tooltip="Gives Smooth Bumps velvet like"
       style="color-interpolation-filters:sRGB">
      <feGaussianBlur
         id="feGaussianBlur8222"
         stdDeviation="1"
         result="result3" />
      <feBlend
         id="feBlend8224"
         in2="result3"
         result="result5"
         mode="screen"
         in="SourceGraphic" />
      <feGaussianBlur
         id="feGaussianBlur8226"
         stdDeviation="1"
         result="result7" />
      <feConvolveMatrix
         id="feConvolveMatrix8228"
         order="3 3"
         kernelMatrix="2 0 0 1 1 -1 0 0 -2 "
         targetX="1"
         targetY="1"
         result="result8" />
      <feBlend
         id="feBlend8230"
         in2="result8"
         mode="darken"
         in="result7"
         result="result6" />
    </filter>
    <filter
       id="filter8232"
       inkscape:label="Velvet Bumps"
       inkscape:menu="Bumps"
       inkscape:menu-tooltip="Gives Smooth Bumps velvet like"
       style="color-interpolation-filters:sRGB">
      <feGaussianBlur
         id="feGaussianBlur8234"
         stdDeviation="1"
         result="result3" />
      <feBlend
         id="feBlend8236"
         in2="result3"
         result="result5"
         mode="screen"
         in="SourceGraphic" />
      <feGaussianBlur
         id="feGaussianBlur8238"
         stdDeviation="1"
         result="result7" />
      <feConvolveMatrix
         id="feConvolveMatrix8240"
         order="3 3"
         kernelMatrix="2 0 0 1 1 -1 0 0 -2 "
         targetX="1"
         targetY="1"
         result="result8" />
      <feBlend
         id="feBlend8242"
         in2="result8"
         mode="darken"
         in="result7"
         result="result6" />
    </filter>
    <filter
       id="filter8244"
       inkscape:label="Velvet Bumps"
       inkscape:menu="Bumps"
       inkscape:menu-tooltip="Gives Smooth Bumps velvet like"
       style="color-interpolation-filters:sRGB">
      <feGaussianBlur
         id="feGaussianBlur8246"
         stdDeviation="1"
         result="result3" />
      <feBlend
         id="feBlend8248"
         in2="result3"
         result="result5"
         mode="screen"
         in="SourceGraphic" />
      <feGaussianBlur
         id="feGaussianBlur8250"
         stdDeviation="1"
         result="result7" />
      <feConvolveMatrix
         id="feConvolveMatrix8252"
         order="3 3"
         kernelMatrix="2 0 0 1 1 -1 0 0 -2 "
         targetX="1"
         targetY="1"
         result="result8" />
      <feBlend
         id="feBlend8254"
         in2="result8"
         mode="darken"
         in="result7"
         result="result6" />
    </filter>
    <linearGradient
       inkscape:collect="always"
       xlink:href="#linearGradient3859"
       id="linearGradient3102"
       gradientUnits="userSpaceOnUse"
       x1="1366.807"
       y1="317.2576"
       x2="1363.8822"
       y2="286.35355"
       gradientTransform="matrix(0.52291081,0,0,0.52291081,-19.937544,-48.728711)" />
  </defs>
  <path
     id="path5935"
     d="M 0,176.03928 H 29.000111 L 50.387687,74.176249 76.313603,74.538419 55.038457,176.04587 H 82.465649 L 104.38189,74.925369 c 0,0 23.59949,0.46421 18.07127,34.989011 -4.62697,28.89657 -13.71333,66.13253 -13.71333,66.13253 h 27.55531 l 14.73876,-67.54439 c 0,0 3.94317,-15.420121 -2.55996,-29.222871 -7.42534,-15.75008 -18.8614,-25.02128 -34.35524,-25.12063 -42.157072,-0.26669 -87.922228,-0.12551 -87.922228,-0.12551 z"
     inkscape:connector-curvature="0"
     style="fill:#044d80;stroke-width:0.51010728" />
  <path
     id="path6445"
     d="m 248.95366,176.43146 4.6139,-21.53138 -47.03635,0.89716 c 0,0 -17.53477,-0.50451 -16.14853,-30.50295 0.031,-0.66948 69.5942,0 69.5942,0 l 4.6139,-21.14704 -70.23215,0.12816 c 0,0 11.40678,-29.734271 28.70885,-29.478051 17.30207,0.25633 47.29257,0.38449 47.29257,0.38449 l 4.99841,-21.78812 -51.00943,0.51266 c 0,0 -56.26521,4.53609 -63.95199,70.106651 -3.1005,26.43314 11.16571,49.10028 28.45262,50.62508 28.20267,2.48786 60.1086,1.79432 60.1086,1.79432 z"
     inkscape:connector-curvature="0"
     style="fill:#044d80;stroke-width:0.51010728" />
  <path
     id="path6447"
     d="M 327.6465,175.66278 H 298.55332 L 319.95605,75.180239 H 282.0194 l 4.87023,-21.78812 h 104.19521 l -4.6139,22.04435 -37.68043,-0.12817 z"
     inkscape:connector-curvature="0"
     style="fill:#044d80;stroke-width:0.51010728" />
  <path
     id="path6449"
     d="m 405.05822,53.646769 -25.50497,122.910191 28.19639,-0.12817 8.07427,-37.03934 27.29908,0.12817 11.27866,36.78311 h 28.32452 l -12.81655,-42.03785 c 0,0 26.9869,-11.26663 31.40028,-41.909731 3.16343,-21.96434 -13.71178,-38.32361 -32.17419,-38.45172 -7.19839,-0.05 -21.3277,-0.2228 -21.3277,-0.2228 l -17.61613,0.002 -1.17866,21.52555 c 0,0 15.12253,0.49169 24.39608,0.49169 4.98465,0 17.59234,5.78266 14.44177,24.08392 -2.61786,15.206791 -12.8777,19.335341 -20.17328,19.335341 -9.32833,0 -27.97804,-0.62307 -27.97804,-0.62307 l 9.33892,-43.283021 1.19509,-21.55535 z"
     inkscape:connector-curvature="0"
     style="fill:#044d80;stroke-width:0.51010728"
     sodipodi:nodetypes="ccccccccsscccssscccc" />
  <path
     style="fill:#ffd01f;stroke-width:0.51010728"
     inkscape:connector-curvature="0"
     d="m 666.27834,124.77833 c -0.74506,-1.53788 4.35626,-4.2782 4.35626,-4.2782 0,0 12.46147,-6.75548 19.89516,-11.59711 2.82762,-1.84169 8.17416,-6.29689 8.17416,-6.29689 0,0 3.8332,-3.826981 2.08343,-10.007991 -0.68737,-2.42793 -1.07107,-4.90214 -0.64335,-7.29461 0.65381,-3.65682 5.11816,-9.67071 5.11816,-9.67071 0,0 9.68378,-1.58317 14.46058,-1.86387 5.03317,-0.29572 10.43205,-0.7373 15.41646,0.0218 3.301,0.50276 6.32982,1.5668 9.3193,3.05412 2.76167,1.3739 5.37969,3.20947 7.43369,5.51096 2.10266,2.35655 3.94385,5.14685 4.74206,8.20238 0.82066,3.14169 0.80322,6.66292 0.22358,9.857911 -0.58887,3.24597 -1.87077,7.64652 -3.41772,11.62797 -1.88117,4.84163 -4.88019,8.2484 -4.88019,8.2484 0,0 -0.72109,-4.85021 -1.3196,-7.08283 -0.5123,-1.91114 -1.88449,-4.8362 -1.88449,-4.8362 0,0 -9.50916,2.49795 -16.68347,5.16338 -5.44876,2.0244 -17.152,7.01223 -17.152,7.01223 0,0 -7.17746,-2.50176 -11.15053,-2.56331 -8.36239,-0.12954 -24.47959,5.63908 -24.47959,5.63908 l -4.48578,1.28165 c 0,0 -4.38126,1.41019 -5.12658,-0.12816 z"
     id="path3091" />
  <path
     id="path6453"
     d="m 665.02332,124.8097 c 0,0 -29.33111,11.8204 -45.54288,28.15352 -9.41398,9.48456 -19.17203,18.91316 -27.59558,29.28771 -7.46354,9.19225 -21.67783,20.34385 -24.71276,22.30738 0,0 2.029,-5.57109 3.07972,-9.16506 1.16361,-3.98055 2.92297,-12.00969 2.92297,-12.00969 0,0 -7.76731,-0.24953 -11.12861,1.1424 -3.07064,1.27157 -8.56995,5.61659 -8.56995,5.61659 l 3.04314,-9.87674 c 0,0 -4.55382,2.14916 -6.71887,2.56247 -2.53422,0.48381 -7.37513,0.83242 -7.37513,0.83242 0,0 5.29603,-6.48514 7.31657,-10.14342 2.72188,-4.9287 5.91306,-15.0316 5.91306,-15.0316 0,0 -5.66362,0.0617 -8.62382,0.54122 -3.1064,0.50314 -10.21613,2.27842 -10.21613,2.27842 0,0 3.00295,-4.01846 4.44528,-5.87281 1.24915,-1.60601 3.77893,-4.35862 3.77893,-4.35862 0,0 -8.51089,-0.007 -12.69157,0.51224 -3.72297,0.46286 -11.03867,2.06095 -11.03867,2.06095 0,0 3.15465,-7.69673 5.61138,-11.36442 1.94065,-2.89703 6.30579,-8.148 6.30579,-8.148 0,0 -8.65835,-2.21599 -11.44446,-3.89484 -3.87829,-2.33695 -8.43508,-7.97544 -8.43508,-7.97544 0,0 -2.19841,17.76589 -2.27946,27.7629 -0.0469,5.81007 2.56721,24.0926 4.34448,30.37485 4.73328,16.7321 11.50404,26.70034 21.147,36.52689 10.40334,10.60149 16.28661,14.50763 26.27369,18.58372 9.77371,3.98929 21.49005,5.11318 32.42568,4.9984 8.0293,-0.0843 14.79209,-1.15584 23.59792,-3.39986 4.43794,-1.13095 18.54449,-6.46527 27.54013,-11.46743 6.42292,-3.57143 13.03615,-8.35298 19.04129,-12.97813 3.57952,-2.75684 7.13823,-6.38526 10.48224,-9.80824 4.95202,-5.06962 9.93011,-10.17322 14.15833,-15.86041 7.18742,-9.66757 13.26208,-20.15977 18.88392,-30.81408 6.01034,-11.38952 10.06549,-30.12071 10.06549,-30.12071 l -20.14618,11.35501 -4.41095,10.42475 c -4.83969,11.75974 -14.19077,25.51282 -17.8208,30.71107 -6.07415,7.65437 -12.79196,13.0665 -20.33915,19.20808 -3.88671,3.16247 -11.57984,9.04375 -11.57984,9.04375 0,0 4.43135,-11.5124 8.76186,-19.38326 3.66757,-6.66607 6.73668,-12.74804 11.23215,-18.5534 5.71749,-7.38402 12.15346,-13.21134 19.53435,-20.01179 4.02603,-3.70938 15.32653,-9.21004 15.32653,-9.21004 l 18.83995,-12.68842 21.40328,-8.33049 c 0,0 1.47901,4.26109 2.33772,7.04047 0.7647,2.47524 2.53248,8.72372 2.53248,8.72372 0,0 7.56025,-6.5526 10.59314,-10.48907 2.90639,-3.77291 5.67831,-7.84575 7.12988,-12.38149 2.29257,-7.16544 4.04856,-15.176441 2.18208,-22.464771 -1.77645,-6.93693 -6.38945,-13.94917 -12.61102,-17.4945 -5.92148,-3.37461 -10.44884,-4.31046 -13.28508,-4.89403 -6.13583,-1.26241 -17.63099,-1.22042 -17.63099,-1.22042 0,0 -3.10707,-9.87098 -5.18509,-14.57509 -3.45741,-7.82588 -8.25308,-15.46979 -13.41424,-22.29326 -2.92633,-3.8686 -10.19363,-11.63372 -9.88614,-10.19153 2.13598,10.01113 7.82852,44.12583 7.82852,44.12583 0,0 -8.87643,-3.88 -13.18,-5.28297 -7.45359,-2.42991 -15.13039,-2.68128 -22.95631,-3.14144 -5.53344,-0.32534 -11.11187,-0.33719 -16.61337,0.34039 -5.08909,0.62676 -10.54764,2.10775 -15.45727,3.58664 -4.07484,1.22743 -7.57908,2.89761 -11.45227,4.66144 -5.49839,2.50417 -11.60392,5.09911 -16.92454,7.96184 -4.79761,2.58135 -8.94228,5.58365 -13.44143,8.32997 -5.33052,3.25392 -10.6339,6.5573 -16.057,9.65398 -4.15238,2.37098 -8.50671,4.86856 -12.74228,7.08701 -4.55092,2.38353 -9.41765,5.083841 -14.00668,7.217211 -4.86622,2.26238 -14.36125,5.94864 -14.36125,5.94864 0,0 2.93067,-9.100221 4.68569,-13.394361 2.20535,-5.39592 4.8705,-10.64856 7.91477,-15.63294 5.10939,-8.36553 11.2547,-17.04436 17.62477,-24.4948 3.44986,-4.03473 6.77897,-7.23595 10.92879,-10.54703 8.1203,-6.47782 17.10757,-12.00812 26.55185,-16.33416 7.93829,-3.63606 16.25518,-6.44487 24.85814,-7.93988 6.1118,-1.06208 12.41703,-1.51424 18.58948,-0.89135 7.14502,0.72109 14.14319,2.68818 20.74806,5.50677 5.04388,2.15246 9.77635,5.12427 14.09033,8.50985 3.67211,2.8815 6.50713,6.32043 9.36955,10.00747 4.62229,5.95439 12.45207,20.6487 12.45207,20.6487 0,0 -5.51099,-42.57539 -5.81267,-43.88058 -0.30122,-1.30299 -14.04646,-10.38083 -20.8542,-13.4769799 -5.63807,-2.56399 -11.6003,-4.54106 -17.68384,-5.7034 -5.93398,-1.13361001 -12.0468,-1.39768001 -18.08432,-1.18721001 -6.0637,0.21141 -12.14464,1.00566001 -18.03627,2.45444001 -7.86509,1.93393 -15.47605,4.91238 -22.85016,8.2625199 -5.27037,2.39425 -10.31753,5.29081 -15.19053,8.4152 -5.83201,3.73876 -11.50511,7.77882 -16.74101,12.3156 -5.94392,5.14983 -11.78011,10.61299 -16.89419,16.58777 -4.81817,5.62966 -9.20483,11.87321 -13.25116,18.08121 -3.92063,6.01557 -7.22026,12.23925 -10.2908,18.73014 -3.03381,6.41298 -5.48483,13.10519 -7.63972,19.864341 -1.80277,5.65371 -4.38234,17.58915 -4.38234,17.58915 0,0 6.74398,-0.86139 10.03728,-1.62819 6.19755,-1.44297 12.15979,-3.80449 18.05821,-6.1923 6.3314,-2.56295 12.44896,-5.63541 18.54923,-8.70856 4.58648,-2.31022 9.05364,-4.85011 13.56223,-7.308731 3.48408,-1.89983 7.04095,-3.73777 10.42368,-5.75097 5.10485,-3.03821 10.06447,-6.32147 15.1911,-9.32298 4.56286,-2.67139 8.90514,-5.55488 13.60925,-7.96864 4.50358,-2.31063 9.06308,-4.5579 13.81008,-6.31415 5.45866,-2.01937 10.90059,-3.72678 16.78228,-4.82222 6.23994,-1.16223 13.18627,-2.00778 19.53231,-1.87647 8.55169,0.17692 17.20327,1.52084 25.30311,4.26972 6.02605,2.04506 16.92245,9.22833 16.92245,9.22833 0,0 8.5245,-1.67802 13.0362,-2.07935 4.28444,-0.3811 8.62173,-0.25818 12.90331,0.15325 4.00108,0.38446 8.764,0.80366 11.86433,2.15544 7.12467,3.10656 11.07576,7.90902 13.26677,13.84877 2.22948,6.04328 0.10432,12.506981 -1.64974,18.612481 -1.21977,4.24594 -5.73054,9.50652 -5.73054,9.50652 0,0 -1.67565,-10.43782 -3.84499,-9.79621 -6.32619,1.87181 -23.48391,6.68019 -34.09169,12.43221 -16.80324,9.11067 -32.83984,19.45594 -45.62659,33.6629 -5.82574,6.47312 -11.85071,14.17925 -16.2458,21.75885 -4.33157,7.4703 -7.42323,15.3924 -11.04336,23.17436 -2.37613,5.10821 -4.09417,10.55966 -5.72376,16.24004 -1.36097,4.74384 -2.78835,13.94969 -2.78835,13.94969 0,0 -4.04372,-8.1731 -5.73687,-12.68059 -1.59643,-4.25022 -3.75199,-12.86674 -3.75199,-12.86674 -2.36966,4.75723 -5.01543,10.26369 -6.36017,15.70406 0,0 -2.84227,-6.41455 -3.6867,-9.74968 -0.86438,-3.4146 -1.43988,-10.50004 -1.43988,-10.50004 0,0 -8.37127,2.61068 -12.42851,4.49274 -3.03432,1.40747 -8.84664,5.37605 -8.84664,5.37605 0,0 3.15308,-8.76242 5.24222,-12.69471 2.99469,-5.63698 6.04013,-10.73797 9.75279,-15.62928 7.34953,-9.68274 15.82016,-18.93617 25.18859,-26.68205 6.76178,-5.59096 11.35137,-10.65012 17.61844,-15.48391 6.26029,-4.82872 20.03742,-14.06682 20.03742,-14.06682 z"
     inkscape:connector-curvature="0"
     style="fill:#054e81;stroke-width:0.51010728"
     sodipodi:nodetypes="csscccsccscccscccscccccscscsscccscccccccccscccccccscscccccsssscssccccsscccsssccccccscccccccccscccssccssscssccsccccscccscccccccscccc" />
  <path
     id="path3465"
     d="m 665.02332,124.8097 c 0,0 -29.33111,11.8204 -45.54288,28.15352 -9.41398,9.48456 -19.17203,18.91316 -27.59558,29.28771 -7.46354,9.19225 -21.67783,-84.619941 -24.71276,-82.656411 0,0 2.55222,99.479901 3.60294,95.885941 1.16365,-3.98056 2.36705,-11.96609 2.36705,-11.96609 0,0 -7.73461,-91.276821 -11.09591,-89.884891 -3.07064,1.27157 -8.56995,63.689341 -8.56995,63.689341 l 3.04314,-44.14327 c 0,0 -4.55382,69.23942 -6.71887,69.65273 -2.53422,0.48381 29.4163,0.83242 29.4163,0.83242 0,0 -6.96776,-6.48514 -4.94722,-10.14342 2.72188,-4.9287 -3.10446,-15.0316 -3.10446,-15.0316 0,0 -28.76159,-45.30025 -31.72179,-44.82079 -3.1064,0.50314 -26.02945,8.68791 -26.02945,8.68791 0,0 26.40412,34.93406 27.84645,33.07971 1.24915,-1.60601 -18.58448,3.21609 -18.58448,3.21609 0,0 13.85252,-0.007 9.67184,0.51224 -3.72297,0.46285 46.31269,-5.51376 46.31269,-5.51376 0,0 7.12237,-7.69673 9.5791,-11.36442 1.94065,-2.89703 21.09446,-8.148 21.09446,-8.148 0,0 -24.52917,-2.21599 -27.31527,-3.89484 -3.8783,-2.33695 -68.67202,-7.97544 -68.67202,-7.97544 0,0 -2.19841,17.76589 -2.27946,27.7629 -0.0469,5.81007 2.56721,24.0926 4.34448,30.37485 4.73328,16.7321 11.50404,26.70034 21.147,36.52689 10.40334,10.60149 16.28661,14.50763 26.27369,18.58372 9.77371,3.98929 21.49005,5.11318 32.42568,4.9984 8.0293,-0.0843 14.79209,-1.15584 23.59792,-3.39986 4.43794,-1.13095 18.54449,-6.46527 27.54013,-11.46743 6.42292,-3.57143 13.03615,-8.35298 19.04129,-12.97813 3.57952,-2.75684 7.13823,-6.38526 10.48224,-9.80824 4.95202,-5.06962 9.93011,-10.17322 14.15833,-15.86041 7.18742,-9.66757 13.26208,-20.15977 18.88392,-30.81408 6.01034,-11.38952 2.79646,-31.0134 2.79646,-31.0134 l -12.87715,12.2477 -72.92146,-51.157511 c -4.8397,11.75974 -27.19852,42.728941 -30.82854,47.927201 -6.07415,7.65436 -11.68273,-2.05576 -19.22992,4.08583 -3.88666,3.16245 68.82918,68.53213 68.82918,68.53213 0,0 4.43135,-11.5124 8.76186,-19.38326 3.66757,-6.66607 6.73668,-12.74804 11.23215,-18.5534 5.71749,-7.38402 12.15346,-13.21134 19.53435,-20.01179 4.02603,-3.70938 15.32653,-9.21004 15.32653,-9.21004 l 18.83995,-12.68842 21.40328,-8.33049 c 0,0 1.47901,4.26109 2.33772,7.04047 0.7647,2.47524 2.53248,8.72372 2.53248,8.72372 0,0 7.56025,-6.5526 10.59314,-10.48907 2.90639,-3.77291 5.67831,-7.84575 7.12988,-12.38149 2.29257,-7.16544 4.04856,-15.176441 2.18208,-22.464771 -1.77645,-6.93693 -6.38945,-13.94917 -12.61102,-17.4945 -5.92148,-3.37461 -10.44884,-4.31046 -13.28508,-4.89403 -6.13583,-1.26241 -17.63099,-1.22042 -17.63099,-1.22042 0,0 -3.10707,-9.87098 -5.18509,-14.57509 -3.45741,-7.82588 -8.25308,-15.46979 -13.41424,-22.29326 -2.92633,-3.8686 -10.19363,-11.63372 -9.88614,-10.19153 2.13598,10.01113 7.82852,44.12583 7.82852,44.12583 0,0 -8.87643,-3.88 -13.18,-5.28297 -7.45359,-2.42991 -15.13039,-2.68128 -22.95631,-3.14144 -5.53344,-0.32534 -11.11187,-0.33719 -16.61337,0.34039 -5.08909,0.62676 -10.54764,2.10775 -15.45727,3.58664 -4.07484,1.22743 -7.57908,2.89761 -11.45227,4.66144 -5.49839,2.50417 -11.60392,5.09911 -16.92454,7.96184 -4.79761,2.58135 -8.94228,5.58365 -13.44143,8.32997 -5.33052,3.25392 -10.6339,6.5573 -16.057,9.65398 -4.15238,2.37098 -8.50671,4.86856 -12.74228,7.08701 -4.55092,2.38353 -9.41765,5.083841 -14.00668,7.217211 -4.86622,2.26238 -14.36125,5.94864 -14.36125,5.94864 0,0 15.55516,34.90522 17.31018,30.61107 2.20535,-5.39592 4.87051,1.97596 7.91478,-3.00843 5.10938,-8.36553 10.20821,46.39139 16.57833,38.94096 3.44985,-4.03473 9.71907,8.41183 13.8689,5.10076 8.12029,-6.47782 38.5513,-54.49147 47.99558,-58.81751 7.93829,-3.63606 -18.30459,-12.69369 -9.70163,-14.18869 6.1118,-1.06208 -1.10081,6.00984 5.07164,6.63273 7.14502,0.72109 38.88339,-35.187291 45.48826,-32.368691 5.04389,2.15245 9.77636,5.12426 14.09033,8.50985 3.67211,2.8815 6.50714,6.32042 9.36955,10.007471 4.62229,5.95438 -0.17242,-35.981251 -0.17242,-35.981251 0,0 -5.51099,-42.57539 -5.81267,-43.88058 -0.30122,-1.30299 -14.04646,-10.38083 -20.8542,-13.4769799 -5.63807,-2.56399 -11.6003,-4.54106 -17.68384,-5.7034 -5.93398,-1.13361001 -12.0468,-1.39768001 -18.08432,-1.18721001 -6.0637,0.21141 -12.14464,1.00566001 -18.03627,2.45444001 -7.86509,1.93393 -15.47605,4.91238 -22.85016,8.2625199 -5.27037,2.39425 -10.31753,5.29081 -15.19053,8.4152 -5.83201,3.73876 -11.50511,7.77882 -16.74101,12.3156 -5.94392,5.14983 -11.78011,10.61299 -16.89419,16.58777 -4.81817,5.62966 -9.20483,11.87321 -13.25116,18.08121 -3.92063,6.01557 -7.22026,12.23925 -10.2908,18.73014 -3.03381,6.41298 -5.48483,13.10519 -7.63972,19.864341 -1.80277,5.65371 -4.38234,17.58915 -4.38234,17.58915 0,0 78.52332,-0.86139 81.81662,-1.62819 6.19755,-1.44297 -60.51224,-1.71842 -54.61382,-4.10624 6.3314,-2.56294 13.34165,-7.72147 19.44192,-10.79462 4.58648,-2.31022 9.05364,-4.85011 13.56223,-7.308731 3.48408,-1.89983 7.04095,-3.73777 10.42368,-5.75097 5.10485,-3.03821 10.06447,-6.32147 15.1911,-9.32298 4.56286,-2.67139 8.90514,-5.55488 13.60925,-7.96864 4.50358,-2.31063 9.06308,-4.5579 13.81008,-6.31415 5.45866,-2.01937 10.90059,-3.72678 16.78228,-4.82222 6.23994,-1.16223 13.18627,-2.00778 19.53231,-1.87647 8.55169,0.17692 17.20327,1.52084 25.30311,4.26972 6.02605,2.04506 19.72804,-1.8665 19.72804,-1.8665 0,0 -82.29199,20.59852 -77.78029,20.19719 4.28444,-0.3811 8.62173,-0.25818 12.90332,0.15325 4.00107,0.38446 8.764,0.80366 11.86433,2.15544 7.12466,3.10656 -20.67843,5.61354 -18.48741,11.55328 2.22947,6.043281 9.49508,52.676001 7.74103,58.781501 -1.21977,4.24594 84.74957,-51.15366 84.74957,-51.15366 0,0 18.21854,1.16712 16.0492,1.80873 -6.32619,1.87181 -23.48391,6.68019 -34.09169,12.43221 -16.80324,9.11067 -32.83984,19.45594 -45.62659,33.6629 -5.82574,6.47312 -11.85071,14.17925 -16.2458,21.75885 -4.33157,7.4703 -7.42323,15.3924 -11.04336,23.17436 -2.37613,5.10821 -4.09417,-32.00298 -5.72376,-26.3226 -1.36097,4.74385 -2.78835,-10.21723 -2.78835,-10.21723 0,0 -4.04372,16.71522 -5.73687,12.20773 -1.59643,-4.25022 -3.75199,-13.22744 -3.75199,-13.22744 -2.36966,4.75724 -5.01543,0.16409 -6.36017,5.60446 0,0 -2.84227,-7.85736 -3.6867,-11.19248 -0.86438,-3.41461 -1.43988,11.86337 -1.43988,11.86337 0,0 -8.37127,-8.21033 -12.42851,-6.32826 -3.03432,1.40746 -8.84664,13.31145 -8.84664,13.31145 0,0 3.15308,25.50411 5.24222,21.57182 2.99469,-5.63698 6.04013,-10.73797 9.75279,-15.62928 7.34953,-9.68274 15.82016,-18.93617 25.18859,-26.68205 6.76178,-5.59096 11.35137,-10.65012 17.61844,-15.48391 6.26029,-4.82872 20.03742,-14.06682 20.03742,-14.06682 z"
     inkscape:connector-curvature="0"
     style="fill:#ffffff;fill-opacity:1;stroke-width:0.51010728"
     sodipodi:nodetypes="csscccsccscccscccscccccscscsscccscccccccccscccccccscscccccsssscssccccsscccsssccccccscccccccccscccssccssscssccsccccscccscccccccscccc" />
  <path
     id="path6455"
     d="m 648.18453,210.68488 c 0,0 19.98304,-12.245 34.47606,-31.14405 13.81008,-18.00852 16.59404,-42.74235 16.59404,-42.74235 0,0 -22.64891,11.74587 -36.13584,28.17992 -13.0738,15.93047 -18.54179,41.82895 -18.54179,41.82895 z"
     inkscape:connector-curvature="0"
     style="fill:#feca22;stroke-width:0.51010728"
     sodipodi:nodetypes="cscscc" />
  <path
     id="path6473"
     d="m 666.27834,124.77833 c -0.74506,-1.53788 4.35626,-4.2782 4.35626,-4.2782 0,0 12.46147,-6.75548 19.89516,-11.59711 2.82762,-1.84169 8.17416,-6.29689 8.17416,-6.29689 0,0 3.8332,-3.826981 2.08343,-10.007991 -0.68737,-2.42793 -1.07107,-4.90214 -0.64335,-7.29461 0.65381,-3.65682 5.11816,-9.67071 5.11816,-9.67071 0,0 9.68378,-1.58317 14.46058,-1.86387 5.03317,-0.29572 10.43205,-0.7373 15.41646,0.0218 3.301,0.50276 6.32982,1.5668 9.3193,3.05412 2.76167,1.3739 5.37969,3.20947 7.43369,5.51096 2.10266,2.35655 3.94385,5.14685 4.74206,8.20238 0.82066,3.14169 0.80322,6.66292 0.22358,9.857911 -0.58887,3.24597 -1.87077,7.64652 -3.41772,11.62797 -1.88117,4.84163 -4.88019,8.2484 -4.88019,8.2484 0,0 -0.72109,-4.85021 -1.3196,-7.08283 -0.5123,-1.91114 -1.88449,-4.8362 -1.88449,-4.8362 0,0 -9.50916,2.49795 -16.68347,5.16338 -5.44876,2.0244 -17.152,7.01223 -17.152,7.01223 0,0 -7.17746,-2.50176 -11.15053,-2.56331 -8.36239,-0.12954 -24.47959,5.63908 -24.47959,5.63908 l -4.48578,1.28165 c 0,0 -4.38126,1.41019 -5.12658,-0.12816 z"
     inkscape:connector-curvature="0"
     style="fill:#ffd01f;stroke-width:0.51010728" />
  <path
     id="path3835"
     d="m 666.38291,124.81493 c -0.22241,-1.24311 15.2167,-6.20538 22.88464,-8.8283 6.45693,-2.20909 13.00794,-4.16708 19.63219,-5.80849 10.69562,-2.64991 35.982,-6.86687 26.25323,-7.66692 -11.41513,-0.93878 -18.613,-28.466221 -18.613,-28.466221 0,0 15.90382,-1.84567 23.84058,1.05152 12.62408,4.60825 15.68575,10.72856 16.6118,18.47026 1.52563,12.759021 -8.36393,26.834211 -8.36393,26.834211 0,0 -0.33238,-4.03535 -0.96328,-6.11126 -0.56949,-1.87385 -2.28936,-5.97007 -2.28936,-5.97007 0,0 -9.75958,2.25124 -13.30386,3.55109 -7.64656,2.80463 -20.3998,8.59612 -20.3998,8.59612 0,0 -7.71348,-2.32788 -11.70956,-2.3567 -10.64543,-0.0768 -30.21014,7.6345 -30.21014,7.6345 0,0 -3.17679,0.14405 -3.36879,-0.92932 z"
     style="fill:url(#linearGradient3102);stroke-width:0.51010728"
     inkscape:connector-curvature="0" />
  <path
     id="path3065"
     d="m 706.07181,95.542389 c 0,0 0.35187,-3.55831 1.34515,-5.16422 0.82209,-1.32913 1.64928,-1.41646 3.06911,-2.38651 1.53731,-1.05032 1.97478,-7.08597 1.97478,-7.08597 0,0 -1.84389,3.25607 -2.86135,4.30832 -0.97532,1.00864 -2.12816,1.34299 -2.8999,2.51478 -1.6829,2.70042 -1.29741,4.72853 -0.62779,7.81386 z"
     inkscape:connector-curvature="0"
     style="fill:#054e81;stroke-width:0.51010728" />
  <path
     d="m 672.97156,54.886069 c -12.08286,-1.32683 -24.77969,-1.2188 -36.47563,2.09096 -14.21587,4.02286 -27.07736,10.91001 -37.17269,16.844 -10.28774,6.04747 -19.83297,12.52686 -30.20279,18.35417 -6.28018,3.52919 -12.68162,6.8538 -19.16728,9.990211 -5.49008,2.65504 -16.89108,6.96989 -16.89108,6.96989 0,0 5.65214,-18.848321 11.0831,-27.647341 5.78493,-9.37318 12.07598,-20.57153 19.51492,-28.69443 6.21219,-6.7832 13.65277,-10.85698 21.25903,-16.02909 5.78655,-3.9347 12.14565,-7.02217 18.58637,-9.75804 5.89424,-2.50354 11.96732,-4.73872 18.23807,-6.04067 6.357,-1.31982 12.91382,-2.0429 19.39948,-1.74249 5.9784,0.27696 12.02068,1.24092 17.65711,3.25261 7.78561,2.77875 15.41646,6.62005 21.72276,11.96525 5.53135,4.68825 9.46259,9.83752 13.5915,15.7987 2.4729,3.57023 6.8538,12.66176 6.8538,12.66176 0,0 -18.34003,-6.95524 -27.9956,-8.01518 z"
     id="path3827"
     style="fill:url(#linearGradient3835);fill-opacity:1;stroke-width:0.51010728"
     inkscape:connector-curvature="0"
     sodipodi:nodetypes="cscscccsscsssssccc" />
  <path
     id="path3865"
     d="m 587.16193,209.50034 c 0,0 3.72403,-10.82739 8.24787,-18.47026 4.29944,-7.26428 10.4875,-15.12415 16.14694,-21.72276 4.17135,-4.86338 8.75563,-9.14205 13.4754,-13.47489 4.47047,-4.10448 9.21896,-8.3833 13.9398,-12.19741 4.27694,-3.45571 8.69075,-6.97302 13.12659,-10.22239 4.01261,-2.93938 7.97808,-5.20196 12.06307,-8.02615 0.3179,-0.21987 0.87876,-0.65067 1.27144,-0.71728 0.33254,-0.0564 0.50378,-0.12235 0.79857,0.0202 0.12207,0.059 0.0678,0.0956 0.53082,0.41434 0.11044,0.076 0.24011,0.12507 0.48287,0.1898 0.62661,0.16707 0.38202,0.10972 0.60223,0.13014 0.30948,0.0287 0.40997,0.0751 0.67314,0.0462 1.51303,-0.16622 2.92638,-0.68967 4.29735,-1.14361 3.65787,-1.21127 7.10349,-2.52267 11.34223,-3.57528 3.83019,-0.95107 7.26429,-1.7299 11.26766,-2.43949 3.27412,-0.58027 4.8197,-0.5297 7.20205,-0.23233 1.91081,0.23851 3.75832,0.93319 5.63439,1.44418 1.09877,0.29927 3.39808,0.9597 3.39808,0.9597 0,0 -13.26835,7.19682 -19.48732,11.41985 -5.34414,3.62863 -10.22867,7.89124 -15.33383,11.84863 -4.53597,3.51653 -9.26859,6.79575 -13.5915,10.57117 -3.87727,3.38626 -7.56025,7.00596 -11.03551,10.80333 -2.80523,3.06479 -5.44141,6.29219 -7.89911,9.64144 -2.30007,3.13448 -4.19823,5.98576 -6.04064,9.40925 -1.7588,3.26846 -3.43899,7.10374 -4.76277,10.57117 -1.65958,4.34706 -3.47475,8.68555 -4.41431,13.24271 -0.73767,3.57776 -0.99507,7.26689 -0.92932,10.91943 0.0751,4.17304 1.51018,12.42959 1.51018,12.42959 0,0 -4.43942,-8.84504 -6.15679,-13.47489 -1.59812,-4.30868 -3.83346,-13.24272 -3.83346,-13.24272 0,0 5.73789,-15.20206 9.87415,-22.07154 3.42985,-5.69607 8.66672,-10.28252 12.54568,-15.6821 2.72912,-3.79894 8.36392,-11.2682 8.36392,-11.2682 0,0 -10.60197,9.22833 -15.33383,14.40462 -3.9824,4.35653 -7.99685,8.81158 -10.9194,13.93976 -3.44175,6.03962 -6.80621,12.24187 -8.54751,18.95133 -1.44284,5.55959 -2.08803,16.94075 -2.08803,16.94075 0,0 -3.10216,-7.25435 -4.00107,-11.0329 -0.73032,-3.07006 -1.47375,-9.274 -1.47375,-9.274 0,0 7.65339,-12.32849 11.6965,-18.14064 4.13075,-5.93818 8.49155,-11.73779 13.24274,-17.19227 4.17227,-4.79017 9.08925,-10.27519 13.70755,-14.63679 3.6309,-3.42888 4.87892,-4.41426 4.87892,-4.41426 0,0 -3.49295,2.58538 -8.48002,6.38893 -4.97916,3.79768 -9.98499,8.35349 -14.63681,12.54567 -4.04893,3.64866 -7.65646,7.75268 -11.50037,11.61646 -3.18771,3.20424 -5.6422,6.67339 -8.71222,9.99022 -2.38343,2.5747 -5.31695,4.72904 -7.55082,7.43474 -2.92393,3.54131 -6.79993,6.5594 -9.40928,10.33847 -1.43422,2.07731 -4.17049,6.03492 -4.17049,6.03492 z"
     inkscape:connector-curvature="0"
     style="fill:#b8e2fa;stroke-width:0.51010728"
     sodipodi:nodetypes="cccccscsscccccccsscccscsccscccccscscscscscccccsccccc" />
  <path
     id="path3867"
     d="m 587.10964,209.50034 c 0,0 7.41915,-4.70392 11.204,-6.39334 3.24254,-1.44752 10.0612,-3.48152 10.0612,-3.48152 0,0 6.78897,-11.18767 10.39966,-16.61026 3.16328,-4.75127 6.66552,-9.41867 10.22341,-13.88223 2.17291,-2.72599 4.3376,-5.1369 6.71383,-7.68714 2.20234,-2.36397 4.25251,-4.88673 6.58329,-7.12431 1.93729,-1.85984 2.31635,-2.10252 4.28404,-3.9302 3.09829,-2.81781 8.61025,-7.68627 8.61025,-7.68627 0,0 -5.6171,2.97249 -10.22132,6.4454 -5.46601,4.12299 -12.93525,10.32906 -18.00643,14.92858 -3.7521,3.403 -7.24863,7.07864 -10.80336,10.68725 -2.82523,2.86791 -5.6349,5.75254 -8.36398,8.71222 -3.36553,3.65023 -6.70791,7.32755 -9.87409,11.1516 -1.65474,1.99851 -3.23837,4.05715 -4.76272,6.15675 -1.98131,2.72896 -6.04798,8.71326 -6.04798,8.71326 z"
     inkscape:connector-curvature="0"
     style="fill:#77beec;stroke-width:0.51010728"
     sodipodi:nodetypes="ccccscsccscccsscc" />
  <path
     id="path3869"
     d="m 613.5689,219.82783 c 0,0 3.98348,-10.03257 6.1343,-14.8993 1.83389,-4.14987 3.48286,-8.29493 5.66622,-12.27219 3.41904,-6.22892 7.08335,-12.33286 11.03551,-18.23809 1.63275,-2.43917 3.56463,-4.67435 5.31644,-7.02948 2.1955,-2.95158 3.19102,-4.33494 4.78705,-6.49717 1.23262,-1.66987 3.88717,-5.20542 3.88717,-5.20542 0,0 -8.17049,5.68613 -11.66718,9.20637 -2.74453,2.76263 -5.47697,6.0119 -7.89911,9.06099 -2.09159,2.63286 -3.77168,5.52612 -5.57578,8.36396 -2.01007,3.16131 -3.91675,6.63156 -5.57583,9.99021 -1.41422,2.86283 -2.86083,5.98472 -3.71725,9.061 -1.65826,5.95596 -2.39097,18.45928 -2.39097,18.45928 z"
     inkscape:connector-curvature="0"
     style="fill:#77beec;stroke-width:0.51010728" />
  <path
     id="path3871"
     d="m 629.62229,231.31618 c 0,0 -0.81939,-4.2154 -1.26844,-9.13473 -0.35748,-3.91655 -0.42645,-8.28552 -0.049,-11.28546 0.76292,-6.06472 3.01152,-11.9072 5.34363,-17.55726 2.24049,-5.42781 5.29604,-10.62972 8.4764,-15.566 1.51007,-2.3439 3.1012,-4.56104 4.89387,-6.6964 3.43639,-4.09371 6.98923,-8.45808 10.62033,-12.38044 1.80512,-1.94988 3.93221,-3.41889 5.91725,-5.18518 2.08868,-1.85843 4.38554,-3.41968 6.65822,-5.04808 1.99064,-1.42645 6.42761,-4.58953 6.42761,-4.58953 0,0 -6.18918,5.7311 -8.90413,8.59195 -2.59037,2.72969 -4.92753,5.69031 -7.31866,8.59613 -2.45122,2.97944 -5.01696,5.88118 -7.20205,9.061 -2.41857,3.51913 -4.76578,7.24597 -6.73403,11.0355 -2.50815,4.82893 -4.64198,9.84746 -6.7377,14.86897 -1.62842,3.90233 -3.18674,7.83948 -4.53047,11.84864 -1.54996,4.62457 -2.91449,9.31618 -4.06576,14.05584 -0.7547,3.10672 -1.52777,9.38468 -1.52777,9.38468 z"
     inkscape:connector-curvature="0"
     style="fill:#77beec;stroke-width:0.51010728" />
  <path
     id="path3873"
     d="m 553.27729,190.56574 c 0,0 1.61535,-5.61554 2.78794,-8.82831 2.07572,-5.68717 4.80572,-12.14407 8.1433,-17.20585 2.83599,-4.30152 6.1144,-8.6615 9.5086,-12.53784 3.49995,-3.99718 7.338,-7.92 11.15263,-11.61751 2.65771,-2.57606 5.70499,-4.55204 8.49002,-6.98974 1.52956,-1.33892 5.64638,-3.96095 5.64638,-3.96095 0,0 -5.91674,6.78686 -8.47793,10.32487 -3.43496,4.74443 -6.98613,9.78994 -9.62838,15.01748 -1.62184,3.20869 -3.33712,6.45534 -4.38932,9.89295 -0.66008,2.15675 -1.52007,6.30787 -2.11598,9.44168 -0.60427,3.17809 -1.2542,9.42287 -1.2542,9.42287 0,0 -4.90157,-0.1487 -7.20082,0.18668 -1.98947,0.29018 -3.8329,1.13994 -5.6323,2.03668 -2.57161,1.2815 -7.02948,4.81706 -7.02948,4.81706 z"
     inkscape:connector-curvature="0"
     style="fill:#b8dff9;stroke-width:0.51010728"
     sodipodi:nodetypes="cscsscccscccsccc" />
  <path
     id="path3805"
     d="m 661.729,82.066969 c 0.75083,1.66825 -2.15214,3.35862 -2.99969,5.88737 -0.32315,0.96414 -0.49511,1.9834 0.0153,2.86293 0.50883,0.87698 1.43161,1.30976 2.4053,1.59232 1.1932,0.34628 1.67545,0.31719 2.5411,0.6783 1.56068,0.65108 2.46749,1.585 3.65283,1.88808 1.02302,0.26158 1.66744,0.24591 2.71658,0.12635 1.48824,-0.16961 2.54502,-0.84725 3.86212,-1.56066 1.28991,-0.69871 2.36986,-1.65041 3.2829,-2.79867 0.85994,-1.08148 1.02465,-2.64901 1.99309,-3.63459 0.44165,-0.4495 0.95518,-0.52494 1.27149,-1.06997 0.29423,-0.50703 0.10702,-1.19309 0.52883,-1.60018 0.78802,-0.76031 2.26891,-0.24904 3.36237,-0.30653 1.83272,-0.0964 2.87548,-1.10497 4.25471,-2.18211 0.80617,-0.62959 2.58711,-2.17469 2.58711,-2.17469 0,0 -8.0272,-1.53003 -11.88734,-1.92885 -5.29185,-0.54681 -10.62762,-0.88054 -15.94508,-0.70348 -4.2444,0.14132 -8.50252,0.55157 -12.6623,1.40694 -3.16062,0.64993 -6.14209,1.66265 -9.15617,2.81389 -3.38124,1.29128 -9.95464,4.57254 -9.95464,4.57254 0,0 6.70266,-2.68054 10.20041,-3.51735 2.49412,-0.5967 5.04808,-1.09388 7.59423,-1.39952 2.30119,-0.27623 4.60458,-0.37696 6.91761,-0.22671 2.04324,0.13273 5.07832,0.51594 5.41994,1.27449 z"
     inkscape:connector-curvature="0"
     style="fill:#054e81;stroke-width:0.51010728"
     sodipodi:nodetypes="ccccssscccccssccssccssscc" />
  <path
     id="path3807"
     d="m 663.92521,82.187239 7.93401,1.92892 2.09991,0.2602 3.72536,-0.13557 c 0,0 -0.79556,5.09278 -2.26936,6.85693 -1.27777,1.52967 -3.2828,2.81901 -5.27615,2.81388 -2.22075,-0.006 -4.37712,-1.51445 -5.86235,-3.16559 -1.10173,-1.22492 -1.62163,-2.57345 -1.64148,-4.22084 -0.0173,-1.42247 1.28971,-4.33806 1.28971,-4.33806 z"
     inkscape:connector-curvature="0"
     style="fill:#ffffff;stroke-width:0.51010728"
     sodipodi:nodetypes="cccccccccc" />
  <path
     id="path3261"
     d="m 520.96138,153.86263 c 0,0 10.80024,-8.75039 16.55119,-12.78988 8.06536,-5.66469 16.536,-10.71653 25.2069,-15.40234 7.02479,-3.79617 13.02365,-7.83686 20.09446,-12.49024 4.57112,-3.00841 7.9519,-5.95596 11.64886,-9.18964 4.27219,-3.73667 12.06985,-11.972561 12.06985,-11.972561 0,0 -11.96947,6.99236 -18.12044,10.160681 -5.44091,2.80223 -11.00939,5.26937 -16.56737,7.83059 -4.83857,2.22969 -9.52798,3.94264 -14.49668,6.73038 -4.9685,2.7879 -10.40436,6.1531 -15.27318,9.77216 -3.099,2.30358 -8.84765,7.62613 -8.84765,7.62613 0,0 -5.45657,5.93818 -7.46088,9.13525 -2.15281,3.43406 -4.80521,10.58947 -4.80521,10.58947 z"
     inkscape:connector-curvature="0"
     style="fill:#b8dff9;stroke-width:0.51010728" />
  <path
     id="path4031"
     d="m 536.54414,161.41869 c 0,0 7.03055,-1.83599 10.45821,-2.28773 2.81115,-0.37047 8.46462,-0.32678 8.46462,-0.32678 l 7.87636,-13.46761 10.77194,-11.30534 8.78491,-7.71293 10.5628,-7.71293 6.27493,-4.18329 c 0,0 -7.95191,2.93703 -11.76547,4.77156 -4.41299,2.12276 -8.76712,4.79117 -12.81135,7.19003 -3.04712,1.80733 -5.93556,3.86127 -8.88948,5.81738 -3.28596,2.17604 -6.23622,4.42691 -9.28166,6.92857 -3.16746,2.60195 -6.04748,5.54338 -8.88949,8.4973 -1.04873,1.09006 -3.00672,3.39892 -3.00672,3.39892 0,0 -3.92492,4.22888 -5.68668,6.47102 -0.95043,1.20959 -2.81064,3.92183 -2.81064,3.92183 z"
     inkscape:connector-curvature="0"
     style="fill:#b8dff9;stroke-width:0.51010728"
     sodipodi:nodetypes="ccccccccccssscscc" />
  <path
     id="path4041"
     d="m 776.97855,53.761809 105.62797,-0.26145 -4.96763,21.96225 H 839.72782 L 818.28847,176.12294 H 788.74402 L 810.18337,74.939699 h -37.64959 z"
     inkscape:connector-curvature="0"
     style="fill:#054e81;stroke-width:0.51010728" />
  <path
     id="path4043"
     d="m 890.18875,54.023269 29.02153,-0.13073 8.36658,88.241201 40.52557,-88.371931 H 1000 L 936.72777,175.33858 h -30.45952 z"
     inkscape:connector-curvature="0"
     style="fill:#054e81;stroke-width:0.51010728" />
  <path
     sodipodi:type="arc"
     style="fill:#054e81;fill-opacity:1;stroke:none;stroke-width:0.51010728"
     id="path3047"
     sodipodi:cx="672.68414"
     sodipodi:cy="85.628693"
     sodipodi:rx="2.2622983"
     sodipodi:ry="2.2854223"
     d="m 674.94644,85.628693 a 2.2622983,2.2854223 0 0 1 -2.26229,2.285422 2.2622983,2.2854223 0 0 1 -2.26231,-2.285405 2.2622983,2.2854223 0 0 1 2.26228,-2.28544 2.2622983,2.2854223 0 0 1 2.26232,2.285387"
     sodipodi:start="0"
     sodipodi:end="6.2831699"
     sodipodi:open="true" />
  <path
     sodipodi:nodetypes="csscccsccscccscccscccccscscsscccscccssscssscccccccscscccccsssscssccccsscccsssccccccscccccccccscccssccssscssccsccccscccscccccccscccc"
     style="fill:#054e81;stroke-width:0.51010728"
     inkscape:connector-curvature="0"
     d="m 665.02332,124.8097 c 0,0 -29.33111,11.8204 -45.54288,28.15352 -9.41398,9.48456 -19.17203,18.91316 -27.59558,29.28771 -7.46354,9.19225 -21.67783,20.34385 -24.71276,22.30738 0,0 2.55222,-5.48389 3.60294,-9.07785 1.16365,-3.98056 2.36705,-11.96609 2.36705,-11.96609 0,0 -7.73461,-0.38034 -11.09591,1.01159 -3.07064,1.27157 -8.56995,5.61659 -8.56995,5.61659 l 3.04314,-9.87674 c 0,0 -4.55382,2.14916 -6.71887,2.56247 -2.53422,0.48381 -7.37513,0.83242 -7.37513,0.83242 0,0 5.29603,-6.48514 7.31657,-10.14342 2.72188,-4.9287 5.91306,-15.0316 5.91306,-15.0316 0,0 -5.66362,0.0617 -8.62382,0.54122 -3.1064,0.50314 -10.21613,2.27842 -10.21613,2.27842 0,0 3.00295,-4.01846 4.44528,-5.87281 1.24915,-1.60601 3.77893,-4.35862 3.77893,-4.35862 0,0 -8.51089,-0.007 -12.69157,0.51224 -3.72297,0.46286 -11.03867,2.06095 -11.03867,2.06095 0,0 3.15465,-7.69673 5.61138,-11.36442 1.94065,-2.89703 6.30579,-8.148 6.30579,-8.148 0,0 -8.65835,-2.21599 -11.44446,-3.89484 -3.87829,-2.33695 -8.43508,-7.97544 -8.43508,-7.97544 0,0 -2.19841,17.76589 -2.27946,27.7629 -0.0469,5.81007 2.56721,24.0926 4.34448,30.37485 4.73328,16.7321 11.50404,26.70034 21.147,36.52689 10.40334,10.60149 16.28661,14.50763 26.27369,18.58372 9.77371,3.98929 21.49005,5.11318 32.42568,4.9984 8.0293,-0.0843 14.79209,-1.15584 23.59792,-3.39986 4.43794,-1.13095 18.54449,-6.46527 27.54013,-11.46743 6.42292,-3.57143 13.03615,-8.35298 19.04129,-12.97813 3.57952,-2.75684 7.13823,-6.38526 10.48224,-9.80824 4.95202,-5.06962 9.93011,-10.17322 14.15833,-15.86041 7.18742,-9.66757 13.26208,-20.15977 18.88392,-30.81408 6.01034,-11.38952 10.06549,-30.12071 10.06549,-30.12071 l -20.14618,11.35501 c 0,0 -1.51869,4.63131 -4.41095,10.42475 -5.2866,10.5894 -10.73505,21.2308 -17.8208,30.71107 -5.58261,7.46916 -13.54656,14.41159 -20.76289,20.31735 -3.86055,3.15939 -11.1561,7.93448 -11.1561,7.93448 0,0 4.82837,-13.10866 8.13065,-19.38326 3.36696,-6.39757 7.43741,-12.83707 11.86336,-18.5534 5.70688,-7.3707 12.2236,-14.22833 19.53435,-20.01179 8.86582,-7.01364 15.32653,-9.21004 15.32653,-9.21004 l 18.83995,-12.68842 21.40328,-8.33049 c 0,0 1.47901,4.26109 2.33772,7.04047 0.7647,2.47524 2.53248,8.72372 2.53248,8.72372 0,0 7.56025,-6.5526 10.59314,-10.48907 2.90639,-3.77291 5.67831,-7.84575 7.12988,-12.38149 2.29257,-7.16544 4.04856,-15.176441 2.18208,-22.464771 -1.77645,-6.93693 -6.38945,-13.94917 -12.61102,-17.4945 -5.92148,-3.37461 -10.44884,-4.31046 -13.28508,-4.89403 -6.13583,-1.26241 -17.63099,-1.22042 -17.63099,-1.22042 0,0 -3.10707,-9.87098 -5.18509,-14.57509 -3.45741,-7.82588 -8.25308,-15.46979 -13.41424,-22.29326 -2.92633,-3.8686 -10.19363,-11.63372 -9.88614,-10.19153 2.13598,10.01113 7.82852,44.12583 7.82852,44.12583 0,0 -8.87643,-3.88 -13.18,-5.28297 -7.45359,-2.42991 -15.13039,-2.68128 -22.95631,-3.14144 -5.53344,-0.32534 -11.11187,-0.33719 -16.61337,0.34039 -5.08909,0.62676 -10.54764,2.10775 -15.45727,3.58664 -4.07484,1.22743 -7.57908,2.89761 -11.45227,4.66144 -5.49839,2.50417 -11.60392,5.09911 -16.92454,7.96184 -4.79761,2.58135 -8.94228,5.58365 -13.44143,8.32997 -5.33052,3.25392 -10.6339,6.5573 -16.057,9.65398 -4.15238,2.37098 -8.50671,4.86856 -12.74228,7.08701 -4.55092,2.38353 -9.41765,5.083841 -14.00668,7.217211 -4.86622,2.26238 -14.36125,5.94864 -14.36125,5.94864 0,0 2.93067,-9.100221 4.68569,-13.394361 2.20535,-5.39592 4.8705,-10.64856 7.91477,-15.63294 5.10939,-8.36553 10.20822,-15.64907 16.57834,-23.0995 3.44985,-4.03473 7.8254,-8.63125 11.97522,-11.94233 8.1203,-6.47782 17.10757,-12.00812 26.55185,-16.33416 7.93829,-3.63606 16.25518,-6.44487 24.85814,-7.93988 6.1118,-1.06208 12.41703,-1.51424 18.58948,-0.89135 7.14502,0.72109 14.14319,2.68818 20.74806,5.50677 5.04388,2.15246 9.77635,5.12427 14.09033,8.50985 3.67211,2.8815 6.50713,6.32043 9.36955,10.00747 4.62229,5.95439 12.45207,20.6487 12.45207,20.6487 0,0 -5.64627,-42.66557 -5.94795,-43.97076 -0.30122,-1.30299 -13.91118,-10.29065 -20.71892,-13.3867999 -5.63807,-2.56399 -11.6003,-4.54106 -17.68384,-5.7034 -5.93398,-1.13361001 -12.0468,-1.39768001 -18.08432,-1.18721001 -6.0637,0.21141 -12.14464,1.00566001 -18.03627,2.45444001 -7.86509,1.93393 -15.47605,4.91238 -22.85016,8.2625199 -5.27037,2.39425 -10.31753,5.29081 -15.19053,8.4152 -5.83201,3.73876 -11.50511,7.77882 -16.74101,12.3156 -5.94392,5.14983 -11.78011,10.61299 -16.89419,16.58777 -4.81817,5.62966 -9.20483,11.87321 -13.25116,18.08121 -3.92063,6.01557 -7.22026,12.23925 -10.2908,18.73014 -3.03381,6.41298 -5.48483,13.10519 -7.63972,19.864341 -1.80277,5.65371 -4.38234,17.58915 -4.38234,17.58915 0,0 6.74398,-0.86139 10.03728,-1.62819 6.19755,-1.44297 12.15979,-3.80449 18.05821,-6.1923 6.3314,-2.56295 12.44896,-5.63541 18.54923,-8.70856 4.58648,-2.31022 9.05364,-4.85011 13.56223,-7.308731 3.48408,-1.89983 7.04095,-3.73777 10.42368,-5.75097 5.10485,-3.03821 10.06447,-6.32147 15.1911,-9.32298 4.56286,-2.67139 8.90514,-5.55488 13.60925,-7.96864 4.50358,-2.31063 9.06308,-4.5579 13.81008,-6.31415 5.45866,-2.01937 10.90059,-3.72678 16.78228,-4.82222 6.23994,-1.16223 13.18627,-2.00778 19.53231,-1.87647 8.55169,0.17692 17.20327,1.52084 25.30311,4.26972 6.02605,2.04506 16.92245,9.22833 16.92245,9.22833 0,0 8.5245,-1.67802 13.0362,-2.07935 4.28444,-0.3811 8.62173,-0.25818 12.90331,0.15325 4.00108,0.38446 8.764,0.80366 11.86433,2.15544 7.12467,3.10656 11.07576,7.90902 13.26677,13.84877 2.22948,6.04328 0.10432,12.506981 -1.64974,18.612481 -1.21977,4.24594 -5.73054,9.50652 -5.73054,9.50652 0,0 -1.67565,-10.43782 -3.84499,-9.79621 -6.32619,1.87181 -23.48391,6.68019 -34.09169,12.43221 -16.80324,9.11067 -32.83984,19.45594 -45.62659,33.6629 -5.82574,6.47312 -11.85071,14.17925 -16.2458,21.75885 -4.33157,7.4703 -7.42323,15.3924 -11.04336,23.17436 -2.37613,5.10821 -4.09417,10.55966 -5.72376,16.24004 -1.36097,4.74384 -2.78835,13.94969 -2.78835,13.94969 0,0 -4.04372,-8.1731 -5.73687,-12.68059 -1.59643,-4.25022 -3.75199,-12.86674 -3.75199,-12.86674 -2.36966,4.75723 -5.01543,10.26369 -6.36017,15.70406 0,0 -2.84227,-6.41455 -3.6867,-9.74968 -0.86438,-3.4146 -1.46243,-10.52259 -1.46243,-10.52259 0,0 -8.34872,2.63323 -12.40596,4.51529 -3.03432,1.40747 -8.84664,5.37605 -8.84664,5.37605 0,0 3.15308,-8.76242 5.24222,-12.69471 2.99469,-5.63698 6.04013,-10.73797 9.75279,-15.62928 7.34953,-9.68274 15.82016,-18.93617 25.18859,-26.68205 6.76178,-5.59096 11.35137,-10.65012 17.61844,-15.48391 6.26029,-4.82872 20.03742,-14.06682 20.03742,-14.06682 z"
     id="path3837" />
  <path
     d="m 706.07181,95.542389 c 0,0 0.35187,-3.55831 1.34515,-5.16422 0.82209,-1.32913 1.64928,-1.41646 3.06911,-2.38651 1.53731,-1.05032 1.97478,-7.08597 1.97478,-7.08597 0,0 -1.84389,3.25607 -2.86135,4.30832 -0.97532,1.00864 -2.12816,1.34299 -2.8999,2.51478 -1.6829,2.70042 -1.29741,4.72853 -0.62779,7.81386 z"
     id="path7724"
     inkscape:connector-curvature="0"
     style="fill:#054e81;stroke-width:0.51010728" />
  <path
     sodipodi:nodetypes="ccccssscccccssccssccssscc"
     style="fill:#054e81;stroke-width:0.51010728"
     inkscape:connector-curvature="0"
     d="m 661.729,82.066969 c 0.75083,1.66825 -2.15214,3.35862 -2.99969,5.88737 -0.32315,0.96414 -0.49511,1.9834 0.0153,2.86293 0.50883,0.87698 1.43161,1.30976 2.4053,1.59232 1.1932,0.34628 1.67545,0.31719 2.5411,0.6783 1.56068,0.65108 2.46749,1.585 3.65283,1.88808 1.02302,0.26158 1.66744,0.24591 2.71658,0.12635 1.48824,-0.16961 2.54502,-0.84725 3.86212,-1.56066 1.28991,-0.69871 2.36986,-1.65041 3.2829,-2.79867 0.85994,-1.08148 1.02465,-2.64901 1.99309,-3.63459 0.44165,-0.4495 0.95518,-0.52494 1.27149,-1.06997 0.29423,-0.50703 0.10702,-1.19309 0.52883,-1.60018 0.78802,-0.76031 2.26891,-0.24904 3.36237,-0.30653 1.83272,-0.0964 2.87548,-1.10497 4.25471,-2.18211 0.80617,-0.62959 2.58711,-2.17469 2.58711,-2.17469 0,0 -8.0272,-1.53003 -11.88734,-1.92885 -5.29185,-0.54681 -10.62762,-0.88054 -15.94508,-0.70348 -4.2444,0.14132 -8.50252,0.55157 -12.6623,1.40694 -3.16062,0.64993 -6.14209,1.66265 -9.15617,2.81389 -3.38124,1.29128 -9.95464,4.57254 -9.95464,4.57254 0,0 6.70266,-2.68054 10.20041,-3.51735 2.49412,-0.5967 5.04808,-1.09388 7.59423,-1.39952 2.30119,-0.27623 4.60458,-0.37696 6.91761,-0.22671 2.04324,0.13273 5.07832,0.51594 5.41994,1.27449 z"
     id="path7730" />
  <path
     sodipodi:nodetypes="cccccccccc"
     style="fill:#ffffff;stroke-width:0.51010728"
     inkscape:connector-curvature="0"
     d="m 663.92521,82.187239 7.93401,1.92892 2.09991,0.2602 3.72536,-0.13557 c 0,0 -0.79556,5.09278 -2.26936,6.85693 -1.27777,1.52967 -3.2828,2.81901 -5.27615,2.81388 -2.22075,-0.006 -4.37712,-1.51445 -5.86235,-3.16559 -1.10173,-1.22492 -1.62163,-2.57345 -1.64148,-4.22084 -0.0173,-1.42247 1.28971,-4.33806 1.28971,-4.33806 z"
     id="path7732" />
  <path
     sodipodi:open="true"
     sodipodi:end="6.2831699"
     sodipodi:start="0"
     d="m 674.94644,85.628693 a 2.2622983,2.2854223 0 0 1 -2.26229,2.285422 2.2622983,2.2854223 0 0 1 -2.26231,-2.285405 2.2622983,2.2854223 0 0 1 2.26228,-2.28544 2.2622983,2.2854223 0 0 1 2.26232,2.285387"
     sodipodi:ry="2.2854223"
     sodipodi:rx="2.2622983"
     sodipodi:cy="85.628693"
     sodipodi:cx="672.68414"
     id="path7734"
     style="fill:#054e81;fill-opacity:1;stroke:none;stroke-width:0.51010728"
     sodipodi:type="arc" />
</svg>
