<?xml version="1.0" encoding="UTF-8" standalone="no"?>
<!-- Created with Inkscape (http://www.inkscape.org/) -->

<svg
   xmlns:dc="http://purl.org/dc/elements/1.1/"
   xmlns:cc="http://creativecommons.org/ns#"
   xmlns:rdf="http://www.w3.org/1999/02/22-rdf-syntax-ns#"
   xmlns:svg="http://www.w3.org/2000/svg"
   xmlns="http://www.w3.org/2000/svg"
   xmlns:sodipodi="http://sodipodi.sourceforge.net/DTD/sodipodi-0.dtd"
   xmlns:inkscape="http://www.inkscape.org/namespaces/inkscape"
   width="1000"
   height="184.44299"
   viewBox="0 0 937.5 172.91531"
   id="svg7414"
   version="1.1"
   inkscape:version="0.92.2 (5c3e80d, 2017-08-06)"
   sodipodi:docname="MNCTV_logo_2015.svg">
  <defs
     id="defs7416">
    <clipPath
       clipPathUnits="userSpaceOnUse"
       id="clipPath2890">
      <path
         d="M 0,0 H 595.276 V 841.89 H 0 Z"
         id="path2892"
         inkscape:connector-curvature="0" />
    </clipPath>
  </defs>
  <sodipodi:namedview
     id="base"
     pagecolor="#ffffff"
     bordercolor="#666666"
     borderopacity="1.0"
     inkscape:pageopacity="0.0"
     inkscape:pageshadow="2"
     inkscape:zoom="0.7"
     inkscape:cx="634.44625"
     inkscape:cy="15.692858"
     inkscape:document-units="px"
     inkscape:current-layer="layer1"
     showgrid="false"
     fit-margin-top="0"
     fit-margin-left="0"
     fit-margin-right="0"
     fit-margin-bottom="0"
     inkscape:window-width="1366"
     inkscape:window-height="705"
     inkscape:window-x="-8"
     inkscape:window-y="-8"
     inkscape:window-maximized="1"
     units="px" />
  <metadata
     id="metadata7419">
    <rdf:RDF>
      <cc:Work
         rdf:about="">
        <dc:format>image/svg+xml</dc:format>
        <dc:type
           rdf:resource="http://purl.org/dc/dcmitype/StillImage" />
        <dc:title></dc:title>
      </cc:Work>
    </rdf:RDF>
  </metadata>
  <g
     inkscape:label="Layer 1"
     inkscape:groupmode="layer"
     id="layer1"
     transform="translate(-391.32714,-352.46878)">
    <g
       transform="matrix(14.788933,0,0,-14.788933,-5754.125,6237.5797)"
       clip-path="url(#clipPath2890)"
       id="g2888">
      <path
         inkscape:connector-curvature="0"
         id="path2896"
         style="fill:#e3262b;fill-opacity:1;fill-rule:nonzero;stroke:none"
         d="m 465.338,397.94 h 6.766 c 0,0 0.832,-0.171 1.2,-1.42 l 1.39,-3.544 c 0,0 0.886,2.373 1.355,3.692 0.47,1.321 1.569,1.272 1.569,1.272 h 1.318 l -2.667,-6.489 -0.559,-1.362 -2.165,0.006 -2.291,5.247 c 0,0 -0.243,0.446 -0.535,0.446 h -1.276 l -0.044,-5.699 -2.128,0.006 -0.004,5.693 -4.087,-0.007 z" />
      <path
         inkscape:connector-curvature="0"
         id="path2898"
         style="fill:#21407a;fill-opacity:1;fill-rule:nonzero;stroke:none"
         d="m 444.913,397.94 v -8.202 c 0,0 -3.154,4.773 -3.626,5.571 -0.809,1.099 -1.808,2.631 -3.513,2.631 h -1.106 -2.43 v -11.636 h 3.536 v 8.199 c 0,0 3.157,-4.772 3.629,-5.57 0.808,-1.097 1.719,-2.629 3.51,-2.629 h 1.11 2.401 v 11.636 z" />
      <path
         inkscape:connector-curvature="0"
         id="path2900"
         style="fill:#21407a;fill-opacity:1;fill-rule:nonzero;stroke:none"
         d="m 426.5,396.158 c -0.765,-1.799 -2.13,-5.628 -2.13,-5.628 l -1.66,4.848 c 0,0 -0.867,2.561 -3.639,2.561 h -3.527 v -11.635 h 3.527 v 8.073 c 0,0 0.423,-0.082 1.241,-2.39 0.816,-2.307 2.021,-5.709 2.021,-5.709 h 2.376 c 0,0 1.709,0.108 2.702,2.82 l 1.285,3.495 c 0,0 0.64,1.901 1.226,2.131 v -8.42 h 3.496 v 11.635 h -3.496 c 0,0 -2.656,0.018 -3.422,-1.781" />
      <path
         inkscape:connector-curvature="0"
         id="path2902"
         style="fill:#21407a;fill-opacity:1;fill-rule:nonzero;stroke:none"
         d="m 461.315,389.293 -0.026,0.027 h -5.438 c -1.54,0 -2.786,1.24 -2.786,2.774 0,1.533 1.246,2.773 2.786,2.773 h 5.224 c 0.437,0.486 0.909,0.872 1.238,1.2 l 1.891,1.873 h -9.091 c -3.24,0 -5.869,-2.62 -5.869,-5.846 0,-3.23 2.629,-5.846 5.869,-5.846 h 9.212 z" />
    </g>
  </g>
</svg>
