<?xml version="1.0" encoding="UTF-8" standalone="no"?>
<svg
   width="1000"
   height="193.92249"
   viewBox="0 0 1000 193.92249"
   fill="none"
   version="1.1"
   id="svg13"
   sodipodi:docname="Moonbug.svg"
   inkscape:version="1.2.2 (732a01da63, 2022-12-09)"
   xml:space="preserve"
   xmlns:inkscape="http://www.inkscape.org/namespaces/inkscape"
   xmlns:sodipodi="http://sodipodi.sourceforge.net/DTD/sodipodi-0.dtd"
   xmlns="http://www.w3.org/2000/svg"
   xmlns:svg="http://www.w3.org/2000/svg"><sodipodi:namedview
     id="namedview15"
     pagecolor="#ffffff"
     bordercolor="#111111"
     borderopacity="1"
     inkscape:showpageshadow="0"
     inkscape:pageopacity="0"
     inkscape:pagecheckerboard="1"
     inkscape:deskcolor="#d1d1d1"
     showgrid="false"
     inkscape:zoom="0.6"
     inkscape:cx="554.16667"
     inkscape:cy="88.333333"
     inkscape:window-width="1366"
     inkscape:window-height="705"
     inkscape:window-x="-8"
     inkscape:window-y="-8"
     inkscape:window-maximized="1"
     inkscape:current-layer="svg13" /><defs
     id="defs11" /><g
     id="g2092"><path
       id="path2073"
       style="display:inline;opacity:1;fill:#1502f2;fill-opacity:1;fill-rule:evenodd;stroke-width:8.36228;stroke-linecap:round;stroke-miterlimit:9;paint-order:stroke fill markers"
       d="M 185.06641 0 C 165.2167 0 158.56353 17.440425 155.2168 28.113281 L 125.80859 121.89648 L 105.70898 41.576172 C 102.99341 30.725536 96.808698 14.080078 76.958984 14.080078 C 61.936524 14.080078 50.072856 24.178874 43.84375 42.132812 L 1.78125 163.36914 C 0.784314 166.24262 0 169.74065 0 174.32031 C 0 182.85405 5.8068156 193.92187 20.802734 193.92188 C 34.407412 193.92188 43.088311 188.11229 47.578125 171.17383 L 72.507812 77.125 L 100.60352 152.62695 C 105.94816 166.98969 113.49406 175.41406 127.38281 175.41406 C 141.2716 175.41406 149.40795 166.13217 153.34766 151.32227 L 179.9043 51.492188 L 202.04883 148.30273 C 204.03216 156.97334 207.95385 161.90234 216.46289 161.90234 C 224.15188 161.90234 229.4707 155.97533 229.4707 147.82617 C 229.4707 144.11181 228.46661 138.65121 227.60156 132.79492 L 212.60352 31.267578 C 209.9875 13.5573 202.14086 0 185.06641 0 z " /><path
       style="display:inline;opacity:1;fill:#1502f2;fill-opacity:1;fill-rule:evenodd;stroke-width:8.36228;stroke-linecap:round;stroke-miterlimit:9;paint-order:stroke fill markers"
       d="m 294.94727,19.363281 c -34.60779,0 -61.46289,25.694245 -61.46289,68.056641 0,43.314558 24.557,69.857418 59.70898,69.857418 34.33615,0 62.98633,-23.35174 62.98633,-68.841793 0,-44.94582 -25.53691,-69.072266 -61.23242,-69.072266 z m -6.15625,33.039063 c 18.91567,0 27.75,17.392258 27.75,39.490234 0,25.093702 -10.67562,37.304692 -28.11914,37.304692 -16.84628,0 -26.47071,-16.69062 -26.47071,-38.839848 0,-25.55989 10.90952,-37.955078 26.83985,-37.955078 z"
       id="path2070" /><path
       style="display:inline;opacity:1;fill:#1502f2;fill-opacity:1;fill-rule:evenodd;stroke-width:8.36228;stroke-linecap:round;stroke-miterlimit:9;paint-order:stroke fill markers"
       d="m 428.26562,49.236328 c -35.83148,0 -65.77929,26.772932 -65.77929,71.373052 0,43.1067 28.36028,66.63281 63.24023,66.63281 38.59122,1e-5 66.51758,-29.51366 66.51758,-71.96289 0,-39.766506 -24.46738,-66.042972 -63.97852,-66.042972 z m 6.36524,29.09375 c 16.89177,0 29.16016,11.46078 29.16016,36.347652 0,23.7837 -11.79726,42.51563 -33.54688,42.51563 -18.0204,0 -27.81836,-15.22873 -27.81836,-35.61133 0,-27.097504 14.2509,-43.251952 32.20508,-43.251952 z"
       id="path2067" /><path
       id="path2064"
       style="display:inline;opacity:1;fill:#1502f2;fill-opacity:1;fill-rule:evenodd;stroke-width:8.36228;stroke-linecap:round;stroke-miterlimit:9;paint-order:stroke fill markers"
       d="M 593.76172 18.001953 C 578.58 18.001953 573.60618 30.058966 575.22266 42.896484 L 584.29688 114.96094 L 537.26367 52.310547 C 532.57138 46.060188 527.3046 40.792969 517.30859 40.792969 C 506.39725 40.792969 499.8457 48.942723 499.8457 62.505859 C 499.8457 64.119918 499.8114 64.953181 499.96484 66.765625 L 507.94141 160.98242 C 508.8366 171.55614 513.38697 176.16406 520.20898 176.16406 C 527.99254 176.16406 531.91399 169.64061 531.86133 159.93555 L 531.49219 91.902344 L 571.39844 157.21094 C 579.54346 170.54066 587.52558 175.14258 597.61523 175.14258 C 611.52921 175.14258 618.12305 164.21194 618.12305 151.95703 C 618.12305 150.68093 618.15697 149.66758 618.07617 147.5957 L 613.89844 40.466797 C 613.47698 29.659252 609.62261 18.001953 593.76172 18.001953 z " /><path
       style="display:inline;opacity:1;fill:#1502f2;fill-opacity:1;fill-rule:evenodd;stroke-width:8.36228;stroke-linecap:round;stroke-miterlimit:9;paint-order:stroke fill markers"
       d="m 694.53711,24.15625 c -31.81425,0 -66.05469,18.424139 -66.05469,72.962891 0,55.024889 28.88408,66.335939 56.7793,66.335939 36.12161,0 57.96094,-17.53231 57.96094,-42.29688 0,-22.947348 -15.86882,-32.02963 -38.60743,-37.550778 13.7483,-6.116288 28.05274,-13.755686 28.05274,-31.71875 0,-16.207678 -13.66932,-27.732422 -38.13086,-27.732422 z m -7.67773,28.224609 c 5.34564,0 10.88085,1.489934 10.88085,6.888672 0,4.461882 -3.38589,7.868414 -13.47461,14.40625 -5.47144,3.545664 -9.73828,7.116076 -9.73828,12.728516 0,8.830692 5.34509,11.103233 13.52539,13.099609 18.03408,4.401134 26.67383,8.668334 26.67383,18.115234 0,7.15269 -8.43772,13.37109 -25.22461,13.37109 -17.7483,0 -29.82617,-10.82431 -29.82617,-41.101558 0,-28.828802 13.13283,-37.507813 27.1836,-37.507813 z"
       id="path2061" /><path
       style="display:inline;opacity:1;fill:#1502f2;fill-opacity:1;fill-rule:evenodd;stroke-width:8.36228;stroke-linecap:round;stroke-miterlimit:9;paint-order:stroke fill markers"
       d="m 774.26758,21.220703 c -12.52448,0 -20.13931,8.600611 -20.87891,24.792969 -0.8179,17.905134 -2.19531,37.33916 -2.19531,54.623048 0,35.51513 15.64924,60.45312 49.13476,60.45312 26.96766,0 40.20988,-14.75544 47.44336,-41.03906 3.1766,-11.54264 4.71775,-28.726961 5.96485,-46.941405 0.3349,-4.89068 0.91797,-9.899663 0.91797,-10.789063 0,-7.114144 -3.65554,-11.771484 -10.79102,-11.771484 -6.97818,0 -8.8599,7.129518 -9.7793,11.78711 l -7.75195,39.281252 c -3.5581,18.02609 -10.44575,29.375 -21.66601,29.375 -13.60488,0 -16.69336,-13.17831 -16.69336,-29.375 0,-16.357482 6.47851,-50.134807 6.47851,-59.785159 0,-11.776786 -6.48023,-20.611328 -20.18359,-20.611328 z"
       id="path2058" /><path
       style="display:inline;opacity:1;fill:#1502f2;fill-opacity:1;fill-rule:evenodd;stroke-width:8.36228;stroke-linecap:round;stroke-miterlimit:9;paint-order:stroke fill markers"
       d="m 943.30078,28.923828 c -48.9165,0 -81.07422,31.837774 -81.07422,78.279292 0,40.73556 26.57235,67.91211 66.75977,67.91211 43.7866,0 71.01367,-27.81226 71.01367,-60.21679 0,-15.984884 -9.53339,-25.740237 -29.21875,-25.740237 -11.36948,0 -21.18057,2.786982 -29.28125,4.517578 -5.44328,1.162898 -10.57227,4.000781 -10.57227,10.720699 0,7.20067 5.3867,10.13868 11.4336,10.13868 7.12758,0 14.63673,-0.57227 19.45703,-0.57227 6.55008,0 8.87305,2.60155 8.87305,6.67578 0,10.3171 -13.53033,24.14063 -36.55469,24.14063 -21.93186,0 -36.24609,-13.74573 -36.2461,-36.13868 0,-28.685582 18.57542,-43.337886 41.79688,-43.337886 10.49578,0 15.8152,1.970704 23.05078,1.970704 12.38068,0 18.19922,-7.92158 18.19922,-17.78711 0,-16.247758 -16.96496,-20.5625 -37.63672,-20.5625 z"
       id="path2055" /></g></svg>
