<?xml version="1.0" encoding="UTF-8" standalone="no"?>
<svg
   xmlns:dc="http://purl.org/dc/elements/1.1/"
   xmlns:cc="http://web.resource.org/cc/"
   xmlns:rdf="http://www.w3.org/1999/02/22-rdf-syntax-ns#"
   xmlns:svg="http://www.w3.org/2000/svg"
   xmlns="http://www.w3.org/2000/svg"
   xmlns:sodipodi="http://sodipodi.sourceforge.net/DTD/sodipodi-0.dtd"
   xmlns:inkscape="http://www.inkscape.org/namespaces/inkscape"
   width="647"
   height="265"
   id="svg2"
   sodipodi:version="0.32"
   inkscape:version="0.45.1"
   version="1.0">
  <g
     inkscape:label="Layer 1"
     inkscape:groupmode="layer"
     id="layer1"
     transform="translate(-485.03311,-113.7332)">
    <path
       style="fill:#003f5f"
       id="path8754"
       d="M 1090.0511,202.12107 C 1095.0372,206.80265 1099.8329,218.79208 1104.0197,234.3593 C 1108.2065,250.07877 1111.8224,269.56635 1114.3344,289.09199 C 1116.8465,308.92212 1118.2167,328.86644 1117.8742,344.96653 C 1117.5316,361.25692 1115.4382,373.55085 1110.985,377.50926 C 1109.8051,378.34662 1102.1547,378.72723 1089.4421,378.72723 C 1076.5773,378.76529 1058.3457,378.38468 1036.1938,377.73763 C 1013.5091,377.05252 986.44722,376.02485 956.64493,374.73076 C 925.81497,373.47472 891.86396,371.83807 856.61885,369.97305 C 819.01391,368.0319 779.88651,365.90045 741.63453,363.54062 C 701.9362,361.14274 663.34167,358.59261 628.85779,356.08054 C 593.27012,353.45428 562.40211,350.82803 539.67929,348.4682 C 516.53779,346.03225 502.2266,343.82468 500.24739,342.03578 C 493.0918,335.71754 488.63858,318.36142 486.50713,295.82891 C 484.41374,273.56283 484.60404,246.38679 486.7355,220.04811 C 488.79083,194.09005 492.71118,169.00741 498.03982,149.67208 C 503.29233,130.75543 509.95312,117.31966 517.7177,114.16054 C 520.22977,113.13287 533.55136,114.00829 554.67559,116.25393 C 575.4192,118.49957 603.43259,121.96318 635.67083,126.37833 C 666.99559,130.60318 702.08845,135.62732 738.2851,140.99402 C 773.26378,146.20847 809.23206,151.68935 843.94431,157.17023 C 877.43858,162.42274 909.82907,167.63719 939.36493,172.58521 C 968.02537,177.34292 994.09761,181.87225 1016.1353,185.86873 C 1037.6782,189.78908 1055.4911,193.21463 1068.2418,196.0312 C 1080.8021,198.69551 1088.5667,200.82697 1090.0511,202.12107"
       clip-path="none" />
    <path
       style="fill:#f08b1d"
       id="path8756"
       d="M 1077.1482,302.56582 L 1058.4599,300.77692 L 1060.3249,318.55173 C 1060.4391,319.61745 1060.7055,320.68318 1061.0862,321.63472 C 1061.5048,322.51014 1061.9996,323.42362 1062.6467,324.07067 C 1063.2557,324.8319 1063.9788,325.40283 1064.8162,325.82151 C 1065.6536,326.27825 1066.567,326.54468 1067.5566,326.6208 C 1068.5082,326.69692 1069.3455,326.6208 1070.0687,326.35437 C 1070.7919,326.04988 1071.4009,325.6312 1071.8576,325.09833 C 1072.3144,324.45129 1072.6569,323.76618 1072.8472,322.81463 C 1073.0375,321.93922 1073.0756,320.83543 1072.9233,319.57939 C 1072.8092,318.62785 1072.8853,317.63825 1073.0756,316.80089 C 1073.2659,315.92547 1073.6084,315.16424 1074.1033,314.47913 C 1074.56,313.87014 1075.169,313.37534 1075.8541,313.03278 C 1076.5773,312.72829 1077.3766,312.57604 1078.252,312.65217 C 1079.1655,312.72829 1080.0028,313.03278 1080.8021,313.48952 C 1081.6014,313.94626 1082.2865,314.55525 1082.9336,315.35455 C 1083.5425,316.07772 1084.0373,316.91507 1084.418,317.79049 C 1084.8366,318.70397 1085.1031,319.65551 1085.1792,320.60706 C 1085.5598,323.8423 1085.4456,326.69692 1084.8747,329.20899 C 1084.3038,331.683 1083.2761,333.81446 1081.8678,335.48917 C 1080.4596,337.16388 1078.6707,338.41992 1076.5011,339.21922 C 1074.3316,340.01851 1071.8196,340.28494 1069.003,340.05657 C 1065.9961,339.8282 1063.2937,339.14309 1060.8197,337.96318 C 1058.3838,336.78327 1056.2143,335.18468 1054.3492,333.20547 C 1052.5223,331.22626 1051.0379,328.86644 1049.896,326.20212 C 1048.7922,323.53781 1048.031,320.56899 1047.7265,317.37181 L 1042.6262,267.05428 C 1042.3218,264.00935 1042.5121,261.30697 1043.1591,258.87102 C 1043.8062,256.5112 1044.8719,254.53199 1046.3182,252.9334 C 1047.8026,251.37287 1049.6296,250.26908 1051.7991,249.58397 C 1053.9686,248.89886 1056.4426,248.74662 1059.2211,249.05111 C 1061.9235,249.39366 1064.4736,250.19296 1066.7954,251.41093 C 1069.1172,252.62891 1071.1725,254.18944 1072.9614,256.13058 C 1074.7503,258.10979 1076.2347,260.31736 1077.3766,262.90556 C 1078.4803,265.41763 1079.2796,268.27225 1079.6222,271.27913 L 1082.3626,295.75278 C 1082.4768,296.74239 1082.4388,297.73199 1082.2865,298.53129 C 1082.0962,299.36864 1081.7536,300.12988 1081.335,300.81499 C 1080.8782,301.42397 1080.3073,301.88071 1079.5841,302.18521 C 1078.899,302.52776 1078.0617,302.64195 1077.1482,302.56582 M 1055.0724,268.50062 L 1057.0516,287.4934 L 1069.5739,288.7875 L 1067.4805,269.90891 C 1067.3663,268.65287 1067.0618,267.58714 1066.6432,266.6356 C 1066.2245,265.68406 1065.6916,264.88477 1065.0826,264.19966 C 1064.4736,263.55261 1063.7505,263.05781 1062.9892,262.63913 C 1062.228,262.25851 1061.4287,262.03014 1060.5914,261.95402 C 1059.6779,261.83983 1058.8405,261.87789 1058.0793,262.10626 C 1057.3561,262.33463 1056.7471,262.75331 1056.2523,263.24811 C 1055.7575,263.78098 1055.415,264.50415 1055.1866,265.37957 C 1054.9963,266.25499 1054.9582,267.28265 1055.0724,268.50062"
       clip-path="none" />
    <path
       style="fill:#f08b1d"
       id="path8758"
       d="M 941.03964,234.3593 C 942.02924,234.51155 942.94272,234.8541 943.78008,235.27278 C 944.6555,235.76759 945.45479,236.41463 946.10184,237.13781 C 946.78695,237.9371 947.31982,238.77446 947.73849,239.68794 C 948.15717,240.60142 948.38554,241.62908 948.46167,242.65675 L 954.17092,323.53781 C 954.24704,324.60353 954.13285,325.6312 953.86642,326.58274 C 953.59999,327.45816 953.18131,328.33358 952.61039,328.98062 C 952.03946,329.74186 951.31629,330.23666 950.47893,330.57922 C 949.64158,330.95983 948.69004,331.11208 947.62431,331.03596 C 946.59664,330.95983 945.60704,330.65534 944.73162,330.23666 C 943.81814,329.74186 943.01885,329.13287 942.33374,328.33358 C 941.64863,327.53428 941.0777,326.65886 940.69708,325.66926 C 940.27841,324.64159 940.01197,323.57587 939.93585,322.43402 L 934.56915,240.98203 C 934.49303,239.99243 934.60722,239.00283 934.87365,238.20353 C 935.14008,237.36618 935.55876,236.60494 936.12968,235.95789 C 936.66255,235.34891 937.38572,234.89217 938.22308,234.62573 C 939.02237,234.32124 939.97391,234.24512 941.03964,234.3593"
       clip-path="none" />
    <path
       style="fill:#f08b1d"
       id="path8760"
       d="M 1009.2462,242.84706 C 1011.8724,243.22767 1014.4225,243.95085 1016.8204,245.20688 C 1019.1803,246.42485 1021.3878,248.02344 1023.2909,250.00265 C 1025.194,251.98186 1026.8307,254.30362 1028.0486,256.92988 C 1029.2666,259.55613 1030.0659,262.52494 1030.4084,265.72212 L 1036.6506,330.00829 C 1036.7267,331.03596 1036.6506,332.06362 1036.4222,332.93904 C 1036.1938,333.81446 1035.7751,334.61375 1035.2803,335.29886 C 1034.7475,335.98397 1034.0624,336.47877 1033.3011,336.85939 C 1032.5399,337.20195 1031.6645,337.35419 1030.7129,337.27807 C 1029.7233,337.20195 1028.8099,336.89745 1027.9725,336.44071 C 1027.1351,335.98397 1026.3739,335.37499 1025.7649,334.61375 C 1025.1179,333.85252 1024.585,332.9771 1024.2044,332.06362 C 1023.8238,331.11208 1023.5573,330.04635 1023.4812,329.05675 L 1017.4294,264.27578 C 1017.3152,263.05781 1017.0488,261.91596 1016.6301,261.00247 C 1016.2495,260.01287 1015.7166,259.21358 1015.0696,258.4904 C 1014.4606,257.80529 1013.7374,257.27243 1012.9381,256.85375 C 1012.1388,256.43507 1011.3015,256.2067 1010.4261,256.09252 C 1009.5126,255.97833 1008.6372,256.0164 1007.8379,256.24477 C 1007.0766,256.47314 1006.3915,256.85375 1005.8587,257.42468 C 1005.3258,257.9956 1004.9071,258.68071 1004.6788,259.59419 C 1004.4123,260.50767 1004.3362,261.5734 1004.4504,262.79137 L 1010.2358,328.02908 C 1010.2738,328.48582 1010.2738,328.94256 1010.2738,329.3993 C 1010.2358,329.81798 1010.1977,330.23666 1010.1216,330.65534 C 1010.0074,331.07402 1009.8932,331.45463 1009.741,331.79719 C 1009.5887,332.13974 1009.3984,332.52036 1009.2081,332.78679 C 1008.9417,333.20547 1008.6372,333.58609 1008.2946,333.92864 C 1007.9521,334.23314 1007.5714,334.49957 1007.1528,334.72794 C 1006.7341,334.95631 1006.2393,335.14662 1005.7825,335.2608 C 1005.2877,335.33692 1004.7549,335.37499 1004.222,335.33692 C 1003.1944,335.2608 1002.2428,334.91825 1001.4055,334.46151 C 1000.53,333.9667 999.7688,333.31966 999.12175,332.55842 C 998.47471,331.75913 997.94184,330.88371 997.56122,329.93217 C 997.18061,329.01869 996.91418,327.95296 996.83805,326.96336 C 995.42977,310.3304 994.40211,297.96036 993.60281,288.74944 C 992.84158,279.61463 992.30871,273.52477 991.96616,269.4141 C 991.6236,265.41763 991.47136,263.3623 991.39523,262.33463 C 991.28105,261.30697 991.28105,261.30697 991.28105,261.30697 C 991.20493,260.05093 990.90043,258.94714 990.48175,257.95754 C 990.06308,257.006 989.49215,256.13058 988.8451,255.44547 C 988.19805,254.7223 987.43682,254.2275 986.59946,253.77076 C 985.80017,253.35208 984.92475,253.08565 984.01127,252.97146 C 983.05973,252.85728 982.14625,252.9334 981.34695,253.16177 C 980.54766,253.35208 979.86255,253.77076 979.29162,254.34168 C 978.7207,254.87455 978.30202,255.59772 978.03559,256.54926 C 977.76915,257.42468 977.69303,258.52847 977.76915,259.7845 L 983.05973,325.85957 C 983.13585,326.84917 983.05973,327.87684 982.83136,328.79032 C 982.56493,329.66573 982.18431,330.54115 981.65145,331.1882 C 981.08052,331.91137 980.39541,332.44424 979.59611,332.78679 C 978.79682,333.16741 977.84528,333.31966 976.81761,333.24353 C 975.75189,333.16741 974.76228,332.86292 973.88686,332.40618 C 973.01145,331.91137 972.21215,331.22626 971.5651,330.46503 C 970.91805,329.66573 970.38519,328.75225 969.96651,327.80071 C 969.58589,326.81111 969.35752,325.82151 969.2814,324.79384 L 963.22959,244.71208 C 963.15347,243.60829 963.22959,242.54256 963.49603,241.70521 C 963.80052,240.82979 964.2192,240.10662 964.79012,239.45957 C 965.32299,238.88864 966.0081,238.46996 966.80739,238.16547 C 967.56863,237.89904 968.44404,237.82292 969.39559,237.9371 C 969.92845,238.01322 970.46131,238.12741 970.91805,238.27966 C 971.37479,238.50803 971.83153,238.69833 972.25021,238.9267 C 972.63083,239.15507 973.01145,239.42151 973.31594,239.68794 C 973.65849,240.03049 973.92493,240.29692 974.1533,240.56336 C 974.6481,240.37305 975.21902,240.18274 975.86607,239.99243 C 976.47506,239.80212 977.16017,239.68794 977.9214,239.61181 C 978.68263,239.53569 979.51999,239.45957 980.47153,239.49763 C 981.42308,239.49763 982.45074,239.57375 983.55453,239.726 C 985.19118,239.95437 986.59946,240.25886 987.89356,240.60142 C 989.14959,240.98203 990.29145,241.40071 991.35717,241.93358 C 992.38484,242.46644 993.33638,242.9993 994.24986,243.60829 C 995.16334,244.21728 996.03876,244.86433 996.95224,245.51137 C 997.63735,244.90239 998.36052,244.40759 999.15982,243.98891 C 999.95911,243.57023 1000.8345,243.26573 1001.7861,243.03736 C 1002.7757,242.80899 1003.8414,242.69481 1005.0594,242.65675 C 1006.2393,242.58062 1007.6476,242.65675 1009.2462,242.84706"
       clip-path="none" />
    <path
       style="fill:#f08b1d"
       id="path8762"
       d="M 940.05004,211.14168 C 940.96352,211.25587 941.83893,211.59842 942.60017,212.05516 C 943.3614,212.5119 944.04651,213.15895 944.61744,213.88212 C 945.18836,214.60529 945.6451,215.40459 945.94959,216.24195 C 946.29215,217.0793 946.52052,217.91666 946.55858,218.75402 C 946.63471,219.70556 946.52052,220.6571 946.25409,221.41833 C 945.98766,222.17957 945.60704,222.86468 945.07418,223.39754 C 944.57937,223.9304 943.93233,224.27296 943.24722,224.50133 C 942.56211,224.7297 941.76281,224.80582 940.96352,224.7297 L 917.78396,221.68477 L 923.83576,321.10186 C 923.91189,322.20565 923.75964,323.30944 923.49321,324.18485 C 923.18871,325.1364 922.73197,325.97375 922.12299,326.69692 C 921.514,327.38203 920.79083,327.9149 919.91541,328.29551 C 919.03999,328.67613 918.08845,328.82838 916.98466,328.75225 C 915.91893,328.67613 914.89127,328.37164 913.97779,327.87684 C 913.06431,327.4201 912.22695,326.81111 911.54184,325.97375 C 910.85673,325.17446 910.28581,324.26098 909.86713,323.27137 C 909.44845,322.28177 909.22008,321.10186 909.14396,319.96001 L 903.54889,219.85781 L 889.08545,217.99278 C 888.21004,217.8786 887.37268,217.5741 886.57338,217.19349 C 885.77409,216.69869 885.05092,216.16582 884.40387,215.48071 C 883.75682,214.75754 883.22396,213.95825 882.80528,213.08283 C 882.42466,212.16935 882.15823,211.17974 882.12017,210.15208 C 882.08211,209.35278 882.19629,208.4393 882.46272,207.71613 C 882.72915,206.91684 883.14783,206.23173 883.71876,205.62274 C 884.25162,205.05181 884.93673,204.63314 885.73603,204.3667 C 886.49726,204.02415 887.37268,203.94803 888.36228,204.06221 L 940.05004,211.14168 z "
       clip-path="none" />
    <polygon
       style="fill:#f08b1d"
       id="polygon8764"
       points="270.225,586.506 270.343,586.837 270.671,586.889 270.417,587.058 270.523,587.394 270.246,587.165 269.977,587.325 270.065,587.012 269.792,586.771 270.126,586.81 270.225,586.506 "
       clip-path="none"
       transform="matrix(38.061674,0,0,38.061674,-9468.8282,-22143.431)" />
    <path
       style="fill:#ffffff"
       id="path8766"
       d="M 882.23435,283.80142 L 859.2451,281.59384 L 860.00634,301.1956 C 860.0444,302.45164 860.31083,303.59349 860.69145,304.62115 C 861.11012,305.68688 861.68105,306.63842 862.40422,307.39966 C 863.12739,308.19895 863.96475,308.846 864.95435,309.3408 C 865.94396,309.87366 867.08581,310.1401 868.30378,310.21622 C 869.44563,310.3304 870.51136,310.21622 871.4629,309.94979 C 872.37638,309.68336 873.17567,309.18855 873.78466,308.57957 C 874.43171,307.93252 874.88845,307.09516 875.231,306.10556 C 875.49744,305.11596 875.64968,303.89798 875.57356,302.56582 C 875.5355,301.42397 875.68774,300.39631 875.99224,299.44477 C 876.33479,298.53129 876.82959,297.65587 877.43858,296.97076 C 878.08563,296.24759 878.84686,295.75278 879.76034,295.41023 C 880.63576,295.02961 881.66343,294.87736 882.76722,294.99155 C 883.871,295.06767 884.89867,295.44829 885.85021,295.94309 C 886.76369,296.47596 887.60105,297.16107 888.32422,297.99842 C 889.00933,298.79772 889.58026,299.74926 889.99893,300.73886 C 890.41761,301.72847 890.64598,302.79419 890.72211,303.85992 C 890.87435,307.43772 890.49374,310.59684 889.58026,313.33728 C 888.66678,316.07772 887.22043,318.39948 885.31735,320.22644 C 883.45233,322.09146 881.0925,323.46168 878.314,324.26098 C 875.57356,325.09833 872.41444,325.44089 868.91277,325.1364 C 865.25885,324.86996 861.90942,324.07067 858.94061,322.73851 C 855.9718,321.40635 853.42167,319.61745 851.32827,317.40988 C 849.19682,315.12618 847.52211,312.57604 846.38026,309.60723 C 845.20034,306.63842 844.5533,303.36512 844.40105,299.78732 L 842.4599,244.21728 C 842.34572,240.86785 842.84052,237.86098 843.83012,235.27278 C 844.81973,232.68459 846.34219,230.51507 848.28334,228.8023 C 850.26255,227.12759 852.66043,225.87155 855.40087,225.14838 C 858.14131,224.46327 861.26237,224.34908 864.64986,224.7297 C 867.96122,225.14838 871.04422,226.06186 873.82272,227.43208 C 876.56316,228.76424 878.99911,230.55314 881.05444,232.68459 C 883.07171,234.89217 884.74642,237.36618 885.92634,240.14468 C 887.10625,242.96124 887.82942,246.0823 887.98167,249.39366 L 889.31382,276.34133 C 889.38995,277.36899 889.2377,278.43472 888.97127,279.38626 C 888.66678,280.26168 888.21004,281.1371 887.60105,281.78415 C 886.99206,282.50732 886.19277,283.00212 885.31735,283.34468 C 884.40387,283.80142 883.3762,283.9156 882.23435,283.80142 M 857.79876,246.0823 L 858.63611,267.01622 L 874.05109,268.61481 L 873.09955,247.83314 C 873.06149,246.46292 872.757,245.24494 872.33832,244.14115 C 871.91964,243.15155 871.31065,242.20001 870.58748,241.5149 C 869.86431,240.75366 869.06501,240.18274 868.15153,239.76406 C 867.23805,239.30732 866.24845,239.04089 865.25885,238.96477 C 864.07893,238.81252 863.05127,238.85058 862.09973,239.07895 C 861.18625,239.30732 860.38695,239.76406 859.70184,240.33499 C 859.05479,240.90591 858.55999,241.70521 858.21744,242.65675 C 857.91294,243.60829 857.7607,244.75014 857.79876,246.0823"
       clip-path="none" />
    <path
       style="fill:#ffffff"
       id="path8768"
       d="M 819.24228,219.13463 C 820.34607,219.28688 821.37374,219.6675 822.32528,220.12424 C 823.27682,220.6571 824.15224,221.34221 824.87541,222.14151 C 825.56052,222.9408 826.16951,223.85428 826.58819,224.84388 C 827.00686,225.83349 827.23523,226.89922 827.2733,227.96494 L 829.86149,313.75596 C 829.89955,314.89781 829.70924,315.96353 829.36669,316.95314 C 829.02413,317.94274 828.49127,318.81816 827.80616,319.54133 C 827.12105,320.2645 826.28369,320.87349 825.29409,321.2541 C 824.34255,321.59666 823.23876,321.78697 822.05885,321.67278 C 820.87893,321.59666 819.77515,321.29217 818.78554,320.79736 C 817.79594,320.30256 816.88246,319.61745 816.15929,318.74203 C 815.39805,317.94274 814.82713,316.95314 814.40845,315.88741 C 813.98977,314.85974 813.7614,313.67983 813.72334,312.46186 L 811.55382,226.06186 C 811.55382,225.03419 811.70607,224.00653 812.04863,223.13111 C 812.39118,222.25569 812.88598,221.4564 813.57109,220.77129 C 814.21814,220.12424 815.0555,219.6675 816.00704,219.363 C 816.95858,219.09657 818.06237,218.98239 819.24228,219.13463"
       clip-path="none" />
    <path
       style="fill:#ffffff"
       id="path8770"
       d="M 791.11471,215.63296 C 792.48493,215.78521 793.77902,216.28001 794.88281,216.96512 C 795.9866,217.68829 796.93814,218.60177 797.69937,219.59137 C 798.46061,220.61904 798.99347,221.83701 799.29797,223.01692 C 799.60246,224.15877 799.60246,225.41481 799.33603,226.59472 L 780.191,310.67296 C 779.92457,311.77675 779.58202,312.80441 779.16334,313.71789 C 778.7066,314.59331 778.13567,315.43067 777.45056,316.07772 C 776.76545,316.80089 776.00422,317.25763 775.09074,317.60018 C 774.17726,317.90468 773.18766,318.09499 772.04581,317.9808 L 769.95241,317.82855 C 768.42995,317.71437 767.17391,317.40988 766.07012,316.9912 C 765.0044,316.53446 764.09092,315.88741 763.32968,315.12618 C 762.60651,314.32688 761.99752,313.48952 761.50272,312.46186 C 761.00792,311.47225 760.6273,310.36847 760.28475,309.15049 L 738.24704,219.28688 C 737.94255,217.95472 737.98061,216.73675 738.24704,215.51877 C 738.55153,214.37692 739.12246,213.27314 739.88369,212.43578 C 740.68299,211.59842 741.63453,210.91331 742.77638,210.49463 C 743.88017,210.03789 745.17426,209.88565 746.50642,210.07596 C 747.68634,210.26626 748.75206,210.57076 749.7036,211.0275 C 750.61708,211.5223 751.45444,212.13129 752.17761,212.85446 C 752.86272,213.65375 753.47171,214.45305 753.92845,215.32847 C 754.38519,216.20388 754.72774,217.19349 754.91805,218.22115 L 770.21885,285.85675 L 783.31206,221.60864 C 783.50237,220.61904 783.80686,219.74362 784.22554,218.94433 C 784.60616,218.14503 785.13902,217.45992 785.78607,216.92706 C 786.43312,216.35613 787.19435,215.97551 788.10783,215.74714 C 788.98325,215.55684 789.97285,215.48071 791.11471,215.63296"
       clip-path="none" />
    <path
       style="fill:#ffffff"
       id="path8772"
       d="M 701.89814,204.51895 C 705.62819,204.97569 709.12986,205.96529 712.25092,207.41164 C 715.37197,208.85798 718.15048,210.83719 720.47224,213.12089 C 722.75594,215.48071 724.62096,218.14503 725.877,221.18996 C 727.13303,224.2349 727.81814,227.62239 727.81814,231.27631 L 727.62783,289.7771 C 727.62783,293.62133 726.94272,296.97076 725.72475,299.93957 C 724.46871,302.87032 722.64175,305.38239 720.31999,307.32353 C 717.99823,309.3408 715.1436,310.82521 711.83224,311.70062 C 708.52087,312.6141 704.71471,312.9186 700.60404,312.6141 C 696.64563,312.30961 692.91559,311.47225 689.60422,310.1401 C 686.25479,308.80794 683.28598,306.94292 680.85004,304.58309 C 678.37603,302.22327 676.43488,299.44477 675.10272,296.1334 C 673.80863,292.8601 673.12352,289.16811 673.2377,285.05745 L 674.49374,225.18644 C 674.56986,221.22803 675.40722,217.8786 676.89162,214.98591 C 678.33797,212.20741 680.3933,209.92371 682.8673,208.17287 C 685.37937,206.4601 688.31012,205.31825 691.54537,204.6712 C 694.74255,204.13833 698.24422,204.06221 701.89814,204.51895 M 709.85303,288.2927 L 710.38589,229.2971 C 710.38589,227.88882 710.19559,226.67085 709.77691,225.49093 C 709.35823,224.38714 708.74924,223.39754 707.98801,222.59825 C 707.22678,221.79895 706.3133,221.1519 705.24757,220.6571 C 704.18184,220.1623 703.00193,219.81974 701.70783,219.6675 C 700.37567,219.51525 699.11964,219.59137 698.01585,219.81974 C 696.91206,220.08618 695.92246,220.58098 695.12316,221.1519 C 694.28581,221.83701 693.67682,222.63631 693.22008,223.66397 C 692.76334,224.65358 692.53497,225.90961 692.49691,227.27983 L 691.62149,286.73217 C 691.58343,288.10239 691.8118,289.35842 692.26854,290.53833 C 692.68722,291.68018 693.33426,292.70785 694.17162,293.54521 C 695.00898,294.38256 695.99858,295.10573 697.10237,295.60054 C 698.20616,296.1334 699.46219,296.43789 700.79435,296.55208 C 702.08845,296.66626 703.34448,296.55208 704.41021,296.24759 C 705.514,295.94309 706.46554,295.44829 707.26484,294.80124 C 708.06413,294.07807 708.71118,293.24071 709.16792,292.13692 C 709.5866,291.03314 709.85303,289.73904 709.85303,288.2927"
       clip-path="none" />
    <path
       style="fill:#ffffff"
       id="path8774"
       d="M 646.89902,171.02468 C 648.19312,171.25305 649.37303,171.63366 650.47682,172.20459 C 651.58061,172.85164 652.57021,173.57481 653.40757,174.52635 C 654.24493,175.36371 654.89197,176.42944 655.34871,177.4571 C 655.80545,178.56089 656.03382,179.7408 655.99576,180.88265 L 652.6844,299.86344 C 652.64634,301.04336 652.34184,302.26133 651.84704,303.32706 C 651.35224,304.35472 650.62907,305.34433 649.71559,306.10556 C 648.84017,306.90485 647.73638,307.47578 646.55647,307.93252 C 645.37656,308.31314 644.0444,308.46538 642.63611,308.38926 C 641.22783,308.27507 639.93374,307.93252 638.75382,307.36159 C 637.57391,306.82873 636.54625,306.10556 635.67083,305.15402 C 634.83347,304.24054 634.14836,303.17481 633.69162,302.03296 C 633.27294,300.89111 633.04457,299.59701 633.08263,298.30292 L 635.8992,216.05164 L 616.60193,269.29992 C 616.22131,270.47983 615.72651,271.54556 615.11752,272.45904 C 614.5466,273.37252 613.86149,274.20988 613.06219,274.85692 C 612.2629,275.50397 611.31136,275.99877 610.28369,276.30327 C 609.21797,276.60776 608.07611,276.72195 606.74396,276.60776 L 604.34607,276.37939 C 602.6333,276.22714 601.14889,275.88459 599.93092,275.38979 C 598.67488,274.89499 597.64722,274.20988 596.84792,273.41058 C 596.01056,272.61129 595.36352,271.69781 594.83065,270.63208 C 594.29779,269.64247 593.91717,268.46256 593.61268,267.20653 L 578.15964,208.85798 L 573.59224,293.62133 C 573.51611,294.91543 573.21162,296.09534 572.6407,297.19913 C 572.10783,298.30292 571.30854,299.29252 570.357,300.09181 C 569.40545,300.89111 568.30167,301.53816 567.00757,301.95684 C 565.75153,302.37551 564.34325,302.52776 562.82078,302.41358 C 561.29832,302.29939 559.9281,301.95684 558.71012,301.42397 C 557.49215,300.81499 556.42642,300.05375 555.551,299.06415 C 554.67559,298.18873 554.02854,297.04688 553.60986,295.86697 C 553.15312,294.64899 552.96281,293.39296 553.077,292.02274 L 560.57515,168.20811 C 560.65127,167.06626 560.95576,165.92441 561.48863,164.97287 C 561.98343,163.98327 562.7066,163.06979 563.62008,162.42274 C 564.53356,161.69957 565.59929,161.1667 566.85532,160.86221 C 568.0733,160.55772 569.44352,160.44353 570.92792,160.6719 L 577.39841,161.50926 C 578.73056,161.73763 579.91048,162.11825 580.93814,162.61305 C 581.96581,163.18397 582.84122,163.86908 583.5644,164.66838 C 584.32563,165.46767 584.89656,166.38115 585.39136,167.3327 C 585.8481,168.28424 586.19065,169.3119 586.45708,170.30151 L 606.4014,246.27261 L 631.78854,176.35331 C 632.16915,175.36371 632.62589,174.41217 633.15876,173.61287 C 633.69162,172.81358 634.30061,172.0904 635.06184,171.51948 C 635.82308,170.91049 636.66043,170.52988 637.65004,170.33957 C 638.63964,170.1112 639.78149,170.03507 641.07559,170.22538 L 646.89902,171.02468 z "
       clip-path="none" />
    <path
       style="fill:#003f5f"
       id="path8776"
       d="M 1119.4728,372.5993 L 1117.8742,372.5993 C 1117.4174,372.5993 1117.0368,372.37093 1117.0368,371.87613 C 1117.0368,371.38133 1117.4174,371.15296 1117.8742,371.15296 L 1122.7461,371.15296 C 1123.2028,371.15296 1123.5834,371.38133 1123.5834,371.87613 C 1123.5834,372.37093 1123.2028,372.5993 1122.7461,372.5993 L 1121.1475,372.5993 L 1121.1475,377.85181 C 1121.1475,378.34662 1120.8049,378.68917 1120.3101,378.68917 C 1119.8153,378.68917 1119.4728,378.30855 1119.4728,377.85181 L 1119.4728,372.5993 L 1119.4728,372.5993 z "
       clip-path="none" />
    <path
       style="fill:#003f5f"
       id="path8778"
       d="M 1124.4588,371.91419 C 1124.4588,371.19102 1124.9156,371.07684 1125.3723,371.07684 L 1125.8671,371.07684 C 1126.3619,371.07684 1126.6284,371.30521 1126.7806,371.87613 L 1128.265,376.59578 L 1129.7114,371.87613 C 1129.9017,371.30521 1130.13,371.07684 1130.6629,371.07684 L 1131.1196,371.07684 C 1131.5764,371.07684 1132.0331,371.22908 1132.0331,371.91419 L 1132.0331,377.85181 C 1132.0331,378.30855 1131.8428,378.65111 1131.3099,378.65111 C 1130.739,378.65111 1130.5487,378.27049 1130.5487,377.85181 L 1130.5487,373.32247 L 1130.5107,373.32247 L 1128.9501,378.23243 C 1128.8359,378.57499 1128.6076,378.68917 1128.265,378.68917 C 1127.8844,378.68917 1127.656,378.57499 1127.5418,378.23243 L 1125.9813,373.32247 L 1125.9433,373.32247 L 1125.9433,377.85181 C 1125.9433,378.30855 1125.7529,378.65111 1125.2201,378.65111 C 1124.6492,378.65111 1124.4588,378.27049 1124.4588,377.85181 L 1124.4588,371.91419 L 1124.4588,371.91419 z "
       clip-path="none" />
  </g>
</svg>
