<?xml version="1.0" encoding="UTF-8" standalone="no"?>
<svg
   xmlns="http://www.w3.org/2000/svg"
   id="logosvg.com"
   version="1.1"
   x="0px"
   y="0px"
   width="1000"
   height="281.186"
   viewBox="0 0 1000 281.186"
   xml:space="preserve">
  <g
     transform="translate(101.83253,-48.349226)">
    <g
       transform="matrix(1.7640932,0,0,1.7640932,77.809536,-36.94331)">
      <path
         fill="#09BCCA"
         d="m 465.0312,183.64815 c 0,-11.13317 -8.96837,-20.10154 -20.10154,-20.10154 -11.13316,0 -20.10155,8.96837 -20.10155,20.10154 0,11.13316 8.96839,20.10155 20.10155,20.10155 11.13317,0 20.10154,-8.96839 20.10154,-20.10155 z m -54.89269,19.01916 v -54.73806 c 0,-4.02031 2.49939,-10.6017 7.11286,-12.3702 4.66515,-1.78831 8.99606,0.23486 14.07108,2.1648 16.88276,6.4202 29.98409,-2.01264 32.00785,-13.14334 1.99654,-10.98102 -5.25594,-21.65536 -16.23585,-23.65798 -13.60584,-2.481568 -23.07563,1.65377 -34.17265,10.20542 -1.2448,0.95927 -2.39888,2.03347 -3.55641,3.09254 -2.62866,-8.19525 -10.36005,-14.225715 -19.32844,-14.225715 -11.28778,0 -20.25616,9.123005 -20.25616,20.256165 v 82.26174 z M 359.26612,73.553502 c 0,-11.133165 -8.96838,-20.101552 -20.10154,-20.101552 -11.13317,0 -20.10157,8.968387 -20.10157,20.101552 0,11.133164 8.9684,20.101554 20.10157,20.101554 11.13316,0 20.10154,-8.96839 20.10154,-20.101554 z M 289.83847,199.57477 c -11.4376,-7.42955 -18.99188,-19.62161 -11.44243,-32.47174 6.98555,-11.8903 31.70607,-14.07237 35.25503,6.64898 1.24449,7.26619 5.1027,6.3397 5.1027,-0.30926 V 123.962 c 0,-14.68958 9.12301,-23.8126 20.41081,-23.8126 11.28777,0 20.25617,9.12302 20.25617,20.25619 v 45.3058 c 0,24.74036 -12.06094,40.82161 -41.67206,40.82161 -10.74661,0 -21.25642,-2.6361 -27.91022,-6.95823 z" />
      <path
         fill="#FF7F00"
         d="m 33.188391,48.349226 c -6.171057,0 -11.848392,2.54131 -16.044718,6.602268 -4.196296,4.060937 -6.663176,9.896135 -6.663176,15.987555 0,6.345202 2.59184,11.805374 6.663176,15.991638 l 4.936831,5.076193 c 8.266634,8.5 8.757659,10.52973 0.98814,18.52563 l -4.44081,4.57019 c -3.700923,3.80876 -5.924971,8.88158 -5.924971,14.46543 v 73.09916 h 40.974962 v -73.09916 c 0,-5.58385 -2.348721,-10.78497 -5.924985,-14.46543 l -4.440818,-4.57019 c -7.895346,-8.12537 -7.282401,-10.02563 0.984263,-18.52563 l 4.936845,-5.076193 c 4.071336,-4.186256 6.667061,-9.646436 6.667061,-15.991638 0,-6.345217 -2.470772,-11.926625 -6.667061,-15.987555 -4.196333,-4.060966 -9.626841,-6.602268 -16.044739,-6.602268 z M 250.19831,99.023167 c -7.22831,-0.273981 -14.53725,3.277573 -18.30225,9.987783 l -18.51311,32.99518 v -22.07984 c 0,-11.1676 -9.13158,-20.304772 -20.23949,-20.304772 -11.35473,0 -20.23947,9.137172 -20.23947,20.304772 v 82.74102 h 40.72891 v -32.23208 l 21.47368,32.23208 h 32.83153 c 3.72127,0 6.66315,-3.04731 6.66315,-7.10815 0,-1.26915 -0.23953,-2.66981 -0.98814,-3.80723 l -22.21576,-33.75422 15.55261,-28.172 c 5.40895,-9.79779 2.44137,-22.2902 -7.1592,-27.91907 -3.03506,-1.77947 -6.30686,-2.75894 -9.59246,-2.883473 z m -298.467731,1.104423 c -14.810491,0 -28.321691,6.15523 -37.764463,15.73849 -9.564456,9.70675 -15.798646,23.09358 -15.798646,37.81454 v 48.98669 h 40.728891 v -47.97077 c 0,-5.83759 1.390914,-10.96535 3.702634,-14.71853 2.379561,-3.86332 5.428965,-6.09217 9.131584,-6.09217 3.702634,0 6.667099,2.285 9.135492,6.09217 2.468437,3.80724 3.702633,8.88094 3.702633,14.71853 v 47.97077 H 5.2976102 v -48.98669 c 0,-14.72096 -6.04781515,-28.30255 -15.7986612,-38.07156 -9.504414,-9.52212 -22.957864,-15.48147 -37.76837,-15.48147 z m 161.189301,0 c -14.810523,0 -28.387662,6.09373 -38.014444,15.73849 -9.62687,9.64484 -15.672114,23.34903 -15.548682,38.07154 0.123418,14.72039 5.905258,28.44314 15.548682,38.07137 7.388684,7.37705 20.241829,15.73451 38.014444,15.73451 13.08261,0 25.38201,-4.87024 34.8039,-12.94344 6.86997,-5.88656 16.78448,-17.51209 18.75922,-35.78631 h -40.97498 c -0.49372,4.56858 -1.70382,8.64102 -3.45656,11.9274 -2.44367,4.58187 -5.42896,7.10828 -9.13158,7.10828 -3.70262,0 -6.66316,-2.53969 -9.13159,-7.10828 -2.46843,-4.56858 -3.70262,-10.40453 -3.70262,-17.00353 0,-6.59913 1.43684,-12.71607 3.70262,-17.00768 2.42443,-4.59214 5.42897,-7.10423 9.13159,-7.10423 3.70262,0 6.6879,2.5223 9.13158,7.10423 1.75273,3.28637 2.9629,7.36285 3.45656,11.93144 h 40.72891 c -1.23421,-12.69053 -6.91604,-24.35884 -15.5487,-32.9953 -9.63365,-9.63789 -23.20468,-15.73849 -37.76835,-15.73849 z" />
    </g>
  </g>
</svg>
