<?xml version="1.0" encoding="UTF-8" standalone="no"?>
<svg
   xmlns:osb="http://www.openswatchbook.org/uri/2009/osb"
   xmlns:dc="http://purl.org/dc/elements/1.1/"
   xmlns:cc="http://creativecommons.org/ns#"
   xmlns:rdf="http://www.w3.org/1999/02/22-rdf-syntax-ns#"
   xmlns:svg="http://www.w3.org/2000/svg"
   xmlns="http://www.w3.org/2000/svg"
   xmlns:sodipodi="http://sodipodi.sourceforge.net/DTD/sodipodi-0.dtd"
   xmlns:inkscape="http://www.inkscape.org/namespaces/inkscape"
   width="1000"
   height="174.2067"
   viewBox="0 0 264.58333 46.092189"
   version="1.1"
   id="svg283"
   inkscape:version="1.0.2-2 (e86c870879, 2021-01-15)"
   sodipodi:docname="Nickelodeon_1984_Wordmark.svg"
   inkscape:export-filename="C:\Users\tjdru\OneDrive\Pictures\Logos\TV\nickelodeonwordmark1984.png"
   inkscape:export-xdpi="134.02028"
   inkscape:export-ydpi="134.02028">
  <defs
     id="defs277">
    <linearGradient
       osb:paint="solid"
       id="linearGradient5998">
      <stop
         id="stop5996"
         offset="0"
         style="stop-color:#000000;stop-opacity:1;" />
    </linearGradient>
  </defs>
  <sodipodi:namedview
     id="base"
     pagecolor="#ffffff"
     bordercolor="#666666"
     borderopacity="1.0"
     inkscape:pageopacity="0.0"
     inkscape:pageshadow="2"
     inkscape:zoom="1"
     inkscape:cx="496.57022"
     inkscape:cy="261.46285"
     inkscape:document-units="mm"
     inkscape:current-layer="layer3"
     inkscape:document-rotation="0"
     showgrid="false"
     inkscape:snap-global="true"
     inkscape:window-width="1366"
     inkscape:window-height="705"
     inkscape:window-x="-8"
     inkscape:window-y="-8"
     inkscape:window-maximized="1"
     showguides="true"
     inkscape:guide-bbox="true"
     inkscape:snap-bbox="false"
     inkscape:bbox-paths="false"
     inkscape:bbox-nodes="true"
     inkscape:snap-nodes="true"
     inkscape:snap-page="false"
     units="px" />
  <metadata
     id="metadata280">
    <rdf:RDF>
      <cc:Work
         rdf:about="">
        <dc:format>image/svg+xml</dc:format>
        <dc:type
           rdf:resource="http://purl.org/dc/dcmitype/StillImage" />
        <dc:title></dc:title>
      </cc:Work>
    </rdf:RDF>
  </metadata>
  <g
     inkscape:groupmode="layer"
     id="layer3"
     inkscape:label="Layer 1"
     style="display:inline;opacity:1"
     transform="translate(-5.9357102,-141.35468)">
    <path
       id="path451-7"
       style="display:inline;opacity:1;fill:#ff7300;fill-opacity:1;stroke:none;stroke-width:0.402277"
       d="m 37.358648,141.35468 c -1.12407,0 -1.868341,0.79827 -2.167164,1.77326 l -4.811912,15.7004 c -0.105974,0.34583 -0.417705,0.44295 -0.417705,0.44295 -0.804856,-5.07292 -1.773056,-9.6555 -3.568894,-14.51726 -0.426925,-1.15578 -5.066866,-3.46792 -8.66505,-3.27743 -0.896684,0.0475 -1.456613,0.88809 -1.709779,1.70112 -3.808724,12.23139 -7.1341068,24.17289 -9.9419726,37.01132 -0.1298056,0.59353 -0.2310679,1.20505 -0.013709,1.70329 0.9033936,2.07075 4.4629576,2.47788 6.8506616,2.41533 0.950285,-0.025 2.053407,-0.3823 2.30712,-1.45728 l 5.455425,-22.46016 c 0.117197,-0.4965 0.494177,-0.60888 0.494177,-0.60888 1.26314,7.21858 2.448013,13.60769 3.710294,20.83407 0.1104,0.63199 0.359409,1.53122 1.005668,2.14984 1.424112,1.36326 5.813518,2.09628 7.881579,1.06555 1.299702,-0.64779 0.162941,-2.14915 0.468206,-3.27094 0,0 3.257505,-12.08954 4.631554,-17.21756 1.811661,-6.7612 3.933128,-13.9362 5.279396,-18.96052 0.290295,-1.0834 -0.540946,-2.16125 -2.447796,-2.61806 -1.347271,-0.32275 -3.308191,-0.40904 -4.340099,-0.40904 z m 192.998772,8.97742 c -0.56591,-0.003 -1.17802,0.068 -1.73574,0.25034 -7.80724,2.55287 -12.12285,10.33377 -13.32113,18.98216 -0.71516,5.16156 0.60773,10.73769 4.26796,13.66021 3.70369,2.95724 8.51456,2.13838 11.43098,0.27341 8.06393,-5.15662 10.83073,-16.14499 10.02278,-25.86457 -0.17867,-2.14928 -1.31653,-5.78645 -2.43192,-6.60032 -2.35862,-1.72103 -4.98896,2.80834 -6.00083,2.67865 -0.32017,-0.0411 0.29777,-2.39859 -0.25971,-2.95712 -0.21546,-0.21588 -1.02918,-0.41929 -1.97239,-0.42276 z m -74.64522,0.0447 c -0.71583,3e-5 -1.5023,0.1142 -2.06688,0.28929 -8.85329,2.74486 -12.61684,12.96455 -13.26775,19.95753 -0.53296,5.72588 0.9057,10.27054 4.72822,12.95249 3.60353,2.52832 8.13953,1.71369 11.06091,-0.14284 8.0776,-5.1333 10.68881,-16.25677 9.90662,-25.93238 -0.17297,-2.13957 -1.18379,-5.57589 -2.29702,-6.38607 -2.35405,-1.71324 -5.09415,2.58781 -6.12202,2.5892 -0.32261,7.4e-4 0.25375,-2.37375 -0.30083,-2.93116 -0.28027,-0.28168 -0.92541,-0.39609 -1.64125,-0.39606 z m -98.307288,33.415 c 2.013049,1.40431 5.06363,1.1 7.157991,0.45955 3.966784,-1.21306 6.745526,-4.80495 7.69978,-7.75316 0.478322,-1.47781 1.46425,-4.17731 0.494901,-5.14665 -1.264429,-1.26443 -3.938376,-1.30535 -6.039059,-0.19191 -1.966795,1.04247 -1.519951,4.45261 -3.871172,4.11719 -1.059185,-0.15111 -0.928948,-3.42482 -0.588684,-5.2022 0.482734,-2.5216 1.320372,-5.1777 2.390083,-7.48625 0.707507,-1.52688 1.995615,-3.47061 2.871997,-3.73337 0.721963,-0.21648 1.221256,0.44614 1.033805,1.36205 -0.198031,0.96761 -0.586849,2.10282 0.130586,2.52427 1.146617,0.67359 4.585424,1.03771 6.276404,-0.49201 2.017733,-1.82533 1.682751,-5.73945 1.227147,-7.58509 -0.671848,-2.72161 -3.524707,-4.07234 -6.42502,-4.12437 -0.193354,-0.003 -0.386882,-7.4e-4 -0.580026,0.007 -8.026346,0.33484 -12.934492,8.49995 -14.700502,15.0909 -1.751291,6.53601 -2.490408,14.3785 2.921769,18.15407 z M 249.46946,150.5601 c -0.82812,0.0149 -1.55091,0.25299 -1.83748,0.9862 -3.73352,9.55253 -6.02291,19.53616 -8.73358,29.72491 -0.47988,1.80375 2.2078,3.0009 6.10182,3.01989 1.08387,0.006 1.79323,-0.58957 2.13974,-1.54385 0.32968,-0.90794 4.21025,-16.07048 4.21025,-16.07048 1.45261,5.18544 1.54038,10.65118 3.21323,15.85551 0.16055,0.49949 1.97231,1.24689 3.97866,1.59506 1.53256,0.26597 3.52218,0.39681 4.20087,-0.35422 0.68441,-0.75737 -0.0159,-1.77402 0.20704,-2.48892 2.80791,-9.0058 5.71397,-17.98664 7.53386,-27.66309 0.10889,-0.57895 -0.0318,-1.09479 -0.46676,-1.3101 -1.90056,-0.94078 -6.17696,-2.51147 -6.69917,-1.27765 -1.6609,3.92423 -2.59188,8.31147 -3.61506,12.69061 -0.0872,0.37303 -0.37866,0.60271 -0.41915,0.39678 -0.56904,-2.90774 -1.27753,-5.76418 -1.95362,-8.66649 -0.69537,-2.98515 -3.8062,-4.26703 -6.32835,-4.73832 -0.5007,-0.0935 -1.03544,-0.16476 -1.5323,-0.15584 z m -71.43273,0.0376 c -2.19915,-0.008 -4.36443,0.28292 -6.16171,0.73802 -1.26903,0.32135 -1.94336,0.82443 -2.73852,1.85047 -0.56847,0.73351 -1.32486,4.04569 -1.7372,6.11191 -0.11001,0.5511 -0.0285,0.79918 0.22365,0.9191 0.83416,0.39678 1.61974,-0.02 2.26382,-0.36071 0.45679,-0.2417 0.67101,0.19589 0.58725,0.54034 -1.45972,6.00367 -3.61157,11.40447 -4.53345,17.64465 -0.23583,1.59628 3.25245,5.26357 4.41441,5.93444 3.07528,1.77551 10.2261,-0.12941 15.2322,-4.5255 5.00609,-4.39613 8.48978,-13.20151 6.19415,-20.3168 -1.38926,-4.30608 -4.7123,-6.81528 -8.70833,-7.90539 -1.59442,-0.43498 -3.32582,-0.62364 -5.03627,-0.63053 z m -127.591412,0.0585 c -1.504168,-0.0384 -2.807088,0.23783 -3.138206,0.9595 -2.543165,5.54289 -6.953544,22.94369 -7.755328,25.93598 -0.722555,2.69662 -1.073397,4.09057 -0.214265,4.94971 1.068503,1.06848 3.976598,2.06487 6.274243,1.7942 0.739919,-0.0871 1.528568,-0.26711 1.986086,-0.79502 0.361362,-0.41697 7.0927,-25.55131 7.434298,-26.81325 0.319053,-1.17868 0.642168,-2.37594 0.833247,-3.62804 0.103433,-0.67775 -0.553303,-1.22982 -1.073486,-1.47532 -1.13707,-0.53667 -2.842422,-0.8894 -4.346589,-0.92776 z m 79.711082,0.006 c -0.915,0.003 -1.52763,0.1729 -1.63258,0.48912 -2.85104,8.59028 -5.78306,16.73961 -7.43574,26.07884 -0.14266,0.80618 1.58609,5.28 4.38988,6.8052 0.51692,0.28187 9.12868,0.25234 9.84025,0.22149 0.60508,-0.0261 1.73957,-0.21691 2.18808,-0.71999 0.68245,-0.76547 1.10727,-2.10276 1.4746,-3.40297 0.45279,-1.60275 1.14421,-4.07294 0.30876,-4.22105 -2.82954,-0.50163 -5.50698,0.0378 -8.48036,-0.27848 -0.18231,-0.0194 -0.42887,-0.11881 -0.36215,-0.46532 1.50204,-7.80147 4.29448,-14.73671 5.96114,-22.36853 0.13838,-0.63366 -1.1688,-1.1145 -1.65856,-1.28053 -1.74047,-0.59 -3.41688,-0.86174 -4.59332,-0.85778 z m 66.90505,1.86127 c -0.17915,0.35896 -0.4426,1.61871 -0.69545,2.79121 -0.24414,1.13213 -0.41252,2.01556 -0.52881,2.51127 -0.28465,1.21404 0.71663,1.39253 1.70907,1.52653 0.53304,0.072 0.31246,0.83899 0.18179,1.47317 -0.1899,0.92229 -0.45165,1.87479 -0.72647,2.85756 -0.25514,0.91246 -1.35013,0.25224 -2.29054,1.39091 -1.00988,1.22281 -1.48205,4.12302 -1.70399,5.69783 -0.25954,1.84151 1.50877,1.65696 1.31659,2.78974 -0.37471,2.2086 -0.93526,4.66907 -1.06482,6.08669 -0.086,0.93984 1.90347,4.6403 4.09481,4.64309 l 10.9563,0.0126 c 0.64173,7.4e-4 1.61557,-0.48384 1.83458,-0.91908 0.94996,-1.88775 2.12538,-4.84822 1.1579,-6.46398 -0.28048,-0.46842 -2.88212,-0.165 -8.09441,-0.36649 -0.70627,-0.0274 -0.82199,-0.26627 -0.78346,-0.70844 0.0824,-0.94772 0.66301,-3.42009 1.2697,-3.46141 2.82858,-0.19437 7.32855,0.35947 8.313,-0.23229 0.83171,-0.49995 1.14271,-1.337 1.83242,-3.35103 0.5257,-1.53508 0.8746,-3.98306 0.21065,-4.27228 -0.31426,-0.13695 -1.42482,-0.37056 -3.219,-0.40616 -1.5628,-0.0311 -4.119,0.14422 -4.76429,-0.14212 -0.77185,-0.34239 0.27238,-2.19139 0.0112,-2.9088 -0.35181,-0.96765 -1.41307,-1.1067 -1.89084,-1.87859 3.47339,-0.16897 6.42803,-0.19544 10.00618,0.0426 1.35039,0.0898 2.1258,-0.88506 2.4009,-1.44285 0.74257,-1.50561 1.12863,-3.17856 1.23292,-5.59899 0.0588,-1.36314 -1.67802,-1.30918 -2.89653,-1.36782 -2.65494,-0.12788 -6.04761,-0.17473 -9.03297,-0.16017 -2.98535,0.0145 -5.5637,0.0908 -6.59149,0.21086 -1.19368,0.13961 -1.78505,0.72512 -2.2449,1.6465 z M 83.715321,150.66688 c -0.813723,-0.006 -1.600949,0.0895 -2.29197,0.28714 -0.781522,0.22358 -1.421593,2.64174 -1.825926,4.15685 l -7.11182,26.64876 c -0.265608,0.99528 1.461929,1.61599 2.558176,1.93632 1.560682,0.456 4.885555,1.20133 5.285165,0.28712 0.796695,-1.82266 1.637474,-5.1134 2.193136,-7.92343 0.09856,-0.49839 0.26028,-0.72225 0.476144,-0.76399 0,0 3.341234,6.56045 4.208075,8.20334 1.640284,3.10874 2.115874,4.43686 4.266517,3.78676 1.015997,-0.30712 2.198384,-0.8144 3.305572,-1.51066 1.772326,-1.11457 2.029599,-2.20998 1.742244,-2.94342 -1.751549,-4.47065 -4.456809,-8.23912 -6.599606,-12.61847 3.640712,-1.68832 6.448848,-4.18691 8.586415,-7.18179 2.014357,-2.82225 4.380527,-7.80217 4.394207,-9.52499 0.004,-0.54681 -1.12031,-1.40863 -2.962897,-1.98391 -1.836232,-0.57332 -3.742496,-0.87129 -4.069565,-0.28931 -2.44054,4.34274 -3.930099,9.5511 -9.327317,11.56446 -0.250052,0.0933 -0.379609,-0.0546 -0.286407,-0.38524 0.292912,-1.03919 0.763215,-2.85989 1.27476,-4.24847 1.131096,-3.07035 1.694234,-5.71453 1.203338,-6.06359 -1.309096,-0.93087 -3.228044,-1.42263 -5.018241,-1.43348 z m 18.922289,7.13848 c -0.19834,1.22866 0.87314,1.33236 1.86632,1.47966 0.26429,0.0392 0.48477,0.92675 0.29362,1.45655 -0.31361,0.86923 -0.61532,1.92943 -0.88374,2.92682 -0.24588,0.91369 -1.60571,0.37773 -2.23282,1.11389 -1.02853,1.20745 -1.64549,4.52501 -1.888689,6.0946 -0.209577,1.35261 1.537799,1.3071 1.353399,2.22849 -0.43913,2.19405 -0.96522,4.18572 -1.193964,6.36298 -0.09848,0.93736 2.031664,4.77887 4.228994,4.78305 l 11.43605,0.0187 c 0.42258,7.4e-4 1.19808,-0.45135 1.42338,-0.88302 0.97717,-1.87225 2.05468,-4.79563 1.10594,-6.42215 -0.31458,-0.5394 -5.59049,-0.28116 -7.79861,-0.39605 -0.70769,-0.0369 -1.24859,-0.0772 -1.16583,-0.51294 0.28026,-1.47569 0.80448,-3.5928 1.41328,-3.62589 2.83835,-0.15496 8.14027,0.22569 8.55178,-0.11685 0.77741,-0.64715 1.523,-2.08837 1.84685,-3.38998 0.32465,-1.3051 0.95756,-3.92071 0.31887,-4.3567 -0.2833,-0.19341 -1.44164,-0.23675 -3.23992,-0.2965 -1.56638,-0.0521 -4.15287,0.0422 -4.79604,-0.25249 -0.76907,-0.35238 0.25497,-2.20692 0.003,-2.92684 -0.34003,-0.971 -1.54104,-1.13818 -2.0099,-1.91538 3.4848,-0.12188 6.42099,-0.0779 10.00834,0.16881 0.5388,0.0371 1.79531,-0.0476 2.07843,-0.60095 0.76424,-1.49344 1.75554,-3.66005 1.82449,-6.07801 0.0421,-1.47494 -1.81668,-1.51981 -2.95568,-1.61167 -3.32006,-0.26766 -7.84077,-0.38368 -11.26871,-0.38163 -2.05678,10e-4 -3.72039,0.0454 -4.49451,0.1248 -1.19873,0.123 -1.86862,0.93013 -2.34173,1.844 -0.36231,0.69982 -1.216,3.51359 -1.48253,5.16469 z m 128.85823,0.36433 c 0.72754,2.75945 0.63411,6.6352 -0.22941,9.87199 -0.71186,2.66838 -1.75163,4.8543 -3.37484,6.71936 -1.69379,1.94619 -3.67033,0.81103 -3.74348,-2.85613 -0.0462,-2.31643 0.68762,-4.40393 1.44791,-6.48562 1.31489,-3.60016 4.41517,-6.12845 5.89982,-7.2496 z M 183.2007,168.6404 c -1.05678,2.98181 -3.78197,6.2613 -7.0137,6.63784 0.75573,-4.71824 2.79372,-10.74193 3.13026,-13.75182 0.20372,-1.82188 -1.8256,-2.64845 -3.25436,-3.18438 0.28283,-0.042 0.57013,-0.0673 0.85923,-0.0758 2.02365,-0.0593 4.13535,0.69764 5.41791,2.1903 1.99049,2.31655 1.80342,5.5238 0.86066,8.18386 z m -32.64887,6.87591 c -1.18778,-0.91275 -0.51962,-8.35904 0.0289,-9.91672 1.05934,-3.00845 3.16312,-5.32581 5.98423,-7.25033 1.31396,5.01154 -0.24728,12.26237 -3.55087,16.41894 -0.61268,0.77085 -1.63455,1.38411 -2.46226,0.74811 z"
       sodipodi:nodetypes="ccccccccccccccccccccccccccccccccccccccccccccccccccccccccccccccccccccccccccccccccccccccccccccccccccccccccccccccccccccccccccccccccccccccccccccccccccccccccccccccccccccccccccccccccccccccccccccccccccccccccccccccccccccc" />
  </g>
</svg>
