<svg id="Layer_1" data-name="Layer 1" xmlns="http://www.w3.org/2000/svg" viewBox="0 0 1608.38 1863.7"><defs><style>.cls-1{fill:#100074;}.cls-2{fill:#fff;}</style></defs><polygon class="cls-1" points="1608.38 931.59 0 1863.7 0 0 1608.38 931.59"/><path class="cls-2" d="M739.43,1065.73V1174c-39.74,5.48-68.54,5.48-68.54,5.48H612.45a78.37,78.37,0,0,1-78.4-78.36V620.73h83.24a53.57,53.57,0,0,1,53.6,53.56v69.3h66.79v54.13a51,51,0,0,1-51,51H670.89v217Z"/><path class="cls-2" d="M1247.43,741.81,1098.64,1180H943.56L790.82,741.81H949.46L1020.37,990l57.12-203.79a60.72,60.72,0,0,1,58.43-44.41Z"/><path class="cls-2" d="M458.43,899.22v280.3H373.35A53.49,53.49,0,0,1,320,1125.9V902.83a47.26,47.26,0,0,0-47.14-47.39H248.31a47.25,47.25,0,0,0-47.11,47.39v276.69H61.65V906.34c0-101.87,78.18-168.11,165.06-168.11h61.23C374.82,738.23,458.43,811.87,458.43,899.22Z"/></svg>