<?xml version="1.0" encoding="utf-8"?>
<!-- Generator: Adobe Illustrator 23.0.3, SVG Export Plug-In . SVG Version: 6.00 Build 0)  -->
<svg version="1.1" id="katman_1" xmlns="http://www.w3.org/2000/svg" xmlns:xlink="http://www.w3.org/1999/xlink" x="0px" y="0px"
	 viewBox="0 0 967 742" style="enable-background:new 0 0 967 742;" xml:space="preserve">
<style type="text/css">
	.st0{fill-rule:evenodd;clip-rule:evenodd;fill:#012698;}
	.st1{fill-rule:evenodd;clip-rule:evenodd;fill:#FFFFFF;}
	.st2{fill:#F6CA25;}
	.st3{fill:#FFFFFF;}
	.st4{fill:#012698;}
</style>
<path class="st0" d="M124.8,0h717.9C911.5,0,967,55.4,967,124.2v251.4c0,68.8-55.4,124.2-124.3,124.2H124.8
	c-68.9,0-124.3-55.4-124.3-124.2V124.3C0.5,55.4,55.9,0,124.8,0L124.8,0z"/>
<g>
	<path class="st1" d="M739.1,378.7c45.1,0,78.5-17.5,101.8-46.2l-40.4-35.4c-19.5,18-36.7,25.4-60.4,25.4
		c-31.6,0-53.9-16.6-60.9-48.5h173.3c0.5-6.5,0.9-12.9,0.9-18.5c0-70.1-38.1-134.3-121.3-134.3C659.6,121.2,609,179.3,609,250v0.9
		C609,326.6,664.3,378.7,739.1,378.7L739.1,378.7z M678.3,230.1c5.6-31.8,24.6-52.6,53.9-52.6c29.7,0,48.3,21.2,52.5,52.6H678.3z"/>
	<path class="st1" d="M383.5,373.2H454v-138c0-33.2,17.2-50.3,44-50.3c26.9,0,42.7,17.1,42.7,50.3v138h70.5V213.1
		c0-56.8-31.1-91.8-84.4-91.8c-35.7,0-56.6,18.9-72.8,39.7v-35.1h-70.5V373.2L383.5,373.2z"/>
	<path class="st1" d="M252.2,121.2c-77.7,0-135.5,57.7-135.5,128.8v0.9c0,71.1,57.3,127.8,134.5,127.8
		c77.7,0,135.5-57.7,135.5-128.8V249C386.7,177.9,329.5,121.2,252.2,121.2L252.2,121.2z M251.3,181.6c39.1,0,65.6,31.8,65.6,68.3
		v0.9c0,36.5-24.2,67.4-64.7,67.4c-13.1,0-24.7-3.6-34.5-9.7l-51.4,24.2l28.3-49.7c-5.1-9.9-8-21.3-8-33.2v-0.9
		C186.6,212.5,210.8,181.6,251.3,181.6L251.3,181.6z"/>
</g>
<path class="st2" d="M62,742c-18.8,0-36.3-8.4-48.1-23s-16.4-33.5-12.5-51.9l38.3-178.4c6.1-28.3,31.5-48.9,60.5-48.9h529.4
	c18.8,0,36.3,8.4,48.1,23s16.3,33.5,12.4,51.9l-38.3,178.4c-6.1,28.3-31.5,48.9-60.5,48.9H62z"/>
<path class="st3" d="M66.1,494.3L27.7,672.7c-4.7,21.8,11.9,42.4,34.2,42.4h529.4c16.5,0,30.8-11.5,34.2-27.6l38.3-178.4
	c4.7-21.8-11.9-42.4-34.2-42.4H100.3C83.8,466.7,69.6,478.2,66.1,494.3z"/>
<g>
	<path class="st4" d="M197.6,553.7c-7.1,0-13.4,2.9-18.9,8.8l1.6-7.2h-23.9l-19,88.6h23.9l6.4-29.6c5.1,7.2,12.1,10.9,21.2,10.9
		c8.9,0,16.6-3.5,23.2-10.5c8.1-8.5,11.8-19.6,11.1-32.9c-0.5-8.6-3.1-15.5-7.9-20.5C210.4,556.2,204.5,553.7,197.6,553.7z
		 M194.2,600.4c-2.9,3.1-6.4,4.7-10.6,4.7c-3.5,0-6.4-1.1-8.7-3.3s-3.5-5.1-3.7-8.9c-0.3-5.8,1.4-10.7,5.1-14.7
		c3-3.2,6.6-4.8,10.7-4.8c3.5,0,6.4,1.1,8.6,3.2c2.2,2.1,3.4,5,3.6,8.9C199.6,591.4,197.9,596.3,194.2,600.4z"/>
	<path class="st4" d="M132.8,593.4c-1-2.1-2.7-4-4.8-5.5c-2.2-1.6-4.2-2.9-6-3.8c-1.8-0.9-4.3-2.1-7.4-3.3c-3.8-1.6-6.4-2.8-7.7-3.6
		c-1.3-0.9-2-1.8-2-2.9c-0.1-2.6,1.7-3.9,5.7-3.9c6.4,0,12.9,2.4,19.6,7.2l10.7-14.3c-3.5-2.8-7.9-5.1-13.2-6.9
		c-5.3-1.8-10.9-2.7-16.8-2.7c-9.1,0-16.3,2.3-21.2,6.8c-5.1,4.6-7.5,10.4-7.1,17.4c0.3,5,2,8.9,5.4,11.7c3.3,2.9,8.3,5.6,14.8,8.2
		c3.5,1.3,6,2.5,7.3,3.3c1.4,0.9,2.1,1.9,2.2,3.1c0.1,2.8-1.8,4.2-5.8,4.2c-3.6,0-7.5-0.9-11.7-2.5s-8-3.9-11.5-6.8L72.2,613
		c9.1,8,20.5,12,34.3,12c9.4,0,16.5-2.3,21.4-7c4.9-4.7,7.1-10.6,6.8-17.6C134.6,598,133.9,595.5,132.8,593.4z"/>
	<path class="st4" d="M341.3,568.9l2.9-13.7h-23.9l-14.6,68.4h23.9L334,603c1.7-8.2,4.6-14.1,8.6-17.9c4-3.8,9.3-5.7,15.9-5.7h2
		l5.4-25.3c-0.5-0.1-1.2-0.1-1.8-0.1C355.2,553.9,347.6,559,341.3,568.9z"/>
	<path class="st4" d="M473.7,587.9c-2.2-1.6-4.2-2.9-6-3.8c-1.8-0.9-4.3-2.1-7.4-3.3c-3.8-1.6-6.4-2.8-7.7-3.6c-1.3-0.9-2-1.8-2-2.9
		c-0.1-2.6,1.7-3.9,5.7-3.9c6.4,0,12.9,2.4,19.6,7.2l10.7-14.3c-3.5-2.8-7.9-5.1-13.2-6.9c-5.3-1.8-10.9-2.7-16.8-2.7
		c-9.2,0-16.3,2.3-21.2,6.8c-5.1,4.6-7.5,10.4-7.1,17.4c0.3,5,2,8.9,5.4,11.7c3.3,2.9,8.3,5.6,14.8,8.2c3.5,1.3,6,2.5,7.3,3.3
		c1.4,0.9,2.1,1.9,2.2,3.1c0.1,2.8-1.8,4.2-5.8,4.2c-3.6,0-7.5-0.9-11.7-2.5s-8-3.9-11.5-6.8L417.9,613c9.1,8,20.5,12,34.3,12
		c9.4,0,16.5-2.3,21.4-7s7.1-10.6,6.8-17.6c-0.1-2.7-0.8-5.2-1.9-7.3C477.5,591.3,475.8,589.4,473.7,587.9z"/>
	<path class="st4" d="M397.9,600.1c0-0.7,0.1-2.1,0.4-4.2l4.7-21.6h15.8l4.1-19.2h-15.8l3.8-17.3H387l-3.8,17.3h-8.1l-4.1,19.2h8.2
		l-5.3,25.4c-0.7,3.6-1.1,6.6-0.9,9c0.3,5.1,2.2,9.2,5.8,12c3.6,2.9,8.8,4.3,15.7,4.3c4.8,0,9.5-0.9,13.9-2.6l4.2-19.9
		c-3.5,1.2-6.5,1.9-9,1.9C399.9,604.4,398,603,397.9,600.1z"/>
	<path class="st4" d="M268.8,553.7c-11,0-20.2,4-27.7,11.9c-7.4,7.8-10.9,17-10.4,27.8c0.5,9.3,3.9,16.9,10.3,22.9
		c6.3,6,14.6,9,24.9,9c11,0,20.2-4,27.7-11.9c7.4-8,10.8-17.3,10.3-28c-0.5-9.2-3.9-16.8-10.3-22.8S279,553.7,268.8,553.7z
		 M276,600.8c-2.8,3-6.1,4.4-9.9,4.4c-3.6,0-6.5-1.2-8.8-3.4c-2.2-2.3-3.5-5.4-3.7-9.3c-0.3-5.7,1.4-10.6,5.1-14.5
		c2.7-2.9,5.9-4.3,9.7-4.3c3.6,0,6.6,1,8.9,3.3s3.5,5.4,3.8,9.3C281.5,592.2,279.8,597,276,600.8z"/>
	<polygon class="st4" points="580.7,569.6 589,530.1 549.7,530.1 541.4,569.6 502,569.6 494,607.6 533.4,607.6 525.1,647.1 
		564.4,647.1 572.7,607.6 612,607.6 620,569.6 	"/>
</g>
</svg>
