<?xml version="1.0" encoding="UTF-8" standalone="no"?>
<!-- Created with Inkscape (http://www.inkscape.org/) -->

<svg
   width="877.46094"
   height="266.62109"
   viewBox="0 0 877.46094 266.62109"
   version="1.1"
   id="svg1"
   xml:space="preserve"
   inkscape:version="1.4.2 (f4327f4, 2025-05-13)"
   sodipodi:docname="RCTI_2015.svg"
   xmlns:inkscape="http://www.inkscape.org/namespaces/inkscape"
   xmlns:sodipodi="http://sodipodi.sourceforge.net/DTD/sodipodi-0.dtd"
   xmlns="http://www.w3.org/2000/svg"
   xmlns:svg="http://www.w3.org/2000/svg"><sodipodi:namedview
     id="namedview1"
     pagecolor="#ffffff"
     bordercolor="#000000"
     borderopacity="0.25"
     inkscape:showpageshadow="2"
     inkscape:pageopacity="0.0"
     inkscape:pagecheckerboard="0"
     inkscape:deskcolor="#d1d1d1"
     inkscape:document-units="px"
     inkscape:zoom="0.5"
     inkscape:cx="396"
     inkscape:cy="73"
     inkscape:window-width="1366"
     inkscape:window-height="705"
     inkscape:window-x="-8"
     inkscape:window-y="-8"
     inkscape:window-maximized="1"
     inkscape:current-layer="svg1"
     showguides="true"
     showgrid="false"><inkscape:grid
       id="grid10"
       units="px"
       originx="-107.93945"
       originy="-413.35937"
       spacingx="1"
       spacingy="0.99999997"
       empcolor="#0099e5"
       empopacity="0.30196078"
       color="#0099e5"
       opacity="0.14902"
       empspacing="5"
       enabled="true"
       visible="false" /></sodipodi:namedview><defs
     id="defs1"><inkscape:path-effect
       effect="spiro"
       id="path-effect30"
       is_visible="true"
       lpeversion="1" /><style
       type="text/css"
       id="style1">
   <![CDATA[
    .fil0 {fill:#0D5BA5}
    .fil1 {fill:#F32421}
   ]]>
  </style><pattern
       y="0"
       x="0"
       height="6"
       width="6"
       patternUnits="userSpaceOnUse"
       id="EMFhbasepattern" /><pattern
       y="0"
       x="0"
       height="6"
       width="6"
       patternUnits="userSpaceOnUse"
       id="EMFhbasepattern-2" /><clipPath
       id="clipEmfPath1"
       clipPathUnits="userSpaceOnUse"><path
         inkscape:connector-curvature="0"
         id="path4360"
         d="m 1117.6,0.0961475 c 37.52,0 75.01,0 112.5,0 0,124.5808525 0,249.1608525 0,373.7418525 -37.49,0 -74.98,0 -112.5,0 0,-124.581 0,-249.161 0,-373.7418525 z" /></clipPath><clipPath
       id="clipEmfPath2"
       clipPathUnits="userSpaceOnUse"><path
         inkscape:connector-curvature="0"
         id="path4363"
         d="m 750.115,0.0961475 c 115.832,0 231.664,0 347.495,0 0,35.0072525 0,70.0145525 0,104.9868525 -39.15,0 -78.34,0 -117.496,0 0,89.608 0,179.181 0,268.755 -37.489,0 -75.013,0 -112.502,0 0,-89.574 0,-179.147 0,-268.755 -39.189,0 -78.343,0 -117.497,0 0,-34.9723 0,-69.9796 0,-104.9868525 z" /></clipPath><clipPath
       id="clipEmfPath3"
       clipPathUnits="userSpaceOnUse"><path
         inkscape:connector-curvature="0"
         id="path4366"
         d="m 108.735,0.0961475 c 0.921,1.2047025 1.807,2.4094025 3.295,4.7125125 1.524,2.26768 3.615,5.59834 5.918,9.95654 2.303,4.3582 4.783,9.7085 7.086,16.795 2.304,7.0865 4.43,15.8383 5.457,22.7476 1.028,6.9093 0.957,11.9407 0.886,16.9722 8.185,-3.1181 16.406,-6.2362 25.618,-8.7873 9.248,-2.5511 19.489,-4.5353 29.197,-5.8818 9.674,-1.3818 18.78,-2.0905 26.753,-2.4803 7.937,-0.3543 14.705,-0.3188 24.094,0.2835 9.39,0.6378 21.402,1.8779 31.04,3.685 9.638,1.807 16.937,4.2164 22.996,6.8384 6.06,2.6575 10.878,5.5275 14.386,8.5038 3.544,2.9764 5.811,6.059 8.079,9.1416 h -61.619 c 1.347,2.2677 2.658,4.5354 4.678,6.9802 1.984,2.4803 4.641,5.1377 8.114,7.2637 3.472,2.1613 7.76,3.7912 11.587,4.9962 3.791,1.24 7.086,2.019 10.842,2.48 3.721,0.461 7.902,0.638 12.048,0.78 h 62.15 c 6.378,2.409 12.756,4.783 18.354,8.61 5.599,3.862 10.453,9.177 14.138,14.81 3.65,5.634 6.166,11.622 7.3,17.256 1.133,5.598 0.921,10.878 0.708,16.157 -3.756,-3.401 -7.476,-6.803 -12.685,-9.283 -5.209,-2.48 -11.87,-4.039 -19.63,-4.784 -7.76,-0.779 -16.583,-0.744 -25.548,-0.141 -8.929,0.602 -17.929,1.771 -28.346,3.862 -10.418,2.055 -22.182,5.031 -36.745,9.708 -14.598,4.713 -31.996,11.091 -46.488,17.787 -14.493,6.697 -26.15,13.642 -34.264,18.673 -8.115,5.067 -12.756,8.185 -16.973,11.091 -4.217,2.941 -8.008,5.704 -11.764,8.468 -3.72,2.799 -7.406,5.598 -11.091,8.398 0.107,0.389 0.248,0.744 0.355,1.098 2.126,6.165 4.252,12.331 7.76,20.374 3.543,8.007 8.504,17.893 17.787,31.322 9.284,13.393 22.89,30.366 37.949,44.857 15.095,14.492 31.642,26.504 43.654,34.512 11.977,8.007 19.418,11.976 26.859,15.98 50.918,0 101.836,0 152.789,0 -7.76,-3.65 -15.52,-7.335 -26.646,-13.004 -11.091,-5.669 -25.512,-13.323 -40.607,-22.889 -15.059,-9.567 -30.756,-20.976 -44.044,-32.669 -13.287,-11.693 -24.13,-23.669 -31.358,-32.811 -7.264,-9.177 -10.878,-15.519 -14.528,-21.897 8.54,-0.142 17.044,-0.319 24.556,-1.027 7.476,-0.744 13.96,-2.091 21.082,-4.359 7.087,-2.267 14.847,-5.456 21.083,-8.61 6.237,-3.153 10.949,-6.271 14.351,-8.681 3.401,-2.409 5.527,-4.11 7.653,-5.846 2.126,7.831 4.288,15.661 7.123,23.421 2.87,7.76 6.484,15.484 10.523,23.066 4.004,7.583 8.504,14.988 12.012,20.41 3.544,5.385 6.095,8.787 11.233,14.633 5.102,5.811 12.72,14.102 20.764,21.012 8.043,6.944 16.476,12.543 25.441,17.716 8.929,5.173 18.425,9.956 27.992,13.748 9.603,3.755 19.311,6.555 28.311,8.751 8.965,2.197 17.257,3.827 24.485,5.032 7.264,1.205 13.465,1.984 19.453,2.586 5.953,0.567 11.693,0.993 16.583,1.205 4.854,0.213 8.858,0.213 12.897,0.213 45.426,0 90.852,0 136.277,0 0,-33.342 0,-66.649 0,-99.991 -37.028,0 -74.091,0 -111.154,-0.035 -6.095,-0.036 -12.189,-0.106 -18.319,-0.496 -6.166,-0.425 -12.402,-1.134 -19.489,-2.658 -7.086,-1.488 -15.023,-3.791 -22.181,-6.484 -7.193,-2.657 -13.606,-5.704 -19.453,-9.07 -5.846,-3.402 -11.126,-7.158 -16.193,-11.729 -5.032,-4.606 -9.85,-10.027 -13.536,-16.263 -3.72,-6.236 -6.307,-13.252 -7.866,-19.169 -1.559,-5.953 -2.055,-10.772 -2.303,-14.917 -0.213,-4.146 -0.177,-7.583 0.177,-11.693 0.319,-4.145 0.957,-8.893 2.197,-13.783 1.24,-4.89 3.083,-9.921 5.457,-14.917 2.409,-4.996 5.315,-9.957 8.858,-14.598 3.508,-4.642 7.654,-8.894 12.827,-13.075 5.209,-4.145 11.516,-8.185 17.54,-11.09 6.023,-2.87 11.799,-4.606 16.512,-5.776 4.712,-1.134 8.362,-1.7 12.012,-2.09 3.685,-0.425 7.334,-0.673 9.815,-0.78 2.196,-0.106 3.472,-0.141 20.693,-0.141 h 0.886 0.956 0.992 0.39 0.638 1.027 1.063 1.134 1.134 1.17 0.566 0.638 1.24 1.276 1.276 1.346 0.957 0.39 1.381 1.418 1.453 1.488 0.602 0.886 1.524 1.559 1.559 1.205 0.425 1.63 1.63 1.665 1.382 0.319 1.736 1.736 1.772 1.169 0.603 1.807 1.807 1.842 0.674 1.204 1.878 1.878 1.772 0.142 1.948 1.949 1.949 0.744 1.24 1.985 2.019 1.489 0.531 2.02 2.055 2.055 0.071 1.984 2.091 2.09 0.567 1.524 2.126 2.091 0.992 1.134 2.126 2.161 1.311 0.85 2.126 2.162 1.594 0.567 2.197 2.162 1.807 0.354 2.197 2.161 2.02 0.177 2.197 2.197 2.161 v -0.319 -0.355 -0.354 -0.354 -0.248 -0.107 -0.354 -0.354 -0.355 -0.354 -0.106 -0.248 -0.355 -0.354 -0.354 -0.319 -0.3545 -0.3543 -0.3543 -0.3544 -0.248 -0.1063 -0.3543 -0.3543 -0.3544 -0.3543 -0.1063 -0.248 -0.3543 -0.3544 -0.3188 -0.3544 -0.3543 -0.3543 -0.3543 -0.3544 -0.248 -0.1063 -0.3543 -0.3543 -0.3544 -0.3543 -0.1063 -0.248 -0.3543 -0.3189 -0.3544 -0.3543 -0.3543 -0.3543 -0.3544 -0.3543 -0.248 -0.1063 -0.3543 -0.3544 -0.3543 -0.3543 -0.1063 -0.248 -0.3189 -0.3543 -0.3544 -0.3543 0 -0.3543 -0.3543 -0.3544 -0.3543 -0.2126 -0.1417 -0.3543 -0.3544 -0.3543 -82.4867525 c -55.914,0 -111.827,0 -167.777,0 -3.508,0 -7.016,0 -13.181,0.4606215 -6.165,0.460621 -14.988,1.346431 -23.67,3.118061 -8.681,1.77162 -17.256,4.39362 -24.874,7.08647 -7.583,2.6575 -14.209,5.4212 -21.579,9.1416 -7.334,3.7204 -15.449,8.4329 -23.74,14.6336 -8.292,6.1652 -16.725,13.8541 -22.855,20.1611 -6.13,6.3424 -9.886,11.3384 -12.614,15.1651 -2.693,3.8267 -4.323,6.4487 -5.953,9.1061 -1.771,-3.8621 -3.508,-7.6888 -5.953,-12.3305 -2.445,-4.6771 -5.563,-10.1337 -10.63,-16.9367 C 392.202,42.8986 385.151,34.7491 375.62,27.2374 366.052,19.7257 353.934,12.8164 339.159,8.52907 324.347,4.24175 306.843,2.57642 289.729,1.61974 272.615,0.627634 255.89,0.379607 239.165,0.0961475 c -43.476,0 -86.953,0 -130.43,0 z" /></clipPath><pattern
       y="0"
       x="0"
       height="6"
       width="6"
       patternUnits="userSpaceOnUse"
       id="EMFhbasepattern-9" /><pattern
       y="0"
       x="0"
       height="6"
       width="6"
       patternUnits="userSpaceOnUse"
       id="EMFhbasepattern-7" /></defs><path
     id="path7"
     style="display:inline;opacity:1;fill:#0c4da1;fill-opacity:1;fill-rule:evenodd;stroke-width:2.92487"
     d="M 0,0 V 266.62109 H 157.40625 C 117.64228,240.50729 89.191743,206.60097 74.882812,159.70898 62.016023,117.54306 64.720272,77.328811 59.414062,42.400391 55.244842,14.956271 46.305334,0 25.052734,0 Z m 77.923828,0 c 9.34606,12.56673 14.977003,25.703833 15.908203,51.033203 19.469089,-9.25582 39.670449,-12.714844 66.580079,-12.714844 28.41359,0 56.27042,5.77637 63.24414,20.53125 l 28.71484,16.050782 c 21.43328,0 37.29194,21.369904 33.7168,40.802729 -7.42285,-7.76715 -15.12816,-10.79101 -30.66992,-10.79101 -45.09587,0 -105.0842,24.84061 -143.36914,57.02344 17.71559,43.93586 48.88292,79.3017 95.39453,104.68554 h 110.26562 c -36.14079,-17.00045 -86.71818,-43.5349 -112.1289,-87.9375 21.0759,2.27022 44.73648,-5.67537 63.30078,-20.80664 9.4369,51.13585 58.157,108.74419 150.66211,108.74414 h 101.22265 v -71.33203 h -82.09765 c -41.2911,0 -82.42969,-18.75999 -82.42969,-61.06836 0,-28.3908 21.36492,-59.320309 65.18164,-59.320309 h 99.3457 V 0 H 405.19922 C 353.11014,0 316.85528,24.443548 294.61719,55.923828 287.70997,38.696148 276.24589,24.173778 262.69727,15.460938 242.9052,2.7330475 223.3557,-9.9999726e-6 172.54492,0 Z M 534.54883,0 v 74.900391 h 84.32031 V 266.62109 H 699.125 V 74.900391 h 84.32031 V 0 Z m 262.65625,0 v 266.62109 h 80.25586 V 0 Z"
     sodipodi:nodetypes="cccssscccscccscccccsccsssccscssccccccccccccccc" /><path
     d="m 179.64648,58.849609 c 6.23054,12.53495 19.86994,16.050782 33.72071,16.050782 H 520.76562 V 58.849609 Z m 354.90235,0 V 74.900391 H 783.44531 V 58.849609 Z m 262.65625,0 v 16.050782 h 80.25586 V 58.849609 Z"
     style="display:inline;opacity:1;fill:#ef232e;fill-rule:evenodd;stroke-width:2.92487"
     id="path17" /></svg>
