<?xml version="1.0" encoding="utf-8"?>
<!-- Generator: Adobe Illustrator 23.1.0, SVG Export Plug-In . SVG Version: 6.00 Build 0)  -->
<svg version="1.1"
	 id="svg2" inkscape:version="0.91 r13725" sodipodi:docname="rtv 300px.svg" xmlns:cc="http://creativecommons.org/ns#" xmlns:dc="http://purl.org/dc/elements/1.1/" xmlns:inkscape="http://www.inkscape.org/namespaces/inkscape" xmlns:rdf="http://www.w3.org/1999/02/22-rdf-syntax-ns#" xmlns:sodipodi="http://sodipodi.sourceforge.net/DTD/sodipodi-0.dtd" xmlns:svg="http://www.w3.org/2000/svg"
	 xmlns="http://www.w3.org/2000/svg" xmlns:xlink="http://www.w3.org/1999/xlink" x="0px" y="0px" viewBox="0 0 700 214.4"
	 style="enable-background:new 0 0 700 214.4;" xml:space="preserve">
<style type="text/css">
	.st0{fill:#394B71;}
	.st1{fill-rule:evenodd;clip-rule:evenodd;fill:url(#path73_1_);}
	.st2{fill-rule:evenodd;clip-rule:evenodd;fill:url(#path71_1_);}
	.st3{fill-rule:evenodd;clip-rule:evenodd;fill:url(#path75_1_);}
	.st4{fill-rule:evenodd;clip-rule:evenodd;fill:url(#path77_1_);}
</style>
<g>
	<path class="st0" d="M184.3,198.4c1.7-1.5,2.6-3.6,2.6-6.2v-0.1c0-2.3-0.8-4.2-2.4-5.8c-2-2-4.9-3.1-8.7-3.1h-13V214h2.8v-12.5h9.4
		l9.6,12.5h3.6l-10-12.9C180.9,200.6,182.8,199.8,184.3,198.4z M184.1,192.3c0,2-0.8,3.7-2.4,4.8c-1.5,1.2-3.6,1.7-6.1,1.7l-9.9,0
		v-13h10c2.6,0,4.7,0.6,6.2,1.7C183.4,188.8,184.1,190.3,184.1,192.3L184.1,192.3z"/>
	<path class="st0" d="M209.5,183.1H207L192.7,214h3l3.8-8.4h17.4l3.8,8.4h3.1l-14.2-30.7L209.5,183.1z M215.7,202.9h-14.9l7.5-16.4
		L215.7,202.9z"/>
	<path class="st0" d="M243.7,204.1c0,2.5-0.6,4.4-1.8,5.8c-1.1,1.3-2.5,1.9-4.4,1.9c-2.9,0-5.3-1.6-7.1-4.6l-0.2-0.3l-2.1,1.3
		l-0.1,0.1v0.2l0,0.1c2.2,3.8,5.3,5.8,9.4,5.8c2.6,0,4.7-0.8,6.4-2.5c1.9-1.9,2.8-4.5,2.8-8v-20.6h-2.8V204.1z"/>
	<path class="st0" d="M268.8,183.1h-2.5L252,214h3l3.8-8.4h17.4l3.8,8.4h3.1l-14.2-30.7L268.8,183.1z M275,202.9H260l7.5-16.4
		L275,202.9z"/>
	<polygon class="st0" points="315.6,209.4 307,183.4 307,183.2 304.8,183.2 296.2,209.4 287,183.3 283.8,183.3 295,214.2 
		297.2,214.2 305.8,188.7 314.4,214.2 316.6,214.2 327.8,183.3 324.8,183.3 	"/>
	<path class="st0" d="M345.3,183.1h-2.5L328.5,214h3l3.8-8.4h17.4l3.7,8.3l0.1,0.2h3.1l-14.2-30.7L345.3,183.1z M351.5,202.9h-14.9
		l7.5-16.4L351.5,202.9z"/>
	<polygon class="st0" points="369.4,183.3 366.6,183.3 366.6,214 387.1,214 387.1,211.3 369.4,211.3 	"/>
	<rect x="394.9" y="183.3" class="st0" width="2.8" height="30.7"/>
	<polygon class="st0" points="417.2,185.9 427.7,185.9 427.7,214 430.5,214 430.5,185.9 441,185.9 441,183.3 417.2,183.3 	"/>
	<polygon class="st0" points="451.5,199.8 468.7,199.8 468.7,197.2 451.5,197.2 451.5,185.9 470.6,185.9 470.6,183.3 448.6,183.3 
		448.6,214 470.9,214 470.9,211.3 451.5,211.3 	"/>
	<polygon class="st0" points="481.7,183.3 478.8,183.3 478.8,214 499.4,214 499.4,211.3 481.7,211.3 	"/>
	<polygon class="st0" points="509.7,199.8 527,199.8 527,197.2 509.7,197.2 509.7,185.9 528.9,185.9 528.9,183.3 506.9,183.3 
		506.9,214 529.1,214 529.1,211.3 509.7,211.3 	"/>
	<polygon class="st0" points="549.1,210.5 537.6,183.5 537.5,183.3 534.4,183.3 547.8,214 547.9,214.2 550.3,214.2 563.6,183.7 
		563.8,183.3 560.7,183.3 	"/>
	<rect x="571.1" y="183.3" class="st0" width="2.8" height="30.7"/>
	<path class="st0" d="M602.3,200.4c-1.6-1.4-4.1-2.4-7.7-3.1c-3.3-0.7-5.7-1.6-6.9-2.6c-1.1-0.8-1.6-2.1-1.6-3.7v-0.1
		c0-1.5,0.6-2.7,1.9-3.8c1.3-1.1,3-1.6,5.2-1.6c3.4,0,6.2,1.1,8.8,3.3l0.2,0.2l1.8-2.2l-0.2-0.2c-3.1-2.5-6.6-3.7-10.5-3.7
		c-2.9,0-5.2,0.8-7.1,2.3c-1.9,1.5-2.9,3.5-2.9,5.9v0.1c0,2.4,0.8,4.3,2.5,5.6c1.7,1.4,4.3,2.4,7.9,3.2c3.3,0.6,5.5,1.5,6.7,2.5
		c1.1,0.8,1.6,2,1.6,3.6v0.1c0,1.6-0.7,2.9-2,4c-1.4,1.1-3.1,1.6-5.3,1.6c-3.9,0-7.4-1.5-10.6-4.4l-0.2-0.2l-1.7,1.9l-0.1,0.2
		l0.1,0.2l0.1,0.1c3.6,3.2,7.8,4.9,12.3,4.9c3,0,5.5-0.8,7.4-2.3c1.9-1.6,2.9-3.7,2.9-6.2v-0.1C604.7,203.6,603.9,201.7,602.3,200.4
		z"/>
	<rect x="613.2" y="183.3" class="st0" width="2.8" height="30.7"/>
</g>
<linearGradient id="path73_1_" gradientUnits="userSpaceOnUse" x1="-16894.5859" y1="1517.2572" x2="13791.7783" y2="1517.2572" gradientTransform="matrix(1.204916e-02 0 0 -1.204916e-02 203.5656 100.328)">
	<stop  offset="0" style="stop-color:#332C2B"/>
	<stop  offset="0.2784" style="stop-color:#744D90"/>
	<stop  offset="0.549" style="stop-color:#4395C7"/>
	<stop  offset="0.7608" style="stop-color:#36498E"/>
	<stop  offset="0.8784" style="stop-color:#2A3666"/>
	<stop  offset="1" style="stop-color:#2B3451"/>
</linearGradient>
<path id="path73" inkscape:connector-curvature="0" class="st1" d="M209.3,72.8c3.6-1.9,17.2-8.7,20.6-8.8L184,92.4
	c-26.6,18.1-28.2,18.9-36.6,23.9c-17.3,10.5-32.7,19.5-53.4,21c-6.9,0.5-13.2-0.3-20.6-1.5c1.2,8.3,14.1,16.8,24.8,19.3
	c12.4,3.5,28.4,1.4,39.7-2.4c9.6-2.8,23.4-9.5,30-12.9c6.6-3.4,19.2-12.4,26.9-16.9c7.6-4.6,26.1-15.5,37.8-21.7
	c11.7-6.2,5.3-2.9,13.2-6.7c10.5-5.1,18.5-7.9,36.3-11.5c18.3-2.6,34.3-1.2,44.4,2.8c9.1,3.7,23.7,14.1,25.3,22.2
	c-15-16.5-46.8-19.6-74.7-11.9c-13.3,3.7-25.8,8.1-37,12.5c13.9-2.8,25.3-4.7,41.6-6c78.4-5.1,62.5,19.5,71.3,23.1
	c6.1,0,9.2-4.8,12-9.4c3.3-5.5,4.8-11.2,3.4-18.6c-3.4-18-17.5-28.1-30-36.6c-9.2-6.4-5.5-3.7-10.9-13.7
	c-2.6-4.8-5.8-10.4-14.5-17.7c-16-13.5-38.2-20.1-52.3-21.5c-14.1-1.4-27.1-1.1-34.6-0.3c-4,0.4-15.4,1.7-27.2,5.1
	c-20,5.5-43,14.8-62.5,22.9c-38.2,15.9-67.8,28-109.6,19.8c7,11,29.7,16.9,38.8,18c9.1,1.1,18.2,1.1,23.7,0.3
	c18-1.8,42.2-12.2,59.1-19.4c6.6-2.8,11.8-5.6,25.3-11.2c13.5-5.6,27.9-9.4,44.1-11.8c11-1.2,21.5-1.5,30.3-1
	c8.8,0.4,11.4,1.2,17.3,2.1c10,1.5,36.9,10.1,39,17.1c-21.3,1.9-19.8-4-28.4-8.1c-2.5-1.2-4-1.9-8.7-3.1c-4.7-1.2-14.6-2.5-21.8-2.9
	c-5.5-0.3-9.6-0.4-16.8-0.1c-21.4,1.2-37.4,5.2-54.3,12.9c-26.9,13-23.5,11.8-36.6,17.6c-5,2.4-14,5.9-21.3,8.4
	c-11,3.7-23.1,6.7-34.5,8.4c-18.8,2.8-36.6,2.4-55.3-0.5C17.3,81.1,9.5,79,0,76.3C2,85,6.6,91.1,10,95.4s10.6,10.9,14.2,13.7
	s10.3,6.8,15.5,9.1c5.2,2.2,10,3.4,18.5,5.1s23.8,1.9,35.1,0.6c23.8-3.7,29.6-7,44.3-12.8c7.1-3.1,41.2-21.6,49-25.9
	c7.8-4.4,15.8-8.6,22.5-12.2L209.3,72.8z"/>
<g>
	
		<radialGradient id="path71_1_" cx="37691.9219" cy="426.0537" r="5168.8315" gradientTransform="matrix(1.158024e-02 0 0 -1.253707e-02 203.6622 100.5092)" gradientUnits="userSpaceOnUse">
		<stop  offset="0" style="stop-color:#223668"/>
		<stop  offset="1" style="stop-color:#1B3B6C"/>
	</radialGradient>
	<path id="path71" inkscape:connector-curvature="0" class="st2" d="M619,161.2l42.2,0L700,31.7c-34,0-33.9-2.1-42.7,27.3
		l-15.5,53.4L616,31.7l-35.7,0L619,161.2z"/>
	
		<radialGradient id="path75_1_" cx="35624.7813" cy="838.5967" r="5331.7988" gradientTransform="matrix(9.429425e-03 0 0 -1.539673e-02 204.1054 101.5713)" gradientUnits="userSpaceOnUse">
		<stop  offset="0" style="stop-color:#2B4C99"/>
		<stop  offset="1" style="stop-color:#243A6D"/>
	</radialGradient>
	<path id="path75" inkscape:connector-curvature="0" class="st3" d="M565,52.8V31.5l-40.2,0c0.2-35.9-1.9-30.7-36-31.4
		c0,39.4,0,78.7,0,118.1c-0.3,61.2,101.9,63.9,100.5-6.2l-35.4,0.2c0.2,9.4-2.7,16.5-10.5,18.9c-7.1,2.2-18.4-1.1-18.4-11.3
		l-0.1-53.3h23.2C557.1,66.4,564.9,59.8,565,52.8L565,52.8z"/>
	
		<radialGradient id="path77_1_" cx="22988.4629" cy="342.7016" r="4416.0298" gradientTransform="matrix(9.852244e-03 0 0 -1.473596e-02 204.0182 101.3259)" gradientUnits="userSpaceOnUse">
		<stop  offset="0" style="stop-color:#304BA2"/>
		<stop  offset="1" style="stop-color:#1A2E51"/>
	</radialGradient>
	<path id="path77" inkscape:connector-curvature="0" class="st4" d="M474,65.9l0-34.7c-10.2,0.1-5,0-23.1,0
		c-18.1,0-43.4,10.7-52.8,25.2c-9.4,14.5-10.9,24.9-11,39.2c0.1,10.3-0.2,48.8,0.1,65.8l35.5-0.1l-0.1-67.1
		c-0.2-12.7,8.9-21.8,20.7-25.9C451.6,65.5,460.5,65.9,474,65.9L474,65.9z"/>
</g>
</svg>
