<?xml version="1.0" encoding="UTF-8" standalone="no"?>
<!-- Created with Inkscape (http://www.inkscape.org/) -->

<svg
   width="264.58334mm"
   height="37.057217mm"
   viewBox="0 0 264.58334 37.057216"
   version="1.1"
   id="svg1"
   sodipodi:docname="SindoNews_(2023).svg"
   inkscape:version="1.3.2 (091e20e, 2023-11-25, custom)"
   xmlns:inkscape="http://www.inkscape.org/namespaces/inkscape"
   xmlns:sodipodi="http://sodipodi.sourceforge.net/DTD/sodipodi-0.dtd"
   xmlns:xlink="http://www.w3.org/1999/xlink"
   xmlns="http://www.w3.org/2000/svg"
   xmlns:svg="http://www.w3.org/2000/svg">
  <sodipodi:namedview
     id="namedview1"
     pagecolor="#ffffff"
     bordercolor="#999999"
     borderopacity="1"
     inkscape:showpageshadow="2"
     inkscape:pageopacity="0"
     inkscape:pagecheckerboard="0"
     inkscape:deskcolor="#d1d1d1"
     inkscape:document-units="mm"
     inkscape:zoom="1"
     inkscape:cx="484"
     inkscape:cy="120"
     inkscape:window-width="1920"
     inkscape:window-height="1094"
     inkscape:window-x="-11"
     inkscape:window-y="-11"
     inkscape:window-maximized="1"
     inkscape:current-layer="layer1" />
  <defs
     id="defs1">
    <linearGradient
       inkscape:collect="always"
       xlink:href="#linearGradient6"
       id="linearGradient7"
       x1="771.66516"
       y1="457.6929"
       x2="843.54559"
       y2="510.94937"
       gradientUnits="userSpaceOnUse"
       gradientTransform="translate(-20)" />
    <linearGradient
       id="linearGradient6"
       inkscape:collect="always">
      <stop
         style="stop-color:#285ee0;stop-opacity:1;"
         offset="0"
         id="stop6" />
      <stop
         style="stop-color:#e2100e;stop-opacity:1;"
         offset="1"
         id="stop7" />
    </linearGradient>
  </defs>
  <g
     inkscape:label="Layer 1"
     inkscape:groupmode="layer"
     id="layer1"
     transform="translate(-16.61561,-129.72405)">
    <path
       style="fill:#022260;fill-opacity:1;stroke:none;stroke-width:11.2129;stroke-linecap:round;stroke-linejoin:round"
       d="m 16.61561,160.22162 3.727149,-7.5469 c 0,0 4.724494,2.80835 7.375981,3.13608 1.750745,0.2164 4.780589,0.88384 5.227891,-0.82258 0.568213,-2.16763 -4.667872,-2.96301 -7.275178,-3.78382 -10.649402,-3.35243 -7.591862,-11.7902 -7.384855,-12.42996 1.214162,-3.75233 5.450057,-6.71487 9.359023,-7.23861 5.410155,-0.72487 14.079863,3.34659 14.079863,3.34659 l -3.860425,7.29526 c 0,0 -4.27529,-2.47919 -6.660416,-2.69133 -1.404464,-0.12493 -3.648247,-0.45374 -4.140067,0.8677 -0.427937,1.14981 0.361851,1.87804 1.494155,2.28895 6.373408,2.31293 12.064808,2.92571 13.520024,8.74757 1.385538,5.54308 -1.533583,13.09846 -12.356732,12.68285 -8.733633,-0.3354 -13.106413,-3.8518 -13.106413,-3.8518 z"
       id="path9"
       sodipodi:nodetypes="ccassssccassssc" />
    <path
       style="display:inline;fill:#022260;fill-opacity:1;stroke:none;stroke-width:11.2129;stroke-linecap:round;stroke-linejoin:round"
       d="m 43.841128,132.05706 h 8.700782 v 31.72812 h -8.700782 z"
       id="path11"
       sodipodi:nodetypes="ccccc" />
    <path
       style="fill:#022260;fill-opacity:1;stroke:none;stroke-width:11.2129;stroke-linecap:round;stroke-linejoin:round"
       d="m 63.246938,163.78518 h -8.645035 v -31.72812 h 6.732564 l 12.663018,16.07185 v -16.07185 h 8.687263 v 31.72812 H 75.806203 L 63.246938,148.20449 Z"
       id="path19" />
    <path
       id="path20"
       style="fill:#022260;fill-opacity:1;stroke:none;stroke-width:11.2129;stroke-linecap:round;stroke-linejoin:round"
       d="m 84.629437,132.05693 v 31.72838 h 13.288516 a 14.800123,14.800123 0 0 0 14.800057,-14.80007 v -2.23949 A 14.688803,14.688803 0 0 0 98.029207,132.05693 Z m 8.675487,7.55816 h 3.231138 a 7.379106,7.379106 0 0 1 7.379008,7.37944 v 1.80283 a 7.379106,7.379106 0 0 1 -7.379008,7.37901 h -3.231138 z" />
    <g
       id="g8"
       transform="matrix(0.22425661,0,0,0.22425661,-34.284819,27.270423)">
      <ellipse
         style="display:inline;opacity:1;fill:#022260;fill-opacity:1;stroke:none;stroke-width:57.1407;stroke-linecap:round;stroke-linejoin:round"
         id="ellipse6"
         cx="750.18231"
         cy="539.48126"
         rx="82.815041"
         ry="82.622353" />
      <path
         style="opacity:1;fill:#e5e5e5;fill-opacity:1;stroke:none;stroke-width:50;stroke-linecap:round;stroke-linejoin:round"
         d="m 724.38464,603.55924 -15.15857,-30.21179 c 0,0 7.9923,-14.65986 36.35384,-33.34745 9.9314,-6.54386 20.90931,-12.65145 33.59607,-15.92438 7.22641,-1.86427 16.56676,1.1757 16.56676,1.1757 l -31.17079,-11.3253 -66.83892,44.74947 7.58051,33.0119 z"
         id="path8"
         sodipodi:nodetypes="ccssccccc" />
      <path
         style="opacity:1;fill:#e5e5e5;fill-opacity:1;stroke:none;stroke-width:50;stroke-linecap:round;stroke-linejoin:round"
         d="m 743.87608,502.41355 v 2.06561 l -2.3487,-2.00077 1.5566,-3.66006 25.38868,-2.13281 c 0,0 -3.89462,0.9239 -5.6698,1.80959 -4.36711,2.17889 -11.4433,4.36095 -13.05438,4.47524 -2.73586,0.19409 -5.8724,-0.5568 -5.8724,-0.5568 z"
         id="path7"
         sodipodi:nodetypes="cccccssc" />
      <path
         id="path1"
         style="display:inline;opacity:1;fill:#ffffff;fill-opacity:1;stroke:none;stroke-width:50;stroke-linecap:round;stroke-linejoin:round"
         d="m 699.07812,474.8125 c 0,0 0.0191,-0.2408 -0.23874,-0.15877 -19.51519,14.92881 -31.40287,39.6405 -31.47219,64.82671 -3.9e-4,45.63111 37.07692,82.62272 82.81445,82.62305 14.77758,-0.0584 29.27032,-4.06077 41.97461,-11.5918 -5.29959,1.54724 -27.23766,7.00445 -54.4668,0.43359 -10.10034,-2.43739 -34.28906,-22.08679 -34.28906,-39.1875 0,-8.66686 29.81338,-36.33393 71.88672,-48.5625 11.15678,-3.24269 23.33008,3.375 23.33008,3.375 0,0 2.84683,-8.6162 0.92187,-12.21875 -5.20144,-9.73447 -12.91378,-10.7254 -17.34961,-11.0664 -11.15649,-0.85763 -18.81031,2.79601 -27.83789,3.45898 -3.49843,0.25693 -7.88269,0.45011 -10.3164,-2.07617 -1.37069,-1.42281 -0.95118,-5.84961 -0.95118,-5.84961 0,0 5.52623,1.49232 7.81055,1.25781 1.65847,-0.17026 7.09053,-1.05332 11.39453,-2.45703 1.89598,-0.61836 6.1836,-0.93359 6.1836,-0.93359 0,0 -1.40725,-4.58989 -13.30078,-8.75977 -9.25978,-3.24649 -13.93137,-2.10024 -23.00977,-1.93164 -22.94146,0.42606 -35.5625,16.88867 -35.5625,16.88867 0,0 3.6192,-8.46791 4.94727,-14.34179 1.61869,-7.15934 -2.46876,-13.72852 -2.46876,-13.72852 z"
         sodipodi:nodetypes="cccccssscsssscsscsscscc" />
      <path
         style="opacity:1;fill:#e5e5e5;fill-opacity:1;stroke:none;stroke-width:50;stroke-linecap:round;stroke-linejoin:round"
         d="m 696.59942,502.88184 6.05188,-5.87896 c 0,0 1.50575,-7.55354 1.26801,-11.35446 -0.24195,-3.86818 -4.8415,-10.83574 -4.8415,-10.83574 0,0 3.73322,9.25397 2.46904,13.72835 -1.33272,4.71696 -4.94743,14.34081 -4.94743,14.34081 z"
         id="path2"
         sodipodi:nodetypes="ccscsc" />
      <path
         id="ellipse4"
         style="display:inline;opacity:1;fill:url(#linearGradient7);fill-opacity:1;stroke:none;stroke-width:57.1407;stroke-linecap:round;stroke-linejoin:round"
         d="m 750.18164,456.85938 a 82.815041,82.622353 0 0 0 -24.56836,3.80664 83.218506,83.024879 0 0 1 8.57813,-0.61133 83.218506,83.024879 0 0 1 83.21679,83.02343 83.218506,83.024879 0 0 1 -55.88281,78.21485 82.815041,82.622353 0 0 0 71.47266,-81.8125 82.815041,82.622353 0 0 0 -82.81641,-82.62109 z" />
    </g>
    <path
       style="fill:#e2100e;fill-opacity:1;stroke:none;stroke-width:11.2129;stroke-linecap:round;stroke-linejoin:round"
       d="m 164.27271,163.78518 h -8.64503 v -31.72812 h 6.73256 l 12.66303,16.07185 v -16.07185 h 8.68725 v 31.72812 h -6.87855 l -12.55926,-15.58069 z"
       id="path22" />
    <path
       style="fill:#e2100e;fill-opacity:1;stroke:none;stroke-width:11.2129;stroke-linecap:round;stroke-linejoin:round"
       d="m 185.67975,163.78518 h 22.50188 v -7.66361 h -13.80388 v -4.94687 l 11.43741,0.0346 v -7.04167 h -11.43741 v -4.43405 h 13.41824 v -7.67655 h -22.11624 z"
       id="path30" />
    <path
       style="fill:#e2100e;fill-opacity:1;stroke:none;stroke-width:11.2129;stroke-linecap:round;stroke-linejoin:round"
       d="m 209.60825,132.05706 11.83018,31.72812 7.42558,0.009 4.56687,-11.46133 4.56321,11.45214 h 7.52379 l 11.83018,-31.72811 h -9.51102 l -6.7211,21.56698 -2.22468,-6.36935 5.35703,-15.19763 h -7.95351 l -2.91041,9.77318 -2.85017,-9.77318 h -7.90812 l 5.18918,15.13509 -2.14458,6.45369 -6.79311,-21.58878 z"
       id="path42" />
    <path
       style="fill:#e2100e;fill-opacity:1;stroke:none;stroke-width:11.2129;stroke-linecap:round;stroke-linejoin:round"
       d="m 255.415,160.22162 3.72713,-7.5469 c 0,0 4.72451,2.80835 7.37599,3.13608 1.75075,0.2164 4.7806,0.88384 5.2279,-0.82258 0.56822,-2.16763 -4.6679,-2.96301 -7.27518,-3.78382 -10.6494,-3.35243 -7.59188,-11.7902 -7.38487,-12.42996 1.21417,-3.75233 5.45006,-6.71487 9.35904,-7.23861 5.41016,-0.72487 14.07985,3.34659 14.07985,3.34659 l -3.8604,7.29526 c 0,0 -4.2753,-2.47919 -6.66043,-2.69133 -1.40447,-0.12493 -3.64825,-0.45374 -4.14006,0.8677 -0.42794,1.14981 0.36183,1.87804 1.49416,2.28895 6.37341,2.31293 12.06478,2.92571 13.52001,8.74757 1.38552,5.54308 -1.5336,13.09846 -12.35674,12.68285 -8.73362,-0.3354 -13.1064,-3.8518 -13.1064,-3.8518 z"
       id="path43"
       sodipodi:nodetypes="ccassssccassssc" />
  </g>
</svg>
