<?xml version="1.0" encoding="UTF-8" standalone="no"?><svg xml:space="preserve" id="svg29" version="1.1" viewBox="0 0 2343.0726 999.99835" xmlns:xlink="http://www.w3.org/1999/xlink" xmlns="http://www.w3.org/2000/svg" xmlns:svg="http://www.w3.org/2000/svg"><defs id="defs10"><linearGradient id="b" x1="-1151.9" x2="-1151.9" y1="-775.02002" y2="-779.87" gradientTransform="matrix(149.70994 0 0 -91.176232 172816.56 -70634.124)" gradientUnits="userSpaceOnUse"><stop id="stop1" offset="0" stop-color="#002A91"/><stop id="stop2" offset=".8" stop-color="#002672"/></linearGradient><linearGradient id="c" x1="-1151.8" x2="-1152" y1="-784.91998" y2="-782.97998" gradientTransform="matrix(149.70994 0 0 -57.777553 172816.56 -45104.019)" gradientUnits="userSpaceOnUse"><stop id="stop3" offset="0" stop-color="#fff"/><stop id="stop4" offset="1" stop-color="#fff" stop-opacity=".25"/></linearGradient><linearGradient id="d" x1="-1152.6" x2="-1152.6" y1="-773.58002" y2="-778.42999" gradientTransform="matrix(317.37 0 0 -103 366970 -80578)" gradientUnits="userSpaceOnUse"><stop id="stop5" offset=".4" stop-color="#f00"/><stop id="stop6" offset="1" stop-color="#D42321"/></linearGradient><linearGradient id="e" x1="-1152.3" x2="-1152.8" y1="-785.34003" y2="-782.73999" gradientTransform="matrix(317.43347 0 0 -56.489296 367443.48 -44125.823)" gradientUnits="userSpaceOnUse"><stop id="stop7" offset="0" stop-color="#fff"/><stop id="stop8" offset="1" stop-color="#fff" stop-opacity=".25"/></linearGradient><linearGradient xlink:href="#d" id="linearGradient5" gradientUnits="userSpaceOnUse" gradientTransform="matrix(317.43347 0 0 -103.0206 367443.48 -79693.936)" x1="-1152.6" y1="-773.58002" x2="-1152.6" y2="-778.42999"/></defs><path id="path13" fill="url(#b)" d="M501.70432 464.29284c5.90118 2.90058 18.0036 6.70134 33.5067 7.10142 26.40528.40008 40.60812-9.60192 51.0102-32.90658l140.62812-311.76234c-5.90118-2.90058-18.80376-6.70134-29.30586-6.70134-18.0036-.40008-42.20844 3.30066-57.71154 40.008L594.1228 266.75334l-89.11782-144.62892c-5.90118-1.70034-20.10402-4.20084-30.10602-4.20084-31.80636 0-49.40988 11.70234-67.31346 31.20624l-87.0174 94.21884 69.91398 109.22184c13.0026 20.004 29.70594 30.006 57.31146 30.006 18.0036 0 33.0066-4.20084 40.20804-7.5015l-84.21684-125.42508 59.41188-62.91258 97.91958 152.5305Zm-184.5369-118.0236c0 22.90458-9.20184 36.20724-54.41088 36.20724-5.90118 0-11.30226-.40008-16.30326-1.20024v-305.061c0-23.30466 7.90158-47.5095 53.5107-47.5095 5.90118 0 11.70234.40008 17.20344 1.70034ZM223.84876 300.06c0 42.90858-28.0056 74.21484-85.31706 80.41608-41.40828 4.60092-101.62032-.80016-130.12602-4.20084-.80016-4.60092-1.70034-10.40208-1.70034-15.003 0-37.5075 20.10402-45.80916 39.30786-45.80916 19.70394 0 51.0102 3.30066 74.5149 3.30066 25.5051 0 33.5067-8.80176 33.5067-16.70334 0-10.80216-10.002-15.003-30.10602-19.20384L69.5179 272.45448C24.30886 264.15282.10402 232.84656.10402 199.93998c0-40.008 28.40568-73.81476 84.5169-79.61592 42.20844-4.60092 94.11882.40008 122.62452 4.20084.80016 4.60092 1.70034 9.60192 1.70034 14.60292 0 37.5075-19.70394 45.40908-38.90778 45.40908-14.60292 0-37.20744-2.5005-63.61272-2.5005-26.40528 0-37.20744 7.10142-37.20744 16.20324 0 9.60192 10.5021 13.30266 27.20544 16.20324l51.91038 9.60192c52.5105 8.90178 75.5151 38.90778 75.5151 76.0152Z" stroke-width="1.0002"/><path id="path14" fill="url(#c)" d="m726.74932 126.72534-51.5103 114.22284c-1.70034 2.90058-7.10142 12.90258-21.30426 13.30266-3.30066 0-46.90938 1.70034-46.90938 1.70034-8.40168.40008-11.30226 8.30166-11.30226 8.30166L640.132 160.032c15.5031-36.70734 39.70794-40.40808 57.71154-40.008 10.10202 0 23.0046 3.30066 28.90578 6.70134ZM592.02238 262.95258l-87.0174-140.82816c-5.90118-1.70034-20.10402-4.20084-30.10602-4.20084-31.80636 0-49.40988 11.70234-67.31346 31.20624l-87.0174 94.21884 7.10142 10.80216c2.90058 4.20084 8.80176 10.80216 20.5041 10.40208 4.20084 0 46.0092-1.70034 49.40988-1.70034 10.90218-.40008 17.60352 4.20084 21.80436 9.60192l-15.60312-23.20464 59.41188-62.91258 40.20804 62.5125c7.10142 9.60192 18.0036 9.60192 20.5041 9.60192 2.10042 0 54.41088-2.10042 56.91138-2.10042 3.70074-.10002 7.90158 2.0004 11.20224 6.60132ZM299.96398 28.80576c-45.60912 0-53.11062 24.20484-53.11062 47.5095V285.5571c0-8.30166 6.70134-17.10342 17.20344-17.5035 7.5015-.40008 28.90578-.80016 35.10702-1.20024 7.10142-.40008 17.60352-5.001 18.0036-17.90358V30.60612c-5.5011-1.0002-11.30226-1.80036-17.20344-1.80036Zm-152.23044 194.5389-51.91038-9.60192c-16.70334-2.90058-27.20544-6.70134-27.20544-16.20324 0-8.80176 10.90218-16.20324 37.20744-16.20324 25.90518 0 48.90978 2.5005 63.61272 2.5005 19.20384 0 38.90778-7.90158 38.90778-45.40908 0-5.001-.40008-9.60192-1.70034-14.60292-28.40568-3.30066-79.91598-8.80176-122.62452-4.20084C28.40968 126.22524.004 160.032.004 200.04c0 20.40408 9.20184 40.40808 27.60552 54.61092 13.80276 8.80176 27.60552 12.5025 41.80836 15.003 11.70234 2.10042 38.10762 3.80076 58.11162 2.90058 6.30126-.40008 51.91038-1.70034 61.91238-2.10042 23.0046-.80016 36.0072 18.70374 34.30686 38.70774v-1.20024c.40008-2.5005.40008-5.001.40008-7.90158-.30006-37.10742-23.30466-67.11342-76.41528-76.71534Z" opacity=".25" stroke-width="1.0002"/><path id="path15" fill="url(#linearGradient5)" d="M2309.0657 0H835.57108c-18.40368 0-33.5067 15.003-33.5067 33.30666v433.38666c0 18.30366 15.10302 33.30666 33.5067 33.30666H2309.5658c18.4037 0 33.5067-15.003 33.5067-33.30666V33.30666C2342.5724 15.003 2327.4694 0 2309.0657 0Z" stroke-width="1.0002"/><path id="path16" fill="url(#e)" d="M825.86914 247.94958h3.30066c99.11982-3.30066 1488.5977-51.71034 1488.5977-51.71034 12.5025-.40008 25.105-9.60192 25.105-25.40508V33.30666C2342.8725 15.003 2327.7695 0 2309.3658 0H835.57108c-18.40368 0-33.5067 15.003-33.5067 33.30666v240.84816c0-2.90058.40008-23.70474 23.80476-26.20524Z" opacity=".4" stroke-width="1.0002"/><g id="g22" fill="#ffffff" transform="translate(584.53088 916.49126) scale(1.0002)"><path id="path17" d="M313.7-557.1c-2.9-20.4 3.3-31.2 15.5-31.2 11.3 0 38.9 12.1 77.4 12.1 40.6 0 55.6-14.2 55.6-32.9 0-13.3-5.9-25-42.2-35l-41.8-11.2c-46.4-12.1-64.4-35.4-64.4-63.8 0-35.4 28-66.7 91.6-66.7 28.4 0 64 6.2 85.8 14.6 3.8 20-2.5 30.8-14.6 30.8-10.9 0-35.6-10.4-70.3-10.4-37.6 0-51.5 12.9-51.5 29.6 0 11.7 5.4 22.5 38.9 32.1l42.7 11.7c47.7 13.3 66.9 35.4 66.9 66.7 0 36.7-28.4 69.6-97.5 69.6-31 .2-69.1-7.3-92.1-16Z"/><path id="path18" d="M787.6-663.4c0 77.1-54.4 122.5-113.8 122.5-35.6 0-64.4-16.7-82-40.4v99.2c0 9.2-5.4 15.4-21.3 15.4-7.9 0-15.5-.8-19.2-2.1v-312.5c3.8-.8 11.3-2.1 19.2-2.1 15.9 0 21.3 5.8 21.3 15.4v22.5c17.2-23.8 46.4-40.4 82-40.4 59.5 0 113.8 45.8 113.8 122.5Zm-40.9 0c0-51.7-34.3-87.1-80.7-87.1-31.4 0-60.7 18.3-74 44.6v85c13.4 26.7 42.2 44.6 74 44.6 46.3 0 80.7-35.4 80.7-87.1Z"/><path id="path19" d="M826.5-663.4c0-70 51.9-122.1 121.3-122.1 69.9 0 121.7 52.1 121.7 122.1 0 69.6-51.9 122.5-121.7 122.5-69.4 0-121.3-52.9-121.3-122.5Zm202.1 0c0-54.2-36.4-87.1-80.7-87.1-43.9 0-80.3 32.9-80.3 87.1 0 53.3 36.4 87.5 80.3 87.5 44.3-.4 80.7-34.2 80.7-87.5Z"/><path id="path20" d="M1265.8-763.8c0 16.2-6.7 19.6-23.8 19.6-33.9 0-62.7 15.8-80.3 52.5v132.9c0 10-5.4 15.4-21.8 15.4-6.7 0-14.6-.8-18.8-2.1v-235.8c3.8-.8 11.7-2.1 18.8-2.1 16.3 0 21.8 5.8 21.8 15.4v32.9c23-35 58.1-52.5 102.1-46.7.3 3.4 2 10.9 2 18Z"/><path id="path21" d="M1443.1-557.1c-20.5 10-44.3 16.2-68.2 16.2-46.9 0-74.9-27.5-74.9-73.3v-202.5c0-10.4 5.9-17.1 21.8-17.1 6.7 0 14.6 1.7 18.8 2.5v51.2h92c.4 3.3 1.7 10.4 1.7 16.2 0 14.2-5.9 19.2-14.6 19.2h-78.6v127.9c0 27.5 13 40.8 38.9 40.8 23.8 0 36.8-10.4 48.1-10.4 11.3 0 17.5 9.7 15 29.3Z"/><path id="path22" d="M1471.2-557.1c-2.9-20.4 3.3-31.2 15.5-31.2 11.3 0 38.9 12.1 77.4 12.1 40.6 0 55.6-14.2 55.6-32.9 0-13.3-5.9-25-42.2-35l-41.8-11.2c-46.4-12.1-64.4-35.4-64.4-63.8 0-35.4 28-66.7 91.6-66.7 28.4 0 64 6.2 85.8 14.6 3.8 20-2.5 30.8-14.6 30.8-10.9 0-35.6-10.4-70.3-10.4-37.6 0-51.5 12.9-51.5 29.6 0 11.7 5.4 22.5 38.9 32.1l42.7 11.7c47.7 13.3 66.9 35.4 66.9 66.7 0 36.7-28.4 69.6-97.5 69.6-31.1.2-69.1-7.3-92.1-16Z"/></g><path id="path23" fill="#002a91" d="M2343.0635 531.08c-.05 8.9599-3.6796 17.528-10.08 23.798l.088 411.81c-.012 12.866-10.439 23.294-23.306 23.306H33.306002c-12.852-.0477-23.258-10.454-23.306-23.306v-411.8C3.8596025 548.8611.27800246 540.7.00000246 532.1v434.59c-.007 18.398 14.90799954 33.314 33.30599954 33.308H2309.6655c18.447.0855 33.438-14.861 33.407-33.308Z"/><path d="M477.69389 848.43586V667.61525h49.5548v184.95271h87.53595v46.2795H506.38351l-19.56111-24.13145c-6.68337-8.59477-9.29152-16.5284-9.29152-26.44543m163.82427 12.89214 53.46702-193.71275h56.89022c10.5956 0 17.11597 4.95852 20.21314 15.53669l49.22878 178.01078c2.28213 7.93363 2.60815 13.22271 2.60815 23.47032v14.21441h-43.84948L762.471 828.27122l-71.07202 36.36247-8.63949 34.04848h-43.84948v-14.21441c0-10.24761.32602-15.53669 2.60814-23.47032m118.67072-41.65155-26.08148-105.78171h-5.3793l-26.08148 105.78171Zm86.23187 28.7594V667.61525h49.55481v184.95271h87.53595v46.2795H875.11037l-19.56111-24.13145c-6.68338-8.59477-9.29153-16.5284-9.29153-26.44543m214.68317-180.65533h-49.5548v231.23221h49.5548Zm33.7429 157.84615v-84.46009c0-49.2546 26.7335-76.0306 75.9623-76.0306h21.6802c48.5768 0 75.9623 24.79259 75.9623 68.75811h-49.5548v-9.2559c0-8.59476-4.5643-13.22271-13.2037-13.22271h-48.0878c-8.6395 0-13.2037 4.62795-13.2037 13.22271v117.51687c0 8.59476 4.5642 13.22271 13.2037 13.22271h48.0878c8.6394 0 13.2037-4.62795 13.2037-13.22271v-29.08997h-34.3949v-46.2795h55.0971l19.5611 24.13145c6.5203 8.2642 9.2915 15.86726 9.2915 26.44543v8.2642c0 49.25461-26.7335 76.0306-75.9623 76.0306h-21.6802c-49.2288 0-75.9623-26.77599-75.9623-76.0306Zm191.2098 35.70132 53.467-193.71275h56.8902c10.5956 0 17.116 4.95852 20.2132 15.53669l49.2288 178.01078c2.2821 7.93363 2.6081 13.22271 2.6081 23.47032v14.21441h-43.8495l-17.605-70.41095-71.072 36.36247-8.6395 34.04848h-43.8494v-14.21441c0-10.24761.326-15.53669 2.6081-23.47032m118.6707-41.65155-26.0815-105.78171h-5.3793l-26.0814 105.78171Zm322.2692-7.10721h-9.2915v11.40459h9.2915s1.4671-.33056 1.9562-.82642c.489-.66113.815-1.48755.815-2.31397v-4.95852c0-.82642-.163-1.65284-.815-2.31397a2.5429438 2.5784292 0 0 0-1.9562-.99171m-35.0469 0h-6.8464s-1.6301.33057-2.1191.99171c-.4891.66113-.8151 1.48755-.8151 2.31397v20.66049c0 .99171.163 1.65284.652 2.31398.4891.66113 1.3041.9917 2.1192.9917h6.8463c.8151 0 1.4671-.33057 1.9562-.9917.489-.66114.815-1.48756.815-2.31398v-20.66049c0-.82642-.163-1.65284-.815-2.31397a2.5429438 2.5784292 0 0 0-1.9562-.99171m-34.0689 0h-9.6175v12.3963h9.6175c.8151 0 1.4671-.33057 2.1191-.99171.4891-.66113.8151-1.48755.8151-2.31397v-5.78494c0-.82642-.326-1.65284-.8151-2.31397a2.5429438 2.5784292 0 0 0-1.9561-.99171Z" id="path1" fill="#ff4b44"/><path d="M1704.3383 634.55847c-82.1567 0-148.8274 66.44414-148.9905 148.59024 0 82.14611 66.3448 148.92082 148.5014 148.92082 82.1567 0 148.8275-66.44414 148.9905-148.59025 0-82.14611-66.5078-148.92081-148.5014-148.92081Zm-55.7492 68.75811h76.4513l-11.7366 18.67708h-76.4513Zm-15.6489 134.04526a8.3786739 8.4955935 0 0 1-8.4764 8.59476h-10.1066a8.3786739 8.4955935 0 0 1-8.4765-8.42948v-3.96681h6.1944l.978 3.63625c.489 1.48755 1.4671 2.31397 3.0972 2.31397h6.8464s1.6301-.33057 2.1191-.9917c.489-.66114.815-1.48756.815-2.31398v-4.46266c0-2.14869-.978-3.30568-2.7711-3.30568h-8.6395c-4.7273 0-8.4765-3.80153-8.4765-8.42948v-5.78494c0-4.79323 3.9122-8.59476 8.4765-8.42948h9.9436a8.3786739 8.4955935 0 0 1 8.4764 8.42948v3.63625h-6.1943l-.9781-3.30568a2.8526614 2.8924686 0 0 0-3.0972-2.31398h-6.6833s-1.6301.33057-2.1191.99171c-.4891.66113-.8151 1.48755-.8151 2.31397v3.30568c0 2.14869.9781 3.1404 2.9342 3.1404h8.6395c2.2821 0 4.2382.82641 6.0313 2.47925 1.6301 1.65284 2.4451 3.80153 2.4451 5.95023v6.77664Zm35.047-14.71027c0 4.79323-3.9122 8.59476-8.6395 8.59476h-11.0846v14.71027h-7.1724v-40.16399h18.257c2.2822 0 4.4013.82642 6.0314 2.47926 1.6301 1.48756 2.4451 3.63625 2.4451 5.95022v8.42948Zm34.0689 14.71027a8.3786739 8.4955935 0 0 1-8.4764 8.59476h-9.6176c-2.2821 0-4.4012-.82642-6.0313-2.47926-1.6301-1.65283-2.6082-3.80153-2.4452-6.1155v-23.13975c0-2.31397.8151-4.29738 2.6082-5.95022 1.6301-1.65284 3.7492-2.47926 6.0313-2.47926h9.6176c2.4451 0 4.4012.82642 6.0313 2.47926 1.6301 1.48756 2.6082 3.80153 2.4451 5.95022v23.13975Zm1.7931-41.1557h-96.8274l23.6363-37.35416h-17.279l11.7367-18.5118h72.0501l-11.7367 18.67708h-32.2758l-11.8997 18.5118h51.9999l47.5987-74.87361 59.0094 93.71598h-22.3323l-11.7367-18.67709h-34.8839l11.7366-18.67708h11.4107l-13.3668-21.15634Zm27.2226 49.75046-6.5204-15.70197h-6.6834v15.70197h-7.1724v-40.16399h17.768c2.4452 0 4.4013.82642 6.0314 2.47926 1.6301 1.48756 2.4451 3.63625 2.4451 5.95022v7.10721c0 1.81812-.489 3.47096-1.4671 4.95852-.978 1.32227-2.2821 2.47926-3.9122 3.14039l7.0094 16.69368h-7.4984Zm38.1441-33.55263h-10.2695v33.71792h-7.1724v-33.71792h-10.1066v-6.44607h27.7115v6.61135Zm32.1129 25.12315a8.3786739 8.4955935 0 0 1-8.4765 8.59477h-10.1066a8.3786739 8.4955935 0 0 1-8.4765-8.42948v-3.96682h6.1944l.978 3.80153c.4891 1.48756 1.4671 2.31398 3.0972 2.31398h6.8464s1.6301-.33057 2.1191-.9917c.489-.66114.8151-1.48756.8151-2.31398v-4.46267c0-2.14869-.9781-3.30567-2.7712-3.30567h-8.6395c-2.2821 0-4.4012-.82642-6.0313-2.47926-1.6301-1.65284-2.6082-3.80153-2.4452-6.11551v-5.78494a8.3786739 8.4955935 0 0 1 8.4765-8.42947h9.9436c2.4451 0 4.4012.82641 6.0313 2.47925 1.6301 1.48756 2.4452 3.80153 2.4452 5.95022v3.63625h-6.1944l-.9781-3.30568a3.129777 3.1734513 0 0 0-3.0971-2.31397h-6.6834s-1.6301.33057-2.1191.9917c-.4891.66114-.8151 1.48756-.8151 2.31398v3.30567c0 2.1487.9781 3.1404 2.9342 3.1404h8.4765c2.2821 0 4.4012.82642 6.0313 2.47926 1.6301 1.48755 2.6082 3.80153 2.6082 5.95022v6.77664Zm4.4012-29.58582h-1.4671v3.1404h-.815v-3.1404h-1.4671v-.66113h3.7492Zm4.5643 3.1404v-2.80983c0 .16528 0 .33057-.163.33057l-1.1411 1.81812-1.3041-1.98341v-.33056s-.163.33056-.163.49585v2.47926h-.652v-3.80153h.652l1.4671 2.31397 1.4671-2.31397h.652v3.80153h-.652Z" id="path2" fill="#ff4b44"/></svg>