<?xml version="1.0" encoding="utf-8"?>
<!-- Generator: Adobe Illustrator 23.0.1, SVG Export Plug-In . SVG Version: 6.00 Build 0)  -->
<svg version="1.1" id="Livello_1" xmlns="http://www.w3.org/2000/svg" xmlns:xlink="http://www.w3.org/1999/xlink" x="0px" y="0px"
	 viewBox="0 0 2714.1 500" enable-background="new 0 0 2714.1 500" xml:space="preserve">
<g>
	<g>
		<path fill="#002A91" d="M2680.7,0h-603.1c-18.4,0-33.3,14.9-33.3,33.3v433.4c0,18.4,14.9,33.3,33.3,33.3h603.1
			c18.4,0,33.3-14.9,33.3-33.3V33.3C2714.1,14.9,2699.2,0,2680.7,0 M2680.7,10c12.9,0,23.3,10.5,23.3,23.3v433.4
			c0,12.9-10.4,23.3-23.3,23.3h-603.1c-12.8,0-23.3-10.4-23.3-23.3V33.3c0-12.8,10.5-23.3,23.3-23.3H2680.7"/>
		<path fill="#FFFFFF" d="M2680.7,10c12.9,0,23.3,10.5,23.3,23.3v433.4c0,12.9-10.4,23.3-23.3,23.3h-603.1
			c-12.8,0-23.3-10.4-23.3-23.3V33.3c0-12.8,10.5-23.3,23.3-23.3H2680.7"/>
		<rect x="2181" y="20.8" fill="#FFFFFF" width="457.4" height="458.3"/>
		<g>
			<path id="path9_2_" d="M2255.1,426.6c0,7.2-3.4,11-12.4,11h-20.9v-40.4h20.1c9.4,0,12.6,3.7,12.6,10.5c0,5.2-2,7.6-7.5,9l-1,0.3
				l0.9,0.2C2253.1,418.6,2255.1,420.9,2255.1,426.6L2255.1,426.6z M2231.3,414.1h8.5c3.4,0,4.9-1.5,4.9-4.9c0-3.5-1.4-5.1-4.9-5.1
				h-8.4L2231.3,414.1L2231.3,414.1z M2245.3,425.6c0-3.7-1.5-5.3-4.9-5.3h-9v10.4h9C2244,430.7,2245.3,429.2,2245.3,425.6
				L2245.3,425.6L2245.3,425.6z M2261.6,424.4v-27.3h10.1v26.9c0,4.4,2,6.1,7.5,6.1c5.4,0,7.5-1.7,7.5-6.1v-26.9h10.1v27.2
				c0,9.5-5.5,13.8-17.5,13.8C2267.1,438.2,2261.7,433.9,2261.6,424.4L2261.6,424.4L2261.6,424.4z M2343.9,397.2v40.3h-12.3
				l-17.2-29.2v29.2h-9.4v-40.4h12.3l17.1,29.2v-29.2L2343.9,397.2L2343.9,397.2z M2352.2,397.2h18c14.1,0,17.8,5.8,17.8,20.1
				c0,14-4.1,20.2-17.8,20.2h-18L2352.2,397.2L2352.2,397.2z M2369.9,429.9c5.9,0,7.8-3.1,7.8-12.5s-1.9-12.4-7.8-12.4h-7.6v25
				L2369.9,429.9L2369.9,429.9z M2395.4,397.2h28.2v7.7h-18.2v8.5h15.1v7.6h-15.1v8.8h18.6v7.7h-28.7V397.2z M2430,436v-7.9
				c4.3,1.5,8.9,2.2,13.5,2.2c4.6,0,6.7-1.2,6.7-4.4c0-2.7-0.9-3.5-4.6-4.3l-6.7-1.4c-7-1.5-9.3-4.3-9.3-11.2
				c0-8.8,5.2-12.7,15.7-12.7c4.4,0,8.7,0.7,12.8,2.2v7.9c-3.9-1.4-8.1-2.1-12.3-2.1c-5,0-6.7,1.3-6.7,4.4c0,2.6,1.2,3.4,4.4,4.1
				l6.5,1.4c7.6,1.6,9.7,4.2,9.7,11.4c0,8.6-5.3,12.6-16.2,12.6C2439,438.2,2434.4,437.5,2430,436L2430,436z M2466.7,397.2h10.1
				v32.6h17.3v7.7h-27.4V397.2z M2500.4,397.2h10.1v40.3h-10.1V397.2z M2552.2,414.2v21.9c-4.5,1.4-9.2,2.1-14,2.1
				c-14,0-20.6-6.2-20.6-20.9s6.6-20.9,20.6-20.9c4.5-0.1,9,0.7,13.3,2.3v7.8c-4-1.4-8.2-2.1-12.5-2.1c-8.5,0-11.1,3.4-11.1,13
				c0,10,2.8,13.2,10.8,13.2c1.8,0,3.5-0.1,5.3-0.4v-9h-7.5v-6.9L2552.2,414.2L2552.2,414.2z M2585.1,429.1h-15.8l-2.8,8.5h-10
				l14.4-40.3h12.8l14.3,40.3h-10.1L2585.1,429.1z M2577.2,403.5l-5.9,18.2h11.6L2577.2,403.5z"/>
			<rect id="rect11_2_" x="2222.4" y="62.5" fill="#D20515" width="375" height="300"/>
			<path id="path13_2_" fill="#FFFFFF" d="M2531.6,220.5c0.2,0.7-0.5,1.3-1.8,2.2l-0.8,0.5l0.3,0.5c0.2,0.4-0.1,0.9-0.7,1.2
				l-1.2,0.6c-0.6,0.3-1.2,0.2-1.4-0.1l-0.3-0.5l-1.6,0.8l0.2,0.5c0.2,0.4-0.2,0.9-0.7,1.1l-1.2,0.6c-0.6,0.3-1.2,0.2-1.4-0.2
				l-0.2-0.5c-4.8,2.3-10.2,4.7-15.7,7.2l0.3,0.7c0.2,0.4-0.2,0.9-0.7,1.1l-1.3,0.6c-0.6,0.3-1.2,0.2-1.3-0.2l-0.3-0.7l-1.8,0.9
				l0.3,0.7c0.2,0.4-0.2,0.9-0.7,1.1l-1.2,0.6c-0.6,0.3-1.2,0.2-1.4-0.2l-0.3-0.7c-2.5,1-5.3,1.5-7.3-2.3c-0.9-1.7-0.9-5.7-1.6-7.8
				c-0.3-0.7-0.9-1.2-1.6-1.3c-24.4-4.7-32.7,0.5-48.4-3.3c-4.9-1.2-7.6-5.7-13.7-5.8c-13.2-0.4-17.1-0.2-31.5-0.7
				c-0.6,2.1-0.7,2.5-0.7,2.5l-50.4-0.2l7.7,3.8l2.5,22.2c0,0-2,0.6-2.6,0.7c0.5,4.4,1,10.4,1.2,15.8c0.2,4.9,0.5,9.9,0.4,13.1
				c0,2.1-0.5,4.2-1.5,6c-1,1.6-2.2,3-3.8,4.1c-0.5,0.3-2.4,1.7-4.7,2.9c-2.2,1.3-5,2.7-6.3,3.4c0.2,0.6,0.4,1.2,0.7,1.7
				c-30.6,14.8-68.6,19.9-80.9,43.4c-1.5,2.7-6.4,1.3-6.6-1.6c0-1.4,0-3.5,0-4.8h-0.4c-0.4,0-0.7-0.5-0.7-1.2v-1.4
				c0-0.6,0.4-1.1,0.8-1.1h0.5c0.2-1.4,0.4-2.7,0.8-4l-0.5-0.2c-0.4-0.1-0.5-0.7-0.3-1.3l0.5-1.3c0.2-0.6,0.7-1,1.1-0.9l0.5,0.2
				c2.2-5.1,6.4-7.4,8.4-12.2l-0.3-0.1c-0.4-0.1-0.5-0.7-0.3-1.3l0.5-1.3c0.2-0.6,0.7-1,1.1-0.8l0.3,0.1c0.3-0.7,0.6-1.5,1-2.2
				l-0.4-0.3c-0.4-0.2-0.4-0.8,0-1.4l0.7-1.2c0.3-0.5,0.9-0.8,1.2-0.6l0.2,0.1h0.2c0.1,0,0.1,0,0.2-0.1c0.2-0.2,0.4-0.4,0.6-0.6
				c1.9-1.4,4.5-1.5,6.5-0.1c1.9,1.2,9.5,5.5,16.7-1.1c12-10.7,25.9-25.3,36.4-25.8c-2.9-6.1-7.8-19-8.4-23.8l-3.4-0.7
				c-1.8-4-6.3-22.2-7.6-36c0,0-1.5-14.8,0-20c-0.8-0.1-2.3,1.1-2.7,1.1c-1.9-4.7,4.3-44.6,10.5-56.2l9.5-3.8
				c-1-0.1-7.8-0.4-25.9-1.9c-10.1,9-21.8,18.6-27.7,23.8c-1,0.7-2.7,6.4-2.7,6.4s-2.9,2.6-5.7,4.5c-3.6,2.6-12.6,4.5-14.5,1.5
				c-0.4-0.7-0.4-1.1,0-1.5c1.4-1.5,6.6-3.9,8.4-7.2c-2.9,1.5-6,2.9-8.5,2.7c-1.1,0-1.6-2.7-0.2-3.2c3.8-1.6,6.8-2.3,9-5.4
				c2.2-3.1,4.8-5,8.2-5.1c0,0,16.8-21.9,26.6-32.3c2.7-2.9,7.8-1.9,7.8-1.9l0.9-3.3c0,0,33.8-4,49.6,1.2
				c-0.4-9.6,3.9-22.3,18.9-22.3c7.7,0,19,6.8,20.6,15.1c0.5,2.5-1,4.2-1.8,7.5c-1.3,4.9,0.5,10.3,0,12c-0.4,1.4-2,1.3-3.4,3.2
				c-1.2,1.9-2.2,3.8-3.1,5.9l-2,4.6l-10.6-0.8c-3.9,8.3-11.8,25.3-14.6,42.1l0,0c8.3,0.7,45.9,6.1,45.9,6.1l0.9,3.1
				c0,0,15.8,1.9,28.8,8.1c2.9,0.7,10.2-0.4,15,1.8c0.3-0.2,1.1-1,1.5-1.2c16.9,5.2,30.9,14.1,47.1,18c0,0,7.6,1.9,10.2,2.4
				c4.3,0.8,8.7,1.4,13.1,1.7c5.2,0.4,8.1,0.3,11.9,0.6C2527.2,217,2530.5,216.5,2531.6,220.5 M2555.8,169.1
				c-11.5,0-20.9,9.3-20.9,20.8c0,11.5,9.3,20.9,20.8,20.9c11.5,0,20.9-9.3,20.9-20.8c0,0,0,0,0,0
				C2576.6,178.4,2567.2,169.1,2555.8,169.1L2555.8,169.1L2555.8,169.1z"/>
		</g>
	</g>
	<g>
		
			<linearGradient id="Plinth_2_" gradientUnits="userSpaceOnUse" x1="1456.6582" y1="198" x2="1456.6582" y2="698" gradientTransform="matrix(1 0 0 1 0 -198)">
			<stop  offset="0.4" style="stop-color:#FF0000"/>
			<stop  offset="1" style="stop-color:#D42321"/>
		</linearGradient>
		<path id="Plinth_1_" fill="url(#Plinth_2_)" d="M832.1,0h1249.2c18.4,0,33.3,14.9,33.3,33.3v433.4c0,18.4-14.9,33.3-33.3,33.3
			H832.1c-18.4,0-33.3-14.9-33.3-33.3V33.3C798.8,14.9,813.7,0,832.1,0z"/>
		
			<linearGradient id="p40_2_" gradientUnits="userSpaceOnUse" x1="1459.4656" y1="431.7283" x2="1450.7686" y2="182.6746" gradientTransform="matrix(1 0 0 1 0 -198)">
			<stop  offset="0" style="stop-color:#FFFFFF"/>
			<stop  offset="0.1203" style="stop-color:#FFFFFF;stop-opacity:0.8347"/>
			<stop  offset="0.2693" style="stop-color:#FFFFFF;stop-opacity:0.6576"/>
			<stop  offset="0.4195" style="stop-color:#FFFFFF;stop-opacity:0.5107"/>
			<stop  offset="0.5684" style="stop-color:#FFFFFF;stop-opacity:0.3965"/>
			<stop  offset="0.7156" style="stop-color:#FFFFFF;stop-opacity:0.3152"/>
			<stop  offset="0.8603" style="stop-color:#FFFFFF;stop-opacity:0.2664"/>
			<stop  offset="1" style="stop-color:#FFFFFF;stop-opacity:0.25"/>
		</linearGradient>
		<path id="p40_1_" opacity="0.4" fill="url(#p40_2_)" enable-background="new    " d="M822.8,248c0,0,1.1-0.1,3.2-0.2
			c98.6-3.5,1263.7-44.1,1263.7-44.1c13.9-0.1,25-11.5,24.9-25.3V33.3c0-18.4-14.9-33.3-33.3-33.3H832.1
			c-18.4,0-33.3,14.9-33.3,33.3V274C798.4,260.3,809.1,248.7,822.8,248z"/>
		
			<linearGradient id="Sky_Logo_2_" gradientUnits="userSpaceOnUse" x1="361.9225" y1="226.8058" x2="361.9225" y2="669.2197" gradientTransform="matrix(1 0 0 1 0 -198)">
			<stop  offset="0" style="stop-color:#002A91"/>
			<stop  offset="0.8" style="stop-color:#002672"/>
		</linearGradient>
		<path id="Sky_Logo_1_" fill="url(#Sky_Logo_2_)" d="M499.6,464.1c10.5,4.6,21.8,7.1,33.2,7.1c26.1,0.6,40.4-9.4,50.9-32.8
			l140.1-311.9c-9.1-4.1-19-6.4-29-6.7c-18.1-0.4-42.3,3.3-57.6,40.1l-45.3,106.8l-89-144.6c-9.8-2.6-19.9-4-30-4.2
			c-31.5,0-49,11.5-67.2,31.3l-86.5,94.4L388.7,353c12.9,19.9,29.8,30.1,57.3,30.1c13.7,0.2,27.3-2.3,40-7.5l-83.8-126l59.4-62.9
			L559,339.4L499.6,464.1z M315.9,346.2c0,23-9,36.2-54,36.2c-5.4,0-10.8-0.4-16.1-1.1V76.2c0-23.2,7.9-47.4,53.2-47.4
			c5.7,0,11.4,0.6,16.9,1.7V346.2z M223.1,300.1c0,43-28.1,74.2-85.1,80.4c-41.3,4.4-101.1-0.8-129.5-4c-1-4.9-1.6-9.9-1.7-15
			c0-37.4,20.2-46,39.2-46c19.8,0,50.9,3.5,74,3.5c25.5,0,33.2-8.6,33.2-16.9c0-10.7-10.2-15.2-30-19L69,272.7
			c-45-8.6-69-39.7-69-72.7c0-40.1,28.4-73.6,84.3-79.8c42.3-4.6,93.8,0.6,122,4c1,4.7,1.5,9.5,1.5,14.4c0,37.4-19.8,45.5-38.8,45.5
			c-14.6,0-37.3-2.7-63.2-2.7c-26.3,0-37.3,7.3-37.3,16.1c0,9.4,10.4,13.2,26.9,16.1l51.7,9.6C200.2,232.9,223.1,263.1,223.1,300.1z
			"/>
		
			<linearGradient id="s25_2_" gradientUnits="userSpaceOnUse" x1="365.4495" y1="461.2478" x2="359.6001" y2="293.7514" gradientTransform="matrix(1 0 0 1 0 -198)">
			<stop  offset="0" style="stop-color:#FFFFFF"/>
			<stop  offset="0.1203" style="stop-color:#FFFFFF;stop-opacity:0.8347"/>
			<stop  offset="0.2693" style="stop-color:#FFFFFF;stop-opacity:0.6576"/>
			<stop  offset="0.4195" style="stop-color:#FFFFFF;stop-opacity:0.5107"/>
			<stop  offset="0.5684" style="stop-color:#FFFFFF;stop-opacity:0.3965"/>
			<stop  offset="0.7156" style="stop-color:#FFFFFF;stop-opacity:0.3152"/>
			<stop  offset="0.8603" style="stop-color:#FFFFFF;stop-opacity:0.2664"/>
			<stop  offset="1" style="stop-color:#FFFFFF;stop-opacity:0.25"/>
		</linearGradient>
		<path id="s25_1_" opacity="0.25" fill="url(#s25_2_)" enable-background="new    " d="M723.9,126.5l-51.3,114.2
			c-4,8.2-12.3,13.4-21.4,13.4l-46.8,1.6c-5.1,0.3-9.6,3.7-11.4,8.5v-0.1l44.2-104.2c15.4-36.8,39.6-40.5,57.6-40.1
			C704.9,120.1,714.7,122.4,723.9,126.5z M589.5,263l-86.6-140.8c-9.8-2.6-19.9-4-30-4.2c-31.5,0-49,11.5-67.2,31.3l-86.5,94.4
			l6.9,10.9c4.5,6.8,12.3,10.7,20.5,10.3c4.1-0.1,45.9-1.6,49.3-1.7c8.5-0.7,16.7,3,21.8,9.8l0,0l-15.5-23.3l59.4-62.9l39.9,62.5
			l0,0c4.9,6.2,12.5,9.7,20.4,9.5c2.1-0.1,54.3-1.9,56.7-2C583,256.8,587.2,259.2,589.5,263L589.5,263z M299,28.9
			c-45.3,0-53.2,24.2-53.2,47.4v209c0-9.6,7.7-17.4,17.3-17.7l35.1-1.2c9.8,0,17.8-8,17.8-17.8l0,0v-218
			C310.3,29.4,304.7,28.8,299,28.9z M147.2,223.1l-51.7-9.6c-16.5-2.9-26.9-6.7-26.9-16.1c0-8.8,11-16.1,37.3-16.1
			c25.9,0,48.6,2.7,63.2,2.7c19,0,38.8-8.1,38.8-45.5c0-4.8-0.5-9.7-1.5-14.4c-28.2-3.5-79.7-8.6-122-4C28.4,126.3,0,159.9,0,199.9
			c0.1,21.4,10.2,41.6,27.3,54.5c12.6,7.8,26.8,12.9,41.5,14.8c19.2,2.6,38.5,3.6,57.8,3c6.1-0.2,51.7-1.8,61.7-2.2
			c23.1-0.8,35.7,18.9,34.4,38.7c0-0.3,0-0.5,0.1-0.8v-0.2c0.2-2.6,0.3-5.2,0.3-7.8C223.1,263.1,200.2,232.9,147.2,223.1z"/>
		<path fill="#FFFFFF" d="M894.4,359.3c-3-20.6,3.4-31.4,15.2-31.4c11.2,0,38.7,12.3,77,12.3c40.3,0,55.5-14.3,55.5-32.9
			c0-13.2-5.9-25-42.2-34.9l-41.7-11.2c-46.1-12.3-64.3-35.4-64.3-63.9c0-35.3,28-66.8,91.3-66.8c28.5,0,63.9,6.4,85.4,14.8
			c3.9,20.1-2.5,30.9-14.7,30.9c-10.8,0-35.3-10.3-70.2-10.3c-37.3,0-51.1,12.7-51.1,29.4c0,11.7,5.4,22.6,38.8,31.9l42.7,11.8
			c47.7,13.2,66.8,35.3,66.8,66.7c0,36.9-28.5,69.7-97.2,69.7C955.3,375.5,917.4,368.1,894.4,359.3"/>
		<path fill="#FFFFFF" d="M1365.6,252.8c0,77-54,122.7-113.4,122.7c-35.3,0-64.3-16.7-81.5-40.2v99.2c0,9.3-5.4,15.2-21.1,15.2
			c-7.9,0-15.2-1-19.1-1.9V135c3.9-1,11.2-2,19.1-2c15.7,0,21.1,5.9,21.1,15.2v22.5c17.2-23.5,46.2-40.2,81.5-40.2
			C1311.6,130.5,1365.6,176.2,1365.6,252.8 M1324.9,252.8c0-51.5-34.3-86.9-80.5-86.9c-31.4,0-60.4,18.2-73.6,44.7v84.9
			c13.2,26.5,42.2,44.7,73.6,44.7C1290.5,340.1,1324.9,304.8,1324.9,252.8"/>
		<path fill="#FFFFFF" d="M1403.3,252.8c0-70.2,51.5-122.2,120.7-122.2c69.7,0,121.2,52,121.2,122.2c0,69.7-51.5,122.7-121.2,122.7
			C1454.8,375.4,1403.3,322.4,1403.3,252.8 M1604.5,252.8c0-54-36.4-86.9-80.5-86.9c-43.6,0-80,32.9-80,86.9
			c0,53.5,36.4,87.3,80,87.3C1568.1,340.1,1604.5,306.3,1604.5,252.8"/>
		<path fill="#FFFFFF" d="M1839.8,152.6c0,16.2-6.8,19.6-23.6,19.6c-33.8,0-62.3,15.7-80,52.5v133.1c0,9.8-5.4,15.2-21.6,15.2
			c-6.9,0-14.8-1-18.7-1.9V134.9c3.9-1,11.7-1.9,18.7-1.9c16.1,0,21.6,5.9,21.6,15.2v32.9c23-34.9,57.9-52.5,101.6-46.6
			C1838.3,137.9,1839.8,145.3,1839.8,152.6"/>
		<path fill="#FFFFFF" d="M2016.3,359.3c-20.6,9.8-44.2,16.2-67.7,16.2c-46.6,0-74.6-27.5-74.6-73.1V99.7c0-10.3,5.9-17.2,21.6-17.2
			c6.8,0,14.7,1.4,18.7,2.5v51h91.7c0.5,3.4,1.5,10.3,1.5,16.2c0,14.2-5.9,19.1-14.7,19.1h-78.5v128.2c0,27.4,12.7,40.7,38.7,40.7
			c23.6,0,36.8-10.3,48.1-10.3C2012.9,329.8,2018.8,339.6,2016.3,359.3"/>
	</g>
</g>
</svg>
