<?xml version="1.0" encoding="UTF-8" standalone="no"?>
<svg
   xmlns:dc="http://purl.org/dc/elements/1.1/"
   xmlns:cc="http://creativecommons.org/ns#"
   xmlns:rdf="http://www.w3.org/1999/02/22-rdf-syntax-ns#"
   xmlns:svg="http://www.w3.org/2000/svg"
   xmlns="http://www.w3.org/2000/svg"
   xmlns:sodipodi="http://sodipodi.sourceforge.net/DTD/sodipodi-0.dtd"
   xmlns:inkscape="http://www.inkscape.org/namespaces/inkscape"
   version="1.1"
   id="svg2"
   xml:space="preserve"
   width="895.68683"
   height="200"
   viewBox="0 0 895.6868 200"
   sodipodi:docname="SPORTV_3_TYPE_COLOR.svg"
   inkscape:version="1.0.1 (3bc2e813f5, 2020-09-07)"><metadata
     id="metadata8"><rdf:RDF><cc:Work
         rdf:about=""><dc:format>image/svg+xml</dc:format><dc:type
           rdf:resource="http://purl.org/dc/dcmitype/StillImage" /></cc:Work></rdf:RDF></metadata><defs
     id="defs6" /><sodipodi:namedview
     pagecolor="#ffffff"
     bordercolor="#666666"
     borderopacity="1"
     objecttolerance="10"
     gridtolerance="10"
     guidetolerance="10"
     inkscape:pageopacity="0"
     inkscape:pageshadow="2"
     inkscape:window-width="1360"
     inkscape:window-height="706"
     id="namedview4"
     inkscape:document-rotation="0"
     showgrid="false"
     inkscape:zoom="0.92257084"
     inkscape:cx="629.21997"
     inkscape:cy="140.5"
     inkscape:window-x="-8"
     inkscape:window-y="-8"
     inkscape:window-maximized="1"
     inkscape:current-layer="g10" /><g
     id="g10"
     inkscape:groupmode="layer"
     inkscape:label="ink_ext_XXXXXX"
     transform="matrix(1.3333333,0,0,-1.3333333,0,281)"><g
       id="g12"
       transform="matrix(0.07117438,0,0,0.07117438,0,60.749996)"><path
         d="m 9358.3,1805.2 v 302.3 H 8253.2 l -151.1,-356.3 h 762 l -427.4,-382.1 v -252.6 h 382 c 146.8,0 226.7,-54 226.7,-170.602 0,-110 -82.1,-168.398 -231,-168.398 h -680 V 421.301 h 727.7 c 362.6,0 576.2,196.5 576.2,533.301 0,267.698 -194.2,448.998 -492,466.298 l 412,384.3"
         style="fill:#ee2140;fill-opacity:1;fill-rule:nonzero;stroke:none"
         id="path14" /><path
         d="m 677.699,421.301 146.699,345.5 H 146.699 L 0,421.301 h 677.699"
         style="fill:#ee2140;fill-opacity:1;fill-rule:nonzero;stroke:none"
         id="path16" /><path
         d="m 3679.8,749.301 c -192,0 -332.3,144.597 -332.3,336.799 0,192.2 140,334.6 332.3,334.6 192.3,0 332.3,-142.3 332.3,-334.4 0,-192.101 -140,-336.8 -332.4,-336.8 m 0.1,1029.8 c -403.6,0 -720.8,-302.2 -720.8,-693 0,-390.8 317.2,-695.198 720.8,-695.198 403.6,0 720.9,304.398 720.9,695.198 0,390.8 -317.3,693 -720.9,693"
         style="fill:#151932;fill-opacity:1;fill-rule:nonzero;stroke:none"
         id="path18" /><path
         d="m 2095.5,745.102 c -190,0 -330,144.699 -330,341.198 0,196.5 140,338.9 330,338.9 192.1,0 334.6,-142.5 334.6,-338.9 0,-196.402 -144.6,-341.198 -334.6,-341.198 m 88.6,1034.198 c -194.2,0 -334.5,-90.7 -410,-198.6 v 168.4 H 1389.9 V 0 h 392.8 v 559.5 c 88.5,-103.602 240,-161.898 410,-161.898 360,0 625.9,304.398 625.9,686.498 0,395.1 -276.3,695.2 -634.6,695.2"
         style="fill:#151932;fill-opacity:1;fill-rule:nonzero;stroke:none"
         id="path20" /><path
         d="M 7374.8,421.301 7938.2,1749.1 H 7484.9 L 7191.4,952.398 6904.3,1749.1 H 6442.5 L 6995,421.301 h 379.8"
         style="fill:#151932;fill-opacity:1;fill-rule:nonzero;stroke:none"
         id="path22" /><path
         d="M 4944.6,421.301 V 1038.8 c 0,222.3 130,354 392.8,354 h 66.9 v 356.3 h -34.5 c -213.7,0 -341,-60 -433.8,-202.9 v 202.9 H 4552.1 V 421.301 h 392.5"
         style="fill:#151932;fill-opacity:1;fill-rule:nonzero;stroke:none"
         id="path24" /><path
         d="m 1247.5,788.301 v 30 c 0,278.499 -179.2,401.499 -492.102,433.899 l -274.097,28.4 c -67,6.4 -90.699,25.9 -90.699,62.6 0,38.8 28.097,60 88.5,60 H 986.301 L 1133.1,1749.1 H 496.398 C 196.398,1749.1 0,1580.7 0,1332.4 0,1084.1 131.602,952.398 490,915.699 L 742.102,890 C 809,883.5 845.699,857.602 845.699,799.301 V 788.5 l 401.801,-0.199"
         style="fill:#151932;fill-opacity:1;fill-rule:nonzero;stroke:none"
         id="path26" /><path
         d="M 6330.2,421.301 V 777.5 h -161.9 c -161.8,0 -235.2,73.5 -235.2,233.2 v 382.1 h 297.8 l 151.2,356.3 h -449 v 358.3 H 5540.3 V 950 c 0,-347.602 194.2,-529 595.7,-529 l 194.2,0.301"
         style="fill:#151932;fill-opacity:1;fill-rule:nonzero;stroke:none"
         id="path28" /></g></g></svg>
