<?xml version="1.0" encoding="UTF-8" standalone="no"?>
<!-- Created with Inkscape (http://www.inkscape.org/) -->

<svg
   xmlns:dc="http://purl.org/dc/elements/1.1/"
   xmlns:cc="http://creativecommons.org/ns#"
   xmlns:rdf="http://www.w3.org/1999/02/22-rdf-syntax-ns#"
   xmlns:svg="http://www.w3.org/2000/svg"
   xmlns="http://www.w3.org/2000/svg"
   xmlns:sodipodi="http://sodipodi.sourceforge.net/DTD/sodipodi-0.dtd"
   xmlns:inkscape="http://www.inkscape.org/namespaces/inkscape"
   width="165.4579mm"
   height="18.249985mm"
   viewBox="0 0 586.26815 64.6653"
   id="svg28269"
   version="1.1"
   inkscape:version="0.91 r13725"
   sodipodi:docname="Sport TV3.svg">
  <sodipodi:namedview
     id="base"
     pagecolor="#ffffff"
     bordercolor="#666666"
     borderopacity="1.0"
     inkscape:pageopacity="0.0"
     inkscape:pageshadow="2"
     inkscape:zoom="0.17160681"
     inkscape:cx="160.64806"
     inkscape:cy="-1322.3801"
     inkscape:document-units="px"
     inkscape:current-layer="layer1"
     showgrid="false"
     inkscape:window-width="1920"
     inkscape:window-height="1018"
     inkscape:window-x="-8"
     inkscape:window-y="-8"
     inkscape:window-maximized="1"
     fit-margin-top="0"
     fit-margin-left="0"
     fit-margin-right="0"
     fit-margin-bottom="0" />
  <defs
     id="defs28271" />
  <metadata
     id="metadata28274">
    <rdf:RDF>
      <cc:Work
         rdf:about="">
        <dc:format>image/svg+xml</dc:format>
        <dc:type
           rdf:resource="http://purl.org/dc/dcmitype/StillImage" />
        <dc:title></dc:title>
      </cc:Work>
    </rdf:RDF>
  </metadata>
  <g
     id="layer1"
     inkscape:groupmode="layer"
     inkscape:label="Layer 1"
     transform="translate(-84.507003,-650.022)">
    <path
       d="m 613.24856,651.06375 -24.99948,62.58202 82.52605,0 0,-62.58202 -57.52657,0 z"
       style="fill:#fddb00;fill-opacity:1;fill-rule:nonzero;stroke:none"
       id="path27538"
       inkscape:connector-curvature="0" />
    <path
       d="m 637.58982,704.24574 c -7.38872,0 -12.94416,-2.83327 -15.91634,-6.47208 l 4.55546,-5.74986 c 2.72218,2.8888 7.13875,4.58322 11.05532,4.58322 4.91656,0 7.63873,-2.11105 7.63873,-5.13877 0,-3.19439 -2.49992,-4.6388 -8.11094,-4.6388 -1.69551,0 -4.41658,0.0444 -5.02767,0.11105 l 0,-7.74985 c 0.72221,0.0444 3.49993,0.0444 5.02767,0.0444 4.47213,0 7.49985,-1.30441 7.49985,-4.27769 0,-3.22216 -3.33327,-4.77769 -7.49985,-4.77769 -3.94436,0 -7.44426,1.44445 -10.30532,4.16658 l -4.2777,-5.38877 c 3.24994,-3.69436 8.33315,-6.41653 15.41633,-6.41653 9.44426,0 15.2497,4.24991 15.2497,10.97199 0,5.05548 -4.36104,8.3887 -8.83316,9.19426 4.11103,0.41778 9.44425,3.61103 9.44425,9.66647 0,6.9443 -6.22207,11.86085 -15.91633,11.86085"
       style="fill:#110f0d;fill-opacity:1;fill-rule:nonzero;stroke:none"
       id="path27542"
       inkscape:connector-curvature="0" />
    <path
       d="m 89.312432,697.62101 c 4.833254,2.55551 11.083118,4.91655 17.777418,4.861 7.47205,-0.0444 12.11085,-2.36108 12.11085,-6.91654 0,-3.36102 -1.86219,-5.41653 -8.22203,-7.08318 -2.55551,-0.66663 -7.66652,-1.99995 -10.61091,-2.9166 -10.305318,-3.24993 -15.860757,-8.99979 -15.860757,-16.94406 0,-10.27757 7.638727,-18.52739 24.221707,-18.52739 8.91647,0 17.8885,3.7777 21.88841,5.77765 l -4.55546,10.49977 c -4.27766,-2.13775 -11.05529,-4.2499 -17.77738,-4.2499 -7.47209,0 -10.583111,2.27771 -10.583111,5.83319 0,3.38882 2.277713,4.8888 6.749841,6.13878 2.83329,0.80441 11.38867,3.30548 11.38867,3.30548 11.1942,3.08327 16.66631,8.33316 16.66631,17.36075 0,11.66642 -10.74979,19.74957 -25.6939,19.74957 -8.999832,0 -18.58297,-4.19437 -21.83287,-6.63874 l 4.333212,-10.24978 z"
       style="fill:#110f0d;fill-opacity:1;fill-rule:nonzero;stroke:none"
       id="path27546"
       inkscape:connector-curvature="0" />
    <path
       d="m 162.1609,662.09664 0,22.91618 11.77756,0 c 6.38874,0 11.47196,-4.361 11.47196,-11.36088 0,-7.49985 -5.08322,-11.5553 -11.47196,-11.5553 l -11.77756,0 z m -12.97194,-11.08309 26.7772,0 c 12.30532,0 22.83289,7.22205 22.83289,22.91618 0,14.1386 -10.52757,22.5273 -22.83289,22.5273 l -13.80526,0 0,17.19408 -12.97194,0 0,-62.63756 z"
       style="fill:#110f0d;fill-opacity:1;fill-rule:nonzero;stroke:none"
       id="path27550"
       inkscape:connector-curvature="0" />
    <path
       d="m 306.88012,662.09664 0,18.72181 13.11083,0 c 5.91652,0 10.16644,-3.4999 10.16644,-9.33313 0,-6.16654 -4.24992,-9.38868 -10.16644,-9.38868 l -13.11083,0 z m -12.97195,-11.08309 24.69392,0 c 15.41633,0 25.02723,6.24987 25.02723,20.38843 0,9.97202 -7.19428,17.33299 -16.61075,19.2774 l 19.94402,20.94398 0,2.02886 -14.33303,0 -20.94402,-22.5273 -4.80542,0 0,22.5273 -12.97195,0 0,-62.63756 z"
       style="fill:#110f0d;fill-opacity:1;fill-rule:nonzero;stroke:none"
       id="path27554"
       inkscape:connector-curvature="0" />
    <path
       d="m 389.35326,662.47729 0,51.16559 -12.97195,0 0,-51.16559 -18.33294,0 0,-11.4442 49.24897,0 0,11.4442 -17.94408,0 z"
       style="fill:#110f0d;fill-opacity:1;fill-rule:nonzero;stroke:none"
       id="path27558"
       inkscape:connector-curvature="0" />
    <path
       d="m 490.16224,662.47729 0,51.16559 -12.97196,0 0,-51.16559 -18.33292,0 0,-11.4442 49.24897,0 0,11.4442 -17.94409,0 z"
       style="fill:#110f0d;fill-opacity:1;fill-rule:nonzero;stroke:none"
       id="path27562"
       inkscape:connector-curvature="0" />
    <path
       d="m 520.9505,651.02199 14.13859,0 18.2774,50.88782 18.94402,-50.88782 14.11084,0 -24.91617,62.63755 -16.24964,0 -24.30504,-62.63755 z"
       style="fill:#110f0d;fill-opacity:1;fill-rule:nonzero;stroke:none"
       id="path27566"
       inkscape:connector-curvature="0" />
    <path
       d="m 445.88828,682.35466 c 0,6.97208 -5.63876,12.61085 -12.61086,12.61085 -6.97204,0 -12.61082,-5.63877 -12.61082,-12.61085 0,-6.9721 5.63878,-12.61086 12.61082,-12.61086 6.9721,0 12.61086,5.63876 12.61086,12.61086"
       style="fill:#fddb00;fill-opacity:1;fill-rule:nonzero;stroke:none"
       id="path27570"
       inkscape:connector-curvature="0" />
    <path
       d="m 244.60362,694.96551 c -6.97205,0 -12.61083,-5.63877 -12.61083,-12.61085 0,-6.9721 5.63878,-12.61086 12.61083,-12.61086 6.97209,0 12.61086,5.63876 12.61086,12.61086 0,6.97208 -5.63877,12.61085 -12.61086,12.61085 m 0,-44.94351 c -17.86071,0 -32.33264,14.4719 -32.33264,32.33266 0,17.86074 14.47193,32.33264 32.33264,32.33264 17.86075,0 32.33265,-14.4719 32.33265,-32.33264 0,-17.86076 -14.4719,-32.33266 -32.33265,-32.33266"
       style="fill:#fddb00;fill-opacity:1;fill-rule:nonzero;stroke:none"
       id="path27574"
       inkscape:connector-curvature="0" />
  </g>
</svg>
