<?xml version="1.0" encoding="UTF-8" standalone="no"?>
<svg
   xmlns:dc="http://purl.org/dc/elements/1.1/"
   xmlns:cc="http://creativecommons.org/ns#"
   xmlns:rdf="http://www.w3.org/1999/02/22-rdf-syntax-ns#"
   xmlns:svg="http://www.w3.org/2000/svg"
   xmlns="http://www.w3.org/2000/svg"
   xmlns:sodipodi="http://sodipodi.sourceforge.net/DTD/sodipodi-0.dtd"
   xmlns:inkscape="http://www.inkscape.org/namespaces/inkscape"
   version="1.1"
   id="svg2"
   xml:space="preserve"
   width="753.6897"
   height="200.00002"
   viewBox="0 0 753.68969 200.00001"
   sodipodi:docname="logo_azul.svg"
   inkscape:version="1.0.1 (3bc2e813f5, 2020-09-07)"><metadata
     id="metadata8"><rdf:RDF><cc:Work
         rdf:about=""><dc:format>image/svg+xml</dc:format><dc:type
           rdf:resource="http://purl.org/dc/dcmitype/StillImage" /></cc:Work></rdf:RDF></metadata><defs
     id="defs6" /><sodipodi:namedview
     pagecolor="#ffffff"
     bordercolor="#666666"
     borderopacity="1"
     objecttolerance="10"
     gridtolerance="10"
     guidetolerance="10"
     inkscape:pageopacity="0"
     inkscape:pageshadow="2"
     inkscape:window-width="1360"
     inkscape:window-height="706"
     id="namedview4"
     inkscape:document-rotation="0"
     showgrid="false"
     inkscape:zoom="1"
     inkscape:cx="350.66666"
     inkscape:cy="93.053337"
     inkscape:window-x="-8"
     inkscape:window-y="-8"
     inkscape:window-maximized="1"
     inkscape:current-layer="g10" /><g
     id="g10"
     inkscape:groupmode="layer"
     inkscape:label="ink_ext_XXXXXX"
     transform="matrix(1.3333333,0,0,-1.3333333,0,186.10667)"><g
       id="g12"
       transform="matrix(0.10746526,0,0,0.10746526,0,-10.420004)"><path
         d="M 4194.56,278.871 V 514.844 H 4087.3 c -107.26,0 -155.89,48.625 -155.89,154.453 V 922.43 h 197.36 l 100.11,235.97 h -297.47 v 237.4 H 3671.13 V 629.254 c 0,-230.25 128.71,-350.383 394.72,-350.383 z M 1181.28,0 v 370.398 c 58.64,-68.648 158.75,-107.257 271.73,-107.257 238.83,0 414.73,201.648 414.73,454.781 0,261.711 -183.05,460.498 -420.45,460.498 -128.71,0 -221.67,-60.06 -271.73,-131.57 V 1158.4 H 921 V 0 Z m 1257.08,258.852 c 267.44,0 477.67,201.648 477.67,460.5 0,258.851 -210.23,459.068 -477.67,459.068 -267.43,0 -477.66,-200.217 -477.66,-459.068 0,-258.852 210.23,-460.5 477.66,-460.5 M 826.613,521.992 v 20.024 c 0,184.484 -118.703,266.004 -326.07,287.453 l -181.625,18.594 c -44.332,4.289 -60.066,17.16 -60.066,41.472 0,25.742 18.593,40.043 58.636,40.043 h 336.078 l 97.25,228.822 H 328.93 C 130.141,1158.4 0,1046.85 0,882.387 0,717.922 87.2383,630.684 324.637,606.371 l 167.328,-17.16 c 44.332,-4.293 68.644,-21.453 68.644,-60.066 v -7.153 z M 3276.42,278.871 v 409.016 c 0,147.304 85.8,234.543 260.28,234.543 h 44.33 v 235.97 h -22.88 c -141.58,0 -225.96,-40.04 -287.45,-134.43 V 1158.4 H 3016.13 V 278.871 Z m 1610.32,0 L 5260,1158.4 H 4959.67 L 4765.18,630.684 4574.97,1158.4 h -306.05 l 366.12,-879.529 z m -3498.09,214.52 c -125.85,0 -218.81,95.82 -218.81,225.961 0,130.14 92.96,224.527 218.81,224.527 127.28,0 221.67,-94.387 221.67,-224.527 0,-130.141 -95.82,-225.961 -221.67,-225.961 m 1049.71,2.859 c -127.28,0 -220.24,95.82 -220.24,223.102 0,127.281 92.96,221.668 220.24,221.668 127.28,0 220.24,-94.387 220.24,-221.668 0,-127.282 -92.96,-223.102 -220.24,-223.102"
         style="fill:#151932;fill-opacity:1;fill-rule:nonzero;stroke:none"
         id="path14" /><path
         d="m 449.059,278.871 97.25,228.82 H 97.25 L 0,278.871 h 449.059"
         style="fill:#ee2241;fill-opacity:1;fill-rule:nonzero;stroke:none"
         id="path16" /></g></g></svg>
