<?xml version="1.0" encoding="UTF-8" standalone="no"?>
<svg
   xmlns:dc="http://purl.org/dc/elements/1.1/"
   xmlns:cc="http://creativecommons.org/ns#"
   xmlns:rdf="http://www.w3.org/1999/02/22-rdf-syntax-ns#"
   xmlns:svg="http://www.w3.org/2000/svg"
   xmlns="http://www.w3.org/2000/svg"
   xmlns:sodipodi="http://sodipodi.sourceforge.net/DTD/sodipodi-0.dtd"
   xmlns:inkscape="http://www.inkscape.org/namespaces/inkscape"
   version="1.1"
   id="svg2"
   xml:space="preserve"
   width="887.14392"
   height="200.00002"
   viewBox="0 0 887.14389 200.00002"
   sodipodi:docname="SPORTV_2_TYPE_COLOR.svg"
   inkscape:version="1.0.1 (3bc2e813f5, 2020-09-07)"><metadata
     id="metadata8"><rdf:RDF><cc:Work
         rdf:about=""><dc:format>image/svg+xml</dc:format><dc:type
           rdf:resource="http://purl.org/dc/dcmitype/StillImage" /></cc:Work></rdf:RDF></metadata><defs
     id="defs6" /><sodipodi:namedview
     pagecolor="#ffffff"
     bordercolor="#666666"
     borderopacity="1"
     objecttolerance="10"
     gridtolerance="10"
     guidetolerance="10"
     inkscape:pageopacity="0"
     inkscape:pageshadow="2"
     inkscape:window-width="1360"
     inkscape:window-height="706"
     id="namedview4"
     inkscape:document-rotation="0"
     showgrid="false"
     inkscape:zoom="0.91538417"
     inkscape:cx="634.15997"
     inkscape:cy="142.96667"
     inkscape:window-x="-8"
     inkscape:window-y="-8"
     inkscape:window-maximized="1"
     inkscape:current-layer="g10" /><g
     id="g10"
     inkscape:groupmode="layer"
     inkscape:label="ink_ext_XXXXXX"
     transform="matrix(1.3333333,0,0,-1.3333333,0,285.93334)"><g
       id="g12"
       transform="matrix(0.06994638,0,0,0.06994638,0,64.449996)"><path
         d="M 9512.4,428.398 V 791 H 8829 l 285.7,257.1 c 259.3,235.1 386.7,364.7 386.7,608.6 0,312.1 -210.9,487.8 -600,487.8 H 8383 L 8229.2,1782 h 648.2 c 151.6,0 208.7,-59.3 208.7,-151.6 0,-103.3 -96.7,-178 -248.3,-320.9 L 8251.1,751.398 v -323 h 1261.3"
         style="fill:#ee2140;fill-opacity:1;fill-rule:nonzero;stroke:none"
         id="path14" /><path
         d="M 149.398,780 0,428.398 H 690 L 839.398,780 h -690"
         style="fill:#ee2140;fill-opacity:1;fill-rule:nonzero;stroke:none"
         id="path16" /><path
         d="m 3746.5,1810.5 c -410.9,0 -733.9,-307.6 -733.9,-705.3 0,-397.7 323,-707.598 733.9,-707.598 410.9,0 733.9,310 733.9,707.598 0,397.6 -323,704.8 -733.9,704.8 m 0,-1047.602 c -195.5,0 -338.4,147.204 -338.4,342.802 0,195.6 142.9,340.6 338.4,340.6 195.5,0 338.4,-145 338.4,-340.6 0,-195.598 -142.8,-342.802 -338.4,-342.802"
         style="fill:#151932;fill-opacity:1;fill-rule:nonzero;stroke:none"
         id="path18" /><path
         d="m 2223.7,1810.3 c -197.8,0 -340.6,-92.2 -417.5,-202.1 V 1780 H 1415.1 V 0 h 400 v 569 c 90,-105.398 244,-164.801 417.5,-164.801 367,0 637.3,310 637.3,698.801 0.3,402.1 -281.4,707 -646.1,707 M 2133.7,758 c -193.4,0 -336.2,147.199 -336.2,347.2 0,200 142.7,344.8 336.2,344.8 195.5,0 340.6,-145 340.6,-345 0,-200 -147.3,-347.199 -340.6,-347.199"
         style="fill:#151932;fill-opacity:1;fill-rule:nonzero;stroke:none"
         id="path20" /><path
         d="M 7508.4,428.398 8081.9,1779.8 H 7620.5 L 7321.6,969 7029.4,1779.8 H 6559.1 L 7121.7,428.398 h 386.7"
         style="fill:#151932;fill-opacity:1;fill-rule:nonzero;stroke:none"
         id="path22" /><path
         d="M 5034.2,428.398 V 1056.9 c 0,226.3 131.8,360 400,360 h 68.1 V 1780 h -35.1 c -217.6,0 -347.2,-61.5 -441.7,-206.6 V 1780 H 4634.3 V 428.398 h 399.9"
         style="fill:#151932;fill-opacity:1;fill-rule:nonzero;stroke:none"
         id="path24" /><path
         d="m 1270.2,802 v 30.699 c 0,283.501 -182.4,408.701 -501.001,441.701 l -279,28.6 c -68.097,6.5 -92.301,26.3 -92.301,63.7 0,40 28.602,61.5 90,61.5 H 1004.2 L 1153.6,1780 H 505.398 C 200.199,1780 0.199219,1608.4 0.199219,1355.7 0.199219,1103 134.301,969 499,931.602 l 257.102,-26.403 c 68.097,-6.597 105.5,-32.898 105.5,-92.301 V 802 H 1270.2"
         style="fill:#151932;fill-opacity:1;fill-rule:nonzero;stroke:none"
         id="path26" /><path
         d="M 6444.9,428.398 V 791 h -164.7 c -164.8,0 -240,74.699 -240,237.3 v 388.9 h 303.2 l 154.2,362.8 h -457.4 v 364.5 h -400 V 966.801 c 0,-353.801 197.7,-538.403 606.4,-538.403 h 198.3"
         style="fill:#151932;fill-opacity:1;fill-rule:nonzero;stroke:none"
         id="path28" /></g></g></svg>
