<svg xmlns="http://www.w3.org/2000/svg" xmlns:xlink="http://www.w3.org/1999/xlink" width="438" height="140" viewBox="0 0 115.888 37.042"><defs><linearGradient id="a"><stop offset="0" stop-color="#fa0d25"/><stop offset="1" stop-color="#a50000" stop-opacity=".988"/></linearGradient><linearGradient xlink:href="#a" id="b" x1="92.847" x2="115.579" y1="19.13" y2="19.13" gradientUnits="userSpaceOnUse"/><linearGradient xlink:href="#a" id="c" x1="115.579" x2="100.91" y1="33.861" y2="33.861" gradientUnits="userSpaceOnUse"/></defs><path d="M33.14 6.244H19.731v30.797h4.998V26.305h7.757c3.083 0 3.177-2.561 3.177-2.561V8.998c0-2.66-2.523-2.754-2.523-2.754m-30.27 0S.106 6.338.106 8.95v7.887s-.279 1.35 1.36 2.569c1.636 1.212 9.586 7.138 9.586 7.138v6.251H4.928V28.55l-4.84-2.798v8.492s-.211 2.799 3.014 2.799h10.01s2.905.047 2.905-2.893v-8.214s.227-1.96-1.641-3.176c-1.872-1.212-9.448-6.86-9.448-6.86v-4.712s0-.653.557-.653h5.523v3.686l5.005 2.615v-7.56s.186-3.031-2.994-3.031zm39.58 0a2.886 2.886 0 0 0-2.884 2.888v25.022a2.886 2.886 0 0 0 2.884 2.887h10.164a2.884 2.884 0 0 0 2.88-2.887V9.132a2.886 2.886 0 0 0-2.88-2.887zm16.761 0v2.52h5.46v28.277h2.545V8.671h5.27V6.245zm15.196 0 5.666 30.797h2.856l5.757-30.796h-2.62l-4.497 24.077-4.682-24.077zM24.73 10.49h6.121v11.804h-6.12zm19.82.002h6.014v22.312H44.55z"/><path fill="url(#b)" d="M104.181 1.226a11 11 0 0 0-4.103.973 10.99 10.99 0 0 0-6.324 11.585h6.452c-.185-.507-.216-1.042-.22-1.581 0-2.594 2.034-4.63 4.624-4.63s4.623 2.036 4.623 4.63c-.004 1.422-1.692 3.654-1.692 3.654L92.847 37.042h8.063l12.857-18.79-.046-.046.052.035a11 11 0 0 0-.825-13.177 10.96 10.96 0 0 0-8.767-3.838" paint-order="markers fill stroke"/><path fill="url(#c)" d="m105.263 30.68-4.353 6.362h14.978V30.68z" paint-order="markers fill stroke"/></svg>