<?xml version="1.0" encoding="UTF-8" standalone="no"?>
<svg
   id="svg5272"
   version="1.1"
   inkscape:version="1.2.2 (732a01da63, 2022-12-09)"
   width="1000"
   height="528.34686"
   viewBox="0 0 999.99999 528.34686"
   sodipodi:docname="Thrill.svg"
   xml:space="preserve"
   xmlns:inkscape="http://www.inkscape.org/namespaces/inkscape"
   xmlns:sodipodi="http://sodipodi.sourceforge.net/DTD/sodipodi-0.dtd"
   xmlns="http://www.w3.org/2000/svg"
   xmlns:svg="http://www.w3.org/2000/svg"
   xmlns:rdf="http://www.w3.org/1999/02/22-rdf-syntax-ns#"
   xmlns:cc="http://creativecommons.org/ns#"
   xmlns:dc="http://purl.org/dc/elements/1.1/"><metadata
     id="metadata5278"><rdf:RDF><cc:Work
         rdf:about=""><dc:format>image/svg+xml</dc:format><dc:type
           rdf:resource="http://purl.org/dc/dcmitype/StillImage" /></cc:Work></rdf:RDF></metadata><defs
     id="defs5276" /><sodipodi:namedview
     pagecolor="#ffffff"
     bordercolor="#666666"
     borderopacity="1"
     objecttolerance="10"
     gridtolerance="10"
     guidetolerance="10"
     inkscape:pageopacity="0"
     inkscape:pageshadow="2"
     inkscape:window-width="1366"
     inkscape:window-height="705"
     id="namedview5274"
     showgrid="false"
     showguides="false"
     inkscape:zoom="0.6"
     inkscape:cx="510.83333"
     inkscape:cy="191.66667"
     inkscape:window-x="-8"
     inkscape:window-y="-8"
     inkscape:window-maximized="1"
     inkscape:current-layer="svg5272"
     inkscape:document-rotation="0"
     inkscape:pagecheckerboard="0"
     inkscape:showpageshadow="0"
     inkscape:deskcolor="#d1d1d1" /><g
     id="g7975"><path
       id="path7964"
       style="display:inline;opacity:1;fill:#424143;fill-opacity:1;fill-rule:evenodd;stroke-width:15.8775;stroke-linecap:round;stroke-miterlimit:9;paint-order:stroke fill markers"
       d="M 46.824219 0 L 46.824219 111.52344 L 0 111.52344 L 0 170.82617 L 46.824219 170.82617 L 46.824219 454.21094 C 46.824219 494.96206 81.375483 528.34766 123.61328 528.34766 L 123.61328 170.82617 L 169.15039 170.82617 L 169.15039 111.52344 L 123.61328 111.52344 L 123.61328 14.490234 L 46.824219 0 z M 798.43359 0 L 798.43359 467.00586 C 798.43359 500.5498 841.81536 528.34766 875.21875 528.34766 L 875.21875 14.490234 L 798.43359 0 z M 923.21289 0 L 923.21289 467.00586 C 923.21289 500.5498 966.59681 528.34766 1000 528.34766 L 1000 14.490234 L 923.21289 0 z M 198.875 27.457031 L 198.875 462.96094 C 198.875 503.71203 247.72604 528.34766 276.96289 528.34766 L 276.96289 281.92383 C 276.96289 244.53037 286.09588 221.71484 315.21484 221.71484 C 339.75321 221.71484 348.16016 236.81728 348.16016 270.7793 L 348.16016 462.96094 C 348.16016 503.71204 397.00932 528.34766 426.24609 528.34766 L 426.24609 263.11328 C 426.24609 213.29265 396.74263 170.14648 335.72852 170.14648 C 304.6004 170.14648 289.72847 179.74305 276.96289 195.96484 L 276.96289 42.193359 L 198.875 27.457031 z M 473.19531 110.81445 L 473.19531 528.34766 L 551.2793 528.34766 L 551.2793 278.84766 C 551.2793 224.73686 568.96444 205.9707 600.43945 205.9707 L 635.08008 205.9707 L 635.08008 146.66992 L 606.45508 146.66992 C 583.57256 146.66992 563.45592 161.9771 551.2793 189.8418 L 551.2793 125.55078 L 473.19531 110.81445 z M 673.22266 110.81445 L 673.22266 467.00586 C 673.22266 500.5498 716.6081 528.34766 750.01172 528.34766 L 750.01172 125.30469 L 673.22266 110.81445 z " /><path
       style="display:inline;opacity:1;fill:#dd2457;fill-opacity:1;fill-rule:evenodd;stroke-width:15.8775;stroke-linecap:round;stroke-miterlimit:9;paint-order:stroke fill markers"
       d="m 712.52878,0 c -24.38453,-5.9851419e-5 -44.15211,19.767518 -44.15205,44.152043 -6e-5,24.384526 19.76752,44.152103 44.15205,44.152044 24.38452,5.9e-5 44.1521,-19.767518 44.15204,-44.152044 C 756.68088,19.767518 736.9133,-5.9851419e-5 712.52878,0 Z"
       id="path7954" /></g></svg>
