<?xml version="1.0" encoding="UTF-8" standalone="no"?>
<!-- Generator: Adobe Illustrator 21.0.0, SVG Export Plug-In . SVG Version: 6.00 Build 0)  -->

<svg
   xmlns:dc="http://purl.org/dc/elements/1.1/"
   xmlns:cc="http://creativecommons.org/ns#"
   xmlns:rdf="http://www.w3.org/1999/02/22-rdf-syntax-ns#"
   xmlns:svg="http://www.w3.org/2000/svg"
   xmlns="http://www.w3.org/2000/svg"
   xmlns:sodipodi="http://sodipodi.sourceforge.net/DTD/sodipodi-0.dtd"
   xmlns:inkscape="http://www.inkscape.org/namespaces/inkscape"
   version="1.1"
   id="Layer_2"
   x="0px"
   y="0px"
   width="1000"
   height="152.49637"
   viewBox="0 0 1000 152.49637"
   xml:space="preserve"
   sodipodi:docname="Trans_TV_2013.svg"
   inkscape:version="0.92.3 (2405546, 2018-03-11)"><metadata
   id="metadata91"><rdf:RDF><cc:Work
       rdf:about=""><dc:format>image/svg+xml</dc:format><dc:type
         rdf:resource="http://purl.org/dc/dcmitype/StillImage" /><dc:title></dc:title></cc:Work></rdf:RDF></metadata><defs
   id="defs89"><linearGradient
     id="linearGradient818"
     spreadMethod="pad"
     gradientTransform="matrix(-0.3096639,-1.7562208,1.7562208,-0.3096639,109.22217,164.54004)"
     gradientUnits="userSpaceOnUse"
     y2="0"
     x2="1"
     y1="0"
     x1="0"><stop
       id="stop812"
       offset="0"
       style="stop-opacity:1;stop-color:#0c6db6" /><stop
       id="stop814"
       offset="0.1"
       style="stop-opacity:1;stop-color:#0c6db6" /><stop
       id="stop816"
       offset="1"
       style="stop-opacity:1;stop-color:#64bc47" /></linearGradient><linearGradient
     id="linearGradient842"
     spreadMethod="pad"
     gradientTransform="matrix(-1.7688478,-0.4739632,0.4739632,-1.7688478,111.65576,163.92285)"
     gradientUnits="userSpaceOnUse"
     y2="0"
     x2="1"
     y1="0"
     x1="0"><stop
       id="stop834"
       offset="0"
       style="stop-opacity:1;stop-color:#214497" /><stop
       id="stop836"
       offset="0.3"
       style="stop-opacity:1;stop-color:#214497" /><stop
       id="stop838"
       offset="0.9"
       style="stop-opacity:1;stop-color:#792e8f" /><stop
       id="stop840"
       offset="1"
       style="stop-opacity:1;stop-color:#792e8f" /></linearGradient><linearGradient
     id="linearGradient864"
     spreadMethod="pad"
     gradientTransform="matrix(-1.7688478,-0.4739632,0.4739632,-1.7688478,112.06201,162.3916)"
     gradientUnits="userSpaceOnUse"
     y2="0"
     x2="1"
     y1="0"
     x1="0"><stop
       id="stop858"
       offset="0"
       style="stop-opacity:1;stop-color:#214497" /><stop
       id="stop860"
       offset="0.9"
       style="stop-opacity:1;stop-color:#a3258d" /><stop
       id="stop862"
       offset="1"
       style="stop-opacity:1;stop-color:#a3258d" /></linearGradient><linearGradient
     id="linearGradient884"
     spreadMethod="pad"
     gradientTransform="matrix(0.6391282,1.7560111,-1.7560111,0.6391282,111.54248,161.07129)"
     gradientUnits="userSpaceOnUse"
     y2="0"
     x2="1"
     y1="0"
     x1="0"><stop
       id="stop880"
       offset="0"
       style="stop-opacity:1;stop-color:#ea118d" /><stop
       id="stop882"
       offset="1"
       style="stop-opacity:1;stop-color:#214497" /></linearGradient><linearGradient
     id="linearGradient908"
     spreadMethod="pad"
     gradientTransform="matrix(1.4231533,0,0,1.4231533,108.60498,162.09473)"
     gradientUnits="userSpaceOnUse"
     y2="0"
     x2="1"
     y1="0"
     x1="0"><stop
       id="stop900"
       offset="0"
       style="stop-opacity:1;stop-color:#d3e389" /><stop
       id="stop902"
       offset="0.25"
       style="stop-opacity:1;stop-color:#d3e389" /><stop
       id="stop904"
       offset="0.95"
       style="stop-opacity:1;stop-color:#81caa6" /><stop
       id="stop906"
       offset="1"
       style="stop-opacity:1;stop-color:#81caa6" /></linearGradient><linearGradient
     id="linearGradient932"
     spreadMethod="pad"
     gradientTransform="matrix(-1.4242144,-0.8222725,0.8222725,-1.4242144,108.66553,162.00098)"
     gradientUnits="userSpaceOnUse"
     y2="0"
     x2="1"
     y1="0"
     x1="0"><stop
       id="stop924"
       offset="0"
       style="stop-opacity:1;stop-color:#fdf389" /><stop
       id="stop926"
       offset="0.05"
       style="stop-opacity:1;stop-color:#fdf389" /><stop
       id="stop928"
       offset="0.85"
       style="stop-opacity:1;stop-color:#f7966c" /><stop
       id="stop930"
       offset="1"
       style="stop-opacity:1;stop-color:#f7966c" /></linearGradient><linearGradient
     id="linearGradient952"
     spreadMethod="pad"
     gradientTransform="matrix(1.8979366,0,0,1.8979366,108.12842,162.50488)"
     gradientUnits="userSpaceOnUse"
     y2="0"
     x2="1"
     y1="0"
     x1="0"><stop
       id="stop948"
       offset="0"
       style="stop-opacity:1;stop-color:#c9db2d" /><stop
       id="stop950"
       offset="1"
       style="stop-opacity:1;stop-color:#08a886" /></linearGradient><linearGradient
     id="linearGradient972"
     spreadMethod="pad"
     gradientTransform="matrix(-1.2942547,-1.2942547,1.2942547,-1.2942547,108.42432,162.63379)"
     gradientUnits="userSpaceOnUse"
     y2="0"
     x2="1"
     y1="0"
     x1="0"><stop
       id="stop968"
       offset="0"
       style="stop-opacity:1;stop-color:#ede80f" /><stop
       id="stop970"
       offset="1"
       style="stop-opacity:1;stop-color:#f15c25" /></linearGradient><linearGradient
     id="linearGradient994"
     spreadMethod="pad"
     gradientTransform="matrix(0.8295181,1.4367739,-1.4367739,0.8295181,109.66553,163.93066)"
     gradientUnits="userSpaceOnUse"
     y2="0"
     x2="1"
     y1="0"
     x1="0"><stop
       id="stop988"
       offset="0"
       style="stop-opacity:1;stop-color:#2bace2" /><stop
       id="stop990"
       offset="0.95"
       style="stop-opacity:1;stop-color:#214497" /><stop
       id="stop992"
       offset="1"
       style="stop-opacity:1;stop-color:#214497" /></linearGradient><linearGradient
     id="linearGradient1016"
     spreadMethod="pad"
     gradientTransform="matrix(-0.8908046,-1.6753789,1.6753789,-0.8908046,110.94873,164.5791)"
     gradientUnits="userSpaceOnUse"
     y2="0"
     x2="1"
     y1="0"
     x1="0"><stop
       id="stop1010"
       offset="0"
       style="stop-opacity:1;stop-color:#2e368f" /><stop
       id="stop1012"
       offset="0.9"
       style="stop-opacity:1;stop-color:#0756a5" /><stop
       id="stop1014"
       offset="1"
       style="stop-opacity:1;stop-color:#0756a5" /></linearGradient><linearGradient
     id="linearGradient1038"
     spreadMethod="pad"
     gradientTransform="matrix(1.0842685,1.5484766,-1.5484766,1.0842685,109.01514,164.60254)"
     gradientUnits="userSpaceOnUse"
     y2="0"
     x2="1"
     y1="0"
     x1="0"><stop
       id="stop1032"
       offset="0"
       style="stop-opacity:1;stop-color:#5ecbf5" /><stop
       id="stop1034"
       offset="0.85"
       style="stop-opacity:1;stop-color:#0c5dab" /><stop
       id="stop1036"
       offset="1"
       style="stop-opacity:1;stop-color:#0c5dab" /></linearGradient><linearGradient
     id="linearGradient1062"
     spreadMethod="pad"
     gradientTransform="matrix(1.0839576,-0.0948418,0.0948418,1.0839576,109.01318,163.78613)"
     gradientUnits="userSpaceOnUse"
     y2="0"
     x2="1"
     y1="0"
     x1="0"><stop
       id="stop1054"
       offset="0"
       style="stop-opacity:1;stop-color:#20a0db" /><stop
       id="stop1056"
       offset="0.3"
       style="stop-opacity:1;stop-color:#20a0db" /><stop
       id="stop1058"
       offset="0.9"
       style="stop-opacity:1;stop-color:#0e67b2" /><stop
       id="stop1060"
       offset="1"
       style="stop-opacity:1;stop-color:#0e67b2" /></linearGradient><clipPath
     id="clipPath1072"
     clipPathUnits="userSpaceOnUse"><path
       inkscape:connector-curvature="0"
       id="path1070"
       d="m 98.412,157.244 h 51.323 v 8.96 H 98.412 Z" /></clipPath><linearGradient
     id="id10"
     gradientUnits="userSpaceOnUse"
     x1="4329.7998"
     y1="2175.5801"
     x2="4767.4702"
     y2="1737.91"><stop
       offset="0"
       style="stop-color:#F17429"
       id="stop66" /><stop
       offset="1"
       style="stop-color:#F0DC1C"
       id="stop68" /></linearGradient><linearGradient
     id="id8"
     gradientUnits="userSpaceOnUse"
     x1="4847.5098"
     y1="1770.9"
     x2="5392.04"
     y2="1770.9"><stop
       offset="0"
       style="stop-color:#C1D951"
       id="stop56" /><stop
       offset="1"
       style="stop-color:#64B688"
       id="stop58" /></linearGradient><linearGradient
     id="id4"
     gradientUnits="userSpaceOnUse"
     x1="4990.9902"
     y1="1957.12"
     x2="5470.7402"
     y2="1957.12"><stop
       offset="0"
       style="stop-color:#D4E48B"
       id="stop30" /><stop
       offset="1"
       style="stop-color:#95D19E"
       id="stop32" /></linearGradient><linearGradient
     id="id9"
     gradientUnits="userSpaceOnUse"
     x1="4405.0601"
     y1="2305.2"
     x2="4901.73"
     y2="2018.45"><stop
       offset="0"
       style="stop-color:#F99E6C"
       id="stop61" /><stop
       offset="1"
       style="stop-color:#F8F388"
       id="stop63" /></linearGradient><linearGradient
     id="id3"
     gradientUnits="userSpaceOnUse"
     x1="5119.7798"
     y1="1488.42"
     x2="5119.7798"
     y2="860.862"><stop
       offset="0"
       style="stop-color:#5CB257"
       id="stop25" /><stop
       offset="1"
       style="stop-color:#1282C7"
       id="stop27" /></linearGradient><linearGradient
     id="id7"
     gradientUnits="userSpaceOnUse"
     x1="5166.3101"
     y1="1158.73"
     x2="5522.3599"
     y2="1189.88"><stop
       offset="0"
       style="stop-color:#229ED9"
       id="stop49" /><stop
       offset="0.65098"
       style="stop-color:#1A85C6"
       id="stop51" /><stop
       offset="1"
       style="stop-color:#116BB3"
       id="stop53" /></linearGradient><linearGradient
     id="id1"
     gradientUnits="userSpaceOnUse"
     x1="5143.1802"
     y1="944.242"
     x2="5545.75"
     y2="-161.81799"><stop
       offset="0"
       style="stop-color:#49C4F5"
       id="stop11" /><stop
       offset="0.419608"
       style="stop-color:#3089C6"
       id="stop13" /><stop
       offset="1"
       style="stop-color:#164E97"
       id="stop15" /></linearGradient><linearGradient
     id="id5"
     gradientUnits="userSpaceOnUse"
     x1="6391.0498"
     y1="1041.14"
     x2="5657.4102"
     y2="1308.16"><stop
       offset="0"
       style="stop-color:#1366A5"
       id="stop35" /><stop
       offset="0.639216"
       style="stop-color:#474B9C"
       id="stop37" /><stop
       offset="1"
       style="stop-color:#7B3092"
       id="stop39" /></linearGradient><linearGradient
     id="id11"
     gradientUnits="userSpaceOnUse"
     x1="5912.6401"
     y1="936.875"
     x2="5691.2002"
     y2="1411.76"><stop
       offset="0"
       style="stop-color:#0970B0"
       id="stop71" /><stop
       offset="0.380392"
       style="stop-color:#3D55A2"
       id="stop73" /><stop
       offset="1"
       style="stop-color:#723A93"
       id="stop75" /></linearGradient><linearGradient
     id="id6"
     gradientUnits="userSpaceOnUse"
     x1="6018.4902"
     y1="174.517"
     x2="5585.0801"
     y2="607.92297"><stop
       offset="0"
       style="stop-color:#2F318B"
       id="stop42" /><stop
       offset="0.639216"
       style="stop-color:#2D5EA9"
       id="stop44" /><stop
       offset="1"
       style="stop-color:#2A8BC7"
       id="stop46" /></linearGradient><linearGradient
     id="id2"
     gradientUnits="userSpaceOnUse"
     x1="5720.77"
     y1="2317.9099"
     x2="6326.2202"
     y2="1596.35"><stop
       offset="0"
       style="stop-color:#FF179A"
       id="stop18" /><stop
       offset="0.729412"
       style="stop-color:#92298A"
       id="stop20" /><stop
       offset="1"
       style="stop-color:#243C7A"
       id="stop22" /></linearGradient><linearGradient
     id="id0"
     gradientUnits="userSpaceOnUse"
     x1="6046.0698"
     y1="1957.46"
     x2="6925.8398"
     y2="1957.46"><stop
       offset="0"
       style="stop-color:#DD1C95"
       id="stop4" /><stop
       offset="0.560784"
       style="stop-color:#812B88"
       id="stop6" /><stop
       offset="1"
       style="stop-color:#253A7A"
       id="stop8" /></linearGradient></defs><sodipodi:namedview
   pagecolor="#ffffff"
   bordercolor="#666666"
   borderopacity="1"
   objecttolerance="10"
   gridtolerance="10"
   guidetolerance="10"
   inkscape:pageopacity="0"
   inkscape:pageshadow="2"
   inkscape:window-width="1366"
   inkscape:window-height="705"
   id="namedview87"
   showgrid="false"
   inkscape:zoom="0.220625"
   inkscape:cx="2266.5918"
   inkscape:cy="-763.49055"
   inkscape:window-x="-8"
   inkscape:window-y="-8"
   inkscape:window-maximized="1"
   inkscape:current-layer="Layer_2" />
<style
   type="text/css"
   id="style2">
	.st0{fill:#FFFFFF;}
	.st1{fill:#0767B0;}
	.st2{fill:#00A44F;}
	.st3{fill:#EA2127;}
	.st4{fill:#221F1F;}
</style>


<g
   transform="scale(0.06311936)"
   style="clip-rule:evenodd;fill-rule:evenodd;image-rendering:optimizeQuality;shape-rendering:geometricPrecision;text-rendering:geometricPrecision"
   id="Layer_x0020_1"><metadata
     id="CorelCorpID_0Corel-Layer" /><g
     id="_311752376"><path
       class="fil0"
       d="m 4209,2347 c 152,-260 305,-520 457,-780 74,136 148,272 222,409 -226,124 -453,247 -679,371 z"
       id="path81"
       inkscape:connector-curvature="0"
       style="fill:url(#id10)" /><path
       class="fil1"
       d="m 4666,1567 c 303,0 605,0 908,-1 -228,136 -457,273 -685,409 -74,-136 -148,-272 -222,-409 z"
       id="path83"
       inkscape:connector-curvature="0"
       style="fill:url(#id8)" /><path
       class="fil2"
       d="m 4888,1976 c 70,124 140,248 210,372 159,-261 317,-521 476,-782 -228,136 -457,273 -685,409 z"
       id="path85"
       inkscape:connector-curvature="0"
       style="fill:url(#id4)" /><path
       class="fil3"
       d="m 4209,2347 c 226,-124 453,-247 679,-371 70,124 140,248 210,372 -296,0 -592,-1 -889,-1 z"
       id="path87"
       inkscape:connector-curvature="0"
       style="fill:url(#id9)" /><path
       class="fil4"
       d="m 4666,1567 c 150,-261 299,-523 449,-784 153,261 306,523 459,784 -303,0 -605,0 -908,1 z"
       id="path89"
       inkscape:connector-curvature="0"
       style="fill:url(#id3)" /><path
       class="fil5"
       d="m 5115,782 c 153,0 306,0 459,0 0,261 0,523 0,784 -153,-261 -306,-523 -459,-784 z"
       id="path91"
       inkscape:connector-curvature="0"
       style="fill:url(#id7)" /><path
       class="fil6"
       d="m 5115,782 c 153,-261 306,-522 459,-782 0,261 0,522 0,782 -153,0 -306,0 -459,0 z"
       id="path93"
       inkscape:connector-curvature="0"
       style="fill:url(#id1)" /><path
       class="fil7"
       d="m 6473,1567 c -148,-261 -296,-523 -444,-784 -152,261 -304,523 -456,784 300,0 600,0 900,1 z"
       id="path95"
       inkscape:connector-curvature="0"
       style="fill:url(#id5)" /><path
       class="fil8"
       d="m 6029,782 c -152,0 -304,0 -455,0 0,261 0,523 0,784 152,-261 304,-523 456,-784 z"
       id="path97"
       inkscape:connector-curvature="0"
       style="fill:url(#id11)" /><path
       class="fil9"
       d="M 6029,782 C 5877,521 5726,260 5574,0 c 0,261 0,522 0,782 152,0 304,0 455,0 z"
       id="path99"
       inkscape:connector-curvature="0"
       style="fill:url(#id6)" /><path
       class="fil10"
       d="m 5574,1566 c 158,261 315,521 473,782 142,-260 285,-521 427,-781 -300,0 -600,0 -900,-1 z"
       id="path101"
       inkscape:connector-curvature="0"
       style="fill:url(#id2)" /><path
       class="fil11"
       d="m 6473,1567 c -142,260 -285,521 -427,781 293,0 587,-1 880,-1 -151,-260 -302,-520 -452,-780 z"
       id="path103"
       inkscape:connector-curvature="0"
       style="fill:url(#id0)" /><path
       class="fil12"
       d="m 0,69 c 0,201 0,401 0,602 205,0 410,0 615,0 0,559 0,1118 0,1677 233,0 466,0 699,0 0,-559 0,-1118 0,-1677 205,0 410,0 615,0 0,-201 0,-401 0,-602 C 1286,69 644,69 1,69 Z"
       id="path105"
       inkscape:connector-curvature="0"
       style="fill:#0c4c8f" /><path
       class="fil12"
       d="m 2194,69 c 0,759 0,1519 0,2278 237,0 475,0 712,0 0,-224 0,-447 0,-671 47,0 93,0 140,0 111,224 222,447 333,671 252,0 504,0 756,0 -130,-273 -261,-545 -391,-818 14,-6 29,-13 59,-33 30,-20 75,-55 120,-104 45,-49 91,-113 123,-178 32,-66 50,-134 59,-222 9,-88 9,-196 -1,-285 -10,-89 -31,-160 -69,-231 -38,-70 -94,-140 -162,-199 -68,-59 -147,-107 -250,-140 -103,-33 -230,-50 -337,-59 -107,-9 -194,-9 -373,-9 -179,0 -449,0 -719,0 z m 712,577 c 0,157 0,315 0,472 45,0 90,0 139,0 49,0 102,0 154,-9 52,-9 104,-27 140,-55 36,-29 57,-68 68,-111 10,-43 10,-89 -2,-131 -12,-42 -36,-78 -72,-105 -36,-27 -83,-44 -131,-52 -47,-8 -94,-8 -144,-8 -49,0 -101,0 -153,0 z"
       id="path107"
       inkscape:connector-curvature="0"
       style="fill:#0c4c8f" /><path
       class="fil12"
       d="m 6986,69 c 0,759 0,1519 0,2278 233,0 466,0 698,0 0,-359 0,-719 0,-1078 275,359 551,719 826,1078 172,0 343,0 515,0 0,-759 0,-1519 0,-2278 -233,0 -466,0 -699,0 0,350 0,699 0,1049 C 8060,768 7794,419 7529,69 c -181,0 -363,0 -544,0 z"
       id="path109"
       inkscape:connector-curvature="0"
       style="fill:#0c4c8f" /><path
       class="fil12"
       d="m 9611,1535 c -129,150 -259,300 -388,451 58,50 116,101 175,145 59,44 119,81 186,116 67,35 142,68 231,94 90,26 194,44 294,53 99,9 193,9 275,3 82,-7 153,-20 225,-45 72,-25 146,-62 207,-104 61,-42 110,-90 150,-138 39,-48 70,-96 93,-152 24,-56 41,-121 50,-200 9,-80 9,-175 -4,-256 -13,-81 -38,-148 -78,-210 -40,-61 -94,-117 -165,-168 -71,-50 -158,-96 -252,-132 -94,-36 -195,-63 -271,-85 -76,-22 -127,-40 -169,-60 -42,-20 -76,-42 -93,-73 -17,-31 -17,-72 -2,-101 15,-28 46,-44 88,-52 43,-8 98,-7 149,2 51,9 99,26 150,49 51,23 104,52 153,82 48,30 91,61 133,92 111,-157 222,-314 333,-472 -70,-56 -139,-111 -204,-154 -65,-43 -126,-72 -188,-97 -62,-25 -124,-45 -187,-60 -63,-15 -128,-25 -209,-30 -81,-5 -179,-5 -277,10 -98,15 -196,45 -276,83 -81,38 -144,85 -191,129 -46,44 -76,84 -104,131 -28,47 -56,101 -74,151 -18,50 -27,97 -31,148 -4,51 -3,106 12,179 15,73 44,163 86,237 42,74 95,131 163,180 68,50 151,91 240,126 90,35 187,62 266,87 79,25 141,48 184,67 43,19 67,34 84,51 17,17 25,35 30,60 4,24 4,54 -6,78 -11,24 -32,41 -57,53 -25,13 -54,21 -90,25 -36,4 -80,4 -123,-2 -43,-6 -85,-18 -123,-32 -38,-15 -73,-32 -108,-52 -35,-20 -70,-43 -118,-77 -48,-35 -109,-82 -169,-130 z"
       id="path111"
       inkscape:connector-curvature="0"
       style="fill:#0c4c8f" /><path
       class="fil12"
       d="m 11261,69 c 0,173 0,345 0,518 298,0 596,0 894,0 0,587 0,1174 0,1760 186,0 373,0 559,0 0,-587 0,-1174 0,-1760 241,0 483,0 724,0 354,610 709,1220 1063,1829 447,-782 895,-1565 1342,-2347 -201,0 -402,0 -602,0 -246,444 -493,888 -739,1333 -252,-444 -505,-888 -757,-1333 -828,0 -1656,0 -2484,0 z"
       id="path113"
       inkscape:connector-curvature="0"
       style="fill:#0c4c8f" /></g></g></svg>