<?xml version="1.0" encoding="UTF-8" standalone="no"?>
<svg
   xmlns:dc="http://purl.org/dc/elements/1.1/"
   xmlns:cc="http://web.resource.org/cc/"
   xmlns:rdf="http://www.w3.org/1999/02/22-rdf-syntax-ns#"
   xmlns:svg="http://www.w3.org/2000/svg"
   xmlns="http://www.w3.org/2000/svg"
   xmlns:sodipodi="http://sodipodi.sourceforge.net/DTD/sodipodi-0.dtd"
   xmlns:inkscape="http://www.inkscape.org/namespaces/inkscape"
   width="773"
   height="187"
   id="svg2"
   sodipodi:version="0.32"
   inkscape:version="0.45.1"
   version="1.0">
  <g
     inkscape:label="Layer 1"
     inkscape:groupmode="layer"
     id="layer1"
     transform="translate(3.294022,-372.68689)">
    <polyline
       clip-path="url(#SVGID_2251_)"
       points="433.281,418.395 434.182,416.503 424.473,416.503       423.572,418.395     "
       id="polyline27698"
       style="fill:#ef3e33"
       transform="matrix(24.705958,0,0,24.705958,-10468.046,-9917.3964)" />
    <polyline
       clip-path="url(#SVGID_2251_)"
       points="427.067,419.326 429.729,419.326 427.48,424.023       424.817,424.023     "
       id="polyline27700"
       style="fill:#ef3e33"
       transform="matrix(24.705958,0,0,24.705958,-10468.046,-9917.3964)" />
    <path
       clip-path="url(#SVGID_2251_)"
       d="M 194.20547,558.49803 L 216.78672,510.91435 L 385.45429,510.91435 L 399.36375,483.96015 C 399.36375,483.96015 309.16229,483.91074 297.87167,483.96015 C 284.03633,483.96015 253.10447,484.9731 245.61857,469.6554 C 240.67738,459.55067 250.41152,442.42944 250.41152,442.42944 C 250.41152,442.42944 427.10854,442.42944 439.11563,442.42944 C 451.17214,442.42944 461.22746,444.99886 466.93454,452.16359 C 472.27103,458.8589 471.87573,468.51893 463.8463,483.96015 C 459.27569,492.80489 447.21919,519.93203 444.378,525.58969 C 441.51211,531.29677 435.63209,541.22856 420.48734,548.29447 C 405.34259,555.40978 393.06373,558.49803 373.10131,558.49803 C 353.21302,558.49803 194.20547,558.49803 194.20547,558.49803"
       id="path27702"
       style="fill:#ef3e33" />
    <path
       clip-path="url(#SVGID_2251_)"
       d="M 261.05979,419.4529 C 261.05979,419.4529 270.42335,394.154 291.84342,382.9869 C 312.17642,372.31393 353.36125,372.70922 357.09185,372.70922 L 513.77704,372.70922 L 491.6405,419.42819"
       id="path27704"
       style="fill:#ef3e33" />
    <path
       clip-path="url(#SVGID_2251_)"
       d="M 523.80766,419.4529 L 544.85713,372.73393 L 692.87053,372.73393 C 692.87053,372.73393 752.78247,369.37392 763.60368,419.4529 C 768.54488,441.98473 757.82249,460.98361 757.42719,461.67538 C 757.10602,462.41656 711.49882,558.49803 711.49882,558.49803 L 645.41038,558.49803 L 696.5023,452.78123 C 696.5023,452.78123 704.28468,440.15649 699.07172,429.33528 C 693.73524,418.51407 678.02225,419.27996 676.81165,419.42819 C 675.40341,419.4776 523.80766,419.4529 523.80766,419.4529"
       id="path27706"
       style="fill:#ef3e33" />
    <polyline
       clip-path="url(#SVGID_2251_)"
       points="444.476,419.326 447.142,419.326 444.896,424.023       442.229,424.023     "
       id="polyline27708"
       style="fill:#ef3e33"
       transform="matrix(24.705958,0,0,24.705958,-10468.046,-9917.3964)" />
    <polyline
       clip-path="url(#SVGID_2251_)"
       points="453.59,423.399 454.135,423.399 454.135,423.479       453.906,423.479 453.906,424.071 453.818,424.071 453.818,423.479 453.59,423.479     "
       id="polyline27710"
       style="fill:#ef3e33"
       transform="matrix(24.705958,0,0,24.705958,-10468.046,-9917.3964)" />
    <path
       clip-path="url(#SVGID_2251_)"
       d="M 767.48252,559.68392 L 767.48252,549.90036 C 767.48252,549.38153 767.55664,547.30623 767.55664,545.74975 L 767.48252,545.74975 L 762.8378,559.68392 L 760.66368,559.68392 L 755.96954,545.74975 L 755.89543,545.74975 C 755.89543,547.30623 755.96954,549.38153 755.96954,549.87565 L 755.96954,559.65921 L 753.79542,559.65921 L 753.79542,543.08151 L 756.95778,543.08151 L 761.75074,557.08979 L 766.54369,543.08151 L 769.70606,543.08151 L 769.70606,559.65921"
       id="path27712"
       style="fill:#ef3e33" />
  </g>
</svg>
