<?xml version="1.0" encoding="UTF-8" standalone="no"?>
<!-- Created with Inkscape (http://www.inkscape.org/) -->

<svg
   width="864.86029"
   height="360.09586"
   viewBox="0 0 864.86029 360.09586"
   version="1.1"
   id="svg1"
   xml:space="preserve"
   inkscape:export-filename="TV Okey (2019).svg"
   inkscape:export-xdpi="96"
   inkscape:export-ydpi="96"
   xmlns:inkscape="http://www.inkscape.org/namespaces/inkscape"
   xmlns:sodipodi="http://sodipodi.sourceforge.net/DTD/sodipodi-0.dtd"
   xmlns:xlink="http://www.w3.org/1999/xlink"
   xmlns="http://www.w3.org/2000/svg"
   xmlns:svg="http://www.w3.org/2000/svg"><sodipodi:namedview
     id="namedview1"
     pagecolor="#ffffff"
     bordercolor="#999999"
     borderopacity="1"
     inkscape:showpageshadow="2"
     inkscape:pageopacity="0"
     inkscape:pagecheckerboard="0"
     inkscape:deskcolor="#d1d1d1"
     inkscape:document-units="px" /><defs
     id="defs1"><linearGradient
       id="linearGradient10"
       inkscape:collect="always"><stop
         style="stop-color:#fe8f2b;stop-opacity:1;"
         offset="0"
         id="stop10" /><stop
         style="stop-color:#fe6f45;stop-opacity:1;"
         offset="1"
         id="stop11" /></linearGradient><linearGradient
       id="linearGradient8"
       inkscape:collect="always"><stop
         style="stop-color:#fe6251;stop-opacity:1;"
         offset="0"
         id="stop8" /><stop
         style="stop-color:#ff3077;stop-opacity:1;"
         offset="1"
         id="stop9" /></linearGradient><linearGradient
       id="linearGradient3"
       inkscape:collect="always"><stop
         style="stop-color:#46a3c6;stop-opacity:1;"
         offset="0"
         id="stop3" /><stop
         style="stop-color:#9d58b0;stop-opacity:1;"
         offset="1"
         id="stop4" /></linearGradient><linearGradient
       id="linearGradient1"
       inkscape:collect="always"><stop
         style="stop-color:#fecf00;stop-opacity:1;"
         offset="0"
         id="stop1" /><stop
         style="stop-color:#ff9f20;stop-opacity:1;"
         offset="1"
         id="stop2" /></linearGradient><linearGradient
       inkscape:collect="always"
       xlink:href="#linearGradient1"
       id="linearGradient2"
       x1="527.19922"
       y1="480.5918"
       x2="765.83594"
       y2="480.5918"
       gradientUnits="userSpaceOnUse" /><linearGradient
       inkscape:collect="always"
       xlink:href="#linearGradient3"
       id="linearGradient4"
       x1="704.84991"
       y1="666.48206"
       x2="1039.4926"
       y2="666.48206"
       gradientUnits="userSpaceOnUse" /><linearGradient
       inkscape:collect="always"
       xlink:href="#linearGradient8"
       id="linearGradient9"
       x1="972.33008"
       y1="480.5918"
       x2="1207.434"
       y2="480.5918"
       gradientUnits="userSpaceOnUse" /><linearGradient
       inkscape:collect="always"
       xlink:href="#linearGradient10"
       id="linearGradient11"
       x1="798.20166"
       y1="479.34967"
       x2="972.33008"
       y2="480.5918"
       gradientUnits="userSpaceOnUse" /></defs><g
     inkscape:label="Layer 1"
     inkscape:groupmode="layer"
     id="layer1"
     transform="translate(-507.41144,-359.95395)"><g
       id="g2"
       transform="translate(-19.787794,2.3946423)"
       style="stroke:none;stroke-width:20;stroke-dasharray:none;stroke-opacity:1;paint-order:stroke fill markers"
       inkscape:export-filename="TV Okey (2019).svg"
       inkscape:export-xdpi="96"
       inkscape:export-ydpi="96"><path
         id="path1"
         style="opacity:1;fill:url(#linearGradient2);fill-opacity:1;stroke:none;stroke-width:20;stroke-linecap:round;stroke-linejoin:round;stroke-dasharray:none;stroke-opacity:1;paint-order:stroke fill markers"
         d="M 646.51758,361.27344 A 119.3183,119.3183 0 0 0 527.19922,480.5918 119.3183,119.3183 0 0 0 646.51758,599.91016 119.3183,119.3183 0 0 0 765.83594,480.5918 119.3183,119.3183 0 0 0 646.51758,361.27344 Z m 0,34.70117 a 84.61647,84.61647 0 0 1 84.61719,84.61719 84.61647,84.61647 0 0 1 -84.61719,84.61718 84.61647,84.61647 0 0 1 -84.61719,-84.61718 84.61647,84.61647 0 0 1 84.61719,-84.61719 z" /><path
         style="opacity:1;fill:url(#linearGradient11);fill-opacity:1;stroke:none;stroke-width:20;stroke-linecap:round;stroke-linejoin:round;stroke-dasharray:none;stroke-opacity:1;paint-order:stroke fill markers"
         d="m 818.25126,599.19503 c -9.73606,-0.0195 -20.66227,-10.12209 -20.04962,-21.23991 V 380.74421 c 0,-12.30717 10.05759,-22.2641 20.04962,-22.2841 10.02821,-0.0201 20.66806,11.89914 20.21158,22.2841 v 85.06848 l 78.61169,-100.87092 c 7.35443,-9.43687 24.75484,-9.57938 32.23078,-1.83916 6.92062,7.16528 5.12075,22.39399 -2.87014,31.19981 l -59.30569,76.09834 62.09866,93.53128 c 6.88146,10.36467 6.28202,24.3772 -1.65805,31.02775 -8.2087,6.87556 -25.67777,5.82571 -31.88092,-3.93849 l -56.38172,-84.92058 -20.84461,26.74684 v 45.10756 c 0,11.73048 -10.43838,21.25954 -20.21158,21.23991 z"
         id="path6"
         sodipodi:nodetypes="accacccscccacccsa" /><path
         id="path8"
         style="opacity:1;fill:url(#linearGradient9);fill-opacity:1;stroke:none;stroke-width:20;stroke-linecap:round;stroke-linejoin:round;stroke-dasharray:none;stroke-opacity:1;paint-order:stroke fill markers"
         d="m 1091.6484,361.27344 c -65.8977,-10e-6 -119.31835,53.42065 -119.31832,119.31836 -3e-5,65.89771 53.42062,119.31837 119.31832,119.31836 48.9094,-0.004 95.538,-33.67481 113.7304,-75.69528 3.6128,-8.3447 3.205,-20.97778 -7.3129,-26.28111 -13.3641,-6.73842 -25.1137,2.80579 -30.5666,13.16998 -15.3693,29.2123 -40.5811,52.10213 -75.8509,52.10523 -30.8704,-0.0588 -56.2161,-15.86093 -74.0742,-42.00781 0,0 104.8002,-41.16967 156.4688,-59.84179 20.9983,-7.58843 28.3396,-16.31249 23.3045,-36.12011 -13.1896,-39.01314 -60.715,-63.9612 -105.6991,-63.96583 z m 0,34.70117 c 25.0995,0.003 48.9022,11.14893 64.9766,30.42578 l -149.5938,54.18164 c 0,-46.72914 37.8881,-84.60782 84.6172,-84.60742 z"
         sodipodi:nodetypes="cscsscccsaccccc" /><path
         id="rect18"
         style="display:inline;fill:#fe0b92;fill-opacity:1;stroke:none;stroke-width:43.2439;stroke-linecap:round;stroke-linejoin:round;stroke-dasharray:none;stroke-opacity:1;paint-order:stroke fill markers"
         d="m 1370.6465,363.05693 c -6.7962,0.002 -13.4728,3.24575 -17.5996,9.26369 l -56.2578,82.03909 -44.8672,-78.74808 c -5.7796,-10.14422 -18.6519,-13.75392 -28.8632,-8.09373 l -0.2286,0.12499 c -10.2114,5.66019 -13.7777,18.38308 -7.998,28.52735 l 61.3538,101.99569 c 0.3237,0.56814 0.6765,1.10806 1.043,1.63475 v 78.43986 c 10e-5,11.67521 7.7408,21.07423 18.2498,21.07418 8.7025,5e-5 17.562,-4.92259 18.8572,-21.07418 v -78.39847 c 0.508,-0.59041 0.984,-1.21384 1.4453,-1.86328 l 72.5196,-102.08591 c 6.7614,-9.51806 4.1059,-22.60429 -5.5996,-29.09375 l -0.2168,-0.14451 c -3.6395,-2.43355 -7.7602,-3.59911 -11.8379,-3.59769 z"
         sodipodi:nodetypes="scccccccccsccssccs"
         inkscape:label="path15" /><path
         style="opacity:1;fill:url(#linearGradient4);fill-opacity:0.984314;stroke:none;stroke-width:20;stroke-linecap:round;stroke-linejoin:round;stroke-dasharray:none;stroke-opacity:1;paint-order:stroke fill markers"
         d="m 736.36647,624.40445 c 30.96384,30.02526 80.4503,56.86452 133.59215,56.86452 68.40502,0 110.40878,-38.56656 133.79568,-59.82266 7.9511,-7.22674 20.7631,-8.36855 29.2962,-1.83259 8.6526,6.62756 8.8527,21.32663 -1.0054,31.5101 -25.6328,26.47889 -78.05568,66.53135 -160.10027,66.53135 -63.53806,0 -116.82401,-25.43542 -158.1586,-64.56993 -11.15366,-10.56 -11.77514,-21.78334 -2.3759,-30.15277 6.22351,-5.54164 18.97373,-4.3291 24.95614,1.47198 z"
         id="path18"
         sodipodi:nodetypes="ssccscsss" /></g></g></svg>
