<?xml version="1.0" encoding="UTF-8" standalone="no"?>
<svg
   xmlns:dc="http://purl.org/dc/elements/1.1/"
   xmlns:cc="http://creativecommons.org/ns#"
   xmlns:rdf="http://www.w3.org/1999/02/22-rdf-syntax-ns#"
   xmlns:svg="http://www.w3.org/2000/svg"
   xmlns="http://www.w3.org/2000/svg"
   xmlns:sodipodi="http://sodipodi.sourceforge.net/DTD/sodipodi-0.dtd"
   xmlns:inkscape="http://www.inkscape.org/namespaces/inkscape"
   width="396.02057"
   height="132.79958"
   version="1.1"
   id="svg32"
   sodipodi:docname="Vidio (2018).svg"
   inkscape:version="0.92.3 (2405546, 2018-03-11)">
  <metadata
     id="metadata38">
    <rdf:RDF>
      <cc:Work
         rdf:about="">
        <dc:format>image/svg+xml</dc:format>
        <dc:type
           rdf:resource="http://purl.org/dc/dcmitype/StillImage" />
        <dc:title></dc:title>
      </cc:Work>
    </rdf:RDF>
  </metadata>
  <defs
     id="defs36" />
  <sodipodi:namedview
     pagecolor="#ffffff"
     bordercolor="#666666"
     borderopacity="1"
     objecttolerance="10"
     gridtolerance="10"
     guidetolerance="10"
     inkscape:pageopacity="0"
     inkscape:pageshadow="2"
     inkscape:window-width="1366"
     inkscape:window-height="745"
     id="namedview34"
     showgrid="false"
     fit-margin-top="0"
     fit-margin-left="0"
     fit-margin-right="0"
     fit-margin-bottom="0"
     inkscape:zoom="1.7476923"
     inkscape:cx="228.89811"
     inkscape:cy="81.671387"
     inkscape:window-x="-8"
     inkscape:window-y="-8"
     inkscape:window-maximized="1"
     inkscape:current-layer="g30" />
  <style
     type="text/css"
     id="style2">.st0{fill:#1D428A;}.st1{fill:#FB0F3A;}.st2{display:none;fill:#FFFFFF;}.st3{fill:#C8102E;}.st4{fill:#FFFFFF;}</style>
  <g
     id="g7"
     transform="translate(-1,-13.600212)">
    <title
       id="title4">background</title>
    <rect
       id="canvas_background"
       height="157"
       width="652"
       y="-1"
       x="-1"
       style="fill:none" />
  </g>
  <g
     id="g30"
     transform="translate(-1,-13.600212)">
    <title
       id="title9">Layer 1</title>
    <g
       id="Page-1">
      <g
         id="Single-Logo">
        <g
           id="Logo">
          <path
             d="m 351.7,89.799754 c -1.5,13.199996 -10.2,22.799996 -18.1,22.799996 -0.3,0 -0.5,0 -0.8,0 -7.5,-0.2 -9,-6.6 -7.6,-12.3 1.4,-5.499996 3.9,-10.699996 5.4,-12.799996 3,-4.2 7.9,-9 14,-8 6.9,1 7.2,6.4 7.1,10.3 M 214.6,104.99975 c -2.9,4.2 -7.7,6.4 -13,6.4 -4.9,0 -7.8,-3.7 -7.8,-10 0,-7.299996 4.9,-15.399996 9.7,-20.199996 2.7,-2.6 8.7,-6.4 14,-1.3 2.1,2.1 6.4,11.8 -2.9,25.099996 M 396.9,62.799754 c -1.3,-6.8 -7.4,-11.2 -13.5,-10.7 -9.7,0.8 -12.6,9.1 -12.4,12.3 0,0.2 0,2.7 0,2.7 0,0 -3.3,1.1 -6.3,1 -5.4,-5.4 -13.1,-8.4 -21.8,-8.4 -9.8,0 -17.2,3.9 -24.4,11.1 -4.5,4.4 -10.5,14.3 -12.8,20.2 0,0 -6.4,19.499996 -16.1,24.699996 -2.2,1.2 -4.3,0.9 -5.9,0 -3.6,-1.9 -2.2,-5.9 -2.2,-5.9 l 10.4,-36.499996 c 0,0 1.8,-4.8 -1.1,-9 -1.2,-1.7 -3.6,-4.1 -6.5,-4.8 -4,-1 -7.5,0.3 -9.7,1.6 -3.9,2.3 -4.8,7.5 -4.8,7.5 0,0 -1.2,5.1 -3.8,13.9 -0.7,2.2 -3.4,11.1 -3.8,12.3 -1.8,5.599996 -3.3,9.499996 -5.1,12.299996 -2.5,3.9 -6,6.9 -7.8,8 -1.8,1.1 -4,1.5 -5.4,1.4 -2.3,-0.2 -3.8,-1.5 -4.3,-2.4 -1.2,-2.1 -0.9,-3.3 0.6,-8 l 17.5,-60.399996 c 0,0 0.4,-1.7 0.4,-2.7 0,-1 -0.1,-2.3 -0.6,-3.7 -0.9,-2.8 -3.2,-5.8 -8.1,-7 -7.6,-1.8 -11.5,3.1 -12.9,5.3 -0.4,0.6 -0.7,1.4 -0.9,2.1 -1,3.5 -4.3,14.8 -7.7,25.7 -3.9,-3.8 -13,-5.8 -18.9,-5.8 -12.2,0 -21.3,9.1 -27.6,20.2 -2,3.6 -3.5,6.9 -4.8,10.7 -0.9,2.8 -2,5.6 -3.2,8.2 -3.5,7.599996 -7.5,12.799996 -11.3,15.899996 -2.2,1.8 -4.5,2 -6.2,1.7 -0.5,-0.1 -0.9,-0.3 -1.3,-0.5 -1.4,-0.7 -2.1,-1.7 -2.3,-2.7 -0.3,-1.6 0.2,-3.4 0.3,-3.7 2.8,-9.499996 9.6,-33.499996 10.1,-35.299996 0,0 3.2,-9.5 -6.5,-13.9 -1.7,-0.8 -5.8,-1.6 -9.2,0 -4.9,2.3 -5.9,7 -5.9,7 l -11.3,39.599996 c -1.3,5.9 -1,11 1.8,15.5 v 0 c 0.1,0.1 0.2,0.3 0.3,0.4 0.5,0.8 1.1,1.5 1.7,2.2 0.6,0.6 1.3,1.3 2.3,1.9 2.8,2.1 6.1,3.3 9.5,3.8 1.1,0.1 4,0.7 9.2,0 2.6,-0.3 5.2,-1 7.5,-2 1.1,-0.5 4.5,-2.1 7.5,-4.9 2,-1.8 3.9,-3.7 5.5,-5.7 0.5,1.1 1,2.2 1.5,3.2 0.6,1.1 0.8,1.7 1.6,2.6 2.8,3.3 7.1,5.9 11.8,6.5 1.6,0.2 6.1,0.5 10.9,-0.6 6,-1.3 12.4,-4 16.8,-8.3 2.9,6.7 11.9,9.4 15.3,9.4 10.5,0.7 18.7,-1.1 26.9,-9.6 4.2,7 10.8,9.5 17.8,9.6 14,0.2 22.5,-7 28.1,-15 4.5,10.3 14.9,14.5 27.5,14.5 11.1,0 18.6,-3.5 26.3,-12.4 11.4,-14.2 11,-32.599996 10.8,-34.199996 3.1,-0.9 7.7,-1.9 12.9,-3.7 10.4,-3.6 14.5,-10.5 13.6,-17.2"
             class="st1"
             id="Fill-1"
             inkscape:connector-curvature="0"
             style="fill:#fb0f3a" />
          <path
             d="m 135.6,45.599754 c -0.1,-12.6 -1.5,-25.6 -13.5,-30.9 -2.2,-1 -10.5,-2.8 -17.2,2.7 -4.1,3.3 -7,9 -7,13.9 -0.1,14.6 15.1,17.6 15.1,17.6 0,0 -2.1,33.1 -32.3,59.899996 -0.1,0.1 -1.5,1.3 -3.1,2.7 -1.8,1.6 -4.6,0.1 -4.2,-2.3 l 0.3,-2 2.6,-17.599996 c 1.3,-10.8 2.8,-22.7 1.7,-31.6 -0.9,-7.7 -4,-14.6 -8.6,-19.8 -2.9,-3.3 -7.1,-6.8 -11.3,-9.1 -5.5,-3 -12,-4.3 -18.9,-4.3 -21.5,0 -38.2,17.3 -38.2,39.5 0,7.4 2.7,15.2 6.5,20.5 4.7,6.6 10,11.4 16.7,13.4 3.5,1 9.2,0.2 11.8,-3.8 1.4,-2.2 2.3,-4.7 2.4,-6.5 0.3,-4.3 -2.1,-7 -2.4,-7.4 -1.1,-1.4 -2.4,-2.5 -3.5,-3.1 -1.3,-0.7 -2.6,-1.4 -3.8,-2.4 -3.3,-3 -5.2,-6.5 -5.2,-11 0,-8.5 5.5,-16.2 15.6,-16.6 11,-0.4 15.4,8.8 16.2,12.3 1.2,5.4 -0.6,13.7 -1.5,21.4 l -5.1,47.299996 c 0,0 -1.6,9 6.8,15 8.7,6.3 17.5,0.8 18.3,0.3 28.5,-15.8 48.5,-43.699996 57,-71.199996 2.7,-9 4.9,-18.8 4.8,-26.9"
             class="st1"
             id="Fill-3"
             inkscape:connector-curvature="0"
             style="fill:#fb0f3a" />
          <path
             d="m 159.8,54.199754 c 6.5,0 11.4,-4.8 11.4,-11.1 0,-6.4 -5,-11.3 -11.4,-11.3 -6.3,0 -11.3,5 -11.3,11.3 0.1,6.3 5,11.1 11.3,11.1"
             class="st1"
             id="Fill-6"
             inkscape:connector-curvature="0"
             style="fill:#fb0f3a" />
          <path
             d="m 289.1,53.699754 c 6.5,0 11.4,-4.8 11.4,-11.1 0,-6.4 -5,-11.3 -11.4,-11.3 -6.3,0 -11.3,5 -11.3,11.3 0,6.2 5,11.1 11.3,11.1"
             class="st1"
             id="Fill-8"
             inkscape:connector-curvature="0"
             style="fill:#fb0f3a" />
        </g>
      </g>
    </g>
  </g>
</svg>
