<?xml version="1.0" encoding="UTF-8" standalone="no"?>
<!-- Generator: Adobe Illustrator 21.0.2, SVG Export Plug-In . SVG Version: 6.00 Build 0)  -->

<svg
   version="1.1"
   id="Layer_1"
   x="0px"
   y="0px"
   viewBox="0 0 897.52936 168.23371"
   xml:space="preserve"
   sodipodi:docname="Vision_Plus (2021).svg"
   width="897.52936"
   height="168.23372"
   inkscape:version="1.1.1 (3bf5ae0d25, 2021-09-20)"
   xmlns:inkscape="http://www.inkscape.org/namespaces/inkscape"
   xmlns:sodipodi="http://sodipodi.sourceforge.net/DTD/sodipodi-0.dtd"
   xmlns:xlink="http://www.w3.org/1999/xlink"
   xmlns="http://www.w3.org/2000/svg"
   xmlns:svg="http://www.w3.org/2000/svg"
   xmlns:rdf="http://www.w3.org/1999/02/22-rdf-syntax-ns#"
   xmlns:cc="http://creativecommons.org/ns#"
   xmlns:dc="http://purl.org/dc/elements/1.1/"><metadata
   id="metadata42"><rdf:RDF><cc:Work
       rdf:about=""><dc:format>image/svg+xml</dc:format><dc:type
         rdf:resource="http://purl.org/dc/dcmitype/StillImage" /></cc:Work></rdf:RDF></metadata><defs
   id="defs40"><linearGradient
   inkscape:collect="always"
   id="linearGradient36780"><stop
     style="stop-color:#e4252b;stop-opacity:1"
     offset="0"
     id="stop36776" /><stop
     style="stop-color:#f6282f;stop-opacity:0.99607843"
     offset="1"
     id="stop36778" /></linearGradient><linearGradient
   inkscape:collect="always"
   id="linearGradient26224"><stop
     style="stop-color:#00afdb;stop-opacity:1"
     offset="0"
     id="stop26220" /><stop
     style="stop-color:#004fbf;stop-opacity:1"
     offset="1"
     id="stop26222" /></linearGradient><linearGradient
   inkscape:collect="always"
   id="linearGradient23932"><stop
     style="stop-color:#fbed89;stop-opacity:1"
     offset="0"
     id="stop23930" /><stop
     style="stop-color:#fbcb36;stop-opacity:1"
     offset="1"
     id="stop23928" /></linearGradient><linearGradient
   inkscape:collect="always"
   id="linearGradient13325"><stop
     style="stop-color:#3cda42;stop-opacity:1"
     offset="0"
     id="stop13321" /><stop
     style="stop-color:#24a243;stop-opacity:1"
     offset="1"
     id="stop13323" /></linearGradient>
	
	
	
	
<linearGradient
   inkscape:collect="always"
   xlink:href="#linearGradient13325"
   id="linearGradient13319"
   x1="-250"
   y1="607"
   x2="-291.28339"
   y2="670.77435"
   gradientUnits="userSpaceOnUse"
   gradientTransform="rotate(-90,-18.62143,-196.62857)" /><linearGradient
   inkscape:collect="always"
   xlink:href="#linearGradient23932"
   id="linearGradient23934"
   x1="635.23401"
   y1="177.25"
   x2="660.48676"
   y2="258.7674"
   gradientUnits="userSpaceOnUse"
   gradientTransform="translate(178.00714,-215.25)" /><linearGradient
   inkscape:collect="always"
   xlink:href="#linearGradient26224"
   id="linearGradient26218"
   x1="-267"
   y1="739"
   x2="-272.52539"
   y2="656.77435"
   gradientUnits="userSpaceOnUse"
   gradientTransform="rotate(-90,-18.62143,-196.62857)" /><linearGradient
   inkscape:collect="always"
   xlink:href="#linearGradient36780"
   id="linearGradient34448"
   x1="645.23438"
   y1="286.2832"
   x2="654.07373"
   y2="342.23965"
   gradientUnits="userSpaceOnUse"
   gradientTransform="translate(178.00714,-215.25)" /></defs><sodipodi:namedview
   pagecolor="#ffffff"
   bordercolor="#666666"
   borderopacity="1"
   objecttolerance="10"
   gridtolerance="10"
   guidetolerance="10"
   inkscape:pageopacity="0"
   inkscape:pageshadow="2"
   inkscape:window-width="1366"
   inkscape:window-height="715"
   id="namedview38"
   showgrid="false"
   inkscape:zoom="0.35355339"
   inkscape:cx="268.70058"
   inkscape:cy="-77.781746"
   inkscape:window-x="-8"
   inkscape:window-y="-8"
   inkscape:window-maximized="1"
   inkscape:current-layer="Layer_1"
   fit-margin-top="0"
   fit-margin-left="0"
   fit-margin-right="0"
   fit-margin-bottom="0"
   inkscape:pagecheckerboard="0"
   showguides="true"
   inkscape:guide-bbox="true"><sodipodi:guide
     position="728.04234,311.58934"
     orientation="0,-1"
     id="guide1225" /></sodipodi:namedview>
<style
   type="text/css"
   id="style2">
	.st0{fill:#FFFFFF;}
	.st1{fill:url(#SVGID_1_);}
	.st2{fill:#F9D407;}
	.st3{fill:#409143;}
	.st4{fill:#E62B29;}
	.st5{fill:#0054A6;}
</style>
<g
   id="g2212"
   transform="matrix(1.5509487,0,0,1.5801805,0,-96.84774)"><path
     class="st0"
     d="m 421.04985,78.235331 c -2.91609,-2.62448 -6.41539,-4.374133 -11.08114,-5.540569 -4.66575,-1.166436 -10.49791,-1.749654 -17.49654,-1.749654 h -36.1595 c -6.99861,0 -12.8308,0.583218 -17.49653,1.749654 -4.66575,1.166436 -8.45667,2.916089 -11.08115,5.540569 -2.91609,2.62448 -4.66574,5.832179 -5.83218,10.206312 -1.16644,4.082527 -1.74965,9.331487 -1.74965,15.163667 v 31.20215 c 0,6.12379 0.58321,11.08114 1.74965,15.16366 1.16644,4.08254 3.20771,7.58184 5.83218,9.91471 2.91609,2.62448 6.4154,4.37414 11.08115,5.54057 4.66573,1.16644 10.49792,1.74966 17.49653,1.74966 h 36.1595 c 6.99863,0 12.83079,-0.58322 17.49654,-1.74966 4.66575,-1.16643 8.45666,-2.91609 11.08114,-5.54057 2.91609,-2.62448 4.66574,-5.83217 5.83217,-9.91471 1.16644,-4.08252 1.74967,-9.33148 1.74967,-15.16366 V 103.3137 c 0,-5.832178 -0.58323,-11.081141 -1.74967,-15.163665 -0.87482,-4.082525 -2.91608,-7.581832 -5.83217,-9.914704 z m -13.41402,55.405689 c 0,3.20771 -0.2916,5.54058 -0.87482,7.58183 -0.58322,2.04127 -1.45805,3.49931 -2.62448,4.66575 -1.16643,1.16644 -2.91609,2.04127 -4.95736,2.33287 -2.04125,0.29161 -4.66573,0.58322 -7.87343,0.58322 h -34.40985 c -3.2077,0 -6.12379,-0.29161 -8.16505,-0.58322 -2.04127,-0.2916 -3.79092,-1.16643 -4.95735,-2.33287 -1.16644,-1.16644 -2.04127,-2.62448 -2.33288,-4.66575 -0.2916,-2.04125 -0.58321,-4.66573 -0.58321,-7.58183 v -29.16089 c 0,-2.91608 0.29161,-5.540565 0.58321,-7.290218 0.29161,-2.041263 1.16644,-3.499307 2.33288,-4.665742 1.16643,-1.166436 2.91608,-2.041263 4.95735,-2.624481 2.04126,-0.583219 4.95735,-0.583219 8.16505,-0.583219 h 34.70145 c 3.20771,0 5.54058,0.29161 7.87346,0.583219 2.04125,0.583218 3.79091,1.166436 4.95735,2.624481 1.16644,1.166435 2.04125,2.916089 2.62448,4.665742 0.5832,2.041263 0.87482,4.374138 0.87482,7.290218 v 29.16089 z"
     id="path4"
     style="fill:#000000;stroke-width:2.91608"
     inkscape:connector-curvature="0" /><path
     class="st0"
     d="M 70.16197,143.5 25.40845,70.739437 H 0 l 54.28169,87.485913 c 1.73239,2.88733 3.75352,5.19718 6.06338,6.64085 2.30986,1.44366 5.48591,2.30986 9.52817,2.30986 4.04225,0 7.21831,-0.8662 9.52816,-2.30986 2.30986,-1.44367 4.33099,-3.75352 6.06338,-6.64085 l 54.57043,-87.485913 h -25.11972 z"
     id="path6"
     style="fill:#000000;stroke-width:2.88732"
     inkscape:connector-curvature="0" /><rect
     x="145.52113"
     y="70.739433"
     class="st0"
     width="21.077465"
     height="96.436623"
     id="rect8"
     style="fill:#000000;stroke-width:2.88732" /><path
     class="st0"
     d="m 271.60785,115.78169 c -2.30067,-2.02113 -5.1765,-3.46479 -8.91508,-4.33098 -3.73858,-0.8662 -8.05233,-1.44367 -13.22883,-1.44367 H 205.4637 c -3.451,0 -5.75167,-0.57746 -7.18958,-2.02112 -1.43792,-1.15493 -2.01309,-3.17606 -2.01309,-6.35212 v -3.176053 c 0,-3.753521 0.86275,-6.352113 2.30067,-7.795775 1.43792,-1.154929 3.73858,-2.021126 7.18958,-2.021126 h 72.47099 V 70.450705 H 203.7382 c -4.60133,0 -8.6275,0.577464 -12.0785,1.443662 -3.451,0.866197 -6.03924,2.598591 -8.33991,4.619718 -2.01309,2.021127 -3.73859,4.908451 -4.60133,8.373239 -1.15034,3.464789 -1.43792,7.795775 -1.43792,12.704226 V 102.5 c 0,4.04225 0.28758,7.79577 1.15033,10.6831 0.86275,3.17605 2.30066,5.48591 4.31375,7.50704 2.01308,2.02113 4.88891,3.46479 8.05233,4.61972 3.451,0.8662 7.76475,1.44366 12.94125,1.44366 h 44.86299 c 3.73858,0 6.32683,0.57747 8.05233,2.02113 1.7255,1.15493 2.58825,3.46479 2.58825,6.35211 v 5.19718 c 0,3.17606 -0.86275,5.48592 -2.58825,6.64085 -1.7255,1.15493 -4.31375,1.73239 -8.05233,1.73239 h -71.60824 v 18.19014 h 72.47099 c 5.1765,0 9.77783,-0.57746 13.22883,-1.44366 3.73858,-0.8662 6.61441,-2.30986 8.91508,-4.33098 2.30067,-2.02113 4.02616,-4.61972 4.88891,-7.79578 1.15034,-3.17605 1.43792,-6.92958 1.43792,-11.54929 v -7.50705 c 0,-4.33098 -0.57516,-8.0845 -1.43792,-11.26056 -1.15033,-2.88732 -2.58824,-5.19718 -4.88891,-7.21831 z"
     id="path10"
     style="fill:#000000;stroke-width:2.88157"
     inkscape:connector-curvature="0" /><rect
     x="287.47107"
     y="70.739433"
     class="st0"
     width="21.077465"
     height="96.436623"
     id="rect12"
     style="fill:#000000;stroke-width:2.88732" /><path
     id="path14"
     style="fill:#000000;stroke-width:2.88732"
     class="st0"
     d="m 452.05433,70.740234 c -3.17605,0 -5.77575,0.57587 -7.79687,2.019532 -2.02113,1.443662 -3.17578,3.466192 -3.17578,6.353515 v 88.062499 h 19.05664 V 99.613281 l 67.27539,63.521489 c 1.73239,1.44366 3.46488,2.59669 5.19726,3.46289 1.7324,0.57747 3.75264,1.15625 6.0625,1.15625 3.17607,0 5.4867,-0.57782 7.50782,-2.02149 2.02113,-1.44366 2.88672,-3.46456 2.88672,-6.64062 v -1.54688 L 529.43519,139.45703 461.58168,73.916016 c -0.8662,-0.866197 -2.31025,-1.733082 -3.75391,-2.310547 -1.44366,-0.577465 -3.46358,-0.865235 -5.77344,-0.865235 z" /></g>





<linearGradient
   id="SVGID_1_"
   gradientUnits="userSpaceOnUse"
   x1="126.0503"
   y1="41.4119"
   x2="134.23039"
   y2="41.4119"
   gradientTransform="scale(2.8873239)">
	<stop
   offset="5.810041e-02"
   style="stop-color:#ACD9F4"
   id="stop16" />
	<stop
   offset="0.6307"
   style="stop-color:#27AAE1"
   id="stop18" />
	<stop
   offset="1"
   style="stop-color:#27AAE1"
   id="stop20" />
</linearGradient>


<path
   id="rect2198"
   style="fill:url(#linearGradient26218);fill-opacity:1;stroke-width:1.13961"
   d="m 834.78149,57.27539 c 0,-7.62192 6.44394,-13.75799 14.44829,-13.75799 h 33.85131 c 8.00435,0 14.44828,6.13607 14.44828,13.75799 0,7.62193 -6.44393,13.758 -14.44828,13.758 h -33.85131 c -8.00435,0 -14.44829,-6.13607 -14.44829,-13.758 z" /><path
   id="rect1700"
   style="fill:url(#linearGradient23934);stroke-width:1.11205"
   d="m 836.99914,0 c 7.62193,0 13.75799,6.13606 13.75799,13.75799 v 28.98402 c 0,7.62193 -6.13606,13.75799 -13.75799,13.75799 -7.62193,0 -13.75799,-6.13606 -13.75799,-13.75799 V 13.75799 C 823.24115,6.13606 829.37721,0 836.99914,0 Z"
   sodipodi:nodetypes="sssssss" /><path
   id="rect2200"
   style="fill:url(#linearGradient13319);fill-opacity:1;stroke-width:1.13961"
   d="m 790.19464,43.51758 c -8.00435,0 -14.44922,6.13588 -14.44922,13.75781 0,7.62193 6.44487,13.75781 14.44922,13.75781 h 33.04688 v -1.06054 c -1e-5,-6.72622 4.77927,-12.2919 11.14062,-13.50782 0.14297,-0.0273 3.91082,-0.0843 4.07617,-0.10742 -0.4932,-7.19038 -6.73198,-12.83984 -14.41211,-12.83984 z m 48.04883,16.31054 c -0.0486,0.23877 -0.0986,0.47725 -0.15821,0.70899 0.0594,-0.23426 0.11149,-0.47014 0.15821,-0.70899 z m -0.18555,0.81641 c -0.0811,0.30571 -0.1707,0.60345 -0.26758,0.89258 0.0996,-0.29317 0.18839,-0.59103 0.26758,-0.89258 z m -0.33789,1.0918 c -0.0571,0.16224 -0.11867,0.3172 -0.17969,0.47265 0.0627,-0.15619 0.12286,-0.31375 0.17969,-0.47265 z" /><path
   id="rect2196"
   style="fill:url(#linearGradient34448);fill-opacity:1;stroke-width:1.11205"
   d="m 838.47003,56.35742 c -0.14495,0.023 -3.94538,0.0794 -4.08876,0.1068 -6.36135,1.21592 -11.13975,6.78222 -11.13975,13.50844 v 32.23437 c 0,7.62193 6.13588,13.75781 13.75781,13.75781 7.62193,0 13.75781,-6.13588 13.75781,-13.75781 V 71.0332 h -1.52734 c -9.28789,0 -17.93345,-9.88372 -10.75977,-14.67578 z"
   sodipodi:nodetypes="csssssccc" /></svg>
