<?xml version="1.0" encoding="utf-8"?>
<!-- Generator: Adobe Illustrator 23.0.3, SVG Export Plug-In . SVG Version: 6.00 Build 0)  -->
<svg version="1.1" id="Layer_1" xmlns="http://www.w3.org/2000/svg" xmlns:xlink="http://www.w3.org/1999/xlink" x="0px" y="0px"
	 viewBox="0 0 272 120.6" style="enable-background:new 0 0 272 120.6;" xml:space="preserve">
<style type="text/css">
	.st0{fill:#FFFFFF;}
	.st1{fill:url(#SVGID_1_);}
	.st2{fill:url(#SVGID_2_);}
	.st3{fill:url(#SVGID_3_);}
	.st4{fill:url(#SVGID_4_);}
	.st5{fill:url(#SVGID_5_);}
	.st6{fill:url(#SVGID_6_);}
	.st7{fill:url(#SVGID_7_);}
</style>
<g>
	<path class="st0" d="M63.4,0.7c-3.2-1.6-7.1-0.3-8.7,2.9L33.5,46.2L12.3,3.6c-1.6-3.2-5.5-4.5-8.7-2.9C0.4,2.3-0.9,6.2,0.7,9.4
		l27,54.4c1.1,2.2,3.4,3.6,5.8,3.6s4.7-1.4,5.8-3.6l27-54.4C67.9,6.2,66.6,2.3,63.4,0.7z"/>
	<linearGradient id="SVGID_1_" gradientUnits="userSpaceOnUse" x1="-9.329" y1="63.0104" x2="165.3396" y2="-111.6582">
		<stop  offset="0.1" style="stop-color:#1EA5D2"/>
		<stop  offset="0.3771" style="stop-color:#0887EE"/>
		<stop  offset="0.5168" style="stop-color:#0079FF"/>
		<stop  offset="0.75" style="stop-color:#1EA5D2"/>
		<stop  offset="0.8575" style="stop-color:#0399F8"/>
		<stop  offset="0.9726" style="stop-color:#046BF4"/>
	</linearGradient>
	<path class="st1" d="M63.4,0.7c-3.2-1.6-7.1-0.3-8.7,2.9L33.5,46.2L12.3,3.6c-1.6-3.2-5.5-4.5-8.7-2.9C0.4,2.3-0.9,6.2,0.7,9.4
		l27,54.4c1.1,2.2,3.4,3.6,5.8,3.6s4.7-1.4,5.8-3.6l27-54.4C67.9,6.2,66.6,2.3,63.4,0.7z"/>
	<path class="st0" d="M76.9,0c-3.6,0-6.5,2.9-6.5,6.5v54.4c0,3.6,2.9,6.5,6.5,6.5s6.5-2.9,6.5-6.5V6.5C83.4,2.9,80.5,0,76.9,0z"/>
	<linearGradient id="SVGID_2_" gradientUnits="userSpaceOnUse" x1="19.1206" y1="91.46" x2="193.7893" y2="-83.2086">
		<stop  offset="0.1" style="stop-color:#1EA5D2"/>
		<stop  offset="0.3771" style="stop-color:#0887EE"/>
		<stop  offset="0.5168" style="stop-color:#0079FF"/>
		<stop  offset="0.75" style="stop-color:#1EA5D2"/>
		<stop  offset="0.8575" style="stop-color:#0399F8"/>
		<stop  offset="0.9726" style="stop-color:#046BF4"/>
	</linearGradient>
	<path class="st2" d="M76.9,0c-3.6,0-6.5,2.9-6.5,6.5v54.4c0,3.6,2.9,6.5,6.5,6.5s6.5-2.9,6.5-6.5V6.5C83.4,2.9,80.5,0,76.9,0z"/>
	<path class="st0" d="M106.9,24c-3,0-5.5-2.5-5.5-5.5s2.5-5.5,5.5-5.5c1.9,0,3.6,0.9,4.6,2.5c2,3,6,3.8,9,1.9c3-2,3.8-6,1.9-9
		c-3.4-5.2-9.2-8.4-15.5-8.4C96.6,0,88.3,8.3,88.3,18.5c0,10,7.9,18.1,17.8,18.5c0.2,0,0.4,0,0.7,0c4.8,0,8.7,3.9,8.7,8.7
		s-3.9,8.7-8.7,8.7c-3.1,0-5.9-1.7-7.5-4.3c-1.8-3.1-5.8-4.2-8.9-2.4c-3.1,1.8-4.2,5.8-2.4,8.9c3.9,6.7,11.1,10.8,18.7,10.8
		c12,0,21.7-9.7,21.7-21.7S118.8,24,106.9,24z"/>
	<linearGradient id="SVGID_3_" gradientUnits="userSpaceOnUse" x1="34.4248" y1="106.7642" x2="209.0935" y2="-67.9044">
		<stop  offset="0.1" style="stop-color:#1EA5D2"/>
		<stop  offset="0.3771" style="stop-color:#0887EE"/>
		<stop  offset="0.5168" style="stop-color:#0079FF"/>
		<stop  offset="0.75" style="stop-color:#1EA5D2"/>
		<stop  offset="0.8575" style="stop-color:#0399F8"/>
		<stop  offset="0.9726" style="stop-color:#046BF4"/>
	</linearGradient>
	<path class="st3" d="M106.9,24c-3,0-5.5-2.5-5.5-5.5s2.5-5.5,5.5-5.5c1.9,0,3.6,0.9,4.6,2.5c2,3,6,3.8,9,1.9c3-2,3.8-6,1.9-9
		c-3.4-5.2-9.2-8.4-15.5-8.4C96.6,0,88.3,8.3,88.3,18.5c0,10,7.9,18.1,17.8,18.5c0.2,0,0.4,0,0.7,0c4.8,0,8.7,3.9,8.7,8.7
		s-3.9,8.7-8.7,8.7c-3.1,0-5.9-1.7-7.5-4.3c-1.8-3.1-5.8-4.2-8.9-2.4c-3.1,1.8-4.2,5.8-2.4,8.9c3.9,6.7,11.1,10.8,18.7,10.8
		c12,0,21.7-9.7,21.7-21.7S118.8,24,106.9,24z"/>
	<path class="st0" d="M137.7,0c-3.6,0-6.5,2.9-6.5,6.5v54.4c0,3.6,2.9,6.5,6.5,6.5s6.5-2.9,6.5-6.5V6.5C144.2,2.9,141.3,0,137.7,0z"
		/>
	<linearGradient id="SVGID_4_" gradientUnits="userSpaceOnUse" x1="49.5433" y1="121.8826" x2="224.2119" y2="-52.786">
		<stop  offset="0.1" style="stop-color:#1EA5D2"/>
		<stop  offset="0.3771" style="stop-color:#0887EE"/>
		<stop  offset="0.5168" style="stop-color:#0079FF"/>
		<stop  offset="0.75" style="stop-color:#1EA5D2"/>
		<stop  offset="0.8575" style="stop-color:#0399F8"/>
		<stop  offset="0.9726" style="stop-color:#046BF4"/>
	</linearGradient>
	<path class="st4" d="M137.7,0c-3.6,0-6.5,2.9-6.5,6.5v54.4c0,3.6,2.9,6.5,6.5,6.5s6.5-2.9,6.5-6.5V6.5C144.2,2.9,141.3,0,137.7,0z"
		/>
	<path class="st0" d="M180.4,0c-18.3,0-33.3,15.1-33.3,33.7s14.9,33.7,33.3,33.7c18.3,0,33.3-15.1,33.3-33.7S198.7,0,180.4,0z
		 M180.4,54.4c-11.2,0-20.3-9.3-20.3-20.7S169.2,13,180.4,13s20.3,9.3,20.3,20.7S191.6,54.4,180.4,54.4z"/>
	<linearGradient id="SVGID_5_" gradientUnits="userSpaceOnUse" x1="70.8655" y1="143.2049" x2="245.5342" y2="-31.4637">
		<stop  offset="0.1" style="stop-color:#1EA5D2"/>
		<stop  offset="0.3771" style="stop-color:#0887EE"/>
		<stop  offset="0.5168" style="stop-color:#0079FF"/>
		<stop  offset="0.75" style="stop-color:#1EA5D2"/>
		<stop  offset="0.8575" style="stop-color:#0399F8"/>
		<stop  offset="0.9726" style="stop-color:#046BF4"/>
	</linearGradient>
	<path class="st5" d="M180.4,0c-18.3,0-33.3,15.1-33.3,33.7s14.9,33.7,33.3,33.7c18.3,0,33.3-15.1,33.3-33.7S198.7,0,180.4,0z
		 M180.4,54.4c-11.2,0-20.3-9.3-20.3-20.7S169.2,13,180.4,13s20.3,9.3,20.3,20.7S191.6,54.4,180.4,54.4z"/>
	<path class="st0" d="M265.3,0c-3.6,0.1-6.3,3.2-6.3,6.8v34.9L228.5,2.5c-3.7-4.8-11.4-2.1-11.4,3.9v54.5c0,3.7,3,6.6,6.7,6.5
		c3.6-0.1,6.3-3.2,6.3-6.8V25.7l30.6,39.2C264.4,69.7,272,67,272,61V6.5C272,2.8,269-0.1,265.3,0z"/>
	<linearGradient id="SVGID_6_" gradientUnits="userSpaceOnUse" x1="102.9516" y1="175.291" x2="277.6202" y2="0.6223">
		<stop  offset="0.1" style="stop-color:#1EA5D2"/>
		<stop  offset="0.3771" style="stop-color:#0887EE"/>
		<stop  offset="0.5168" style="stop-color:#0079FF"/>
		<stop  offset="0.75" style="stop-color:#1EA5D2"/>
		<stop  offset="0.8575" style="stop-color:#0399F8"/>
		<stop  offset="0.9726" style="stop-color:#046BF4"/>
	</linearGradient>
	<path class="st6" d="M265.3,0c-3.6,0.1-6.3,3.2-6.3,6.8v34.9L228.5,2.5c-3.7-4.8-11.4-2.1-11.4,3.9v54.5c0,3.7,3,6.6,6.7,6.5
		c3.6-0.1,6.3-3.2,6.3-6.8V25.7l30.6,39.2C264.4,69.7,272,67,272,61V6.5C272,2.8,269-0.1,265.3,0z"/>
</g>
<linearGradient id="SVGID_7_" gradientUnits="userSpaceOnUse" x1="0" y1="96.0658" x2="272.0195" y2="96.0658">
	<stop  offset="0" style="stop-color:#D30268"/>
	<stop  offset="0.2" style="stop-color:#D00062"/>
	<stop  offset="0.4" style="stop-color:#E7006C"/>
	<stop  offset="0.6" style="stop-color:#E60D75"/>
	<stop  offset="0.8" style="stop-color:#F00480"/>
	<stop  offset="1" style="stop-color:#B90D63"/>
</linearGradient>
<rect y="71.6" class="st7" width="272" height="49"/>
<g>
	<path class="st0" d="M135.1,116.2c-2.2,0-4-1.8-4-4V80c0-2.2,1.8-4,4-4h8.7c7.1,0,12.9,5.8,12.9,12.9s-5.8,12.9-12.9,12.9h-1
		c-2.2,0-4-1.8-4-4s1.8-4,4-4h1c2.7,0,4.9-2.2,4.9-4.9s-2.2-4.9-4.9-4.9h-4.7v28.2C139.1,114.4,137.3,116.2,135.1,116.2z"/>
	<path class="st0" d="M180.2,116.2c-1,0-2.1-0.4-2.9-1.2l-10.2-10.5v7.7c0,2.2-1.8,4-4,4s-4-1.8-4-4V80c0-2.2,1.8-4,4-4h8.7
		c7.1,0,12.9,5.8,12.9,12.9c0,5.9-4,10.9-9.4,12.4l7.7,8c1.5,1.6,1.5,4.1-0.1,5.7C182.2,115.8,181.2,116.2,180.2,116.2z M167.1,93.9
		h4.7c2.7,0,4.9-2.2,4.9-4.9s-2.2-4.9-4.9-4.9h-4.7V93.9z"/>
	<path class="st0" d="M190.2,116.2c-2.2,0-4-1.8-4-4V80c0-2.2,1.8-4,4-4s4,1.8,4,4v32.2C194.2,114.4,192.4,116.2,190.2,116.2z"/>
	<path class="st0" d="M236.2,116.2c-1.8,0-3.5-1.3-3.9-3.1l-4.6-20.3l-6.1,13.3c-1.4,3-5.6,3-6.9,0l-6.1-13.3l-4.6,20.2
		c-0.5,2-2.4,3.5-4.4,3.3c-2.4-0.3-3.9-2.6-3.4-4.9l7.3-32.3c0.8-3.6,5.7-4.1,7.2-0.8l7.5,16.2l7.5-16.2c1.5-3.3,6.4-2.8,7.2,0.8
		l7.3,32.3c0.5,2.2-0.9,4.3-3,4.8C236.8,116.1,236.5,116.2,236.2,116.2z"/>
	<path class="st0" d="M264,108.2h-14v-8.1h10.1c2.2,0,4-1.8,4-4s-1.8-4-4-4H250V84h14c2.2,0,4-1.8,4-4s-1.8-4-4-4h-18
		c-2.2,0-4,1.8-4,4v32.2c0,2.2,1.8,4,4,4h18c2.2,0,4-1.8,4-4S266.2,108.2,264,108.2z"/>
</g>
</svg>
