<?xml version="1.0" encoding="UTF-8"?>
<svg id="_Слой_1" data-name="Слой 1" xmlns="http://www.w3.org/2000/svg" width="653.63" height="200" viewBox="0 0 653.63 200">
  <defs>
    <style>
      .cls-1 {
        stroke-width: 0px;
      }
    </style>
  </defs>
  <path class="cls-1" d="M226.52,158.65c4.85,1.78,11.86,3.56,18.68,3.56s9.38-2.06,9.38-5.43c0-4.5-3.5-5.72-11.86-8.34-11.55-3.65-19.39-8.82-19.39-19.97,0-12.38,8.88-19.79,25.69-19.79,8.57,0,15.99,1.78,20.33,3.65l-3.5,13.69c-4.75-1.78-9.49-3-15.78-3-5.46,0-8.26,1.5-8.26,4.87,0,3.85,2.58,5.06,9.9,7.5,12.28,4.04,21.35,8.43,21.35,21.29s-10.42,19.88-27.02,19.88c-9.07,0-17.64-1.78-22.81-3.93l3.3-13.97Z"/>
  <path class="cls-1" d="M279.75,109.79h24.14c18.05,0,29.29,8.71,29.29,23.25s-11.24,23.16-29.29,23.16h-5.88v19.23h-18.26v-65.64ZM303.47,123.85h-5.46v18.29h5.46c7.11,0,10.84-2.43,10.84-9.1s-3.71-9.19-10.84-9.19Z"/>
  <path class="cls-1" d="M372.09,176.55c-20.85,0-33.73-13.51-33.73-33.94s12.9-33.94,33.73-33.94,33.63,13.51,33.63,33.94-12.9,33.94-33.63,33.94ZM372.09,161.93c9.49,0,14.76-6.84,14.76-19.32s-5.26-19.32-14.76-19.32-14.86,6.85-14.86,19.32,5.26,19.32,14.86,19.32Z"/>
  <path class="cls-1" d="M451.31,175.44l-8.46-18.19c-1.44-3.19-4.02-4.59-7.74-4.59h-2.79v22.79h-18.37v-65.64h23.1c18.05,0,29,7.5,29,19.97,0,11.34-6.4,15.38-12.7,17.54,3.82,1.41,6.4,4.59,8.36,8.82l8.98,19.32h-19.39ZM432.32,123.86v14.82h3.92c7.74,0,11.03-2.63,11.03-7.41,0-5.82-4.02-7.41-11.03-7.41h-3.92Z"/>
  <path class="cls-1" d="M487.84,123.86h-17.85v-14.06h53.96v14.06h-17.85v51.58h-18.26v-51.58Z"/>
  <path class="cls-1" d="M246.76,76.99h31.34v14.58h-54.22v-13.13c11.02-11.48,23.53-25.48,31.77-40.36h-30.59v-14.58h50.38v12.83c-7.71,15.86-17.33,28.39-28.67,40.65h-.01Z"/>
  <path class="cls-1" d="M287.19,23.5h18.93v68.06h-18.93V23.5Z"/>
  <path class="cls-1" d="M353.08,92.74c-23,0-36.79-13.62-36.79-34.22,0-21.78,14.76-36.17,38.5-36.17,5.14,0,13.79.88,20.1,3.31l-4.07,14.39c-5.35-1.84-10.69-2.52-15.72-2.52-12.83,0-19.26,7.2-19.26,21.01,0,12.55,6.41,19.06,18.19,19.06,2.46,0,4.81-.19,6.85-.58v-11.37h-10.48v-14.11h27.6v35.4c-3.74,1.84-12.19,5.84-24.93,5.84v-.03Z"/>
  <path class="cls-1" d="M423.34,92.74c-23,0-36.79-13.62-36.79-34.22,0-21.78,14.76-36.17,38.5-36.17,5.14,0,13.79.88,20.1,3.31l-4.07,14.39c-5.35-1.84-10.69-2.52-15.72-2.52-12.83,0-19.26,7.2-19.26,21.01,0,12.55,6.42,19.06,18.19,19.06,2.47,0,4.81-.19,6.85-.58v-11.37h-10.48v-14.11h27.6v35.4c-3.74,1.84-12.19,5.84-24.93,5.84l.02-.03Z"/>
  <path class="cls-1" d="M491.8,92.74c-21.6,0-34.98-14-34.98-35.2s13.36-35.2,34.98-35.2,34.86,14,34.86,35.2-13.36,35.2-34.86,35.2ZM491.8,77.57c9.84,0,15.29-7.1,15.29-20.03s-5.45-20.03-15.29-20.03-15.4,7.1-15.4,20.03,5.45,20.03,15.4,20.03Z"/>
  <path class="cls-1" d="M153.99,155.72c-.43-8.69-6.27-22.05-20.95-23.82h-52.25l60.19-57.88c2.54-2.44,8.24-10.69,4.19-19.57-3.27-7.14-8.73-10.19-18.28-10.19H51.89c.31,9.99,5.27,21.92,18.46,24.05h42.85l-63.33,59.76c-2.57,2.48-6.8,10.1-3.46,17.82,3.01,6.96,8.08,9.82,17.51,9.82h90.07ZM23.71,155.01c0,5.83,2.36,11.14,6.19,14.97,3.82,3.83,9.09,6.21,14.91,6.21h109.56c5.82,0,11.08-2.38,14.91-6.21,3.82-3.83,6.18-9.13,6.18-14.97v-89.01c0-11.22,11.28-21.71,23.71-21.72v110.73c0,12.43-5.02,23.68-13.13,31.8-8.11,8.15-19.32,13.18-31.67,13.18H44.8c-12.37,0-23.56-5.03-31.67-13.18-8.11-8.14-13.13-19.39-13.13-31.8V44.99c0-12.43,5.02-23.67,13.13-31.8C21.23,5.03,32.43,0,44.8,0h109.55c6.07,0,11.86,1.22,17.15,3.41,7.25,3.01,11.88,6.73,16.35,11.58,1.78,1.93,3.47,4.78,3.47,8.42,0,3.04-1.16,6.09-3.47,8.42-2.32,2.33-5.35,3.49-8.39,3.49s-6.1-1.2-8.39-3.49c-3.16-3.18-4.9-4.81-8.52-6.34-2.52-1.07-5.3-1.66-8.2-1.66H44.8c-5.82,0-11.09,2.38-14.91,6.21-3.82,3.83-6.18,9.13-6.18,14.97v110.02h0Z"/>
  <path class="cls-1" d="M548.14,175.44v-32.22l21.32-19.97c13.47-12.55,22.88-22.54,28.24-29.95,5.37-7.41,8.05-14.89,8.05-22.46,0-11.2-5.52-16.79-16.55-16.79-8.77,0-18.07,3.55-27.9,10.66l-17.02-27.68c13.62-11.03,30.17-16.56,49.68-16.56,16.64,0,29.41,4.08,38.34,12.25,8.92,8.17,13.39,19.58,13.39,34.25,0,13.01-4.2,25.64-12.59,37.89-8.39,12.25-19.63,24.65-33.69,37.21h54.22v33.35h-105.49Z"/>
</svg>